<svg width="1727" height="378" viewBox="0 0 1727 378" fill="none" xmlns="http://www.w3.org/2000/svg">
<path fill-rule="evenodd" clip-rule="evenodd" d="M1757.57 -0.293278C1757.41 -0.516913 1757.09 -0.566885 1756.87 -0.404892C1756.03 0.204116 1755.2 0.815619 1754.38 1.42956C1754.16 1.59506 1754.11 1.90843 1754.28 2.12948C1754.44 2.35053 1754.76 2.39556 1754.98 2.23006C1755.79 1.61929 1756.62 1.01091 1757.46 0.404965C1757.68 0.242972 1757.73 -0.0696417 1757.57 -0.293278ZM1750.29 5.22001C1750.11 5.00439 1749.8 4.96947 1749.58 5.142C1748.02 6.38892 1746.51 7.64514 1745.03 8.91019C1744.82 9.08973 1744.79 9.40536 1744.97 9.61517C1745.15 9.82498 1745.47 9.84951 1745.68 9.66997C1747.15 8.41215 1748.66 7.16294 1750.21 5.9228C1750.42 5.75027 1750.46 5.43562 1750.29 5.22001ZM1741.23 12.9317C1741.04 12.7283 1740.73 12.7149 1740.53 12.9017C1739.02 14.2805 1737.57 15.6688 1736.16 17.0662C1735.96 17.2604 1735.96 17.577 1736.15 17.7733C1736.35 17.9696 1736.66 17.9714 1736.86 17.7772C1738.26 16.3885 1739.71 15.0086 1741.2 13.6382C1741.41 13.4514 1741.42 13.1351 1741.23 12.9317ZM1732.75 21.2623C1732.55 21.0735 1732.24 21.0837 1732.05 21.2851C1730.64 22.7829 1729.29 24.2901 1727.98 25.8062C1727.8 26.0152 1727.82 26.3309 1728.03 26.5115C1728.24 26.692 1728.55 26.669 1728.73 26.4601C1730.03 24.9543 1731.38 23.4571 1732.78 21.9691C1732.97 21.7676 1732.96 21.4512 1732.75 21.2623ZM1340.27 30.0396C1340.8 28.8691 1342.17 28.2119 1344.93 28.4919C1345.21 28.5197 1345.45 28.3195 1345.48 28.0448C1345.51 27.7701 1345.31 27.5248 1345.03 27.497C1342.16 27.2056 1340.18 27.8387 1339.36 29.6246C1339.25 29.8759 1339.36 30.1725 1339.61 30.287C1339.86 30.4016 1340.16 30.2908 1340.27 30.0396ZM1350.34 29.2081C1350.26 29.4706 1350.4 29.7529 1350.66 29.8386C1352.37 30.3946 1354.28 31.1192 1356.43 32.0206C1356.68 32.1277 1356.97 32.0081 1357.08 31.7536C1357.19 31.4991 1357.07 31.2059 1356.81 31.0988C1354.65 30.1895 1352.71 29.4545 1350.97 28.888C1350.71 28.8023 1350.43 28.9456 1350.34 29.2081ZM1724.86 30.3317C1724.64 30.1599 1724.33 30.1959 1724.16 30.4121C1722.91 31.9861 1721.7 33.5687 1720.55 35.1592C1720.38 35.3825 1720.43 35.6952 1720.66 35.8577C1720.88 36.0201 1721.19 35.9708 1721.36 35.7475C1722.5 34.1685 1723.7 32.5972 1724.94 31.0342C1725.11 30.818 1725.08 30.5035 1724.86 30.3317ZM1361.65 33.8065C1361.53 34.0561 1361.64 34.3542 1361.89 34.4722C1362.87 34.9361 1363.89 35.4281 1364.94 35.9484C1365.84 36.3914 1366.73 36.8348 1367.62 37.2786C1367.87 37.4018 1368.17 37.3014 1368.29 37.0542C1368.42 36.8071 1368.32 36.5069 1368.07 36.3837C1367.18 35.9393 1366.28 35.4954 1365.39 35.0517C1364.33 34.5291 1363.3 34.0347 1362.32 33.5681C1362.07 33.4501 1361.77 33.5568 1361.65 33.8065ZM1340.08 35.113C1339.82 35.2006 1339.68 35.484 1339.77 35.7458C1340.32 37.4045 1341.16 39.2962 1342.24 41.3998C1342.36 41.6455 1342.67 41.7425 1342.91 41.6164C1343.16 41.4904 1343.25 41.189 1343.13 40.9433C1342.06 38.8662 1341.25 37.0231 1340.72 35.4284C1340.63 35.1666 1340.35 35.0253 1340.08 35.113ZM1372.71 39.2789C1372.59 39.525 1372.69 39.826 1372.93 39.9512C1374.71 40.8555 1376.48 41.7623 1378.23 42.6722C1378.48 42.7993 1378.78 42.7035 1378.91 42.4584C1379.04 42.2132 1378.94 41.9114 1378.69 41.7844C1376.94 40.8732 1375.17 39.9653 1373.39 39.0597C1373.14 38.9346 1372.84 39.0327 1372.71 39.2789ZM1717.79 39.9835C1717.56 39.831 1717.25 39.8941 1717.1 40.1244C1716 41.7873 1714.95 43.4578 1713.94 45.135C1713.8 45.3718 1713.87 45.6789 1714.11 45.821C1714.35 45.9631 1714.65 45.8863 1714.8 45.6496C1715.8 43.985 1716.84 42.327 1717.93 40.6764C1718.09 40.4461 1718.02 40.1359 1717.79 39.9835ZM1383.3 44.7582C1383.17 45.0023 1383.27 45.3049 1383.51 45.4339C1385.27 46.3631 1387.02 47.2964 1388.76 48.2345C1389.01 48.3655 1389.31 48.2745 1389.44 48.0314C1389.57 47.7882 1389.48 47.485 1389.24 47.3541C1387.49 46.4147 1385.74 45.4802 1383.98 44.5497C1383.73 44.4207 1383.43 44.514 1383.3 44.7582ZM1345.46 46.164C1345.22 46.3056 1345.14 46.6126 1345.29 46.8496C1346.25 48.4725 1347.32 50.1865 1348.48 51.9863C1348.63 52.2183 1348.94 52.2851 1349.18 52.1354C1349.41 51.9857 1349.47 51.6763 1349.33 51.4442C1348.17 49.6522 1347.11 47.9481 1346.14 46.3369C1346 46.0998 1345.7 46.0224 1345.46 46.164ZM1393.79 50.3977C1393.66 50.6398 1393.75 50.9437 1393.99 51.0765C1395.73 52.0321 1397.47 52.9933 1399.2 53.961C1399.44 54.0957 1399.75 54.0094 1399.88 53.7683C1400.02 53.5272 1399.93 53.2226 1399.69 53.088C1397.95 52.119 1396.22 51.1566 1394.47 50.1998C1394.23 50.067 1393.93 50.1556 1393.79 50.3977ZM1711.62 50.2015C1711.37 50.0705 1711.07 50.1613 1710.94 50.4043C1709.99 52.1715 1709.08 53.945 1708.23 55.7241C1708.11 55.9729 1708.21 56.2717 1708.46 56.3915C1708.71 56.5113 1709.01 56.4068 1709.13 56.158C1709.98 54.3926 1710.87 52.6326 1711.82 50.8789C1711.95 50.6359 1711.86 50.3326 1711.62 50.2015ZM1404.2 56.2011C1404.06 56.4411 1404.15 56.7464 1404.39 56.8828C1406.11 57.862 1407.83 58.8484 1409.55 59.8429C1409.79 59.981 1410.1 59.8992 1410.24 59.6601C1410.37 59.421 1410.29 59.1151 1410.05 58.977C1408.33 57.9814 1406.61 56.9938 1404.88 56.0134C1404.64 55.8769 1404.34 55.961 1404.2 56.2011ZM1351.97 56.3524C1351.74 56.5072 1351.68 56.818 1351.83 57.0467C1352.94 58.684 1354.11 60.3789 1355.33 62.1281C1355.49 62.3545 1355.8 62.4098 1356.03 62.2516C1356.25 62.0934 1356.31 61.7817 1356.15 61.5554C1354.93 59.8096 1353.77 58.1189 1352.66 56.4864C1352.51 56.2576 1352.2 56.1977 1351.97 56.3524ZM1706.4 60.9363C1706.14 60.8281 1705.85 60.9463 1705.74 61.2003C1704.95 63.0532 1704.21 64.9108 1703.52 66.7721C1703.42 67.0309 1703.55 67.3188 1703.81 67.4153C1704.07 67.5117 1704.36 67.3802 1704.46 67.1214C1705.14 65.2742 1705.88 63.4308 1706.66 61.5922C1706.77 61.3382 1706.65 61.0445 1706.4 60.9363ZM1414.52 62.1577C1414.39 62.3959 1414.46 62.7023 1414.7 62.842C1416.41 63.842 1418.11 64.8507 1419.82 65.8687C1420.06 66.0099 1420.37 65.9321 1420.51 65.6949C1420.65 65.4576 1420.57 65.1507 1420.33 65.0094C1418.62 63.9904 1416.92 62.9807 1415.21 61.9796C1414.97 61.8398 1414.66 61.9196 1414.52 62.1577ZM1358.93 66.3539C1358.7 66.5144 1358.65 66.8267 1358.81 67.0514C1359.97 68.6676 1361.16 70.3236 1362.39 72.017C1362.55 72.2406 1362.86 72.2904 1363.08 72.1282C1363.31 71.9661 1363.36 71.6535 1363.2 71.4299C1361.97 69.7381 1360.78 68.0842 1359.62 66.4703C1359.46 66.2455 1359.15 66.1935 1358.93 66.3539ZM1424.76 68.2419C1424.61 68.4783 1424.69 68.7856 1424.93 68.9283C1426.62 69.9495 1428.32 70.9805 1430.02 72.022C1430.26 72.166 1430.56 72.0917 1430.71 71.8561C1430.85 71.6204 1430.78 71.3127 1430.54 71.1687C1428.84 70.1262 1427.14 69.0943 1425.44 68.0721C1425.21 67.9295 1424.9 68.0054 1424.76 68.2419ZM1702.18 72.1086C1701.92 72.0239 1701.64 72.1684 1701.55 72.4313C1700.94 74.3496 1700.37 76.2707 1699.84 78.1935C1699.77 78.4599 1699.92 78.7349 1700.19 78.8077C1700.46 78.8805 1700.73 78.7235 1700.81 78.4572C1701.33 76.5485 1701.89 74.6417 1702.51 72.7377C1702.59 72.4749 1702.45 72.1932 1702.18 72.1086ZM1434.94 74.4541C1434.79 74.689 1434.86 74.9971 1435.1 75.1423C1436.77 76.1767 1438.45 77.2217 1440.15 78.2781C1440.38 78.4244 1440.69 78.353 1440.84 78.1188C1440.98 77.8845 1440.91 77.5761 1440.68 77.4299C1438.98 76.3727 1437.3 75.3268 1435.62 74.2916C1435.39 74.1464 1435.08 74.2192 1434.94 74.4541ZM9.89478 76.1103C9.87268 76.3855 10.0778 76.6266 10.353 76.6488C12.1327 76.7923 14.174 77.0496 16.4899 77.425C16.7625 77.4691 17.0192 77.284 17.0634 77.0114C17.1075 76.7388 16.9224 76.482 16.6498 76.4378C14.3148 76.0594 12.2461 75.7982 10.4333 75.6521C10.1581 75.6299 9.91699 75.835 9.89478 76.1103ZM4.93835 76.1183C4.89844 75.845 4.64441 75.656 4.37122 75.696C2.84619 75.9193 1.67725 76.3555 0.92688 77.0622C0.14624 77.7973 -0.119141 78.7647 0.0477295 79.8722C0.0888672 80.1453 0.343506 80.3333 0.616577 80.2922C0.889648 80.2511 1.07764 79.9964 1.0365 79.7233C0.909668 78.8813 1.11096 78.2625 1.61243 77.7902C2.14417 77.2894 3.07288 76.8968 4.51611 76.6854C4.78931 76.6454 4.97839 76.3915 4.93835 76.1183ZM1366.09 76.2513C1365.87 76.4146 1365.82 76.7275 1365.98 76.9502C1367.15 78.5418 1368.35 80.1625 1369.56 81.8107C1369.73 82.0328 1370.04 82.0799 1370.26 81.9158C1370.48 81.7517 1370.53 81.4387 1370.37 81.2166C1369.15 79.5691 1367.96 77.9494 1366.79 76.3589C1366.63 76.1362 1366.31 76.088 1366.09 76.2513ZM21.7684 77.8789C21.7135 78.1496 21.8884 78.4135 22.1591 78.4683C24.0234 78.8464 26.0187 79.2805 28.1482 79.7717C28.4174 79.8337 28.6858 79.6659 28.7478 79.3968C28.8099 79.1277 28.6421 78.8593 28.3729 78.7972C26.236 78.3043 24.2321 77.8683 22.3578 77.4883C22.0872 77.4334 21.8232 77.6083 21.7684 77.8789ZM33.5524 80.5534C33.4855 80.8213 33.6484 81.0927 33.9164 81.1596C35.8356 81.6387 37.8453 82.1561 39.9478 82.7123C40.2147 82.7829 40.4884 82.6237 40.559 82.3568C40.6296 82.0898 40.4705 81.8161 40.2035 81.7455C38.097 81.1883 36.0826 80.6697 34.1586 80.1894C33.8906 80.1225 33.6191 80.2855 33.5524 80.5534ZM1445.04 80.754C1444.89 80.9876 1444.96 81.2963 1445.19 81.4435C1446.87 82.4967 1448.55 83.5613 1450.24 84.638C1450.48 84.786 1450.79 84.7171 1450.93 84.484C1451.08 84.2509 1451.01 83.9419 1450.78 83.7938C1449.08 82.7165 1447.4 81.6513 1445.73 80.5974C1445.49 80.4502 1445.18 80.5203 1445.04 80.754ZM45.199 83.6104C45.1256 83.8767 45.282 84.1519 45.5482 84.2252C47.4836 84.7582 49.488 85.3199 51.5625 85.9107C51.8281 85.9863 52.1047 85.8323 52.1803 85.5667C52.256 85.3011 52.1021 85.0245 51.8364 84.9489C49.7593 84.3574 47.7521 83.7949 45.8137 83.2611C45.5475 83.1878 45.2722 83.3442 45.199 83.6104ZM1698.99 83.6205C1698.72 83.5594 1698.45 83.7281 1698.39 83.9974C1697.94 85.9618 1697.54 87.9267 1697.18 89.891C1697.13 90.1626 1697.31 90.4231 1697.59 90.4727C1697.86 90.5224 1698.12 90.3425 1698.17 90.0708C1698.52 88.1202 1698.92 86.1691 1699.37 84.2188C1699.43 83.9495 1699.26 83.6817 1698.99 83.6205ZM2.98096 84.5098C2.76379 84.6804 2.72607 84.9947 2.89673 85.2118C3.97705 86.587 5.34814 88.1031 6.98389 89.7532C7.17834 89.9493 7.495 89.9507 7.69104 89.7563C7.88721 89.5619 7.88855 89.2453 7.69409 89.0492C6.0752 87.4162 4.73218 85.9295 3.68298 84.594C3.51245 84.3769 3.19812 84.3392 2.98096 84.5098ZM1373.37 86.1123C1373.15 86.2769 1373.1 86.59 1373.27 86.8118C1374.43 88.3845 1375.62 89.9796 1376.82 91.5956C1376.99 91.8171 1377.3 91.8631 1377.52 91.6983C1377.74 91.5335 1377.79 91.2202 1377.62 90.9987C1376.42 89.3829 1375.24 87.7882 1374.07 86.2158C1373.9 85.9941 1373.59 85.9477 1373.37 86.1123ZM56.9526 86.944C56.8751 87.209 57.0272 87.4867 57.2924 87.5641C59.1301 88.101 61.0175 88.6584 62.9553 89.2365C63.22 89.3155 63.4984 89.1649 63.5774 88.9003C63.6564 88.6357 63.5059 88.3572 63.2412 88.2783C61.3016 87.6997 59.4125 87.1417 57.5728 86.6043C57.3077 86.5268 57.03 86.6789 56.9526 86.944ZM1455.09 87.1366C1454.95 87.3692 1455.01 87.6784 1455.25 87.8272C1456.9 88.8876 1458.58 89.9598 1460.26 91.0443C1460.49 91.1937 1460.8 91.1266 1460.95 90.8944C1461.1 90.6622 1461.03 90.3528 1460.8 90.2034C1459.12 89.1184 1457.44 88.0457 1455.79 86.9848C1455.55 86.836 1455.24 86.904 1455.09 87.1366ZM68.5878 90.4093C68.5074 90.6735 68.6565 90.9528 68.9208 91.0331C69.9404 91.3429 70.9729 91.6579 72.0182 91.9782C72.8904 92.2455 73.7748 92.5154 74.6711 92.788C74.9353 92.8684 75.2147 92.7193 75.295 92.4551C75.3754 92.1909 75.2263 91.9116 74.9622 91.8313C74.0664 91.5589 73.1826 91.2892 72.3112 91.0221C71.5992 90.804 70.8932 90.5882 70.1931 90.3749L69.2114 90.0762C68.9473 89.996 68.668 90.1451 68.5878 90.4093ZM11.3832 93.2706C11.1973 93.4749 11.2122 93.7911 11.4165 93.977C12.8512 95.2826 14.4091 96.6537 16.0823 98.0881C16.2919 98.2678 16.6075 98.2436 16.7872 98.0339C16.9669 97.8243 16.9427 97.5086 16.733 97.3289C15.0659 95.8997 13.5156 94.5352 12.0895 93.2374C11.8853 93.0515 11.569 93.0664 11.3832 93.2706ZM1465.14 93.5953C1464.99 93.8271 1465.05 94.1367 1465.28 94.2867C1466.93 95.3499 1468.59 96.425 1470.26 97.5124C1470.49 97.6628 1470.8 97.5971 1470.95 97.3656C1471.1 97.1341 1471.03 96.8244 1470.8 96.6739C1469.13 95.5862 1467.47 94.5107 1465.83 93.4471C1465.6 93.2971 1465.29 93.3634 1465.14 93.5953ZM79.8621 93.834C79.7828 94.0985 79.9329 94.3772 80.1974 94.4565C82.0873 95.0232 84.0247 95.6003 86.0088 96.1876C86.2736 96.2659 86.5518 96.1148 86.6301 95.85C86.7085 95.5852 86.5574 95.3071 86.2926 95.2287C84.3096 94.6417 82.3733 94.0649 80.4846 93.4986C80.2201 93.4193 79.9414 93.5695 79.8621 93.834ZM1696.79 95.3694C1696.52 95.3308 1696.27 95.5213 1696.23 95.7947C1695.95 97.7881 1695.71 99.7795 1695.51 101.768C1695.48 102.042 1695.68 102.288 1695.95 102.315C1696.23 102.343 1696.47 102.143 1696.5 101.868C1696.7 99.8926 1696.94 97.9143 1697.22 95.9343C1697.26 95.6608 1697.07 95.4079 1696.79 95.3694ZM1380.58 95.806C1380.36 95.9709 1380.31 96.2841 1380.48 96.5056C1381.68 98.1217 1382.9 99.7566 1384.13 101.409C1384.29 101.631 1384.6 101.677 1384.83 101.512C1385.05 101.347 1385.09 101.034 1384.93 100.812C1383.7 99.1595 1382.48 97.5245 1381.28 95.9084C1381.11 95.6869 1380.8 95.6411 1380.58 95.806ZM91.7609 97.3595C91.6833 97.6245 91.8353 97.9023 92.1003 97.9798C93.9513 98.5212 95.8386 99.0705 97.7618 99.6275C98.027 99.7044 98.3043 99.5516 98.3811 99.2864C98.458 99.0211 98.3052 98.7438 98.04 98.667C96.1176 98.1102 94.2311 97.5611 92.3811 97.02C92.1161 96.9425 91.8384 97.0945 91.7609 97.3595ZM1475.11 100.077C1474.96 100.308 1475.03 100.618 1475.26 100.769C1476.91 101.843 1478.57 102.93 1480.25 104.029C1480.48 104.181 1480.79 104.116 1480.94 103.885C1481.09 103.654 1481.03 103.344 1480.8 103.193C1479.12 102.093 1477.45 101.006 1475.81 99.931C1475.57 99.7801 1475.26 99.8453 1475.11 100.077ZM103.026 100.626C102.95 100.891 103.103 101.168 103.368 101.244C105.27 101.79 107.203 102.343 109.168 102.902C109.434 102.978 109.71 102.824 109.786 102.559C109.862 102.293 109.708 102.016 109.442 101.941C107.478 101.381 105.545 100.829 103.644 100.283C103.379 100.207 103.102 100.36 103.026 100.626ZM20.5173 101.169C20.3414 101.382 20.3713 101.697 20.5841 101.873C22.1042 103.13 23.6973 104.428 25.3589 105.765C25.574 105.939 25.8888 105.905 26.0619 105.689C26.2351 105.474 26.2012 105.16 25.986 104.986C24.3271 103.651 22.7377 102.356 21.2213 101.103C21.0084 100.927 20.6932 100.957 20.5173 101.169ZM114.813 103.984C114.738 104.25 114.893 104.526 115.159 104.601C117.113 105.154 119.096 105.712 121.107 106.276C121.373 106.351 121.649 106.196 121.724 105.93C121.798 105.664 121.643 105.388 121.378 105.313C119.366 104.749 117.384 104.191 115.431 103.639C115.165 103.564 114.889 103.719 114.813 103.984ZM1387.82 105.548C1387.6 105.713 1387.56 106.026 1387.72 106.248C1388.93 107.876 1390.15 109.521 1391.38 111.179C1391.54 111.401 1391.85 111.448 1392.08 111.284C1392.3 111.12 1392.34 110.807 1392.18 110.585C1390.95 108.925 1389.73 107.281 1388.52 105.652C1388.36 105.43 1388.05 105.384 1387.82 105.548ZM1485.07 106.592C1484.92 106.823 1484.99 107.133 1485.22 107.284C1486.87 108.37 1488.54 109.467 1490.23 110.577C1490.46 110.729 1490.77 110.665 1490.92 110.434C1491.08 110.203 1491.01 109.893 1490.78 109.742C1489.09 108.632 1487.42 107.534 1485.77 106.448C1485.53 106.297 1485.22 106.361 1485.07 106.592ZM126.33 107.218C126.256 107.484 126.411 107.759 126.677 107.833C128.558 108.358 130.461 108.887 132.388 109.42C132.654 109.494 132.929 109.338 133.003 109.072C133.077 108.806 132.921 108.53 132.655 108.457C130.729 107.923 128.826 107.394 126.946 106.87C126.68 106.796 126.404 106.952 126.33 107.218ZM1695.55 107.259C1695.28 107.242 1695.04 107.451 1695.02 107.727C1694.89 109.736 1694.8 111.74 1694.75 113.738C1694.74 114.014 1694.96 114.243 1695.24 114.251C1695.51 114.258 1695.74 114.041 1695.75 113.765C1695.8 111.778 1695.89 109.786 1696.02 107.79C1696.04 107.514 1695.83 107.277 1695.55 107.259ZM29.9473 108.787C29.776 109.004 29.8127 109.318 30.0294 109.49C31.5887 110.722 33.1979 111.985 34.8542 113.277C35.072 113.447 35.3862 113.408 35.556 113.19C35.7258 112.972 35.687 112.658 35.4692 112.488C33.8145 111.198 32.2069 109.936 30.6495 108.705C30.433 108.534 30.1185 108.571 29.9473 108.787ZM137.887 110.421C137.814 110.688 137.97 110.963 138.236 111.036C140.208 111.58 142.204 112.128 144.221 112.68C144.487 112.753 144.762 112.597 144.835 112.33C144.908 112.064 144.752 111.789 144.485 111.716C142.468 111.163 140.474 110.615 138.502 110.072C138.236 109.999 137.96 110.155 137.887 110.421ZM1495.03 113.135C1494.88 113.365 1494.94 113.675 1495.17 113.827C1496.82 114.912 1498.49 116.008 1500.17 117.116C1500.4 117.268 1500.71 117.204 1500.86 116.973C1501.01 116.743 1500.95 116.433 1500.72 116.281C1499.04 115.173 1497.37 114.076 1495.72 112.992C1495.49 112.84 1495.18 112.904 1495.03 113.135ZM149.83 113.695C149.757 113.962 149.914 114.236 150.181 114.309C152.032 114.814 153.901 115.322 155.787 115.833C156.053 115.906 156.328 115.748 156.4 115.482C156.473 115.215 156.315 114.941 156.049 114.868C154.163 114.357 152.294 113.849 150.444 113.344C150.177 113.272 149.902 113.429 149.83 113.695ZM1395.09 115.365C1394.87 115.528 1394.82 115.841 1394.98 116.064C1396.17 117.678 1397.37 119.305 1398.57 120.944C1398.73 121.167 1399.04 121.215 1399.26 121.052C1399.49 120.889 1399.54 120.576 1399.37 120.353C1398.17 118.714 1396.98 117.086 1395.79 115.471C1395.62 115.248 1395.31 115.201 1395.09 115.365ZM39.4836 116.238C39.3148 116.457 39.3551 116.771 39.5736 116.939C41.1682 118.171 42.8002 119.427 44.4675 120.706C44.6866 120.874 45.0005 120.833 45.1686 120.614C45.3367 120.395 45.2953 120.081 45.0762 119.913C43.4095 118.634 41.7784 117.379 40.1849 116.148C39.9664 115.979 39.6525 116.02 39.4836 116.238ZM161.146 116.766C161.074 117.033 161.232 117.307 161.498 117.379C163.419 117.898 165.358 118.42 167.313 118.946C167.58 119.018 167.854 118.86 167.926 118.593C167.998 118.327 167.84 118.052 167.573 117.981C165.618 117.455 163.68 116.933 161.759 116.414C161.492 116.342 161.218 116.5 161.146 116.766ZM1695.19 119.21C1694.91 119.212 1694.69 119.438 1694.69 119.714C1694.71 121.727 1694.75 123.733 1694.83 125.73C1694.84 126.006 1695.08 126.221 1695.35 126.21C1695.63 126.199 1695.84 125.967 1695.83 125.691C1695.75 123.704 1695.71 121.709 1695.69 119.707C1695.69 119.431 1695.46 119.208 1695.19 119.21ZM1504.99 119.692C1504.83 119.923 1504.9 120.233 1505.13 120.385C1505.98 120.948 1506.84 121.513 1507.7 122.082L1510.11 123.667C1510.34 123.819 1510.65 123.755 1510.8 123.525C1510.95 123.294 1510.89 122.984 1510.66 122.832C1508.98 121.726 1507.32 120.633 1505.68 119.55C1505.45 119.398 1505.14 119.462 1504.99 119.692ZM172.877 119.922C172.806 120.188 172.964 120.463 173.231 120.534C174.503 120.875 175.782 121.216 177.068 121.56L179.249 122.142C179.516 122.213 179.79 122.054 179.861 121.788C179.932 121.521 179.774 121.247 179.507 121.176C177.485 120.636 175.479 120.101 173.49 119.568C173.223 119.497 172.949 119.655 172.877 119.922ZM184.677 123.069C184.606 123.336 184.765 123.61 185.031 123.68C186.909 124.179 188.801 124.681 190.705 125.185C190.972 125.255 191.246 125.096 191.317 124.829C191.387 124.562 191.228 124.288 190.961 124.218C189.057 123.714 187.166 123.213 185.288 122.714C185.021 122.643 184.747 122.802 184.677 123.069ZM49.0842 123.61C48.9166 123.83 48.9587 124.143 49.1782 124.311C50.7776 125.532 52.4055 126.773 54.0603 128.033C54.28 128.2 54.5938 128.157 54.761 127.938C54.9282 127.718 54.8857 127.404 54.666 127.237C53.0115 125.977 51.3839 124.737 49.7852 123.516C49.5657 123.349 49.2518 123.391 49.0842 123.61ZM1402.29 125.196C1402.07 125.358 1402.02 125.671 1402.18 125.894C1403.36 127.521 1404.55 129.159 1405.74 130.806C1405.9 131.03 1406.21 131.08 1406.44 130.919C1406.66 130.757 1406.71 130.444 1406.55 130.221C1405.36 128.573 1404.17 126.934 1402.99 125.306C1402.83 125.083 1402.51 125.033 1402.29 125.196ZM196.104 126.094C196.034 126.361 196.193 126.634 196.46 126.705C198.392 127.214 200.337 127.726 202.295 128.24C202.562 128.31 202.835 128.151 202.906 127.884C202.976 127.617 202.816 127.343 202.549 127.273C200.591 126.759 198.647 126.247 196.715 125.738C196.448 125.667 196.175 125.827 196.104 126.094ZM1514.94 126.254C1514.79 126.485 1514.85 126.795 1515.08 126.947C1516.72 128.027 1518.38 129.119 1520.05 130.222C1520.28 130.374 1520.59 130.31 1520.74 130.079C1520.9 129.849 1520.83 129.539 1520.6 129.387C1518.93 128.284 1517.27 127.193 1515.63 126.112C1515.4 125.96 1515.09 126.024 1514.94 126.254ZM207.851 129.181C207.781 129.448 207.941 129.721 208.208 129.791C210.192 130.311 212.189 130.833 214.199 131.357C214.466 131.427 214.739 131.267 214.809 131C214.878 130.732 214.718 130.459 214.451 130.39C212.442 129.865 210.445 129.343 208.461 128.824C208.194 128.754 207.921 128.914 207.851 129.181ZM58.7374 130.962C58.5704 131.182 58.6132 131.495 58.833 131.662C60.4153 132.865 62.0194 134.083 63.644 135.317C63.864 135.484 64.1776 135.442 64.3446 135.222C64.5117 135.002 64.4689 134.688 64.2489 134.521L63.7756 134.162C62.3126 133.05 60.8665 131.952 59.4381 130.866C59.2183 130.699 58.9045 130.742 58.7374 130.962ZM1695.62 131.161C1695.35 131.18 1695.14 131.419 1695.16 131.695C1695.3 133.705 1695.47 135.705 1695.66 137.693C1695.69 137.968 1695.94 138.169 1696.21 138.142C1696.49 138.115 1696.69 137.87 1696.66 137.595C1696.46 135.616 1696.3 133.626 1696.16 131.625C1696.14 131.35 1695.9 131.142 1695.62 131.161ZM219.69 132.271C219.62 132.538 219.781 132.811 220.048 132.881C221.934 133.372 223.83 133.864 225.738 134.359C226.005 134.428 226.278 134.268 226.347 134C226.417 133.733 226.256 133.46 225.989 133.391C224.082 132.896 222.185 132.404 220.299 131.913C220.032 131.844 219.759 132.004 219.69 132.271ZM1524.89 132.812C1524.74 133.043 1524.8 133.353 1525.04 133.505C1526.67 134.584 1528.33 135.674 1530 136.775C1530.23 136.926 1530.54 136.863 1530.69 136.632C1530.85 136.401 1530.78 136.091 1530.55 135.939C1528.88 134.839 1527.22 133.749 1525.59 132.67C1525.35 132.518 1525.04 132.582 1524.89 132.812ZM231.133 135.239C231.064 135.507 231.224 135.779 231.492 135.849C232.858 136.202 234.23 136.556 235.606 136.911L237.308 137.35C237.576 137.419 237.849 137.258 237.917 136.991C237.986 136.723 237.826 136.451 237.558 136.382L234.829 135.678C233.797 135.412 232.768 135.146 231.742 134.88C231.475 134.811 231.202 134.972 231.133 135.239ZM1409.4 135.034C1409.17 135.194 1409.12 135.507 1409.28 135.731C1410.46 137.382 1411.64 139.041 1412.83 140.707C1412.99 140.932 1413.3 140.986 1413.52 140.826C1413.75 140.666 1413.8 140.354 1413.64 140.129C1412.46 138.461 1411.28 136.801 1410.09 135.149C1409.93 134.925 1409.62 134.873 1409.4 135.034ZM242.828 138.255C242.759 138.522 242.92 138.795 243.188 138.863C244.181 139.119 245.177 139.374 246.175 139.631C247.157 139.883 248.141 140.135 249.127 140.388C249.395 140.456 249.667 140.295 249.736 140.028C249.805 139.76 249.643 139.488 249.376 139.419C247.386 138.909 245.406 138.401 243.436 137.895C243.169 137.826 242.896 137.987 242.828 138.255ZM68.4333 138.328C68.2662 138.548 68.309 138.862 68.5288 139.029C70.0939 140.218 71.6758 141.421 73.2738 142.637C73.4935 142.804 73.8073 142.762 73.9745 142.542C74.1417 142.322 74.0991 142.009 73.8794 141.841C72.2812 140.625 70.699 139.422 69.1339 138.233C68.9141 138.065 68.6005 138.108 68.4333 138.328ZM1534.84 139.361C1534.69 139.592 1534.76 139.902 1534.99 140.053C1536.63 141.133 1538.29 142.222 1539.96 143.322C1540.19 143.473 1540.5 143.409 1540.66 143.178C1540.81 142.947 1540.74 142.637 1540.51 142.486C1538.84 141.386 1537.18 140.297 1535.54 139.218C1535.31 139.066 1535 139.13 1534.84 139.361ZM254.767 141.315C254.699 141.583 254.86 141.855 255.128 141.923C257.03 142.409 258.942 142.897 260.862 143.387C261.13 143.455 261.402 143.293 261.47 143.026C261.538 142.758 261.377 142.486 261.109 142.418C259.189 141.928 257.278 141.441 255.375 140.954C255.108 140.886 254.836 141.048 254.767 141.315ZM1696.76 143.064C1696.49 143.099 1696.3 143.349 1696.33 143.623C1696.58 145.627 1696.86 147.616 1697.16 149.591C1697.2 149.864 1697.45 150.052 1697.73 150.01C1698 149.969 1698.19 149.714 1698.15 149.441C1697.85 147.475 1697.57 145.493 1697.32 143.498C1697.29 143.224 1697.04 143.03 1696.76 143.064ZM266.235 144.238C266.167 144.506 266.329 144.778 266.596 144.846C268.516 145.334 270.445 145.824 272.382 146.315C272.649 146.382 272.921 146.22 272.989 145.953C273.057 145.685 272.895 145.413 272.627 145.345C271.568 145.077 270.511 144.808 269.456 144.541L266.843 143.877C266.575 143.809 266.303 143.971 266.235 144.238ZM1416.45 144.976C1416.22 145.134 1416.17 145.446 1416.33 145.672C1417.49 147.326 1418.65 148.986 1419.8 150.653C1419.96 150.88 1420.27 150.936 1420.5 150.779C1420.72 150.621 1420.78 150.31 1420.62 150.083C1419.47 148.415 1418.31 146.753 1417.15 145.098C1416.99 144.872 1416.68 144.817 1416.45 144.976ZM78.02 145.624C77.8525 145.844 77.8948 146.158 78.1144 146.325C79.7085 147.541 81.3169 148.769 82.9385 150.009C83.1578 150.177 83.4716 150.135 83.6394 149.916C83.8071 149.697 83.7654 149.383 83.546 149.215C81.9241 147.974 80.3153 146.746 78.7208 145.53C78.5012 145.362 78.1875 145.405 78.02 145.624ZM1544.8 145.897C1544.65 146.128 1544.71 146.438 1544.94 146.589C1546.59 147.67 1548.26 148.761 1549.94 149.861C1550.17 150.013 1550.48 149.948 1550.63 149.717C1550.78 149.486 1550.72 149.176 1550.49 149.025C1548.8 147.924 1547.14 146.834 1545.49 145.753C1545.26 145.602 1544.95 145.666 1544.8 145.897ZM277.855 147.185C277.787 147.452 277.949 147.724 278.217 147.792C280.17 148.286 282.132 148.781 284.101 149.278C284.369 149.345 284.641 149.183 284.708 148.915C284.776 148.648 284.614 148.376 284.346 148.308C282.376 147.811 280.415 147.316 278.462 146.822C278.194 146.755 277.922 146.917 277.855 147.185ZM289.672 150.165C289.604 150.433 289.767 150.705 290.034 150.772C292.02 151.272 294.014 151.773 296.015 152.275C296.283 152.342 296.555 152.179 296.622 151.911C296.689 151.644 296.527 151.372 296.259 151.305C294.257 150.803 292.264 150.302 290.278 149.802C290.011 149.735 289.739 149.898 289.672 150.165ZM1554.76 152.419C1554.61 152.65 1554.67 152.96 1554.91 153.111C1556.56 154.196 1558.24 155.29 1559.93 156.394C1560.16 156.545 1560.47 156.48 1560.62 156.248C1560.77 156.017 1560.71 155.707 1560.48 155.556C1558.79 154.453 1557.11 153.359 1555.45 152.274C1555.22 152.123 1554.91 152.188 1554.76 152.419ZM301.425 153.115C301.358 153.383 301.521 153.655 301.789 153.722C303.699 154.2 305.616 154.679 307.54 155.159C307.808 155.226 308.079 155.063 308.146 154.795C308.213 154.528 308.05 154.256 307.782 154.189C305.859 153.709 303.942 153.23 302.032 152.752C301.764 152.685 301.492 152.847 301.425 153.115ZM87.6084 152.957C87.4403 153.176 87.4816 153.49 87.7007 153.658C89.2999 154.886 90.9106 156.124 92.532 157.374C92.7507 157.542 93.0647 157.501 93.2333 157.283C93.4019 157.064 93.3612 156.75 93.1425 156.581C91.5205 155.332 89.9092 154.093 88.3096 152.865C88.0905 152.697 87.7766 152.738 87.6084 152.957ZM1423.39 154.973C1423.16 155.129 1423.1 155.44 1423.26 155.668C1424.4 157.341 1425.54 159.018 1426.68 160.7C1426.83 160.929 1427.14 160.99 1427.37 160.835C1427.6 160.681 1427.66 160.37 1427.51 160.141C1426.37 158.457 1425.23 156.778 1424.08 155.103C1423.93 154.875 1423.62 154.817 1423.39 154.973ZM1698.53 154.895C1698.25 154.942 1698.07 155.201 1698.12 155.473C1698.47 157.467 1698.84 159.444 1699.22 161.4C1699.28 161.671 1699.54 161.848 1699.81 161.794C1700.08 161.741 1700.26 161.478 1700.2 161.207C1699.82 159.257 1699.45 157.288 1699.1 155.301C1699.06 155.029 1698.8 154.847 1698.53 154.895ZM312.968 155.998C312.901 156.266 313.064 156.537 313.332 156.604C315.27 157.087 317.214 157.57 319.165 158.055C319.433 158.122 319.704 157.959 319.771 157.691C319.837 157.423 319.674 157.151 319.406 157.085C317.455 156.6 315.511 156.116 313.574 155.634C313.306 155.567 313.035 155.73 312.968 155.998ZM324.672 158.907C324.605 159.175 324.769 159.446 325.037 159.513C327.001 160 328.971 160.488 330.948 160.977C331.216 161.043 331.487 160.88 331.554 160.612C331.62 160.343 331.457 160.072 331.188 160.006C329.212 159.517 327.241 159.029 325.278 158.542C325.01 158.476 324.738 158.639 324.672 158.907ZM1564.73 158.929C1564.58 159.16 1564.65 159.47 1564.88 159.62C1566.54 160.705 1568.23 161.799 1569.92 162.903C1570.15 163.053 1570.46 162.988 1570.61 162.756C1570.76 162.525 1570.7 162.215 1570.47 162.064C1568.77 160.961 1567.09 159.867 1565.43 158.783C1565.19 158.632 1564.88 158.697 1564.73 158.929ZM97.2278 160.368C97.0588 160.586 97.0988 160.9 97.3171 161.069C98.8923 162.289 100.477 163.518 102.069 164.757C102.287 164.927 102.601 164.887 102.771 164.669C102.94 164.451 102.901 164.137 102.683 163.968C101.09 162.728 99.5051 161.499 97.9293 160.279C97.7109 160.11 97.3969 160.15 97.2278 160.368ZM336.533 161.842C336.466 162.11 336.63 162.381 336.898 162.447C338.858 162.93 340.824 163.415 342.795 163.9C343.063 163.966 343.334 163.803 343.4 163.534C343.466 163.266 343.302 162.995 343.034 162.929C341.063 162.444 339.097 161.96 337.138 161.476C336.87 161.41 336.599 161.574 336.533 161.842ZM348.184 164.711C348.118 164.979 348.282 165.25 348.55 165.316L354.338 166.736C354.606 166.802 354.877 166.638 354.943 166.369C355.008 166.101 354.844 165.831 354.576 165.765C352.641 165.291 350.712 164.817 348.789 164.345C348.52 164.279 348.25 164.443 348.184 164.711ZM1430.2 165.058C1429.97 165.21 1429.91 165.521 1430.06 165.751C1431.18 167.438 1432.3 169.129 1433.41 170.822C1433.56 171.053 1433.87 171.118 1434.1 170.967C1434.33 170.815 1434.4 170.506 1434.24 170.275C1433.14 168.579 1432.02 166.886 1430.9 165.197C1430.74 164.967 1430.43 164.905 1430.2 165.058ZM1574.73 165.428C1574.58 165.66 1574.64 165.97 1574.87 166.12C1576.53 167.195 1578.2 168.279 1579.89 169.371C1580.12 169.521 1580.43 169.455 1580.58 169.223C1580.73 168.992 1580.66 168.682 1580.43 168.532C1578.74 167.439 1577.07 166.356 1575.42 165.281C1575.19 165.131 1574.88 165.197 1574.73 165.428ZM1700.82 166.642C1700.55 166.701 1700.38 166.967 1700.43 167.237C1700.87 169.218 1701.31 171.177 1701.77 173.111C1701.83 173.38 1702.1 173.546 1702.37 173.483C1702.64 173.419 1702.81 173.15 1702.74 172.881C1702.29 170.952 1701.84 168.999 1701.41 167.024C1701.35 166.754 1701.09 166.583 1700.82 166.642ZM359.792 167.557C359.726 167.825 359.891 168.096 360.159 168.161C362.105 168.637 364.056 169.114 366.012 169.591C366.281 169.657 366.551 169.492 366.617 169.224C366.682 168.956 366.518 168.685 366.249 168.62C364.293 168.142 362.342 167.666 360.396 167.19C360.128 167.124 359.858 167.289 359.792 167.557ZM106.783 167.8C106.613 168.018 106.652 168.332 106.869 168.502C108.448 169.737 110.034 170.981 111.626 172.234C111.843 172.405 112.157 172.368 112.328 172.151C112.499 171.934 112.461 171.619 112.244 171.449C110.651 170.195 109.065 168.95 107.485 167.714C107.268 167.544 106.953 167.583 106.783 167.8ZM371.53 170.422C371.465 170.69 371.629 170.961 371.898 171.026C373.865 171.505 375.837 171.985 377.814 172.465C378.083 172.53 378.353 172.365 378.418 172.097C378.483 171.829 378.319 171.558 378.05 171.493C376.817 171.194 375.586 170.894 374.356 170.595L372.134 170.054C371.866 169.989 371.595 170.154 371.53 170.422ZM1584.75 171.923C1584.6 172.155 1584.67 172.464 1584.9 172.614C1586.54 173.678 1588.2 174.75 1589.88 175.83C1590.11 175.98 1590.42 175.913 1590.57 175.681C1590.72 175.449 1590.65 175.14 1590.42 174.99C1588.74 173.91 1587.08 172.838 1585.44 171.775C1585.21 171.625 1584.9 171.691 1584.75 171.923ZM383.393 173.305C383.328 173.573 383.493 173.843 383.761 173.908C385.709 174.381 387.662 174.853 389.62 175.327C389.888 175.392 390.159 175.227 390.224 174.959C390.288 174.69 390.123 174.42 389.855 174.355C387.898 173.882 385.945 173.409 383.997 172.936C383.729 172.871 383.458 173.036 383.393 173.305ZM116.269 175.262C116.097 175.479 116.134 175.793 116.35 175.965C117.931 177.216 119.516 178.476 121.107 179.745C121.323 179.917 121.637 179.881 121.809 179.666C121.981 179.45 121.946 179.135 121.73 178.963C120.139 177.694 118.552 176.433 116.971 175.181C116.755 175.009 116.44 175.046 116.269 175.262ZM1436.87 175.24C1436.64 175.389 1436.57 175.699 1436.72 175.931C1437.82 177.642 1438.91 179.354 1439.99 181.068C1440.13 181.302 1440.44 181.372 1440.68 181.225C1440.91 181.078 1440.98 180.769 1440.83 180.535C1439.75 178.819 1438.66 177.104 1437.56 175.391C1437.41 175.158 1437.1 175.091 1436.87 175.24ZM395.032 176.121C394.967 176.389 395.132 176.659 395.401 176.724C397.332 177.19 399.268 177.657 401.208 178.124C401.477 178.189 401.747 178.024 401.812 177.755C401.876 177.487 401.711 177.217 401.443 177.152C399.502 176.685 397.567 176.218 395.635 175.752C395.367 175.687 395.097 175.852 395.032 176.121ZM1594.79 178.406C1594.64 178.638 1594.71 178.947 1594.94 179.097C1596.58 180.152 1598.23 181.215 1599.9 182.287C1600.13 182.436 1600.44 182.369 1600.59 182.136C1600.74 181.904 1600.67 181.595 1600.44 181.445C1598.77 180.374 1597.12 179.311 1595.48 178.256C1595.25 178.107 1594.94 178.174 1594.79 178.406ZM1703.55 178.304C1703.28 178.372 1703.12 178.644 1703.19 178.911C1703.69 180.877 1704.19 182.813 1704.7 184.72C1704.78 184.986 1705.05 185.145 1705.32 185.073C1705.58 185.002 1705.74 184.728 1705.67 184.461C1705.16 182.559 1704.66 180.626 1704.16 178.666C1704.09 178.398 1703.82 178.236 1703.55 178.304ZM406.673 178.925C406.609 179.194 406.774 179.464 407.043 179.528C408.992 179.997 410.945 180.466 412.903 180.935C413.172 181 413.442 180.834 413.506 180.566C413.57 180.297 413.405 180.027 413.136 179.963C411.179 179.493 409.225 179.024 407.276 178.556C407.008 178.491 406.738 178.657 406.673 178.925ZM418.419 181.743C418.355 182.011 418.521 182.281 418.789 182.345C420.755 182.816 422.726 183.287 424.7 183.759C424.969 183.823 425.238 183.657 425.302 183.388C425.367 183.12 425.201 182.85 424.932 182.786C422.958 182.314 420.988 181.843 419.022 181.373C418.753 181.309 418.483 181.474 418.419 181.743ZM125.759 182.827C125.586 183.042 125.62 183.357 125.835 183.529C127.394 184.782 128.957 186.042 130.522 187.309C130.737 187.483 131.052 187.449 131.226 187.235C131.399 187.02 131.366 186.705 131.152 186.532C129.585 185.264 128.022 184.003 126.462 182.75C126.246 182.577 125.932 182.611 125.759 182.827ZM430.265 184.572C430.201 184.841 430.367 185.111 430.636 185.175C432.593 185.641 434.553 186.108 436.518 186.575C436.787 186.639 437.056 186.473 437.12 186.204C437.184 185.936 437.018 185.666 436.749 185.602C434.785 185.135 432.824 184.668 430.867 184.202C430.599 184.138 430.329 184.304 430.265 184.572ZM1604.77 184.821C1604.62 185.053 1604.69 185.363 1604.92 185.512C1606.59 186.582 1608.27 187.661 1609.97 188.747C1610.2 188.896 1610.51 188.829 1610.66 188.596C1610.81 188.363 1610.74 188.054 1610.51 187.905C1608.81 186.819 1607.13 185.741 1605.46 184.67C1605.23 184.521 1604.92 184.588 1604.77 184.821ZM1443.36 185.525C1443.12 185.67 1443.05 185.978 1443.19 186.213C1444.26 187.945 1445.32 189.678 1446.36 191.411C1446.5 191.647 1446.81 191.724 1447.05 191.581C1447.28 191.439 1447.36 191.132 1447.22 190.895C1446.17 189.159 1445.11 187.423 1444.04 185.688C1443.9 185.453 1443.59 185.38 1443.36 185.525ZM441.944 187.35C441.88 187.619 442.046 187.888 442.315 187.952C444.251 188.412 446.191 188.871 448.134 189.332C448.402 189.395 448.672 189.229 448.736 188.96C448.799 188.692 448.633 188.422 448.364 188.359L442.546 186.979C442.277 186.915 442.008 187.082 441.944 187.35ZM453.602 190.112C453.539 190.38 453.705 190.65 453.974 190.713C455.924 191.174 457.878 191.635 459.835 192.097C460.104 192.16 460.373 191.994 460.436 191.725C460.5 191.456 460.333 191.187 460.064 191.124L454.204 189.74C453.935 189.677 453.666 189.843 453.602 190.112ZM1706.64 189.888C1706.37 189.963 1706.22 190.239 1706.29 190.505C1706.83 192.447 1707.38 194.353 1707.92 196.221C1708 196.486 1708.28 196.639 1708.54 196.562C1708.81 196.485 1708.96 196.207 1708.88 195.942C1708.34 194.077 1707.8 192.174 1707.25 190.235C1707.18 189.969 1706.9 189.814 1706.64 189.888ZM135.156 190.429C134.981 190.643 135.013 190.958 135.227 191.132C136.789 192.407 138.354 193.689 139.92 194.978C140.134 195.154 140.449 195.123 140.624 194.91C140.8 194.697 140.769 194.382 140.556 194.206C138.988 192.916 137.423 191.633 135.859 190.357C135.645 190.183 135.33 190.215 135.156 190.429ZM1614.79 191.238C1614.64 191.471 1614.71 191.78 1614.94 191.928C1616.61 192.996 1618.3 194.072 1619.99 195.155C1620.23 195.303 1620.54 195.235 1620.68 195.002C1620.83 194.769 1620.76 194.46 1620.53 194.312C1618.83 193.229 1617.15 192.154 1615.48 191.086C1615.25 190.937 1614.94 191.005 1614.79 191.238ZM465.344 192.881C465.281 193.15 465.448 193.419 465.716 193.482C467.68 193.945 469.647 194.407 471.618 194.87C471.886 194.933 472.156 194.766 472.219 194.497C472.282 194.228 472.115 193.959 471.846 193.896C469.876 193.434 467.909 192.971 465.945 192.509C465.677 192.446 465.407 192.612 465.344 192.881ZM477.166 195.658C477.103 195.927 477.27 196.196 477.539 196.259C479.513 196.721 481.491 197.184 483.472 197.648C483.74 197.71 484.01 197.543 484.072 197.275C484.135 197.006 483.968 196.737 483.699 196.674C481.719 196.211 479.741 195.748 477.767 195.285C477.498 195.222 477.229 195.389 477.166 195.658ZM1449.66 195.969C1449.42 196.109 1449.34 196.415 1449.48 196.653C1450.5 198.4 1451.51 200.145 1452.51 201.889C1452.64 202.128 1452.95 202.212 1453.19 202.075C1453.43 201.938 1453.51 201.633 1453.38 201.393C1452.38 199.646 1451.37 197.897 1450.34 196.147C1450.2 195.909 1449.89 195.829 1449.66 195.969ZM1624.86 197.666C1624.72 197.899 1624.78 198.208 1625.02 198.356C1626.67 199.408 1628.34 200.467 1630.01 201.533C1630.25 201.681 1630.56 201.612 1630.7 201.379C1630.85 201.146 1630.78 200.837 1630.55 200.689C1628.87 199.623 1627.21 198.564 1625.55 197.512C1625.32 197.364 1625.01 197.433 1624.86 197.666ZM144.497 198.112C144.321 198.324 144.35 198.639 144.562 198.816C146.111 200.101 147.66 201.393 149.209 202.692C149.421 202.869 149.736 202.842 149.914 202.63C150.091 202.418 150.063 202.103 149.852 201.926C148.301 200.626 146.751 199.333 145.201 198.046C144.989 197.87 144.674 197.899 144.497 198.112ZM488.907 198.404C488.845 198.673 489.012 198.942 489.281 199.005C491.22 199.457 493.162 199.91 495.107 200.363C495.376 200.425 495.645 200.258 495.708 199.989C495.77 199.72 495.603 199.451 495.334 199.389C493.389 198.936 491.447 198.483 489.508 198.031C489.239 197.968 488.97 198.135 488.907 198.404ZM500.577 201.122C500.514 201.391 500.681 201.659 500.95 201.722C502.901 202.175 504.854 202.629 506.81 203.082C507.079 203.145 507.348 202.977 507.41 202.708C507.473 202.439 507.305 202.17 507.036 202.108C505.08 201.655 503.127 201.201 501.177 200.748C500.908 200.685 500.639 200.853 500.577 201.122ZM1709.96 201.399C1709.69 201.478 1709.54 201.756 1709.62 202.021C1710.1 203.626 1710.57 205.199 1711.02 206.736L1711.32 207.73C1711.4 207.995 1711.68 208.146 1711.94 208.067C1712.21 207.988 1712.36 207.71 1712.28 207.445L1711.98 206.455C1711.52 204.916 1711.06 203.343 1710.58 201.737C1710.5 201.472 1710.22 201.321 1709.96 201.399ZM512.312 203.843C512.25 204.112 512.417 204.381 512.686 204.443C514.647 204.897 516.611 205.351 518.578 205.805C518.847 205.867 519.115 205.699 519.177 205.43C519.24 205.161 519.072 204.893 518.803 204.831C516.836 204.377 514.873 203.923 512.911 203.469C512.643 203.407 512.374 203.574 512.312 203.843ZM1634.93 204.064C1634.79 204.297 1634.86 204.606 1635.09 204.754C1636.75 205.806 1638.42 206.865 1640.1 207.93C1640.34 208.078 1640.65 208.009 1640.79 207.775C1640.94 207.542 1640.87 207.233 1640.64 207.085C1638.96 206.02 1637.28 204.961 1635.62 203.909C1635.39 203.762 1635.08 203.831 1634.93 204.064ZM153.796 205.899C153.617 206.11 153.643 206.425 153.854 206.604C155.385 207.9 156.916 209.201 158.446 210.509C158.655 210.689 158.971 210.664 159.151 210.454C159.33 210.244 159.305 209.929 159.095 209.749C157.565 208.44 156.033 207.137 154.5 205.84C154.289 205.662 153.974 205.688 153.796 205.899ZM524.11 206.568C524.048 206.837 524.215 207.106 524.484 207.168C526.456 207.622 528.43 208.076 530.406 208.531C530.675 208.592 530.944 208.424 531.006 208.155C531.068 207.886 530.9 207.618 530.63 207.556C529.385 207.27 528.141 206.983 526.897 206.697L524.709 206.193C524.44 206.131 524.172 206.299 524.11 206.568ZM1455.68 206.517C1455.44 206.651 1455.36 206.955 1455.49 207.197C1456.48 208.988 1457.45 210.777 1458.4 212.561C1458.53 212.805 1458.84 212.897 1459.08 212.767C1459.32 212.637 1459.42 212.334 1459.29 212.09C1458.33 210.301 1457.36 208.509 1456.36 206.713C1456.23 206.471 1455.93 206.383 1455.68 206.517ZM535.914 209.283C535.852 209.552 536.02 209.82 536.289 209.882C538.232 210.327 540.177 210.773 542.123 211.219C542.393 211.28 542.661 211.112 542.722 210.843C542.784 210.574 542.616 210.305 542.347 210.244C540.4 209.798 538.455 209.353 536.513 208.907C536.244 208.845 535.976 209.013 535.914 209.283ZM1644.96 210.408C1644.81 210.642 1644.88 210.951 1645.12 211.098C1646.8 212.161 1648.49 213.23 1650.2 214.307C1650.44 214.454 1650.74 214.384 1650.89 214.15C1651.04 213.917 1650.97 213.608 1650.73 213.461C1649.03 212.385 1647.33 211.315 1645.65 210.253C1645.42 210.105 1645.11 210.175 1644.96 210.408ZM547.594 211.957C547.533 212.226 547.701 212.494 547.97 212.556C549.922 213.001 551.875 213.447 553.83 213.893C554.1 213.954 554.368 213.786 554.429 213.517C554.49 213.247 554.322 212.979 554.053 212.918L548.193 211.581C547.924 211.519 547.656 211.688 547.594 211.957ZM1713.35 212.816C1713.08 212.894 1712.93 213.172 1713.01 213.437C1713.6 215.448 1714.16 217.384 1714.68 219.239C1714.75 219.505 1715.03 219.66 1715.29 219.586C1715.56 219.512 1715.71 219.236 1715.64 218.97C1715.12 217.109 1714.56 215.169 1713.97 213.155C1713.89 212.89 1713.61 212.739 1713.35 212.816ZM162.979 213.744C162.798 213.953 162.821 214.269 163.03 214.45C164.557 215.769 166.081 217.094 167.604 218.424C167.812 218.605 168.127 218.584 168.309 218.376C168.491 218.168 168.47 217.852 168.262 217.671C166.738 216.339 165.212 215.013 163.684 213.693C163.475 213.512 163.159 213.535 162.979 213.744ZM559.326 214.632C559.265 214.901 559.433 215.169 559.703 215.23C561.662 215.676 563.624 216.121 565.587 216.567C565.856 216.628 566.124 216.459 566.185 216.19C566.246 215.921 566.078 215.653 565.808 215.592C564.341 215.259 562.876 214.926 561.411 214.593L559.924 214.255C559.655 214.194 559.387 214.362 559.326 214.632ZM1655.07 216.781C1654.92 217.014 1654.99 217.323 1655.23 217.47C1656.89 218.514 1658.56 219.565 1660.24 220.622C1660.47 220.769 1660.78 220.699 1660.93 220.465C1661.08 220.231 1661.01 219.922 1660.77 219.776C1659.09 218.718 1657.42 217.668 1655.76 216.624C1655.52 216.477 1655.22 216.547 1655.07 216.781ZM571.105 217.305C571.045 217.575 571.213 217.843 571.483 217.904C573.45 218.349 575.419 218.794 577.39 219.24C577.659 219.301 577.927 219.132 577.988 218.862C578.049 218.593 577.88 218.325 577.61 218.264C575.64 217.819 573.671 217.374 571.704 216.928C571.434 216.867 571.167 217.036 571.105 217.305ZM1461.42 217.229C1461.17 217.355 1461.08 217.656 1461.2 217.902C1462.14 219.726 1463.05 221.544 1463.94 223.356C1464.06 223.604 1464.36 223.706 1464.61 223.584C1464.86 223.462 1464.96 223.163 1464.84 222.915C1463.95 221.097 1463.03 219.274 1462.09 217.445C1461.96 217.2 1461.66 217.103 1461.42 217.229ZM582.93 219.978C582.869 220.247 583.038 220.515 583.308 220.575C585.262 221.016 587.219 221.457 589.177 221.897C589.446 221.958 589.714 221.789 589.774 221.519C589.835 221.25 589.666 220.982 589.396 220.922C587.438 220.481 585.482 220.041 583.528 219.6C583.258 219.539 582.991 219.708 582.93 219.978ZM172.1 221.708C171.917 221.915 171.937 222.231 172.144 222.414C173.652 223.748 175.158 225.087 176.66 226.431C176.866 226.615 177.182 226.597 177.366 226.391C177.55 226.186 177.533 225.87 177.327 225.685C175.823 224.34 174.316 223 172.806 221.665C172.599 221.482 172.283 221.501 172.1 221.708ZM594.652 222.615C594.592 222.885 594.761 223.152 595.031 223.213C596.983 223.651 598.938 224.089 600.894 224.527C601.163 224.587 601.431 224.418 601.491 224.148C601.551 223.879 601.382 223.612 601.112 223.551C599.156 223.113 597.202 222.675 595.25 222.237C594.98 222.176 594.713 222.346 594.652 222.615ZM1665.17 223.124C1665.02 223.358 1665.09 223.667 1665.33 223.814C1666.18 224.349 1667.04 224.885 1667.9 225.424C1668.82 226.001 1669.73 226.566 1670.62 227.117C1670.85 227.263 1671.16 227.19 1671.31 226.956C1671.45 226.721 1671.38 226.413 1671.15 226.267C1670.26 225.716 1669.35 225.153 1668.43 224.576C1667.57 224.038 1666.71 223.501 1665.86 222.966C1665.63 222.82 1665.32 222.89 1665.17 223.124ZM1716.58 224.418C1716.31 224.485 1716.15 224.756 1716.22 225.024C1716.74 227.1 1717.18 229.04 1717.52 230.837C1717.58 231.108 1717.84 231.286 1718.11 231.234C1718.38 231.182 1718.56 230.92 1718.51 230.649C1718.16 228.828 1717.71 226.869 1717.19 224.781C1717.12 224.514 1716.85 224.351 1716.58 224.418ZM606.387 225.244C606.327 225.513 606.496 225.78 606.766 225.841C608.725 226.278 610.685 226.716 612.647 227.153C612.916 227.213 613.184 227.043 613.244 226.774C613.304 226.504 613.134 226.237 612.865 226.177C610.903 225.74 608.943 225.302 606.984 224.865C606.715 224.804 606.447 224.974 606.387 225.244ZM618.156 227.868C618.097 228.137 618.266 228.405 618.536 228.465C620.028 228.796 621.521 229.128 623.014 229.46L624.433 229.775C624.703 229.834 624.97 229.664 625.03 229.395C625.089 229.125 624.919 228.858 624.65 228.798C623.604 228.566 622.558 228.334 621.512 228.102L618.753 227.488C618.484 227.428 618.216 227.598 618.156 227.868ZM1466.82 228.191C1466.57 228.308 1466.46 228.605 1466.58 228.855C1467.43 230.682 1468.26 232.5 1469.06 234.31C1469.17 234.563 1469.47 234.677 1469.72 234.566C1469.97 234.454 1470.09 234.159 1469.97 233.906C1469.17 232.089 1468.34 230.264 1467.49 228.432C1467.37 228.182 1467.07 228.074 1466.82 228.191ZM1675.62 229.593C1675.48 229.829 1675.55 230.137 1675.79 230.279C1677.51 231.317 1679.17 232.303 1680.77 233.236C1681 233.375 1681.31 233.295 1681.45 233.057C1681.59 232.818 1681.51 232.512 1681.27 232.373C1679.68 231.442 1678.02 230.459 1676.31 229.423C1676.07 229.28 1675.76 229.356 1675.62 229.593ZM181.12 229.771C180.934 229.976 180.95 230.292 181.154 230.478C182.649 231.832 184.139 233.191 185.624 234.555C185.828 234.742 186.144 234.728 186.331 234.525C186.517 234.321 186.504 234.005 186.301 233.818C184.814 232.453 183.322 231.092 181.826 229.737C181.621 229.551 181.305 229.567 181.12 229.771ZM629.958 230.487C629.898 230.757 630.068 231.024 630.338 231.083C632.307 231.519 634.278 231.955 636.25 232.391C636.519 232.45 636.786 232.28 636.846 232.01C636.905 231.741 636.735 231.474 636.465 231.414C634.494 230.979 632.523 230.543 630.554 230.107C630.284 230.047 630.017 230.218 629.958 230.487ZM641.743 233.091C641.684 233.361 641.854 233.627 642.124 233.687C644.08 234.118 646.037 234.548 647.995 234.979C648.265 235.038 648.531 234.868 648.591 234.598C648.65 234.328 648.479 234.061 648.21 234.002C646.252 233.572 644.295 233.141 642.339 232.71C642.07 232.651 641.803 232.821 641.743 233.091ZM653.491 235.674C653.432 235.944 653.602 236.21 653.872 236.269C655.832 236.699 657.793 237.129 659.755 237.558C660.024 237.617 660.291 237.446 660.35 237.176C660.409 236.906 660.238 236.64 659.968 236.581C658.007 236.152 656.046 235.722 654.086 235.292C653.817 235.233 653.55 235.404 653.491 235.674ZM1685.94 235.624C1685.8 235.865 1685.89 236.17 1686.13 236.304C1687.93 237.31 1689.65 238.238 1691.27 239.09C1691.52 239.219 1691.82 239.124 1691.95 238.88C1692.08 238.635 1691.98 238.333 1691.74 238.205C1690.12 237.357 1688.41 236.433 1686.62 235.431C1686.38 235.297 1686.07 235.383 1685.94 235.624ZM1718.79 236.17C1718.52 236.186 1718.31 236.423 1718.32 236.699C1718.46 239.024 1718.3 240.9 1717.78 242.319C1717.68 242.579 1717.82 242.866 1718.08 242.961C1718.33 243.056 1718.62 242.922 1718.72 242.663C1719.3 241.058 1719.47 239.025 1719.32 236.638C1719.3 236.363 1719.07 236.153 1718.79 236.17ZM190.04 237.955C189.852 238.157 189.863 238.473 190.066 238.662C191.541 240.035 193.01 241.413 194.474 242.795C194.674 242.985 194.991 242.976 195.18 242.775C195.37 242.574 195.361 242.258 195.16 242.068C193.695 240.684 192.224 239.305 190.747 237.93C190.545 237.741 190.229 237.753 190.04 237.955ZM665.26 238.249C665.202 238.519 665.373 238.786 665.642 238.844L668.466 239.46C669.489 239.683 670.512 239.906 671.535 240.129C671.805 240.188 672.071 240.017 672.13 239.747C672.189 239.477 672.018 239.211 671.748 239.152C669.783 238.724 667.819 238.296 665.856 237.867C665.586 237.809 665.319 237.98 665.26 238.249ZM1471.75 239.311C1471.49 239.417 1471.37 239.709 1471.48 239.964C1472.26 241.854 1473.01 243.733 1473.72 245.6C1473.82 245.857 1474.11 245.987 1474.36 245.888C1474.62 245.79 1474.75 245.501 1474.65 245.243C1473.94 243.367 1473.19 241.48 1472.4 239.583C1472.3 239.327 1472 239.206 1471.75 239.311ZM677.05 240.817C676.991 241.086 677.162 241.353 677.432 241.411C679.399 241.838 681.366 242.265 683.334 242.691C683.604 242.75 683.87 242.578 683.928 242.309C683.987 242.039 683.815 241.772 683.545 241.714C681.578 241.288 679.611 240.861 677.645 240.434C677.375 240.375 677.108 240.547 677.05 240.817ZM1696.44 241.129C1696.32 241.379 1696.43 241.677 1696.68 241.795C1698.69 242.749 1700.54 243.558 1702.25 244.227C1702.5 244.327 1702.79 244.201 1702.9 243.944C1703 243.687 1702.87 243.397 1702.61 243.296C1700.93 242.637 1699.1 241.837 1697.11 240.891C1696.86 240.773 1696.56 240.88 1696.44 241.129ZM688.856 243.375C688.797 243.645 688.969 243.911 689.239 243.969C691.201 244.393 693.164 244.817 695.127 245.24C695.397 245.298 695.663 245.126 695.721 244.856C695.779 244.586 695.607 244.32 695.338 244.262C693.375 243.839 691.412 243.416 689.45 242.992C689.18 242.933 688.914 243.105 688.856 243.375ZM1707.6 245.489C1707.54 245.757 1707.7 246.027 1707.97 246.092C1710.36 246.671 1712.34 246.831 1713.96 246.568C1714.23 246.523 1714.42 246.266 1714.37 245.993C1714.33 245.721 1714.07 245.536 1713.8 245.581C1712.37 245.815 1710.53 245.683 1708.2 245.12C1707.94 245.055 1707.67 245.22 1707.6 245.489ZM700.63 245.913C700.572 246.183 700.744 246.449 701.014 246.507L702.983 246.93C704.29 247.211 705.597 247.492 706.904 247.772C707.174 247.83 707.44 247.658 707.498 247.388C707.556 247.118 707.384 246.852 707.114 246.794C705.15 246.373 703.187 245.951 701.224 245.529C700.954 245.471 700.688 245.643 700.63 245.913ZM198.835 246.253C198.644 246.453 198.651 246.769 198.85 246.96C200.309 248.36 201.762 249.764 203.207 251.171C203.405 251.364 203.721 251.36 203.914 251.162C204.106 250.964 204.102 250.648 203.905 250.455C202.458 249.045 201.003 247.64 199.542 246.239C199.343 246.048 199.026 246.054 198.835 246.253ZM712.412 248.44C712.354 248.71 712.526 248.976 712.796 249.034C714.761 249.454 716.726 249.874 718.691 250.293C718.961 250.35 719.226 250.178 719.284 249.908C719.342 249.638 719.169 249.372 718.899 249.315C716.934 248.896 714.97 248.476 713.005 248.056C712.735 247.998 712.47 248.17 712.412 248.44ZM724.202 250.956C724.144 251.226 724.317 251.491 724.587 251.549C726.552 251.967 728.518 252.385 730.484 252.802C730.754 252.859 731.02 252.687 731.077 252.417C731.134 252.147 730.962 251.881 730.692 251.824C728.726 251.407 726.76 250.989 724.795 250.571C724.525 250.513 724.259 250.686 724.202 250.956ZM1476.09 250.604C1475.83 250.695 1475.69 250.98 1475.78 251.24C1476.46 253.204 1477.1 255.153 1477.7 257.085C1477.79 257.349 1478.07 257.497 1478.33 257.415C1478.59 257.333 1478.74 257.053 1478.66 256.789C1478.06 254.846 1477.41 252.886 1476.72 250.912C1476.63 250.651 1476.35 250.513 1476.09 250.604ZM735.997 253.459C735.939 253.729 736.112 253.995 736.382 254.052C738.348 254.468 740.315 254.883 742.281 255.298C742.551 255.355 742.817 255.183 742.874 254.912C742.931 254.642 742.758 254.377 742.488 254.32C741.502 254.112 740.517 253.904 739.531 253.696C738.551 253.488 737.57 253.281 736.589 253.073C736.319 253.016 736.054 253.189 735.997 253.459ZM207.515 254.699C207.32 254.896 207.322 255.212 207.518 255.406C208.947 256.822 210.368 258.242 211.78 259.665C211.975 259.861 212.291 259.862 212.487 259.668C212.683 259.473 212.685 259.156 212.49 258.96C211.076 257.535 209.653 256.114 208.222 254.696C208.026 254.502 207.709 254.503 207.515 254.699ZM747.798 255.95C747.741 256.22 747.914 256.486 748.184 256.542C750.152 256.957 752.12 257.37 754.088 257.783C754.358 257.84 754.623 257.667 754.68 257.396C754.736 257.126 754.563 256.861 754.293 256.804C752.325 256.391 750.358 255.978 748.39 255.564C748.12 255.507 747.855 255.68 747.798 255.95ZM72.6139 258.007C72.6096 258.283 72.8301 258.511 73.1062 258.515C75.1016 258.545 77.1136 258.638 79.1411 258.789C79.4165 258.81 79.6564 258.603 79.677 258.328C79.6975 258.053 79.491 257.813 79.2156 257.792C77.1693 257.639 75.1375 257.546 73.1215 257.515C72.8453 257.511 72.6182 257.731 72.6139 258.007ZM67.5833 258.09C67.5696 257.814 67.335 257.602 67.0591 257.616C65.0181 257.717 62.9957 257.888 60.994 258.131C60.72 258.164 60.5247 258.413 60.558 258.688C60.5913 258.962 60.8406 259.157 61.1147 259.124C63.0919 258.883 65.0905 258.715 67.1086 258.614C67.3845 258.601 67.5969 258.366 67.5833 258.09ZM759.604 258.428C759.547 258.699 759.72 258.964 759.991 259.02C761.958 259.432 763.926 259.843 765.893 260.254C766.163 260.31 766.428 260.137 766.485 259.866C766.541 259.596 766.368 259.331 766.097 259.275C764.955 259.036 763.813 258.798 762.67 258.559L760.196 258.041C759.925 257.985 759.66 258.158 759.604 258.428ZM84.6675 258.837C84.6324 259.111 84.826 259.361 85.0999 259.396C87.089 259.651 89.0907 259.959 91.1038 260.317C91.3756 260.365 91.6353 260.184 91.6835 259.912C91.7318 259.64 91.5507 259.38 91.2787 259.332C89.2505 258.972 87.2328 258.661 85.2271 258.404C84.9531 258.369 84.7026 258.563 84.6675 258.837ZM55.5811 259.486C55.5266 259.215 55.2631 259.04 54.9923 259.094C53.0004 259.494 51.0317 259.973 49.0884 260.534C48.823 260.61 48.6699 260.887 48.7466 261.153C48.8231 261.418 49.1002 261.571 49.3656 261.495C51.2817 260.942 53.2236 260.469 55.1893 260.074C55.4601 260.02 55.6354 259.756 55.5811 259.486ZM771.406 260.892C771.35 261.162 771.524 261.427 771.794 261.483C773.761 261.892 775.727 262.301 777.694 262.709C777.964 262.765 778.229 262.591 778.285 262.321C778.341 262.05 778.167 261.786 777.897 261.73C775.931 261.322 773.964 260.913 771.998 260.504C771.727 260.448 771.463 260.621 771.406 260.892ZM96.5822 260.893C96.5222 261.163 96.6921 261.43 96.9617 261.49C98.924 261.926 100.895 262.407 102.874 262.929C103.141 263 103.415 262.841 103.485 262.574C103.556 262.307 103.397 262.033 103.13 261.963C101.138 261.437 99.1543 260.953 97.1787 260.514C96.9092 260.454 96.6421 260.624 96.5822 260.893ZM1479.72 262.219C1479.45 262.291 1479.29 262.565 1479.37 262.832C1479.9 264.836 1480.39 266.819 1480.82 268.782C1480.88 269.051 1481.15 269.222 1481.42 269.162C1481.69 269.103 1481.86 268.836 1481.8 268.567C1481.36 266.589 1480.87 264.59 1480.33 262.573C1480.26 262.306 1479.99 262.148 1479.72 262.219ZM43.9597 262.761C43.8604 262.503 43.5709 262.375 43.3134 262.474C41.4337 263.198 39.5813 264.007 37.7578 264.904C37.51 265.025 37.4078 265.325 37.5297 265.573C37.6515 265.821 37.9512 265.923 38.199 265.801C39.9955 264.918 41.8207 264.121 43.673 263.407C43.9307 263.308 44.059 263.018 43.9597 262.761ZM783.203 263.34C783.147 263.61 783.321 263.875 783.591 263.93C785.557 264.337 787.522 264.743 789.487 265.148C789.757 265.204 790.022 265.03 790.077 264.759C790.133 264.489 789.959 264.224 789.689 264.169C787.724 263.764 785.759 263.358 783.794 262.951C783.523 262.895 783.259 263.069 783.203 263.34ZM216.045 263.286C215.848 263.479 215.844 263.795 216.036 263.993C217.446 265.44 218.847 266.891 220.236 268.346C220.427 268.545 220.744 268.552 220.943 268.362C221.143 268.171 221.15 267.854 220.959 267.655C219.567 266.198 218.165 264.745 216.752 263.295C216.56 263.097 216.243 263.093 216.045 263.286ZM108.296 263.936C108.217 264.201 108.366 264.48 108.63 264.559C110.547 265.138 112.47 265.753 114.397 266.404C114.659 266.492 114.943 266.351 115.031 266.09C115.119 265.828 114.979 265.544 114.717 265.456C112.78 264.803 110.847 264.184 108.919 263.602C108.655 263.522 108.376 263.672 108.296 263.936ZM794.991 265.771C794.935 266.041 795.109 266.306 795.38 266.361C797.353 266.767 799.326 267.172 801.298 267.576C801.569 267.632 801.833 267.457 801.888 267.187C801.944 266.916 801.77 266.652 801.499 266.597C799.527 266.193 797.554 265.788 795.581 265.382C795.311 265.326 795.046 265.5 794.991 265.771ZM119.789 267.773C119.693 268.032 119.826 268.32 120.084 268.416C121.955 269.108 123.83 269.831 125.706 270.582C125.963 270.685 126.254 270.56 126.356 270.304C126.459 270.047 126.334 269.756 126.078 269.654C124.194 268.899 122.311 268.173 120.432 267.478C120.172 267.382 119.885 267.514 119.789 267.773ZM33.0931 268.008C32.9496 267.772 32.642 267.697 32.4061 267.841C30.7017 268.878 29.0262 270.001 27.3817 271.211C27.1593 271.374 27.1117 271.687 27.2753 271.91C27.439 272.132 27.752 272.18 27.9744 272.016C29.5956 270.823 31.2467 269.717 32.9261 268.695C33.162 268.551 33.2368 268.244 33.0931 268.008ZM806.829 268.198C806.773 268.469 806.948 268.733 807.219 268.788C809.191 269.191 811.164 269.593 813.135 269.995C813.406 270.05 813.67 269.875 813.725 269.605C813.78 269.334 813.605 269.07 813.335 269.015C811.363 268.613 809.391 268.211 807.419 267.808C807.148 267.753 806.884 267.927 806.829 268.198ZM818.657 270.608C818.602 270.878 818.777 271.142 819.048 271.197C821.018 271.597 822.987 271.996 824.956 272.395C825.226 272.449 825.49 272.274 825.545 272.004C825.6 271.733 825.425 271.469 825.154 271.415C823.186 271.016 821.217 270.617 819.247 270.217C818.976 270.162 818.712 270.337 818.657 270.608ZM224.398 272.012C224.196 272.2 224.186 272.517 224.375 272.718C225.76 274.197 227.134 275.68 228.496 277.165C228.683 277.369 228.999 277.382 229.203 277.196C229.406 277.009 229.42 276.693 229.233 276.489C227.869 275.001 226.492 273.516 225.104 272.035C224.916 271.833 224.599 271.823 224.398 272.012ZM131.057 272.254C130.948 272.508 131.065 272.802 131.319 272.911C133.148 273.695 134.979 274.505 136.809 275.339C137.06 275.454 137.357 275.343 137.471 275.091C137.586 274.84 137.475 274.544 137.224 274.429C135.387 273.592 133.55 272.779 131.713 271.992C131.46 271.883 131.166 272 131.057 272.254ZM830.468 272.998C830.413 273.269 830.588 273.533 830.859 273.587C832.826 273.984 834.792 274.38 836.757 274.775C837.028 274.829 837.292 274.654 837.346 274.383C837.4 274.113 837.225 273.849 836.954 273.795C834.989 273.4 833.023 273.004 831.057 272.607C830.786 272.552 830.522 272.728 830.468 272.998ZM1482.38 274.134C1482.11 274.18 1481.92 274.437 1481.97 274.71C1482.31 276.73 1482.58 278.724 1482.79 280.69C1482.82 280.964 1483.06 281.163 1483.34 281.134C1483.61 281.105 1483.81 280.859 1483.78 280.585C1483.57 278.598 1483.3 276.584 1482.96 274.545C1482.91 274.273 1482.65 274.089 1482.38 274.134ZM23.3328 275.079C23.1509 274.871 22.835 274.85 22.6272 275.032C21.8502 275.712 21.0812 276.414 20.3202 277.138C20.1201 277.328 20.1122 277.645 20.3025 277.845C20.4928 278.045 20.8093 278.053 21.0094 277.862C21.7605 277.148 22.5193 276.456 23.2858 275.785C23.4935 275.603 23.5146 275.287 23.3328 275.079ZM842.258 275.369C842.203 275.64 842.379 275.903 842.65 275.958C844.613 276.351 846.575 276.743 848.536 277.135C848.807 277.189 849.071 277.013 849.125 276.743C849.179 276.472 849.003 276.208 848.732 276.154C846.771 275.763 844.809 275.37 842.846 274.977C842.575 274.923 842.312 275.098 842.258 275.369ZM142.065 277.242C141.946 277.491 142.051 277.79 142.299 277.909C144.105 278.777 145.91 279.666 147.713 280.574C147.96 280.699 148.26 280.599 148.385 280.353C148.509 280.106 148.41 279.806 148.163 279.681C146.355 278.77 144.544 277.878 142.733 277.008C142.484 276.888 142.185 276.993 142.065 277.242ZM854.082 277.73C854.028 278.001 854.204 278.265 854.474 278.318C856.455 278.712 858.434 279.105 860.412 279.498C860.683 279.551 860.946 279.375 860.999 279.104C861.053 278.834 860.877 278.57 860.606 278.517C859.43 278.284 858.254 278.05 857.077 277.816C856.275 277.657 855.472 277.497 854.67 277.338C854.399 277.284 854.135 277.46 854.082 277.73ZM865.948 280.084C865.895 280.355 866.071 280.618 866.342 280.671C868.317 281.061 870.291 281.451 872.264 281.839C872.535 281.892 872.798 281.716 872.852 281.445C872.905 281.174 872.728 280.911 872.457 280.858C870.485 280.47 868.511 280.08 866.536 279.69C866.265 279.637 866.002 279.813 865.948 280.084ZM232.604 280.946C232.398 281.13 232.381 281.446 232.566 281.652C233.909 283.15 235.24 284.652 236.558 286.156C236.74 286.363 237.056 286.384 237.263 286.202C237.471 286.021 237.492 285.705 237.31 285.497C235.99 283.99 234.656 282.485 233.31 280.984C233.126 280.778 232.81 280.761 232.604 280.946ZM877.785 282.414C877.732 282.685 877.908 282.948 878.179 283.001C880.149 283.387 882.118 283.773 884.086 284.157C884.357 284.21 884.619 284.033 884.672 283.762C884.725 283.491 884.548 283.229 884.277 283.176C882.31 282.791 880.341 282.406 878.372 282.02C878.101 281.967 877.838 282.143 877.785 282.414ZM152.87 282.663C152.742 282.908 152.836 283.21 153.08 283.338C154.864 284.277 156.645 285.232 158.423 286.204C158.665 286.337 158.969 286.248 159.101 286.005C159.234 285.763 159.145 285.459 158.902 285.327C157.12 284.353 155.335 283.394 153.546 282.453C153.301 282.325 152.999 282.419 152.87 282.663ZM889.588 284.721C889.535 284.992 889.712 285.254 889.983 285.307C891.948 285.689 893.911 286.071 895.872 286.451C896.143 286.503 896.406 286.326 896.458 286.055C896.511 285.784 896.334 285.522 896.062 285.469C894.101 285.089 892.139 284.708 890.174 284.325C889.903 284.273 889.641 284.45 889.588 284.721ZM1483.7 286.231C1483.43 286.241 1483.21 286.473 1483.22 286.749C1483.29 288.78 1483.28 290.777 1483.2 292.737C1483.18 293.013 1483.4 293.247 1483.67 293.259C1483.95 293.272 1484.18 293.058 1484.19 292.782C1484.29 290.794 1484.29 288.77 1484.22 286.713C1484.21 286.437 1483.98 286.222 1483.7 286.231ZM901.361 287.004C901.308 287.275 901.486 287.537 901.757 287.589C903.747 287.974 905.735 288.357 907.721 288.739C907.992 288.791 908.254 288.613 908.306 288.342C908.358 288.071 908.181 287.809 907.91 287.757C907.191 287.618 906.471 287.48 905.752 287.341C904.484 287.097 903.216 286.853 901.947 286.608C901.675 286.555 901.413 286.733 901.361 287.004ZM163.503 288.456C163.367 288.696 163.451 289.001 163.691 289.137C165.443 290.129 167.191 291.136 168.933 292.154C169.171 292.294 169.477 292.214 169.617 291.975C169.756 291.737 169.676 291.431 169.438 291.291C167.692 290.27 165.94 289.261 164.184 288.267C163.944 288.131 163.639 288.215 163.503 288.456ZM913.277 289.296C913.225 289.567 913.403 289.829 913.674 289.881C915.657 290.261 917.638 290.639 919.617 291.017C919.888 291.069 920.15 290.891 920.202 290.619C920.253 290.348 920.075 290.086 919.804 290.035C917.825 289.657 915.845 289.279 913.862 288.899C913.591 288.847 913.329 289.025 913.277 289.296ZM240.572 290.027C240.362 290.207 240.337 290.522 240.516 290.732C241.835 292.276 243.139 293.822 244.427 295.37C244.603 295.583 244.918 295.612 245.131 295.435C245.343 295.259 245.372 294.943 245.195 294.731C243.905 293.179 242.598 291.629 241.277 290.083C241.098 289.873 240.782 289.848 240.572 290.027ZM925.15 291.561C925.099 291.832 925.277 292.094 925.548 292.146C927.523 292.521 929.497 292.895 931.468 293.267C931.739 293.319 932.001 293.14 932.052 292.869C932.103 292.598 931.925 292.336 931.654 292.285C930.896 292.142 930.139 291.998 929.381 291.855C928.166 291.625 926.951 291.394 925.735 291.163C925.464 291.112 925.202 291.29 925.15 291.561ZM936.977 293.798C936.926 294.07 937.104 294.331 937.376 294.382C939.343 294.752 941.308 295.121 943.271 295.489C943.542 295.54 943.804 295.361 943.854 295.09C943.905 294.819 943.727 294.557 943.455 294.506C942.294 294.289 941.131 294.071 939.969 293.852C939.166 293.701 938.364 293.55 937.561 293.399C937.289 293.348 937.028 293.527 936.977 293.798ZM173.964 294.556C173.822 294.793 173.898 295.1 174.134 295.243C175.861 296.282 177.58 297.333 179.293 298.393C179.528 298.538 179.836 298.466 179.981 298.231C180.127 297.996 180.054 297.688 179.819 297.543C178.103 296.481 176.38 295.428 174.65 294.386C174.414 294.244 174.107 294.32 173.964 294.556ZM948.754 296.006C948.703 296.278 948.882 296.539 949.153 296.589C950.369 296.816 951.584 297.042 952.798 297.268C953.554 297.409 954.311 297.55 955.066 297.69C955.338 297.74 955.599 297.561 955.649 297.29C955.7 297.018 955.521 296.757 955.249 296.707C953.281 296.341 951.31 295.974 949.337 295.606C949.065 295.556 948.804 295.735 948.754 296.006ZM960.647 298.215C960.597 298.487 960.777 298.748 961.048 298.798C963.04 299.166 965.029 299.533 967.016 299.898C967.287 299.948 967.548 299.768 967.598 299.497C967.648 299.225 967.468 298.965 967.196 298.915C965.21 298.549 963.221 298.183 961.23 297.815C960.958 297.764 960.698 297.944 960.647 298.215ZM1483.2 298.355C1482.93 298.317 1482.68 298.507 1482.64 298.78C1482.35 300.781 1481.97 302.738 1481.49 304.647C1481.42 304.914 1481.59 305.186 1481.85 305.254C1482.12 305.322 1482.39 305.159 1482.46 304.892C1482.95 302.947 1483.34 300.955 1483.63 298.92C1483.67 298.647 1483.48 298.394 1483.2 298.355ZM248.317 299.32C248.102 299.494 248.069 299.809 248.243 300.023C249.514 301.596 250.769 303.17 252.006 304.747C252.176 304.964 252.49 305.002 252.708 304.832C252.925 304.661 252.963 304.347 252.792 304.13C251.552 302.549 250.295 300.971 249.02 299.395C248.847 299.18 248.532 299.147 248.317 299.32ZM972.566 300.408C972.516 300.68 972.696 300.94 972.968 300.99C974.949 301.353 976.928 301.714 978.904 302.074C979.176 302.123 979.436 301.943 979.486 301.671C979.535 301.399 979.355 301.139 979.083 301.09C977.108 300.73 975.129 300.369 973.148 300.006C972.876 299.957 972.616 300.136 972.566 300.408ZM184.255 300.91C184.107 301.143 184.176 301.452 184.409 301.6C186.118 302.684 187.819 303.777 189.511 304.875C189.743 305.026 190.052 304.96 190.203 304.728C190.353 304.497 190.287 304.187 190.056 304.037C188.361 302.936 186.657 301.842 184.945 300.755C184.712 300.607 184.403 300.677 184.255 300.91ZM984.422 302.568C984.373 302.839 984.554 303.099 984.825 303.149C986.796 303.506 988.764 303.861 990.73 304.215C991.002 304.264 991.262 304.084 991.311 303.812C991.36 303.54 991.179 303.28 990.907 303.231C988.942 302.877 986.974 302.522 985.004 302.165C984.732 302.115 984.472 302.296 984.422 302.568ZM996.214 304.693C996.165 304.965 996.346 305.224 996.618 305.273C998.578 305.624 1000.53 305.974 1002.49 306.322C1002.76 306.371 1003.02 306.19 1003.07 305.918C1003.12 305.646 1002.94 305.386 1002.66 305.338C1000.71 304.99 998.754 304.64 996.794 304.289C996.522 304.24 996.263 304.421 996.214 304.693ZM1008.07 306.806C1008.02 307.078 1008.2 307.338 1008.47 307.386C1010.48 307.741 1012.47 308.094 1014.47 308.445C1014.74 308.493 1015 308.311 1015.05 308.039C1015.1 307.768 1014.91 307.508 1014.64 307.46C1013.34 307.231 1012.04 307.001 1010.74 306.771C1010.04 306.648 1009.34 306.525 1008.65 306.401C1008.38 306.353 1008.12 306.534 1008.07 306.806ZM194.418 307.496C194.265 307.726 194.328 308.036 194.558 308.189C196.245 309.307 197.921 310.43 199.586 311.557C199.815 311.712 200.125 311.652 200.28 311.423C200.435 311.194 200.375 310.883 200.146 310.729C198.479 309.601 196.8 308.476 195.111 307.355C194.881 307.203 194.571 307.265 194.418 307.496ZM1020.04 308.916C1019.99 309.188 1020.17 309.447 1020.44 309.495C1022.43 309.843 1024.42 310.19 1026.4 310.534C1026.67 310.582 1026.93 310.4 1026.98 310.128C1027.03 309.856 1026.84 309.597 1026.57 309.549C1024.59 309.204 1022.6 308.858 1020.62 308.51C1020.34 308.462 1020.09 308.644 1020.04 308.916ZM255.814 308.854C255.594 309.021 255.551 309.335 255.718 309.555C256.937 311.159 258.137 312.766 259.317 314.374C259.48 314.596 259.793 314.644 260.016 314.481C260.239 314.318 260.287 314.005 260.123 313.782C258.94 312.169 257.737 310.559 256.514 308.95C256.347 308.73 256.034 308.687 255.814 308.854ZM1480.32 310.109C1480.06 310.01 1479.77 310.138 1479.67 310.396C1478.95 312.258 1478.12 314.067 1477.17 315.821C1477.04 316.064 1477.13 316.367 1477.37 316.499C1477.61 316.63 1477.92 316.54 1478.05 316.297C1479.02 314.505 1479.87 312.657 1480.6 310.755C1480.7 310.498 1480.57 310.208 1480.32 310.109ZM1031.93 310.986C1031.88 311.258 1032.06 311.517 1032.34 311.564C1033.32 311.735 1034.31 311.905 1035.3 312.075C1036.28 312.245 1037.27 312.415 1038.25 312.584C1038.52 312.631 1038.78 312.448 1038.83 312.176C1038.87 311.904 1038.69 311.645 1038.42 311.598C1036.45 311.26 1034.48 310.92 1032.51 310.579C1032.23 310.532 1031.97 310.714 1031.93 310.986ZM1043.73 313.017C1043.69 313.289 1043.87 313.547 1044.14 313.594C1046.1 313.928 1048.06 314.262 1050.02 314.593C1050.29 314.639 1050.55 314.456 1050.59 314.184C1050.64 313.911 1050.45 313.653 1050.18 313.607C1049 313.406 1047.81 313.205 1046.63 313.003C1045.86 312.871 1045.08 312.74 1044.31 312.608C1044.04 312.561 1043.78 312.744 1043.73 313.017ZM204.463 314.278C204.306 314.506 204.363 314.817 204.591 314.974C206.247 316.115 207.891 317.257 209.521 318.399C209.748 318.558 210.059 318.503 210.218 318.277C210.376 318.05 210.321 317.739 210.095 317.58C208.463 316.437 206.816 315.293 205.158 314.15C204.931 313.994 204.619 314.051 204.463 314.278ZM1055.56 315.023C1055.51 315.295 1055.7 315.553 1055.97 315.599C1057.98 315.938 1059.99 316.275 1061.99 316.61C1062.26 316.656 1062.52 316.472 1062.57 316.199C1062.61 315.927 1062.43 315.669 1062.16 315.624C1060.15 315.289 1058.15 314.952 1056.13 314.613C1055.86 314.567 1055.6 314.751 1055.56 315.023ZM1067.58 317.035C1067.53 317.307 1067.72 317.564 1067.99 317.61C1069.99 317.941 1071.98 318.27 1073.96 318.598C1074.24 318.643 1074.49 318.458 1074.54 318.186C1074.58 317.913 1074.4 317.656 1074.13 317.611C1072.14 317.284 1070.15 316.954 1068.15 316.623C1067.88 316.578 1067.62 316.762 1067.58 317.035ZM262.964 318.572C262.739 318.732 262.685 319.044 262.845 319.269C264.021 320.932 265.175 322.597 266.307 324.263C266.462 324.492 266.773 324.551 267.002 324.396C267.23 324.241 267.289 323.93 267.134 323.701C265.999 322.03 264.841 320.36 263.661 318.692C263.502 318.466 263.19 318.413 262.964 318.572ZM1079.5 319C1079.46 319.272 1079.64 319.529 1079.91 319.574C1081.89 319.897 1083.86 320.219 1085.83 320.538C1086.11 320.582 1086.36 320.397 1086.41 320.125C1086.45 319.852 1086.27 319.595 1085.99 319.551C1084.03 319.232 1082.05 318.91 1080.07 318.587C1079.8 318.542 1079.54 318.727 1079.5 319ZM1091.32 320.917C1091.27 321.19 1091.46 321.447 1091.73 321.49C1093.69 321.806 1095.65 322.119 1097.6 322.431C1097.87 322.474 1098.13 322.288 1098.17 322.016C1098.21 321.743 1098.03 321.487 1097.76 321.443C1095.8 321.132 1093.85 320.818 1091.89 320.503C1091.62 320.459 1091.36 320.645 1091.32 320.917ZM1474.66 320.795C1474.44 320.633 1474.13 320.682 1473.96 320.906C1472.81 322.491 1471.54 324.023 1470.15 325.496C1469.97 325.697 1469.97 326.014 1470.18 326.203C1470.38 326.393 1470.69 326.383 1470.88 326.182C1472.3 324.678 1473.59 323.114 1474.77 321.493C1474.93 321.27 1474.89 320.957 1474.66 320.795ZM214.388 321.22C214.228 321.445 214.281 321.758 214.506 321.918C216.154 323.09 217.787 324.26 219.404 325.426C219.628 325.587 219.94 325.537 220.102 325.313C220.263 325.089 220.213 324.776 219.989 324.615C218.37 323.448 216.735 322.276 215.086 321.103C214.861 320.943 214.548 320.995 214.388 321.22ZM1103.14 322.805C1103.1 323.078 1103.28 323.334 1103.56 323.377C1105.58 323.697 1107.6 324.014 1109.61 324.329C1109.88 324.372 1110.13 324.186 1110.18 323.913C1110.22 323.64 1110.03 323.384 1109.76 323.341C1107.75 323.026 1105.73 322.709 1103.71 322.389C1103.44 322.346 1103.18 322.532 1103.14 322.805ZM1115.21 324.697C1115.16 324.97 1115.35 325.225 1115.62 325.268C1117.62 325.578 1119.62 325.887 1121.61 326.193C1121.88 326.235 1122.14 326.047 1122.18 325.774C1122.22 325.501 1122.04 325.246 1121.76 325.204C1119.77 324.898 1117.78 324.59 1115.78 324.28C1115.5 324.237 1115.25 324.424 1115.21 324.697ZM1127.15 326.534C1127.1 326.807 1127.29 327.062 1127.56 327.103C1129.54 327.405 1131.52 327.703 1133.49 328C1133.76 328.041 1134.01 327.853 1134.05 327.58C1134.1 327.307 1133.91 327.052 1133.63 327.011C1131.67 326.715 1129.69 326.416 1127.71 326.115C1127.44 326.073 1127.19 326.261 1127.15 326.534ZM1138.95 328.314C1138.91 328.587 1139.1 328.841 1139.37 328.882C1141.33 329.174 1143.28 329.463 1145.23 329.75C1145.5 329.79 1145.75 329.601 1145.8 329.328C1145.84 329.055 1145.65 328.801 1145.37 328.761C1143.43 328.474 1141.48 328.185 1139.52 327.893C1139.25 327.852 1138.99 328.041 1138.95 328.314ZM224.201 328.288C224.038 328.511 224.087 328.824 224.31 328.987C225.958 330.191 227.587 331.388 229.196 332.576C229.418 332.74 229.731 332.693 229.895 332.471C230.059 332.249 230.012 331.936 229.79 331.772C228.179 330.582 226.549 329.384 224.9 328.18C224.677 328.017 224.364 328.065 224.201 328.288ZM269.779 328.573C269.548 328.724 269.482 329.033 269.633 329.265C270.175 330.099 270.712 330.934 271.243 331.768C271.84 332.709 272.426 333.632 272.998 334.539C273.146 334.772 273.454 334.842 273.688 334.694C273.921 334.547 273.991 334.238 273.844 334.005C273.27 333.097 272.685 332.173 272.087 331.232C271.554 330.394 271.015 329.557 270.471 328.72C270.32 328.488 270.01 328.423 269.779 328.573ZM1466.47 329.684C1466.29 329.472 1465.98 329.444 1465.77 329.621C1464.27 330.869 1462.68 332.066 1460.97 333.21C1460.74 333.363 1460.68 333.674 1460.83 333.903C1460.98 334.133 1461.3 334.194 1461.52 334.041C1463.26 332.878 1464.89 331.66 1466.41 330.389C1466.62 330.212 1466.65 329.896 1466.47 329.684ZM1150.85 330.069C1150.81 330.342 1151 330.596 1151.27 330.635C1153.3 330.931 1155.32 331.224 1157.33 331.514C1157.61 331.553 1157.86 331.363 1157.9 331.09C1157.94 330.817 1157.75 330.563 1157.48 330.524C1155.46 330.234 1153.44 329.941 1151.41 329.646C1151.14 329.606 1150.89 329.795 1150.85 330.069ZM1162.94 331.81C1162.9 332.083 1163.09 332.337 1163.36 332.375C1165.36 332.66 1167.36 332.942 1169.35 333.22C1169.62 333.259 1169.87 333.068 1169.91 332.795C1169.95 332.521 1169.76 332.268 1169.48 332.23C1167.5 331.951 1165.5 331.67 1163.5 331.385C1163.23 331.346 1162.97 331.537 1162.94 331.81ZM1174.86 333.485C1174.83 333.758 1175.02 334.011 1175.29 334.049C1177.27 334.322 1179.23 334.592 1181.19 334.86C1181.47 334.897 1181.72 334.705 1181.76 334.432C1181.79 334.158 1181.6 333.906 1181.33 333.869C1179.37 333.601 1177.4 333.331 1175.43 333.058C1175.15 333.02 1174.9 333.211 1174.86 333.485ZM1186.63 335.091C1186.59 335.365 1186.78 335.617 1187.06 335.654C1189.05 335.922 1191.04 336.187 1193.02 336.449C1193.3 336.486 1193.55 336.293 1193.58 336.019C1193.62 335.746 1193.43 335.494 1193.15 335.458C1191.17 335.196 1189.18 334.931 1187.19 334.662C1186.92 334.626 1186.66 334.818 1186.63 335.091ZM233.914 335.455C233.749 335.676 233.795 335.989 234.016 336.155C235.672 337.389 237.303 338.612 238.91 339.82C239.131 339.986 239.445 339.942 239.611 339.721C239.776 339.501 239.732 339.187 239.511 339.021C237.904 337.812 236.271 336.588 234.614 335.353C234.393 335.188 234.08 335.233 233.914 335.455ZM1456.52 336.501C1456.39 336.258 1456.09 336.168 1455.85 336.3C1454.1 337.251 1452.25 338.157 1450.31 339.014C1450.06 339.126 1449.94 339.421 1450.06 339.673C1450.17 339.926 1450.46 340.04 1450.72 339.929C1452.68 339.061 1454.55 338.144 1456.32 337.179C1456.57 337.047 1456.66 336.743 1456.52 336.501ZM1198.7 336.691C1198.66 336.965 1198.86 337.215 1199.13 337.251C1201.16 337.515 1203.18 337.776 1205.19 338.033C1205.46 338.068 1205.71 337.874 1205.75 337.6C1205.78 337.326 1205.59 337.076 1205.32 337.041C1203.3 336.784 1201.29 336.523 1199.26 336.259C1198.98 336.224 1198.73 336.417 1198.7 336.691ZM1210.76 338.236C1210.73 338.51 1210.92 338.76 1211.2 338.794C1213.19 339.045 1215.18 339.292 1217.16 339.536C1217.43 339.569 1217.68 339.374 1217.71 339.1C1217.75 338.826 1217.55 338.577 1217.28 338.543C1215.3 338.299 1213.32 338.052 1211.32 337.802C1211.05 337.768 1210.8 337.962 1210.76 338.236ZM276.446 339.093C276.212 339.239 276.14 339.547 276.286 339.781C277.333 341.463 278.33 343.081 279.28 344.634C279.424 344.87 279.731 344.944 279.967 344.8C280.203 344.656 280.277 344.349 280.133 344.113C279.182 342.557 278.183 340.937 277.135 339.253C276.989 339.019 276.681 338.947 276.446 339.093ZM1222.63 339.7C1222.59 339.974 1222.79 340.223 1223.06 340.256C1225.02 340.493 1226.97 340.726 1228.92 340.956C1229.19 340.988 1229.44 340.792 1229.47 340.518C1229.51 340.244 1229.31 339.995 1229.03 339.963C1227.09 339.733 1225.14 339.5 1223.18 339.263C1222.91 339.23 1222.66 339.426 1222.63 339.7ZM1234.47 341.103C1234.44 341.377 1234.64 341.625 1234.91 341.657C1236.97 341.894 1239.01 342.128 1241.05 342.357C1241.32 342.388 1241.57 342.191 1241.6 341.917C1241.63 341.642 1241.43 341.395 1241.16 341.364C1239.13 341.134 1237.08 340.901 1235.03 340.663C1234.75 340.632 1234.5 340.828 1234.47 341.103ZM1445.54 341.487C1445.44 341.228 1445.16 341.094 1444.9 341.189C1443.01 341.875 1441.05 342.522 1439.01 343.129C1438.74 343.208 1438.59 343.486 1438.67 343.751C1438.75 344.015 1439.03 344.166 1439.29 344.088C1441.35 343.475 1443.34 342.822 1445.24 342.128C1445.5 342.034 1445.63 341.747 1445.54 341.487ZM1246.68 342.482C1246.65 342.757 1246.85 343.003 1247.12 343.034C1249.14 343.255 1251.14 343.472 1253.13 343.685C1253.41 343.714 1253.66 343.516 1253.68 343.241C1253.71 342.966 1253.52 342.72 1253.24 342.691C1251.25 342.478 1249.25 342.261 1247.23 342.04C1246.96 342.009 1246.71 342.208 1246.68 342.482ZM243.559 342.701C243.392 342.921 243.435 343.235 243.656 343.401C245.324 344.664 246.963 345.908 248.57 347.13C248.79 347.297 249.103 347.254 249.27 347.035C249.438 346.815 249.395 346.501 249.175 346.334C247.568 345.112 245.929 343.867 244.259 342.604C244.039 342.437 243.725 342.481 243.559 342.701ZM1258.64 343.762C1258.61 344.037 1258.81 344.283 1259.08 344.311C1261.05 344.516 1263.01 344.716 1264.96 344.912C1265.24 344.94 1265.48 344.739 1265.51 344.465C1265.54 344.19 1265.34 343.945 1265.06 343.917C1263.12 343.721 1261.16 343.521 1259.19 343.317C1258.91 343.288 1258.66 343.488 1258.64 343.762ZM1270.33 344.941C1270.31 345.216 1270.51 345.461 1270.78 345.487C1272.86 345.69 1274.93 345.887 1276.98 346.079C1277.26 346.105 1277.5 345.903 1277.53 345.628C1277.55 345.353 1277.35 345.109 1277.08 345.083C1275.02 344.891 1272.96 344.694 1270.88 344.492C1270.6 344.465 1270.36 344.666 1270.33 344.941ZM1433.82 345.054C1433.76 344.786 1433.49 344.621 1433.22 344.686C1431.36 345.139 1429.43 345.562 1427.45 345.953C1427.17 346.007 1427 346.27 1427.05 346.541C1427.11 346.812 1427.37 346.988 1427.64 346.935C1429.64 346.54 1431.58 346.115 1433.46 345.658C1433.72 345.593 1433.89 345.323 1433.82 345.054ZM1282.66 346.098C1282.64 346.373 1282.84 346.616 1283.11 346.641C1285.14 346.823 1287.16 347 1289.16 347.172C1289.44 347.195 1289.68 346.992 1289.71 346.716C1289.73 346.441 1289.53 346.199 1289.25 346.176C1287.25 346.004 1285.23 345.827 1283.2 345.645C1282.93 345.62 1282.69 345.823 1282.66 346.098ZM1294.68 347.133C1294.65 347.408 1294.86 347.649 1295.13 347.672C1297.11 347.833 1299.07 347.989 1301.02 348.14C1301.3 348.161 1301.54 347.955 1301.56 347.68C1301.58 347.404 1301.37 347.164 1301.1 347.143C1299.15 346.992 1297.19 346.836 1295.22 346.675C1294.94 346.652 1294.7 346.857 1294.68 347.133ZM1421.88 347.452C1421.83 347.179 1421.58 346.992 1421.31 347.035C1420.25 347.199 1419.18 347.356 1418.1 347.505C1417.19 347.629 1416.27 347.749 1415.34 347.864C1415.06 347.898 1414.87 348.147 1414.9 348.421C1414.94 348.695 1415.19 348.89 1415.46 348.856C1416.4 348.74 1417.32 348.62 1418.23 348.495C1419.32 348.346 1420.4 348.188 1421.46 348.023C1421.73 347.98 1421.92 347.725 1421.88 347.452ZM1306.36 348.041C1306.34 348.316 1306.55 348.556 1306.82 348.576C1308.92 348.729 1311 348.875 1313.06 349.015C1313.34 349.034 1313.58 348.825 1313.59 348.55C1313.61 348.274 1313.4 348.036 1313.13 348.017C1311.07 347.877 1308.99 347.731 1306.9 347.578C1306.62 347.558 1306.38 347.765 1306.36 348.041ZM1318.75 348.886C1318.73 349.162 1318.94 349.399 1319.22 349.416C1321.25 349.544 1323.27 349.664 1325.27 349.778C1325.54 349.794 1325.78 349.583 1325.8 349.308C1325.81 349.032 1325.6 348.796 1325.33 348.78C1323.33 348.666 1321.31 348.546 1319.28 348.418C1319 348.401 1318.77 348.611 1318.75 348.886ZM1410.14 348.951C1410.12 348.676 1409.87 348.475 1409.6 348.503C1407.63 348.698 1405.62 348.876 1403.56 349.037C1403.29 349.059 1403.08 349.299 1403.1 349.575C1403.12 349.85 1403.36 350.056 1403.64 350.034C1405.71 349.873 1407.72 349.694 1409.7 349.498C1409.97 349.471 1410.17 349.226 1410.14 348.951ZM1330.74 349.575C1330.72 349.851 1330.94 350.086 1331.21 350.1C1333.18 350.2 1335.12 350.294 1337.05 350.381C1337.32 350.393 1337.56 350.18 1337.57 349.904C1337.58 349.628 1337.37 349.395 1337.09 349.382C1335.17 349.295 1333.23 349.202 1331.26 349.101C1330.99 349.087 1330.75 349.299 1330.74 349.575ZM282.741 349.397C282.504 349.539 282.426 349.845 282.567 350.083C283.612 351.841 284.583 353.501 285.481 355.067C285.619 355.307 285.924 355.39 286.164 355.252C286.403 355.115 286.486 354.809 286.349 354.57C285.447 352.998 284.474 351.333 283.426 349.572C283.285 349.334 282.978 349.256 282.741 349.397ZM1397.76 349.938C1397.75 349.662 1397.51 349.452 1397.24 349.468C1395.33 349.58 1393.38 349.679 1391.4 349.765C1391.13 349.777 1390.91 350.01 1390.93 350.286C1390.94 350.562 1391.17 350.776 1391.45 350.764C1393.43 350.678 1395.38 350.579 1397.29 350.467C1397.57 350.45 1397.78 350.214 1397.76 349.938ZM1342.6 350.114C1342.58 350.39 1342.8 350.622 1343.08 350.633C1345.18 350.713 1347.26 350.785 1349.32 350.849C1349.59 350.857 1349.83 350.64 1349.83 350.364C1349.84 350.088 1349.63 349.858 1349.35 349.849C1347.29 349.786 1345.22 349.714 1343.11 349.633C1342.84 349.623 1342.61 349.838 1342.6 350.114ZM253.201 350.027C253.034 350.247 253.076 350.561 253.296 350.728L254.372 351.548C255.676 352.542 256.956 353.517 258.209 354.47C258.429 354.638 258.742 354.595 258.91 354.375C259.077 354.156 259.034 353.842 258.814 353.675C257.53 352.697 256.219 351.698 254.881 350.679L253.902 349.933C253.682 349.765 253.369 349.808 253.201 350.027ZM1386.07 350.461C1386.06 350.185 1385.83 349.968 1385.56 349.976C1383.58 350.035 1381.56 350.081 1379.51 350.115C1379.24 350.12 1379.02 350.348 1379.02 350.624C1379.03 350.9 1379.25 351.12 1379.53 351.115C1381.58 351.081 1383.6 351.034 1385.59 350.976C1385.86 350.968 1386.08 350.737 1386.07 350.461ZM1354.93 350.501C1354.93 350.777 1355.14 351.006 1355.42 351.013C1357.43 351.058 1359.42 351.095 1361.38 351.124C1361.66 351.128 1361.88 350.907 1361.89 350.631C1361.89 350.355 1361.67 350.128 1361.39 350.124C1359.43 350.096 1357.45 350.059 1355.44 350.013C1355.17 350.007 1354.94 350.225 1354.93 350.501ZM1367.19 351.181C1369.25 351.192 1371.27 351.193 1373.27 351.183C1373.55 351.181 1373.77 350.956 1373.77 350.68C1373.77 350.404 1373.54 350.181 1373.27 350.183C1371.27 350.193 1369.25 350.192 1367.2 350.181C1366.92 350.18 1366.7 350.402 1366.7 350.678C1366.69 350.955 1366.92 351.18 1367.19 351.181ZM262.827 357.35C262.66 357.571 262.703 357.884 262.923 358.051C264.629 359.342 266.278 360.586 267.868 361.776C268.089 361.941 268.403 361.896 268.568 361.675C268.734 361.454 268.688 361.14 268.467 360.975C266.88 359.787 265.232 358.544 263.527 357.254C263.307 357.087 262.993 357.13 262.827 357.35ZM288.742 359.875C288.499 360.006 288.408 360.309 288.539 360.553C289.584 362.493 290.479 364.241 291.23 365.806C291.35 366.055 291.648 366.16 291.897 366.04C292.146 365.921 292.251 365.622 292.132 365.373C291.372 363.791 290.47 362.03 289.419 360.078C289.288 359.835 288.985 359.744 288.742 359.875ZM272.609 364.671C272.446 364.894 272.495 365.207 272.717 365.37C274.414 366.613 276.026 367.776 277.549 368.849C277.775 369.008 278.087 368.955 278.246 368.729C278.405 368.503 278.351 368.191 278.125 368.032C276.609 366.963 275.001 365.804 273.308 364.563C273.085 364.4 272.773 364.448 272.609 364.671ZM293.853 370.651C293.591 370.739 293.451 371.023 293.539 371.285C294.069 372.861 294.288 374.02 294.255 374.821C294.223 375.605 293.964 375.938 293.629 376.084C293.375 376.195 293.26 376.489 293.37 376.742C293.48 376.996 293.775 377.111 294.028 377.001C294.844 376.645 295.214 375.863 295.254 374.861C295.294 373.876 295.029 372.577 294.486 370.965C294.398 370.704 294.115 370.563 293.853 370.651ZM282.503 371.631C282.352 371.863 282.417 372.172 282.649 372.323C284.607 373.598 286.353 374.649 287.869 375.444C288.113 375.572 288.415 375.478 288.544 375.233C288.672 374.988 288.578 374.686 288.333 374.558C286.855 373.783 285.138 372.75 283.194 371.485C282.963 371.334 282.653 371.4 282.503 371.631Z" fill="#8DB7F9" fill-opacity="0.28"/>
</svg>
