<svg width="1727" height="378" viewBox="0 0 1727 378" fill="none" xmlns="http://www.w3.org/2000/svg">
<path fill-rule="evenodd" clip-rule="evenodd" d="M0.0951075 376.992C0.2571 377.216 0.569714 377.266 0.79335 377.104C1.6341 376.495 2.46443 375.883 3.28443 375.269C3.50548 375.104 3.55051 374.79 3.38501 374.569C3.21951 374.348 2.90614 374.303 2.68509 374.469C1.86933 375.079 1.04324 375.688 0.206722 376.294C-0.0169134 376.456 -0.0668851 376.768 0.0951075 376.992ZM7.37865 371.479C7.55117 371.694 7.86583 371.729 8.08144 371.557C9.63973 370.31 11.1576 369.054 12.6359 367.789C12.8457 367.609 12.8702 367.293 12.6907 367.084C12.5112 366.874 12.1955 366.849 11.9857 367.029C10.5159 368.287 9.00646 369.536 7.45665 370.776C7.24104 370.948 7.20612 371.263 7.37865 371.479ZM16.4323 363.767C16.6191 363.97 16.9354 363.984 17.1388 363.797C18.6396 362.418 20.0958 361.03 21.5084 359.632C21.7047 359.438 21.7064 359.122 21.5122 358.925C21.318 358.729 21.0015 358.727 20.8051 358.922C19.4014 360.31 17.9541 361.69 16.4623 363.061C16.2589 363.247 16.2455 363.564 16.4323 363.767ZM24.9099 355.436C25.1114 355.625 25.4278 355.615 25.6167 355.414C27.0208 353.916 28.3774 352.409 29.6876 350.892C29.8681 350.684 29.8451 350.368 29.6362 350.187C29.4273 350.007 29.1115 350.03 28.931 350.239C27.6296 351.744 26.2821 353.242 24.8871 354.73C24.6983 354.931 24.7085 355.248 24.9099 355.436ZM417.393 346.659C416.859 347.83 415.497 348.487 412.732 348.207C412.457 348.179 412.212 348.379 412.184 348.654C412.156 348.929 412.356 349.174 412.631 349.202C415.508 349.493 417.488 348.86 418.303 347.074C418.417 346.823 418.307 346.526 418.055 346.412C417.804 346.297 417.508 346.408 417.393 346.659ZM407.32 347.491C407.406 347.228 407.263 346.946 407 346.86C405.298 346.304 403.381 345.579 401.239 344.678C400.984 344.571 400.691 344.691 400.584 344.945C400.477 345.2 400.597 345.493 400.851 345.6C403.013 346.509 404.956 347.244 406.69 347.811C406.952 347.896 407.235 347.753 407.32 347.491ZM32.8032 346.367C33.0194 346.539 33.334 346.503 33.5058 346.287C34.7564 344.713 35.9596 343.13 37.1166 341.54C37.2791 341.316 37.2298 341.004 37.0065 340.841C36.7831 340.679 36.4704 340.728 36.308 340.951C35.1593 342.53 33.9647 344.102 32.7228 345.665C32.551 345.881 32.587 346.195 32.8032 346.367ZM396.012 342.892C396.13 342.643 396.023 342.345 395.774 342.227C394.792 341.763 393.775 341.271 392.721 340.75C391.824 340.307 390.93 339.864 390.04 339.42C389.793 339.297 389.492 339.397 389.369 339.644C389.246 339.892 389.346 340.192 389.594 340.315C390.485 340.759 391.38 341.203 392.278 341.647C393.337 342.17 394.359 342.664 395.346 343.131C395.596 343.249 395.894 343.142 396.012 342.892ZM417.579 341.586C417.841 341.498 417.982 341.215 417.895 340.953C417.34 339.294 416.505 337.402 415.426 335.299C415.3 335.053 414.998 334.956 414.753 335.082C414.507 335.208 414.41 335.51 414.536 335.755C415.602 337.832 416.413 339.676 416.946 341.27C417.034 341.532 417.317 341.673 417.579 341.586ZM384.95 337.42C385.075 337.174 384.977 336.873 384.731 336.748C382.952 335.843 381.185 334.936 379.43 334.027C379.184 333.899 378.883 333.995 378.756 334.24C378.628 334.486 378.724 334.787 378.969 334.914C380.727 335.825 382.496 336.733 384.278 337.639C384.524 337.764 384.825 337.666 384.95 337.42ZM39.8714 336.715C40.1017 336.868 40.4119 336.805 40.5643 336.574C41.6651 334.911 42.718 333.241 43.7246 331.564C43.8666 331.327 43.7899 331.02 43.5531 330.878C43.3163 330.736 43.0092 330.812 42.8671 331.049C41.8682 332.714 40.8231 334.372 39.7305 336.022C39.578 336.253 39.6411 336.563 39.8714 336.715ZM374.361 331.941C374.49 331.696 374.396 331.394 374.152 331.265C372.393 330.336 370.644 329.402 368.902 328.464C368.659 328.333 368.355 328.424 368.225 328.667C368.094 328.91 368.185 329.214 368.428 329.345C370.172 330.284 371.924 331.219 373.685 332.149C373.929 332.278 374.232 332.185 374.361 331.941ZM412.206 330.535C412.443 330.393 412.52 330.086 412.379 329.849C411.409 328.226 410.34 326.512 409.179 324.712C409.03 324.48 408.72 324.414 408.488 324.563C408.256 324.713 408.189 325.022 408.339 325.255C409.495 327.046 410.558 328.751 411.52 330.362C411.662 330.599 411.969 330.676 412.206 330.535ZM363.871 326.301C364.004 326.059 363.915 325.755 363.673 325.622C361.931 324.667 360.195 323.705 358.463 322.738C358.222 322.603 357.917 322.689 357.782 322.93C357.648 323.172 357.734 323.476 357.975 323.611C359.71 324.58 361.448 325.542 363.192 326.499C363.434 326.632 363.738 326.543 363.871 326.301ZM46.0471 326.497C46.2902 326.628 46.5935 326.537 46.7245 326.294C47.6774 324.527 48.5813 322.754 49.4381 320.975C49.5579 320.726 49.4534 320.427 49.2046 320.307C48.9558 320.187 48.657 320.292 48.5372 320.541C47.687 322.306 46.7899 324.066 45.8443 325.82C45.7133 326.063 45.8041 326.366 46.0471 326.497ZM353.465 320.498C353.601 320.258 353.517 319.952 353.277 319.816C351.554 318.837 349.833 317.85 348.112 316.856C347.872 316.718 347.567 316.8 347.428 317.039C347.29 317.278 347.372 317.584 347.611 317.722C349.335 318.717 351.058 319.705 352.783 320.685C353.023 320.822 353.328 320.738 353.465 320.498ZM405.696 320.346C405.925 320.192 405.985 319.881 405.83 319.652C404.723 318.015 403.555 316.32 402.333 314.571C402.175 314.344 401.863 314.289 401.637 314.447C401.41 314.605 401.355 314.917 401.513 315.143C402.733 316.889 403.898 318.58 405.002 320.212C405.157 320.441 405.468 320.501 405.696 320.346ZM51.2655 315.762C51.5196 315.871 51.8133 315.752 51.9215 315.498C52.7107 313.646 53.4512 311.788 54.1451 309.927C54.2415 309.668 54.11 309.38 53.8512 309.283C53.5925 309.187 53.3045 309.319 53.2081 309.577C52.5195 311.424 51.7846 313.268 51.0015 315.107C50.8932 315.361 51.0115 315.654 51.2655 315.762ZM343.139 314.541C343.279 314.303 343.199 313.996 342.961 313.857C341.257 312.857 339.551 311.848 337.841 310.83C337.604 310.689 337.297 310.767 337.156 311.004C337.014 311.241 337.092 311.548 337.329 311.689C339.041 312.708 340.749 313.718 342.455 314.719C342.693 314.859 342.999 314.779 343.139 314.541ZM398.737 310.345C398.961 310.184 399.014 309.872 398.853 309.647C397.699 308.031 396.506 306.375 395.278 304.682C395.116 304.458 394.803 304.408 394.58 304.57C394.356 304.733 394.306 305.045 394.468 305.269C395.695 306.961 396.887 308.615 398.039 310.228C398.2 310.453 398.512 310.505 398.737 310.345ZM332.907 308.457C333.05 308.22 332.974 307.913 332.737 307.77C331.045 306.749 329.348 305.718 327.643 304.677C327.407 304.533 327.099 304.607 326.956 304.843C326.812 305.078 326.886 305.386 327.121 305.53C328.828 306.573 330.527 307.604 332.22 308.627C332.457 308.769 332.764 308.693 332.907 308.457ZM55.4803 304.59C55.7431 304.675 56.0248 304.53 56.1095 304.267C56.7272 302.349 57.2977 300.428 57.8232 298.505C57.896 298.239 57.7391 297.964 57.4727 297.891C57.2063 297.818 56.9314 297.975 56.8586 298.242C56.3369 300.15 55.7706 302.057 55.1576 303.961C55.073 304.224 55.2174 304.506 55.4803 304.59ZM322.728 302.245C322.873 302.01 322.8 301.702 322.565 301.556C320.892 300.522 319.209 299.477 317.517 298.421C317.283 298.274 316.974 298.346 316.828 298.58C316.682 298.814 316.753 299.123 316.988 299.269C318.681 300.326 320.365 301.372 322.04 302.407C322.275 302.552 322.583 302.48 322.728 302.245ZM1747.77 300.588C1747.79 300.313 1747.59 300.072 1747.31 300.05C1745.53 299.906 1743.49 299.649 1741.17 299.274C1740.9 299.23 1740.64 299.415 1740.6 299.687C1740.56 299.96 1740.74 300.217 1741.01 300.261C1743.35 300.639 1745.42 300.901 1747.23 301.047C1747.51 301.069 1747.75 300.864 1747.77 300.588ZM1752.73 300.58C1752.77 300.854 1753.02 301.043 1753.29 301.003C1754.82 300.779 1755.99 300.343 1756.74 299.637C1757.52 298.901 1757.78 297.934 1757.62 296.827C1757.58 296.553 1757.32 296.365 1757.05 296.407C1756.77 296.448 1756.59 296.702 1756.63 296.975C1756.75 297.817 1756.55 298.436 1756.05 298.909C1755.52 299.409 1754.59 299.802 1753.15 300.013C1752.87 300.053 1752.69 300.307 1752.73 300.58ZM391.572 300.447C391.794 300.284 391.843 299.971 391.679 299.749C390.512 298.157 389.319 296.536 388.102 294.888C387.938 294.666 387.625 294.619 387.402 294.783C387.18 294.947 387.133 295.26 387.297 295.482C388.514 297.13 389.707 298.749 390.873 300.34C391.036 300.563 391.349 300.611 391.572 300.447ZM1735.9 298.82C1735.95 298.549 1735.78 298.285 1735.51 298.23C1733.64 297.852 1731.65 297.418 1729.52 296.927C1729.25 296.865 1728.98 297.033 1728.92 297.302C1728.85 297.571 1729.02 297.839 1729.29 297.901C1731.43 298.394 1733.43 298.83 1735.31 299.21C1735.58 299.265 1735.84 299.09 1735.9 298.82ZM1724.11 296.145C1724.18 295.877 1724.02 295.606 1723.75 295.539C1721.83 295.06 1719.82 294.543 1717.72 293.986C1717.45 293.916 1717.18 294.075 1717.11 294.342C1717.03 294.609 1717.19 294.883 1717.46 294.953C1719.57 295.51 1721.58 296.029 1723.51 296.509C1723.77 296.576 1724.04 296.413 1724.11 296.145ZM312.627 295.945C312.774 295.711 312.704 295.402 312.47 295.255C310.799 294.202 309.116 293.137 307.421 292.061C307.188 291.913 306.879 291.982 306.731 292.215C306.582 292.448 306.651 292.757 306.885 292.905C308.581 293.982 310.264 295.047 311.937 296.101C312.171 296.248 312.48 296.178 312.627 295.945ZM1712.47 293.088C1712.54 292.822 1712.38 292.547 1712.12 292.473C1710.18 291.941 1708.18 291.379 1706.1 290.788C1705.84 290.712 1705.56 290.866 1705.48 291.132C1705.41 291.398 1705.56 291.674 1705.83 291.75C1707.9 292.341 1709.91 292.904 1711.85 293.438C1712.12 293.511 1712.39 293.355 1712.47 293.088ZM58.6757 293.078C58.945 293.139 59.2129 292.971 59.274 292.701C59.7201 290.737 60.1216 288.772 60.4807 286.808C60.5304 286.536 60.3504 286.276 60.0788 286.226C59.8072 286.176 59.5467 286.356 59.497 286.628C59.1404 288.579 58.7418 290.53 58.2989 292.48C58.2377 292.749 58.4064 293.017 58.6757 293.078ZM1754.68 292.189C1754.9 292.018 1754.94 291.704 1754.77 291.487C1753.69 290.112 1752.32 288.596 1750.68 286.946C1750.49 286.749 1750.17 286.748 1749.97 286.942C1749.78 287.137 1749.78 287.453 1749.97 287.65C1751.59 289.283 1752.93 290.769 1753.98 292.105C1754.15 292.322 1754.47 292.36 1754.68 292.189ZM384.295 290.586C384.516 290.422 384.563 290.109 384.398 289.887C383.231 288.314 382.045 286.719 380.843 285.103C380.678 284.882 380.365 284.836 380.143 285C379.922 285.165 379.876 285.478 380.041 285.7C381.243 287.316 382.428 288.911 383.595 290.483C383.76 290.705 384.073 290.751 384.295 290.586ZM1700.71 289.755C1700.79 289.49 1700.64 289.212 1700.37 289.135C1698.53 288.598 1696.65 288.04 1694.71 287.462C1694.44 287.383 1694.17 287.534 1694.09 287.798C1694.01 288.063 1694.16 288.342 1694.42 288.42C1696.36 288.999 1698.25 289.557 1700.09 290.094C1700.36 290.172 1700.63 290.02 1700.71 289.755ZM302.569 289.562C302.718 289.33 302.65 289.02 302.417 288.872C300.76 287.811 299.089 286.739 297.404 285.654C297.172 285.505 296.862 285.572 296.713 285.804C296.563 286.037 296.63 286.346 296.863 286.495C298.548 287.58 300.22 288.653 301.879 289.714C302.111 289.863 302.42 289.795 302.569 289.562ZM1689.08 286.289C1689.16 286.025 1689.01 285.746 1688.74 285.666C1687.72 285.356 1686.69 285.041 1685.65 284.72C1684.77 284.453 1683.89 284.183 1682.99 283.911C1682.73 283.83 1682.45 283.979 1682.37 284.244C1682.29 284.508 1682.44 284.787 1682.7 284.867C1683.6 285.14 1684.48 285.41 1685.35 285.677C1686.06 285.895 1686.77 286.11 1687.47 286.324L1688.45 286.622C1688.72 286.703 1689 286.554 1689.08 286.289ZM1746.28 283.428C1746.47 283.224 1746.45 282.908 1746.25 282.722C1744.81 281.416 1743.26 280.045 1741.58 278.611C1741.37 278.431 1741.06 278.455 1740.88 278.665C1740.7 278.874 1740.72 279.19 1740.93 279.37C1742.6 280.799 1744.15 282.164 1745.57 283.461C1745.78 283.647 1746.1 283.632 1746.28 283.428ZM292.528 283.103C292.678 282.872 292.611 282.562 292.38 282.412C290.736 281.349 289.079 280.274 287.406 279.186C287.174 279.036 286.864 279.102 286.714 279.333C286.563 279.565 286.629 279.874 286.861 280.025C288.534 281.113 290.193 282.188 291.836 283.252C292.068 283.402 292.378 283.335 292.528 283.103ZM1677.8 282.865C1677.88 282.6 1677.73 282.322 1677.47 282.242C1675.58 281.676 1673.64 281.098 1671.66 280.511C1671.39 280.433 1671.11 280.584 1671.03 280.849C1670.96 281.113 1671.11 281.392 1671.37 281.47C1673.35 282.057 1675.29 282.634 1677.18 283.2C1677.44 283.279 1677.72 283.129 1677.8 282.865ZM60.8704 281.329C61.1438 281.368 61.3967 281.177 61.4353 280.904C61.7162 278.911 61.9558 276.919 62.1564 274.931C62.1841 274.656 61.9838 274.411 61.7091 274.383C61.4343 274.356 61.1891 274.556 61.1614 274.831C60.9621 276.806 60.7241 278.784 60.4451 280.764C60.4065 281.038 60.5969 281.291 60.8704 281.329ZM377.086 280.893C377.307 280.728 377.353 280.415 377.188 280.193C375.985 278.577 374.768 276.942 373.539 275.29C373.374 275.068 373.06 275.022 372.839 275.187C372.617 275.352 372.571 275.665 372.736 275.886C373.966 277.539 375.183 279.174 376.386 280.79C376.551 281.012 376.864 281.058 377.086 280.893ZM1665.9 279.339C1665.98 279.074 1665.83 278.796 1665.56 278.719C1663.71 278.178 1661.83 277.628 1659.9 277.071C1659.64 276.994 1659.36 277.147 1659.28 277.412C1659.21 277.678 1659.36 277.955 1659.62 278.032C1661.55 278.589 1663.43 279.138 1665.28 279.679C1665.55 279.756 1665.83 279.604 1665.9 279.339ZM282.551 276.622C282.702 276.391 282.637 276.081 282.405 275.93C280.758 274.855 279.095 273.769 277.415 272.669C277.184 272.518 276.874 272.583 276.723 272.814C276.571 273.045 276.636 273.355 276.867 273.506C278.547 274.606 280.211 275.693 281.859 276.768C282.09 276.919 282.4 276.853 282.551 276.622ZM1654.64 276.073C1654.71 275.808 1654.56 275.531 1654.3 275.454C1652.39 274.909 1650.46 274.356 1648.5 273.796C1648.23 273.721 1647.95 273.875 1647.88 274.14C1647.8 274.406 1647.96 274.682 1648.22 274.758C1650.19 275.317 1652.12 275.87 1654.02 276.416C1654.29 276.492 1654.56 276.338 1654.64 276.073ZM1737.15 275.529C1737.32 275.316 1737.29 275.001 1737.08 274.825C1735.56 273.569 1733.97 272.271 1732.31 270.933C1732.09 270.76 1731.78 270.794 1731.6 271.009C1731.43 271.224 1731.46 271.539 1731.68 271.712C1733.34 273.048 1734.93 274.343 1736.44 275.596C1736.66 275.772 1736.97 275.742 1737.15 275.529ZM1642.85 272.714C1642.93 272.449 1642.77 272.172 1642.51 272.097C1640.55 271.545 1638.57 270.987 1636.56 270.423C1636.29 270.348 1636.01 270.503 1635.94 270.769C1635.87 271.035 1636.02 271.311 1636.29 271.386C1638.3 271.95 1640.28 272.508 1642.23 273.06C1642.5 273.135 1642.78 272.98 1642.85 272.714ZM369.839 271.151C370.061 270.986 370.107 270.673 369.943 270.451C368.734 268.822 367.515 267.178 366.288 265.519C366.124 265.297 365.81 265.251 365.588 265.415C365.366 265.579 365.32 265.892 365.484 266.114C366.711 267.773 367.931 269.418 369.14 271.047C369.304 271.269 369.618 271.315 369.839 271.151ZM272.591 270.107C272.742 269.876 272.678 269.566 272.447 269.414C270.792 268.329 269.121 267.231 267.432 266.122C267.201 265.97 266.891 266.034 266.74 266.265C266.588 266.496 266.652 266.806 266.883 266.957C268.572 268.067 270.243 269.165 271.898 270.251C272.129 270.402 272.439 270.338 272.591 270.107ZM1631.33 269.481C1631.41 269.215 1631.25 268.939 1630.99 268.865C1629.11 268.341 1627.2 267.812 1625.28 267.278C1625.01 267.205 1624.73 267.361 1624.66 267.627C1624.59 267.893 1624.74 268.168 1625.01 268.242C1626.94 268.776 1628.84 269.305 1630.72 269.829C1630.98 269.903 1631.26 269.747 1631.33 269.481ZM62.1134 269.439C62.389 269.457 62.6265 269.247 62.6439 268.972C62.7706 266.963 62.8596 264.959 62.9135 262.961C62.921 262.685 62.7032 262.455 62.4272 262.448C62.1511 262.44 61.9213 262.658 61.9139 262.934C61.8603 264.921 61.7718 266.913 61.6459 268.909C61.6285 269.184 61.8378 269.422 62.1134 269.439ZM1727.72 267.911C1727.89 267.695 1727.85 267.38 1727.63 267.209C1726.08 265.976 1724.47 264.714 1722.81 263.422C1722.59 263.252 1722.28 263.291 1722.11 263.509C1721.94 263.726 1721.98 264.041 1722.19 264.21C1723.85 265.501 1725.46 266.762 1727.01 267.994C1727.23 268.165 1727.55 268.128 1727.72 267.911ZM1619.78 266.277C1619.85 266.011 1619.69 265.736 1619.43 265.662C1617.46 265.119 1615.46 264.571 1613.44 264.018C1613.18 263.945 1612.9 264.102 1612.83 264.368C1612.76 264.635 1612.91 264.91 1613.18 264.983C1615.2 265.535 1617.19 266.083 1619.16 266.627C1619.43 266.7 1619.7 266.544 1619.78 266.277ZM262.633 263.564C262.785 263.333 262.721 263.023 262.491 262.871C260.843 261.787 259.178 260.691 257.496 259.583C257.266 259.431 256.956 259.495 256.804 259.725C256.652 259.956 256.716 260.266 256.946 260.418C258.628 261.526 260.293 262.622 261.941 263.707C262.171 263.859 262.482 263.795 262.633 263.564ZM1607.83 263.004C1607.91 262.737 1607.75 262.462 1607.48 262.39C1605.63 261.885 1603.76 261.377 1601.88 260.865C1601.61 260.793 1601.34 260.95 1601.26 261.217C1601.19 261.483 1601.35 261.758 1601.62 261.83C1603.5 262.342 1605.37 262.85 1607.22 263.355C1607.49 263.427 1607.76 263.27 1607.83 263.004ZM362.576 261.334C362.799 261.17 362.846 260.857 362.682 260.635C361.493 259.02 360.298 257.393 359.098 255.755C358.935 255.532 358.622 255.483 358.399 255.647C358.176 255.81 358.128 256.123 358.291 256.345C359.492 257.985 360.688 259.613 361.877 261.228C362.041 261.45 362.354 261.498 362.576 261.334ZM1718.18 260.461C1718.35 260.242 1718.31 259.928 1718.09 259.759C1716.5 258.527 1714.86 257.272 1713.2 255.993C1712.98 255.824 1712.66 255.866 1712.5 256.085C1712.33 256.304 1712.37 256.618 1712.59 256.786C1714.25 258.065 1715.89 259.32 1717.48 260.551C1717.7 260.72 1718.01 260.679 1718.18 260.461ZM1596.52 259.933C1596.59 259.666 1596.43 259.391 1596.17 259.319C1594.24 258.801 1592.31 258.278 1590.35 257.752C1590.08 257.681 1589.81 257.839 1589.74 258.105C1589.67 258.372 1589.82 258.646 1590.09 258.718C1592.05 259.244 1593.98 259.766 1595.91 260.285C1596.17 260.357 1596.45 260.199 1596.52 259.933ZM62.4758 257.489C62.752 257.487 62.9742 257.261 62.9723 256.985C62.9582 254.972 62.9105 252.966 62.8318 250.968C62.821 250.692 62.5885 250.478 62.3125 250.488C62.0366 250.499 61.8217 250.732 61.8326 251.008C61.9109 252.995 61.9583 254.99 61.9723 256.992C61.9743 257.268 62.1997 257.49 62.4758 257.489ZM252.678 257.006C252.83 256.776 252.766 256.466 252.536 256.314C251.682 255.751 250.824 255.185 249.961 254.616L247.557 253.032C247.327 252.88 247.016 252.944 246.864 253.174C246.712 253.405 246.776 253.715 247.007 253.867C248.684 254.972 250.343 256.066 251.985 257.149C252.216 257.301 252.526 257.237 252.678 257.006ZM1584.79 256.777C1584.86 256.51 1584.7 256.236 1584.43 256.165C1583.16 255.824 1581.88 255.482 1580.6 255.139L1578.41 254.557C1578.15 254.486 1577.87 254.644 1577.8 254.911C1577.73 255.178 1577.89 255.452 1578.16 255.523C1580.18 256.062 1582.19 256.598 1584.17 257.131C1584.44 257.202 1584.72 257.044 1584.79 256.777ZM1572.99 253.63C1573.06 253.363 1572.9 253.089 1572.63 253.018C1570.76 252.52 1568.86 252.018 1566.96 251.514C1566.69 251.444 1566.42 251.603 1566.35 251.87C1566.28 252.137 1566.44 252.41 1566.7 252.481C1568.61 252.985 1570.5 253.486 1572.38 253.985C1572.64 254.056 1572.92 253.897 1572.99 253.63ZM1708.58 253.089C1708.75 252.869 1708.71 252.555 1708.49 252.388C1706.89 251.167 1705.26 249.926 1703.6 248.666C1703.38 248.499 1703.07 248.541 1702.9 248.761C1702.74 248.981 1702.78 249.295 1703 249.462C1704.65 250.721 1706.28 251.962 1707.88 253.183C1708.1 253.35 1708.41 253.308 1708.58 253.089ZM355.375 251.503C355.598 251.341 355.647 251.028 355.485 250.805C354.301 249.177 353.114 247.54 351.925 245.893C351.763 245.669 351.451 245.618 351.227 245.78C351.003 245.942 350.952 246.254 351.114 246.478C352.304 248.126 353.492 249.765 354.676 251.393C354.839 251.616 355.151 251.666 355.375 251.503ZM1561.56 250.605C1561.63 250.338 1561.47 250.064 1561.2 249.994C1559.27 249.485 1557.33 248.973 1555.37 248.458C1555.1 248.388 1554.83 248.548 1554.76 248.815C1554.69 249.082 1554.85 249.355 1555.12 249.426C1557.07 249.94 1559.02 250.452 1560.95 250.961C1561.22 251.031 1561.49 250.872 1561.56 250.605ZM242.724 250.445C242.876 250.214 242.812 249.904 242.582 249.752C240.942 248.671 239.286 247.58 237.613 246.477C237.382 246.325 237.072 246.389 236.92 246.619C236.768 246.85 236.832 247.16 237.063 247.312C238.736 248.415 240.392 249.506 242.031 250.587C242.262 250.739 242.572 250.675 242.724 250.445ZM1549.81 247.518C1549.88 247.251 1549.72 246.977 1549.46 246.907C1547.47 246.388 1545.48 245.866 1543.47 245.342C1543.2 245.272 1542.93 245.432 1542.86 245.699C1542.79 245.966 1542.95 246.239 1543.21 246.309C1545.22 246.834 1547.22 247.355 1549.2 247.875C1549.47 247.945 1549.74 247.785 1549.81 247.518ZM1698.93 245.737C1699.09 245.517 1699.05 245.204 1698.83 245.036C1697.25 243.834 1695.64 242.615 1694.02 241.381C1693.8 241.214 1693.49 241.257 1693.32 241.477C1693.15 241.697 1693.2 242.011 1693.42 242.178L1693.89 242.537C1695.35 243.649 1696.8 244.747 1698.23 245.833C1698.45 246 1698.76 245.957 1698.93 245.737ZM62.0414 245.538C62.3169 245.518 62.5246 245.28 62.5054 245.004C62.3651 242.994 62.1954 240.993 61.9991 239.005C61.972 238.73 61.7273 238.53 61.4525 238.557C61.1776 238.584 60.9769 238.829 61.004 239.103C61.1993 241.083 61.3682 243.073 61.5078 245.074C61.527 245.349 61.7659 245.557 62.0414 245.538ZM1537.97 244.427C1538.04 244.16 1537.88 243.887 1537.62 243.818C1535.73 243.327 1533.83 242.835 1531.93 242.34C1531.66 242.271 1531.39 242.431 1531.32 242.698C1531.25 242.966 1531.41 243.239 1531.68 243.308C1533.58 243.803 1535.48 244.295 1537.36 244.786C1537.63 244.855 1537.9 244.695 1537.97 244.427ZM232.772 243.886C232.923 243.656 232.86 243.346 232.629 243.194C230.99 242.115 229.334 241.025 227.662 239.924C227.431 239.772 227.121 239.836 226.969 240.067C226.817 240.298 226.881 240.608 227.112 240.759C228.785 241.86 230.44 242.95 232.079 244.029C232.31 244.181 232.62 244.117 232.772 243.886ZM1526.53 241.459C1526.6 241.192 1526.44 240.919 1526.17 240.85C1524.81 240.497 1523.43 240.143 1522.06 239.787L1520.36 239.349C1520.09 239.28 1519.82 239.44 1519.75 239.708C1519.68 239.975 1519.84 240.248 1520.11 240.317L1522.83 241.021C1523.87 241.287 1524.9 241.553 1525.92 241.818C1526.19 241.887 1526.46 241.727 1526.53 241.459ZM348.268 241.665C348.493 241.504 348.544 241.192 348.384 240.967C347.202 239.317 346.02 237.658 344.838 235.992C344.679 235.766 344.367 235.713 344.141 235.873C343.916 236.033 343.863 236.345 344.023 236.57C345.205 238.238 346.388 239.898 347.57 241.55C347.731 241.774 348.043 241.826 348.268 241.665ZM1514.84 238.444C1514.91 238.177 1514.74 237.904 1514.48 237.835C1513.48 237.58 1512.49 237.324 1511.49 237.068C1510.51 236.816 1509.52 236.564 1508.54 236.311C1508.27 236.242 1508 236.404 1507.93 236.671C1507.86 236.939 1508.02 237.211 1508.29 237.28C1510.28 237.79 1512.26 238.298 1514.23 238.804C1514.5 238.873 1514.77 238.712 1514.84 238.444ZM1689.23 238.371C1689.4 238.151 1689.36 237.837 1689.14 237.67C1687.57 236.481 1685.99 235.278 1684.39 234.062C1684.17 233.894 1683.86 233.937 1683.69 234.157C1683.52 234.376 1683.56 234.69 1683.78 234.857C1685.38 236.074 1686.97 237.277 1688.53 238.466C1688.75 238.633 1689.06 238.591 1689.23 238.371ZM222.819 237.338C222.971 237.107 222.907 236.797 222.676 236.645C221.034 235.566 219.376 234.477 217.701 233.377C217.47 233.225 217.16 233.29 217.009 233.521C216.857 233.751 216.921 234.061 217.152 234.213C218.827 235.313 220.485 236.402 222.127 237.481C222.358 237.633 222.668 237.569 222.819 237.338ZM1502.9 235.384C1502.97 235.116 1502.8 234.844 1502.54 234.775C1500.63 234.289 1498.72 233.801 1496.8 233.312C1496.53 233.244 1496.26 233.406 1496.19 233.673C1496.13 233.941 1496.29 234.213 1496.56 234.281C1498.48 234.77 1500.39 235.258 1502.29 235.744C1502.56 235.813 1502.83 235.651 1502.9 235.384ZM60.8993 233.634C61.1733 233.6 61.3675 233.35 61.3331 233.076C61.0812 231.072 60.8045 229.082 60.5058 227.108C60.4645 226.835 60.2096 226.647 59.9366 226.688C59.6636 226.73 59.4757 226.985 59.517 227.258C59.8145 229.224 60.0901 231.206 60.3409 233.201C60.3753 233.475 60.6253 233.669 60.8993 233.634ZM1491.43 232.46C1491.5 232.193 1491.34 231.921 1491.07 231.853C1489.15 231.365 1487.22 230.875 1485.28 230.384C1485.01 230.316 1484.74 230.478 1484.67 230.746C1484.61 231.014 1484.77 231.286 1485.04 231.354C1486.1 231.622 1487.15 231.89 1488.21 232.158L1490.82 232.822C1491.09 232.89 1491.36 232.728 1491.43 232.46ZM341.214 231.723C341.44 231.564 341.495 231.253 341.337 231.026C340.176 229.373 339.018 227.712 337.863 226.046C337.705 225.819 337.394 225.763 337.167 225.92C336.94 226.077 336.884 226.389 337.041 226.616C338.197 228.284 339.357 229.945 340.518 231.601C340.677 231.827 340.988 231.881 341.214 231.723ZM1679.64 231.075C1679.81 230.855 1679.77 230.541 1679.55 230.374C1677.96 229.158 1676.35 227.93 1674.73 226.689C1674.51 226.522 1674.19 226.563 1674.02 226.783C1673.86 227.002 1673.9 227.316 1674.12 227.484C1675.74 228.724 1677.35 229.953 1678.94 231.169C1679.16 231.336 1679.48 231.294 1679.64 231.075ZM212.865 230.802C213.016 230.571 212.952 230.261 212.721 230.11C211.072 229.029 209.408 227.938 207.727 226.837C207.496 226.686 207.186 226.751 207.034 226.982C206.883 227.213 206.948 227.523 207.179 227.674C208.86 228.775 210.524 229.865 212.172 230.946C212.403 231.097 212.713 231.033 212.865 230.802ZM1479.81 229.514C1479.88 229.246 1479.72 228.975 1479.45 228.907C1477.49 228.413 1475.53 227.918 1473.56 227.421C1473.29 227.353 1473.02 227.516 1472.96 227.783C1472.89 228.051 1473.05 228.323 1473.32 228.391C1475.29 228.887 1477.25 229.383 1479.2 229.876C1479.47 229.944 1479.74 229.782 1479.81 229.514ZM1467.99 226.533C1468.06 226.266 1467.9 225.994 1467.63 225.927C1465.64 225.427 1463.65 224.926 1461.65 224.424C1461.38 224.357 1461.11 224.519 1461.04 224.787C1460.97 225.055 1461.14 225.327 1461.41 225.394C1463.41 225.896 1465.4 226.397 1467.39 226.896C1467.65 226.964 1467.93 226.801 1467.99 226.533ZM202.904 224.28C203.055 224.049 202.99 223.739 202.759 223.588C201.1 222.503 199.425 221.409 197.733 220.305C197.502 220.154 197.192 220.219 197.041 220.45C196.89 220.682 196.955 220.991 197.186 221.142C198.878 222.246 200.553 223.34 202.212 224.425C202.443 224.576 202.753 224.511 202.904 224.28ZM1456.24 223.583C1456.31 223.316 1456.14 223.044 1455.88 222.977C1453.96 222.499 1452.05 222.02 1450.12 221.539C1449.86 221.472 1449.58 221.635 1449.52 221.903C1449.45 222.171 1449.61 222.443 1449.88 222.51C1451.81 222.99 1453.72 223.469 1455.63 223.947C1455.9 224.014 1456.17 223.851 1456.24 223.583ZM1670.06 223.742C1670.22 223.523 1670.18 223.209 1669.96 223.041C1668.36 221.813 1666.75 220.575 1665.13 219.325C1664.91 219.157 1664.6 219.197 1664.43 219.416C1664.26 219.635 1664.3 219.949 1664.52 220.117C1666.14 221.367 1667.75 222.606 1669.35 223.834C1669.57 224.002 1669.89 223.961 1670.06 223.742ZM334.277 221.726C334.505 221.57 334.563 221.258 334.407 221.031C333.262 219.358 332.121 217.68 330.986 215.998C330.831 215.769 330.52 215.709 330.291 215.864C330.062 216.018 330.002 216.329 330.157 216.558C331.293 218.242 332.436 219.921 333.582 221.596C333.738 221.823 334.049 221.882 334.277 221.726ZM59.139 221.804C59.4111 221.757 59.593 221.497 59.5454 221.225C59.1965 219.231 58.8275 217.255 58.4414 215.298C58.388 215.027 58.125 214.851 57.8541 214.905C57.5832 214.958 57.4069 215.221 57.4603 215.492C57.845 217.442 58.2127 219.411 58.5603 221.398C58.6079 221.67 58.867 221.852 59.139 221.804ZM1444.7 220.701C1444.76 220.433 1444.6 220.161 1444.33 220.095C1442.39 219.612 1440.45 219.128 1438.5 218.644C1438.23 218.577 1437.96 218.74 1437.89 219.008C1437.83 219.276 1437.99 219.547 1438.26 219.614C1440.21 220.099 1442.15 220.582 1444.09 221.065C1444.36 221.132 1444.63 220.969 1444.7 220.701ZM1432.99 217.791C1433.06 217.523 1432.9 217.252 1432.63 217.186C1430.66 216.699 1428.69 216.211 1426.72 215.722C1426.45 215.656 1426.18 215.819 1426.11 216.087C1426.04 216.355 1426.21 216.626 1426.48 216.693C1428.45 217.182 1430.42 217.67 1432.39 218.156C1432.65 218.223 1432.93 218.059 1432.99 217.791ZM192.931 217.77C193.081 217.539 193.016 217.229 192.785 217.078C191.12 215.994 189.439 214.9 187.742 213.796C187.511 213.646 187.201 213.711 187.05 213.943C186.9 214.174 186.965 214.484 187.197 214.634C188.893 215.738 190.574 216.832 192.239 217.916C192.47 218.067 192.78 218.002 192.931 217.77ZM1660.44 216.331C1660.61 216.112 1660.57 215.798 1660.35 215.629C1658.77 214.41 1657.19 213.181 1655.6 211.942C1655.38 211.772 1655.06 211.811 1654.89 212.029C1654.72 212.247 1654.76 212.561 1654.98 212.731C1656.57 213.97 1658.16 215.2 1659.73 216.42C1659.95 216.589 1660.27 216.549 1660.44 216.331ZM1421.13 214.857C1421.2 214.589 1421.03 214.318 1420.77 214.252C1418.81 213.768 1416.84 213.284 1414.87 212.798C1414.6 212.732 1414.33 212.896 1414.26 213.164C1414.2 213.432 1414.36 213.703 1414.63 213.769C1416.6 214.255 1418.57 214.739 1420.53 215.223C1420.79 215.289 1421.07 215.125 1421.13 214.857ZM1409.48 211.988C1409.55 211.72 1409.38 211.449 1409.11 211.383L1403.33 209.963C1403.06 209.897 1402.79 210.061 1402.72 210.329C1402.66 210.597 1402.82 210.868 1403.09 210.934C1405.02 211.408 1406.95 211.882 1408.88 212.354C1409.14 212.42 1409.41 212.256 1409.48 211.988ZM327.462 211.641C327.692 211.488 327.754 211.178 327.601 210.948C326.48 209.261 325.364 207.57 324.257 205.877C324.106 205.646 323.796 205.581 323.565 205.732C323.334 205.883 323.269 206.193 323.42 206.424C324.529 208.12 325.646 209.813 326.769 211.502C326.922 211.732 327.232 211.794 327.462 211.641ZM182.937 211.27C183.088 211.039 183.022 210.729 182.79 210.579C181.134 209.504 179.464 208.42 177.777 207.328C177.545 207.177 177.236 207.244 177.086 207.475C176.936 207.707 177.002 208.017 177.233 208.167C178.919 209.259 180.59 210.343 182.246 211.418C182.477 211.568 182.787 211.502 182.937 211.27ZM56.8477 210.057C57.1175 209.998 57.2887 209.732 57.2299 209.462C56.7988 207.481 56.3528 205.522 55.8954 203.587C55.8319 203.319 55.5625 203.152 55.2938 203.216C55.0251 203.279 54.8587 203.549 54.9223 203.817C55.3783 205.747 55.823 207.7 56.2528 209.675C56.3115 209.945 56.5779 210.116 56.8477 210.057ZM1397.87 209.142C1397.94 208.874 1397.77 208.603 1397.51 208.537C1395.56 208.062 1393.61 207.585 1391.65 207.107C1391.38 207.042 1391.11 207.206 1391.05 207.475C1390.98 207.743 1391.15 208.013 1391.41 208.079C1393.37 208.556 1395.32 209.033 1397.27 209.509C1397.54 209.574 1397.81 209.41 1397.87 209.142ZM1650.88 208.899C1651.05 208.681 1651.01 208.367 1650.8 208.197C1649.22 206.962 1647.63 205.717 1646.04 204.464C1645.82 204.294 1645.51 204.331 1645.34 204.548C1645.17 204.765 1645.2 205.079 1645.42 205.25C1647.01 206.504 1648.6 207.749 1650.18 208.984C1650.4 209.155 1650.71 209.116 1650.88 208.899ZM1386.13 206.277C1386.2 206.009 1386.03 205.738 1385.77 205.673C1383.8 205.194 1381.83 204.714 1379.85 204.234C1379.58 204.169 1379.31 204.333 1379.25 204.602C1379.18 204.87 1379.35 205.14 1379.61 205.205C1380.85 205.505 1382.08 205.804 1383.31 206.104L1385.53 206.644C1385.8 206.71 1386.07 206.545 1386.13 206.277ZM172.915 204.776C173.065 204.544 172.999 204.234 172.767 204.084C171.122 203.021 169.463 201.949 167.789 200.868C167.557 200.719 167.248 200.785 167.098 201.017C166.948 201.249 167.015 201.559 167.247 201.709C168.92 202.789 170.579 203.861 172.224 204.924C172.456 205.074 172.765 205.008 172.915 204.776ZM1374.27 203.394C1374.34 203.126 1374.17 202.855 1373.9 202.79C1371.95 202.318 1370 201.845 1368.04 201.372C1367.78 201.307 1367.51 201.472 1367.44 201.74C1367.38 202.009 1367.54 202.279 1367.81 202.344C1369.77 202.817 1371.72 203.29 1373.67 203.762C1373.94 203.827 1374.21 203.662 1374.27 203.394ZM1641.4 201.437C1641.57 201.22 1641.53 200.906 1641.31 200.734C1639.73 199.482 1638.15 198.222 1636.56 196.954C1636.34 196.782 1636.03 196.817 1635.85 197.033C1635.68 197.249 1635.72 197.564 1635.93 197.736C1637.53 199.005 1639.11 200.266 1640.69 201.518C1640.91 201.69 1641.22 201.653 1641.4 201.437ZM320.794 201.459C321.027 201.309 321.094 201 320.945 200.768C319.846 199.057 318.756 197.344 317.677 195.63C317.53 195.397 317.221 195.327 316.987 195.474C316.754 195.621 316.683 195.93 316.831 196.163C317.912 197.88 319.003 199.595 320.103 201.308C320.253 201.54 320.562 201.608 320.794 201.459ZM1362.63 200.578C1362.7 200.31 1362.53 200.04 1362.26 199.975C1360.33 199.509 1358.4 199.042 1356.46 198.574C1356.19 198.51 1355.92 198.675 1355.85 198.943C1355.79 199.212 1355.95 199.482 1356.22 199.547C1358.16 200.014 1360.1 200.481 1362.03 200.947C1362.3 201.012 1362.57 200.847 1362.63 200.578ZM162.872 198.293C163.022 198.061 162.955 197.751 162.723 197.602C161.085 196.547 159.433 195.483 157.766 194.412C157.534 194.263 157.225 194.33 157.075 194.562C156.926 194.795 156.993 195.104 157.226 195.253C158.892 196.324 160.543 197.387 162.181 198.442C162.414 198.592 162.723 198.525 162.872 198.293ZM54.1127 198.395C54.3804 198.327 54.5425 198.055 54.4747 197.787C53.9772 195.822 53.4712 193.885 52.9605 191.979C52.889 191.712 52.6149 191.554 52.3481 191.626C52.0814 191.697 51.9231 191.971 51.9945 192.238C52.5042 194.14 53.009 196.072 53.5053 198.033C53.5731 198.3 53.845 198.462 54.1127 198.395ZM1350.99 197.774C1351.06 197.505 1350.89 197.235 1350.62 197.171C1348.67 196.702 1346.72 196.233 1344.76 195.764C1344.49 195.699 1344.22 195.865 1344.16 196.133C1344.09 196.402 1344.26 196.672 1344.53 196.736C1346.49 197.205 1348.44 197.674 1350.39 198.143C1350.66 198.207 1350.93 198.042 1350.99 197.774ZM1339.24 194.956C1339.31 194.687 1339.14 194.418 1338.88 194.353C1336.91 193.883 1334.94 193.412 1332.96 192.94C1332.7 192.876 1332.43 193.042 1332.36 193.31C1332.3 193.579 1332.46 193.849 1332.73 193.913C1334.71 194.384 1336.68 194.855 1338.64 195.326C1338.91 195.39 1339.18 195.225 1339.24 194.956ZM1631.91 193.872C1632.08 193.657 1632.04 193.342 1631.83 193.169C1630.27 191.917 1628.71 190.657 1627.14 189.39C1626.93 189.216 1626.61 189.249 1626.44 189.464C1626.26 189.679 1626.3 189.993 1626.51 190.167C1628.08 191.435 1629.64 192.696 1631.2 193.949C1631.42 194.122 1631.73 194.087 1631.91 193.872ZM1327.4 192.126C1327.46 191.858 1327.3 191.588 1327.03 191.524C1325.07 191.058 1323.11 190.591 1321.15 190.124C1320.88 190.06 1320.61 190.226 1320.54 190.494C1320.48 190.763 1320.65 191.033 1320.91 191.097C1322.88 191.564 1324.84 192.031 1326.8 192.497C1327.07 192.561 1327.33 192.395 1327.4 192.126ZM152.896 191.878C153.045 191.645 152.977 191.336 152.745 191.187C151.076 190.116 149.394 189.038 147.697 187.951C147.464 187.802 147.155 187.87 147.006 188.103C146.857 188.335 146.925 188.645 147.157 188.793C148.854 189.88 150.536 190.958 152.205 192.029C152.437 192.178 152.747 192.11 152.896 191.878ZM314.307 191.174C314.542 191.029 314.616 190.721 314.471 190.486C313.403 188.753 312.346 187.02 311.303 185.288C311.161 185.051 310.853 184.975 310.617 185.117C310.38 185.26 310.304 185.567 310.446 185.804C311.491 187.539 312.55 189.275 313.619 191.011C313.764 191.246 314.072 191.319 314.307 191.174ZM1315.72 189.348C1315.78 189.08 1315.62 188.81 1315.35 188.747C1313.41 188.287 1311.47 187.827 1309.53 187.367C1309.26 187.303 1308.99 187.47 1308.93 187.738C1308.86 188.007 1309.03 188.277 1309.3 188.34L1315.12 189.72C1315.39 189.783 1315.66 189.617 1315.72 189.348ZM1304.06 186.587C1304.13 186.318 1303.96 186.049 1303.69 185.986C1301.74 185.525 1299.79 185.063 1297.83 184.602C1297.56 184.538 1297.29 184.705 1297.23 184.974C1297.16 185.243 1297.33 185.512 1297.6 185.575L1303.46 186.959C1303.73 187.022 1304 186.856 1304.06 186.587ZM51.0271 186.81C51.293 186.736 51.4481 186.46 51.3736 186.194C50.8291 184.252 50.284 182.345 49.7428 180.478C49.666 180.213 49.3886 180.06 49.1234 180.137C48.8582 180.214 48.7055 180.491 48.7824 180.756C49.3229 182.622 49.8672 184.525 50.4107 186.464C50.4852 186.73 50.7612 186.885 51.0271 186.81ZM1622.51 186.27C1622.68 186.056 1622.65 185.741 1622.44 185.567C1620.87 184.291 1619.31 183.009 1617.74 181.72C1617.53 181.545 1617.22 181.576 1617.04 181.789C1616.86 182.002 1616.9 182.317 1617.11 182.493C1618.68 183.782 1620.24 185.065 1621.8 186.341C1622.02 186.516 1622.33 186.484 1622.51 186.27ZM142.876 185.461C143.025 185.228 142.957 184.919 142.724 184.77C141.053 183.702 139.369 182.627 137.67 181.544C137.438 181.395 137.128 181.464 136.98 181.697C136.831 181.929 136.9 182.238 137.133 182.387C138.831 183.47 140.515 184.545 142.186 185.613C142.418 185.762 142.727 185.694 142.876 185.461ZM1292.32 183.818C1292.38 183.549 1292.22 183.28 1291.95 183.216C1289.98 182.754 1288.02 182.292 1286.05 181.829C1285.78 181.766 1285.51 181.933 1285.45 182.201C1285.38 182.47 1285.55 182.739 1285.82 182.803C1287.79 183.265 1289.76 183.728 1291.72 184.19C1291.99 184.253 1292.26 184.086 1292.32 183.818ZM1280.5 181.041C1280.56 180.772 1280.39 180.503 1280.13 180.44C1278.15 179.977 1276.17 179.514 1274.19 179.051C1273.92 178.988 1273.65 179.155 1273.59 179.424C1273.53 179.693 1273.7 179.962 1273.96 180.025C1275.95 180.488 1277.92 180.951 1279.9 181.414C1280.17 181.477 1280.44 181.31 1280.5 181.041ZM308.008 180.73C308.246 180.59 308.326 180.283 308.186 180.045C307.161 178.299 306.151 176.553 305.156 174.81C305.02 174.57 304.714 174.487 304.474 174.624C304.235 174.76 304.151 175.066 304.288 175.306C305.284 177.053 306.297 178.801 307.324 180.551C307.463 180.79 307.77 180.869 308.008 180.73ZM132.8 179.033C132.948 178.8 132.879 178.491 132.646 178.343C130.994 177.291 129.328 176.232 127.65 175.165C127.416 175.017 127.107 175.086 126.959 175.319C126.811 175.552 126.88 175.861 127.113 176.009C128.792 177.076 130.457 178.135 132.109 179.186C132.342 179.335 132.651 179.266 132.8 179.033ZM1613.17 178.587C1613.34 178.375 1613.31 178.06 1613.1 177.883C1611.55 176.597 1610 175.305 1608.45 174.007C1608.24 173.829 1607.93 173.857 1607.75 174.069C1607.57 174.28 1607.6 174.596 1607.81 174.773C1609.36 176.073 1610.91 177.366 1612.46 178.652C1612.68 178.829 1612.99 178.8 1613.17 178.587ZM1268.76 178.295C1268.82 178.026 1268.65 177.757 1268.38 177.694C1266.44 177.242 1264.5 176.789 1262.56 176.336C1262.29 176.273 1262.02 176.441 1261.96 176.71C1261.89 176.979 1262.06 177.247 1262.33 177.31C1264.27 177.763 1266.22 178.216 1268.16 178.668C1268.43 178.731 1268.69 178.564 1268.76 178.295ZM1257.09 175.577C1257.15 175.308 1256.98 175.039 1256.71 174.977C1254.76 174.524 1252.81 174.07 1250.85 173.617C1250.58 173.554 1250.32 173.722 1250.25 173.991C1250.19 174.26 1250.36 174.528 1250.63 174.591C1252.58 175.044 1254.54 175.498 1256.49 175.951C1256.76 176.013 1257.03 175.846 1257.09 175.577ZM47.7045 175.299C47.9693 175.221 48.1204 174.943 48.042 174.678C47.5667 173.072 47.0984 171.5 46.6408 169.963L46.3445 168.968C46.2657 168.704 45.9873 168.553 45.7227 168.632C45.458 168.71 45.3073 168.989 45.3861 169.254L45.681 170.244C46.1391 171.782 46.6076 173.355 47.0831 174.962C47.1615 175.227 47.4397 175.378 47.7045 175.299ZM1245.35 172.855C1245.41 172.586 1245.25 172.318 1244.98 172.255C1243.02 171.802 1241.05 171.348 1239.09 170.894C1238.82 170.831 1238.55 170.999 1238.49 171.268C1238.42 171.537 1238.59 171.806 1238.86 171.868C1240.83 172.322 1242.79 172.776 1244.75 173.23C1245.02 173.292 1245.29 173.124 1245.35 172.855ZM122.729 172.635C122.877 172.401 122.808 172.093 122.575 171.945C120.915 170.893 119.244 169.834 117.56 168.768C117.326 168.621 117.017 168.69 116.87 168.923C116.722 169.157 116.791 169.466 117.025 169.613C118.709 170.679 120.38 171.738 122.039 172.789C122.272 172.937 122.581 172.868 122.729 172.635ZM1603.87 170.8C1604.05 170.589 1604.02 170.273 1603.81 170.095C1602.28 168.799 1600.75 167.497 1599.22 166.19C1599.01 166.01 1598.69 166.035 1598.51 166.245C1598.33 166.455 1598.36 166.77 1598.57 166.95C1600.1 168.258 1601.63 169.561 1603.16 170.858C1603.37 171.037 1603.69 171.011 1603.87 170.8ZM1233.55 170.131C1233.62 169.862 1233.45 169.593 1233.18 169.531C1231.21 169.077 1229.23 168.623 1227.26 168.168C1226.99 168.106 1226.72 168.274 1226.66 168.543C1226.6 168.813 1226.76 169.081 1227.03 169.143C1228.28 169.429 1229.52 169.715 1230.77 170.002L1232.95 170.506C1233.22 170.568 1233.49 170.4 1233.55 170.131ZM301.979 170.182C302.221 170.048 302.308 169.744 302.175 169.502C301.184 167.711 300.212 165.922 299.26 164.137C299.13 163.894 298.827 163.802 298.583 163.932C298.34 164.062 298.248 164.365 298.378 164.608C299.332 166.397 300.307 168.19 301.3 169.986C301.433 170.228 301.738 170.315 301.979 170.182ZM1221.75 167.416C1221.81 167.147 1221.64 166.879 1221.37 166.817C1219.43 166.371 1217.49 165.926 1215.54 165.48C1215.27 165.418 1215 165.587 1214.94 165.856C1214.88 166.125 1215.05 166.393 1215.32 166.455C1217.26 166.901 1219.21 167.346 1221.15 167.792C1221.42 167.854 1221.69 167.685 1221.75 167.416ZM112.704 166.29C112.852 166.057 112.782 165.748 112.548 165.601C110.866 164.538 109.17 163.468 107.463 162.392C107.229 162.245 106.92 162.315 106.773 162.548C106.626 162.782 106.696 163.091 106.929 163.238C108.637 164.314 110.332 165.384 112.014 166.446C112.248 166.594 112.557 166.524 112.704 166.29ZM1210.07 164.742C1210.13 164.473 1209.96 164.204 1209.69 164.143C1207.74 163.697 1205.79 163.251 1203.83 162.806C1203.56 162.744 1203.3 162.913 1203.23 163.182C1203.17 163.451 1203.34 163.719 1203.61 163.781L1209.47 165.118C1209.74 165.179 1210.01 165.011 1210.07 164.742ZM44.3159 163.883C44.5808 163.805 44.7326 163.527 44.6549 163.262C44.0649 161.25 43.5061 159.315 42.9876 157.46C42.9133 157.194 42.6375 157.038 42.3715 157.113C42.1056 157.187 41.9502 157.463 42.0246 157.729C42.5445 159.589 43.1047 161.529 43.6954 163.543C43.7731 163.808 44.0509 163.96 44.3159 163.883ZM1594.69 162.954C1594.87 162.745 1594.84 162.43 1594.63 162.249C1593.11 160.93 1591.58 159.605 1590.06 158.275C1589.85 158.093 1589.54 158.114 1589.35 158.322C1589.17 158.53 1589.19 158.846 1589.4 159.028C1590.93 160.359 1592.45 161.685 1593.98 163.006C1594.19 163.186 1594.5 163.163 1594.69 162.954ZM1198.34 162.067C1198.4 161.798 1198.23 161.53 1197.96 161.469C1196 161.023 1194.04 160.577 1192.08 160.132C1191.81 160.071 1191.54 160.239 1191.48 160.509C1191.42 160.778 1191.59 161.046 1191.86 161.107C1193.32 161.44 1194.79 161.773 1196.25 162.106L1197.74 162.444C1198.01 162.505 1198.28 162.336 1198.34 162.067ZM102.596 159.918C102.743 159.684 102.673 159.376 102.439 159.229C100.779 158.184 99.1069 157.134 97.4231 156.076C97.1893 155.929 96.8806 156 96.7338 156.234C96.587 156.468 96.6575 156.776 96.8914 156.923C98.5749 157.98 100.247 159.031 101.906 160.075C102.14 160.222 102.449 160.152 102.596 159.918ZM1186.56 159.393C1186.62 159.124 1186.45 158.856 1186.18 158.795C1184.21 158.35 1182.25 157.904 1180.27 157.459C1180 157.398 1179.74 157.567 1179.68 157.836C1179.62 158.106 1179.78 158.374 1180.05 158.434C1182.02 158.88 1183.99 159.325 1185.96 159.77C1186.23 159.831 1186.5 159.663 1186.56 159.393ZM296.246 159.47C296.492 159.344 296.589 159.042 296.463 158.797C295.526 156.973 294.612 155.155 293.722 153.343C293.6 153.095 293.3 152.993 293.053 153.115C292.805 153.236 292.703 153.536 292.824 153.784C293.717 155.602 294.634 157.425 295.573 159.253C295.699 159.499 296.001 159.596 296.246 159.47ZM1174.73 156.721C1174.79 156.452 1174.63 156.184 1174.36 156.123C1172.4 155.683 1170.45 155.242 1168.49 154.802C1168.22 154.741 1167.95 154.91 1167.89 155.18C1167.83 155.449 1168 155.717 1168.27 155.777C1170.23 156.218 1172.18 156.658 1174.14 157.099C1174.41 157.16 1174.67 156.99 1174.73 156.721ZM1585.56 154.991C1585.75 154.784 1585.73 154.468 1585.52 154.285C1584.01 152.951 1582.51 151.612 1581 150.268C1580.8 150.084 1580.48 150.102 1580.3 150.307C1580.11 150.513 1580.13 150.829 1580.34 151.013C1581.84 152.359 1583.35 153.699 1584.86 155.034C1585.07 155.217 1585.38 155.198 1585.56 154.991ZM1163.01 154.084C1163.07 153.814 1162.9 153.547 1162.63 153.486C1160.68 153.048 1158.73 152.61 1156.77 152.172C1156.5 152.111 1156.23 152.281 1156.17 152.55C1156.11 152.82 1156.28 153.087 1156.55 153.148C1158.51 153.586 1160.46 154.024 1162.41 154.462C1162.68 154.522 1162.95 154.353 1163.01 154.084ZM92.4941 153.574C92.6407 153.34 92.5699 153.032 92.3359 152.885C91.482 152.35 90.6251 151.813 89.7652 151.275C88.8433 150.698 87.9367 150.133 87.0451 149.581C86.8103 149.436 86.5021 149.508 86.3568 149.743C86.2114 149.978 86.2839 150.286 86.5187 150.432C87.4088 150.983 88.314 151.546 89.2346 152.122C90.0944 152.661 90.9511 153.197 91.8049 153.732C92.0389 153.879 92.3474 153.808 92.4941 153.574ZM41.0817 152.281C41.3496 152.214 41.5123 151.942 41.4453 151.674C40.9256 149.599 40.4846 147.659 40.1396 145.862C40.0875 145.59 39.8254 145.413 39.5542 145.465C39.2831 145.517 39.1054 145.779 39.1575 146.05C39.5069 147.87 39.9524 149.829 40.4752 151.917C40.5423 152.185 40.8138 152.348 41.0817 152.281ZM1151.28 151.455C1151.34 151.186 1151.17 150.918 1150.9 150.858C1148.94 150.42 1146.98 149.983 1145.02 149.546C1144.75 149.485 1144.48 149.655 1144.42 149.925C1144.36 150.194 1144.53 150.462 1144.8 150.522C1146.76 150.959 1148.72 151.396 1150.68 151.834C1150.95 151.894 1151.22 151.725 1151.28 151.455ZM1139.51 148.831C1139.57 148.561 1139.4 148.294 1139.13 148.234C1137.64 147.902 1136.14 147.571 1134.65 147.239L1133.23 146.924C1132.96 146.864 1132.69 147.034 1132.63 147.304C1132.57 147.573 1132.74 147.84 1133.01 147.9C1134.06 148.132 1135.11 148.365 1136.15 148.597L1138.91 149.21C1139.18 149.27 1139.45 149.1 1139.51 148.831ZM290.844 148.508C291.094 148.391 291.202 148.094 291.085 147.843C290.231 146.017 289.404 144.199 288.604 142.388C288.493 142.136 288.198 142.021 287.945 142.133C287.692 142.245 287.578 142.54 287.69 142.792C288.492 144.609 289.323 146.434 290.179 148.267C290.296 148.517 290.593 148.625 290.844 148.508ZM82.044 147.106C82.1867 146.869 82.1107 146.562 81.8742 146.419C80.1538 145.381 78.4959 144.396 76.8985 143.463C76.6601 143.323 76.3539 143.404 76.2146 143.642C76.0752 143.881 76.1556 144.187 76.394 144.326C77.987 145.257 79.6409 146.24 81.3576 147.276C81.5941 147.418 81.9014 147.342 82.044 147.106ZM1576.54 146.927C1576.73 146.723 1576.71 146.407 1576.51 146.221C1575.02 144.867 1573.53 143.508 1572.04 142.144C1571.84 141.957 1571.52 141.97 1571.33 142.174C1571.15 142.377 1571.16 142.694 1571.36 142.88C1572.85 144.246 1574.34 145.606 1575.84 146.962C1576.04 147.148 1576.36 147.132 1576.54 146.927ZM1127.71 146.212C1127.77 145.942 1127.6 145.675 1127.33 145.615C1125.36 145.179 1123.39 144.744 1121.41 144.308C1121.14 144.248 1120.88 144.419 1120.82 144.688C1120.76 144.958 1120.93 145.225 1121.2 145.285C1123.17 145.72 1125.14 146.156 1127.11 146.592C1127.38 146.651 1127.65 146.481 1127.71 146.212ZM1115.92 143.608C1115.98 143.338 1115.81 143.071 1115.54 143.012C1113.58 142.581 1111.63 142.15 1109.67 141.72C1109.4 141.661 1109.13 141.831 1109.07 142.101C1109.01 142.371 1109.18 142.637 1109.45 142.697C1111.41 143.127 1113.37 143.558 1115.32 143.989C1115.59 144.048 1115.86 143.878 1115.92 143.608ZM1104.17 141.025C1104.23 140.755 1104.06 140.489 1103.79 140.429C1101.83 140 1099.87 139.57 1097.91 139.141C1097.64 139.082 1097.37 139.253 1097.31 139.523C1097.26 139.792 1097.43 140.059 1097.7 140.118C1099.66 140.547 1101.62 140.976 1103.58 141.406C1103.85 141.465 1104.11 141.295 1104.17 141.025ZM71.7256 141.075C71.8602 140.833 71.7738 140.529 71.5327 140.394C69.7312 139.389 68.0186 138.461 66.3916 137.608C66.147 137.48 65.8448 137.575 65.7166 137.819C65.5885 138.064 65.6828 138.366 65.9274 138.494C67.5458 139.342 69.2506 140.266 71.0454 141.268C71.2865 141.402 71.5911 141.316 71.7256 141.075ZM38.8723 140.529C39.148 140.512 39.3578 140.275 39.341 140C39.1993 137.675 39.368 135.799 39.8869 134.379C39.9818 134.12 39.8484 133.833 39.589 133.738C39.3296 133.643 39.0425 133.777 38.9477 134.036C38.361 135.641 38.1974 137.674 38.3428 140.061C38.3596 140.336 38.5967 140.546 38.8723 140.529ZM1567.62 138.744C1567.81 138.542 1567.8 138.225 1567.6 138.037C1566.12 136.664 1564.65 135.286 1563.19 133.904C1562.99 133.714 1562.67 133.723 1562.48 133.924C1562.29 134.124 1562.3 134.441 1562.5 134.63C1563.97 136.014 1565.44 137.394 1566.92 138.769C1567.12 138.957 1567.44 138.946 1567.62 138.744ZM1092.4 138.449C1092.46 138.18 1092.29 137.913 1092.02 137.854L1089.2 137.238C1088.18 137.015 1087.15 136.793 1086.13 136.57C1085.86 136.511 1085.59 136.682 1085.53 136.952C1085.48 137.222 1085.65 137.488 1085.92 137.547C1087.88 137.975 1089.85 138.403 1091.81 138.831C1092.08 138.89 1092.34 138.719 1092.4 138.449ZM285.916 137.387C286.171 137.282 286.292 136.99 286.187 136.734C285.407 134.845 284.659 132.966 283.946 131.099C283.847 130.841 283.558 130.712 283.3 130.811C283.042 130.909 282.913 131.198 283.012 131.456C283.728 133.332 284.479 135.219 285.263 137.116C285.368 137.371 285.66 137.493 285.916 137.387ZM1080.61 135.882C1080.67 135.612 1080.5 135.346 1080.23 135.287C1078.27 134.86 1076.3 134.434 1074.33 134.007C1074.06 133.949 1073.79 134.12 1073.74 134.39C1073.68 134.66 1073.85 134.926 1074.12 134.985C1076.09 135.411 1078.05 135.838 1080.02 136.265C1080.29 136.323 1080.56 136.152 1080.61 135.882ZM61.2248 135.569C61.343 135.32 61.2365 135.022 60.9869 134.904C58.9736 133.95 57.1201 133.141 55.417 132.472C55.16 132.371 54.8698 132.498 54.7689 132.755C54.6679 133.012 54.7944 133.302 55.0515 133.403C56.7295 134.062 58.5619 134.862 60.5589 135.807C60.8085 135.925 61.1066 135.819 61.2248 135.569ZM1068.81 133.324C1068.87 133.054 1068.7 132.788 1068.43 132.73C1066.46 132.306 1064.5 131.882 1062.54 131.459C1062.27 131.401 1062 131.572 1061.94 131.842C1061.89 132.112 1062.06 132.378 1062.33 132.437C1064.29 132.86 1066.25 133.283 1068.21 133.707C1068.48 133.765 1068.75 133.594 1068.81 133.324ZM50.0639 131.21C50.1289 130.942 49.964 130.671 49.6956 130.606C47.3047 130.028 45.3198 129.867 43.7061 130.131C43.4336 130.176 43.2488 130.433 43.2933 130.705C43.3379 130.978 43.5949 131.163 43.8675 131.118C45.299 130.884 47.1383 131.016 49.4603 131.578C49.7287 131.643 49.9989 131.478 50.0639 131.21ZM1057.03 130.786C1057.09 130.516 1056.92 130.25 1056.65 130.192L1054.68 129.768C1053.37 129.488 1052.07 129.207 1050.76 128.927C1050.49 128.869 1050.22 129.041 1050.17 129.311C1050.11 129.581 1050.28 129.847 1050.55 129.905C1052.51 130.326 1054.48 130.747 1056.44 131.169C1056.71 131.227 1056.98 131.055 1057.03 130.786ZM1558.83 130.445C1559.02 130.246 1559.01 129.929 1558.81 129.738C1557.35 128.339 1555.9 126.935 1554.46 125.527C1554.26 125.335 1553.94 125.339 1553.75 125.537C1553.56 125.734 1553.56 126.051 1553.76 126.244C1555.21 127.653 1556.66 129.059 1558.12 130.46C1558.32 130.651 1558.64 130.645 1558.83 130.445ZM1045.25 128.258C1045.31 127.988 1045.14 127.723 1044.87 127.665C1042.9 127.245 1040.94 126.825 1038.97 126.406C1038.7 126.348 1038.44 126.52 1038.38 126.791C1038.32 127.061 1038.49 127.326 1038.76 127.384C1040.73 127.803 1042.69 128.223 1044.66 128.643C1044.93 128.701 1045.19 128.529 1045.25 128.258ZM1033.46 125.743C1033.52 125.473 1033.35 125.207 1033.08 125.15C1031.11 124.732 1029.15 124.314 1027.18 123.897C1026.91 123.839 1026.64 124.012 1026.59 124.282C1026.53 124.552 1026.7 124.818 1026.97 124.875C1028.94 125.292 1030.9 125.71 1032.87 126.128C1033.14 126.185 1033.4 126.013 1033.46 125.743ZM281.577 126.095C281.838 126.004 281.976 125.719 281.885 125.458C281.201 123.495 280.559 121.546 279.961 119.613C279.879 119.35 279.599 119.202 279.335 119.284C279.071 119.365 278.924 119.645 279.005 119.909C279.608 121.853 280.253 123.813 280.941 125.787C281.031 126.048 281.316 126.186 281.577 126.095ZM1021.67 123.24C1021.72 122.969 1021.55 122.704 1021.28 122.647C1019.32 122.231 1017.35 121.815 1015.38 121.4C1015.11 121.343 1014.85 121.516 1014.79 121.786C1014.73 122.057 1014.91 122.322 1015.18 122.379C1016.16 122.587 1017.15 122.795 1018.13 123.003C1019.11 123.21 1020.09 123.418 1021.07 123.625C1021.34 123.682 1021.61 123.51 1021.67 123.24ZM1550.15 121.999C1550.34 121.803 1550.34 121.487 1550.15 121.292C1548.72 119.877 1547.3 118.457 1545.88 117.034C1545.69 116.838 1545.37 116.837 1545.18 117.031C1544.98 117.226 1544.98 117.542 1545.17 117.738C1546.59 119.164 1548.01 120.585 1549.44 122.003C1549.64 122.197 1549.95 122.196 1550.15 121.999ZM1009.87 120.749C1009.92 120.478 1009.75 120.213 1009.48 120.156C1007.51 119.742 1005.54 119.329 1003.58 118.916C1003.31 118.859 1003.04 119.032 1002.98 119.302C1002.93 119.573 1003.1 119.838 1003.37 119.894C1005.34 120.307 1007.31 120.721 1009.27 121.135C1009.54 121.192 1009.81 121.019 1009.87 120.749ZM1685.05 118.691C1685.05 118.415 1684.83 118.188 1684.56 118.184C1682.56 118.153 1680.55 118.061 1678.52 117.909C1678.25 117.889 1678.01 118.095 1677.99 118.371C1677.97 118.646 1678.17 118.886 1678.45 118.907C1680.49 119.059 1682.53 119.153 1684.54 119.184C1684.82 119.188 1685.05 118.968 1685.05 118.691ZM1690.08 118.609C1690.09 118.884 1690.33 119.097 1690.6 119.083C1692.65 118.982 1694.67 118.811 1696.67 118.568C1696.94 118.535 1697.14 118.285 1697.11 118.011C1697.07 117.737 1696.82 117.542 1696.55 117.575C1694.57 117.816 1692.57 117.984 1690.56 118.084C1690.28 118.098 1690.07 118.333 1690.08 118.609ZM998.06 118.27C998.117 118 997.944 117.735 997.673 117.679C995.706 117.267 993.738 116.856 991.771 116.445C991.501 116.389 991.236 116.562 991.179 116.833C991.123 117.103 991.296 117.368 991.567 117.424C992.709 117.662 993.851 117.901 994.994 118.14L997.469 118.657C997.739 118.714 998.004 118.541 998.06 118.27ZM1673 117.862C1673.03 117.588 1672.84 117.338 1672.56 117.303C1670.58 117.048 1668.57 116.74 1666.56 116.382C1666.29 116.334 1666.03 116.515 1665.98 116.787C1665.93 117.059 1666.11 117.318 1666.39 117.367C1668.41 117.727 1670.43 118.037 1672.44 118.294C1672.71 118.33 1672.96 118.136 1673 117.862ZM1702.08 117.213C1702.14 117.484 1702.4 117.659 1702.67 117.605C1704.66 117.205 1706.63 116.726 1708.58 116.165C1708.84 116.088 1708.99 115.811 1708.92 115.546C1708.84 115.281 1708.56 115.128 1708.3 115.204C1706.38 115.757 1704.44 116.229 1702.47 116.624C1702.2 116.679 1702.03 116.942 1702.08 117.213ZM986.258 115.807C986.314 115.537 986.14 115.272 985.87 115.216C983.903 114.806 981.937 114.398 979.97 113.99C979.7 113.934 979.435 114.108 979.379 114.378C979.323 114.648 979.497 114.913 979.767 114.969C981.733 115.377 983.7 115.785 985.666 116.195C985.937 116.251 986.201 116.077 986.258 115.807ZM1661.08 115.805C1661.14 115.536 1660.97 115.269 1660.7 115.209C1658.74 114.772 1656.77 114.292 1654.79 113.769C1654.52 113.699 1654.25 113.858 1654.18 114.125C1654.11 114.392 1654.27 114.666 1654.53 114.736C1656.53 115.262 1658.51 115.746 1660.49 116.185C1660.75 116.245 1661.02 116.075 1661.08 115.805ZM277.945 114.479C278.212 114.408 278.37 114.134 278.299 113.867C277.762 111.863 277.276 109.879 276.844 107.917C276.784 107.648 276.518 107.477 276.248 107.536C275.978 107.596 275.808 107.863 275.867 108.132C276.303 110.11 276.792 112.108 277.333 114.126C277.404 114.393 277.679 114.551 277.945 114.479ZM1713.7 113.938C1713.8 114.196 1714.09 114.324 1714.35 114.225C1716.23 113.5 1718.08 112.692 1719.91 111.795C1720.15 111.673 1720.26 111.374 1720.13 111.126C1720.01 110.878 1719.71 110.776 1719.47 110.898C1717.67 111.781 1715.84 112.578 1713.99 113.292C1713.73 113.391 1713.61 113.68 1713.7 113.938ZM974.461 113.359C974.517 113.089 974.343 112.824 974.073 112.768C972.107 112.362 970.142 111.956 968.177 111.551C967.907 111.495 967.642 111.669 967.587 111.939C967.531 112.21 967.705 112.474 967.975 112.53C969.94 112.935 971.905 113.341 973.87 113.748C974.141 113.803 974.405 113.63 974.461 113.359ZM1541.62 113.413C1541.82 113.22 1541.82 112.903 1541.63 112.706C1540.22 111.258 1538.82 109.807 1537.43 108.353C1537.24 108.154 1536.92 108.146 1536.72 108.337C1536.52 108.528 1536.51 108.845 1536.7 109.044C1538.1 110.501 1539.5 111.954 1540.91 113.403C1541.1 113.601 1541.42 113.605 1541.62 113.413ZM1649.37 112.762C1649.45 112.498 1649.3 112.219 1649.03 112.139C1647.12 111.561 1645.19 110.945 1643.27 110.295C1643.01 110.207 1642.72 110.348 1642.63 110.609C1642.54 110.871 1642.69 111.155 1642.95 111.243C1644.88 111.896 1646.82 112.515 1648.74 113.097C1649.01 113.176 1649.29 113.027 1649.37 112.762ZM962.673 110.928C962.729 110.657 962.555 110.393 962.284 110.337C960.311 109.932 958.338 109.527 956.366 109.122C956.095 109.067 955.831 109.241 955.776 109.512C955.72 109.782 955.895 110.047 956.165 110.102C958.137 110.506 960.11 110.911 962.083 111.317C962.354 111.372 962.618 111.198 962.673 110.928ZM1637.88 108.926C1637.97 108.667 1637.84 108.379 1637.58 108.283C1635.71 107.591 1633.83 106.868 1631.96 106.117C1631.7 106.014 1631.41 106.139 1631.31 106.395C1631.21 106.651 1631.33 106.942 1631.59 107.045C1633.47 107.8 1635.35 108.525 1637.23 109.221C1637.49 109.317 1637.78 109.184 1637.88 108.926ZM1724.57 108.691C1724.71 108.927 1725.02 109.002 1725.26 108.858C1726.96 107.82 1728.64 106.698 1730.28 105.488C1730.5 105.324 1730.55 105.011 1730.39 104.789C1730.23 104.566 1729.91 104.519 1729.69 104.682C1728.07 105.875 1726.42 106.981 1724.74 108.004C1724.5 108.148 1724.43 108.455 1724.57 108.691ZM950.835 108.501C950.891 108.23 950.716 107.966 950.445 107.911C948.473 107.508 946.5 107.105 944.529 106.704C944.258 106.649 943.994 106.823 943.939 107.094C943.884 107.365 944.059 107.629 944.329 107.684C946.301 108.085 948.273 108.488 950.245 108.891C950.516 108.946 950.78 108.771 950.835 108.501ZM939.007 106.091C939.062 105.82 938.887 105.556 938.616 105.502C936.646 105.102 934.677 104.702 932.708 104.304C932.438 104.249 932.174 104.424 932.119 104.695C932.064 104.966 932.239 105.229 932.51 105.284C934.478 105.682 936.448 106.082 938.417 106.482C938.688 106.536 938.952 106.362 939.007 106.091ZM1533.27 104.687C1533.47 104.498 1533.48 104.182 1533.29 103.98C1531.9 102.501 1530.53 101.019 1529.17 99.5337C1528.98 99.3302 1528.66 99.3165 1528.46 99.5031C1528.26 99.6898 1528.24 100.006 1528.43 100.21C1529.8 101.698 1531.17 103.183 1532.56 104.664C1532.75 104.866 1533.06 104.876 1533.27 104.687ZM1626.61 104.445C1626.72 104.191 1626.6 103.897 1626.34 103.788C1624.52 103.003 1622.69 102.193 1620.86 101.36C1620.6 101.245 1620.31 101.356 1620.19 101.607C1620.08 101.859 1620.19 102.155 1620.44 102.27C1622.28 103.106 1624.11 103.919 1625.95 104.707C1626.2 104.816 1626.5 104.699 1626.61 104.445ZM927.196 103.7C927.251 103.43 927.076 103.166 926.805 103.111C924.838 102.715 922.872 102.319 920.907 101.924C920.636 101.869 920.373 102.045 920.318 102.315C920.264 102.586 920.439 102.85 920.71 102.904C922.675 103.299 924.641 103.695 926.607 104.092C926.878 104.146 927.142 103.971 927.196 103.7ZM275.283 102.564C275.556 102.519 275.74 102.261 275.694 101.989C275.357 99.9688 275.083 97.9748 274.876 96.009C274.846 95.7344 274.6 95.5353 274.326 95.5644C274.051 95.5934 273.852 95.8396 273.881 96.1142C274.091 98.101 274.368 100.115 274.708 102.153C274.753 102.426 275.011 102.61 275.283 102.564ZM1734.33 101.62C1734.51 101.827 1734.83 101.848 1735.04 101.667C1735.81 100.987 1736.58 100.285 1737.34 99.5609C1737.54 99.3706 1737.55 99.0541 1737.36 98.854C1737.17 98.6539 1736.85 98.646 1736.65 98.8363C1735.9 99.5508 1735.14 100.243 1734.38 100.914C1734.17 101.096 1734.15 101.412 1734.33 101.62ZM915.406 101.33C915.461 101.059 915.285 100.795 915.014 100.741C913.051 100.348 911.089 99.9554 909.128 99.5638C908.857 99.5097 908.593 99.6854 908.539 99.9562C908.485 100.227 908.661 100.49 908.932 100.544C910.893 100.936 912.855 101.328 914.818 101.722C915.089 101.776 915.352 101.6 915.406 101.33ZM1615.6 99.4568C1615.72 99.2079 1615.61 98.9091 1615.36 98.7896C1613.56 97.9219 1611.75 97.033 1609.95 96.1244C1609.7 96.0002 1609.4 96.0993 1609.28 96.3459C1609.16 96.5925 1609.25 96.8932 1609.5 97.0174C1611.31 97.9287 1613.12 98.8204 1614.93 99.6909C1615.18 99.8105 1615.48 99.7057 1615.6 99.4568ZM903.582 98.9682C903.636 98.6974 903.46 98.4342 903.19 98.3803C901.209 97.9863 899.23 97.5932 897.252 97.2011C896.982 97.1474 896.718 97.3235 896.665 97.5943C896.611 97.8652 896.787 98.1283 897.058 98.182C898.234 98.4151 899.41 98.6486 900.587 98.8823C901.389 99.0417 902.192 99.2013 902.995 99.3611C903.265 99.4149 903.529 99.2391 903.582 98.9682ZM891.716 96.615C891.769 96.3441 891.593 96.0811 891.322 96.0275C889.347 95.6373 887.373 95.248 885.4 94.8597C885.129 94.8064 884.866 94.9828 884.813 95.2537C884.759 95.5247 884.936 95.7875 885.207 95.8409C887.179 96.2291 889.153 96.6184 891.129 97.0086C891.399 97.0621 891.662 96.8859 891.716 96.615ZM1525.06 95.7532C1525.27 95.5688 1525.28 95.2527 1525.1 95.0471C1523.75 93.5486 1522.42 92.0471 1521.11 90.5429C1520.92 90.3352 1520.61 90.3143 1520.4 90.4962C1520.19 90.6782 1520.17 90.9941 1520.35 91.2018C1521.67 92.709 1523.01 94.2134 1524.35 95.7148C1524.54 95.9203 1524.85 95.9375 1525.06 95.7532ZM879.879 94.2846C879.933 94.0136 879.756 93.7509 879.485 93.6977C877.515 93.3114 875.546 92.926 873.579 92.5417C873.308 92.4887 873.045 92.6655 872.992 92.9366C872.939 93.2076 873.116 93.4702 873.387 93.5231C875.354 93.9074 877.323 94.2927 879.293 94.679C879.564 94.7322 879.826 94.5556 879.879 94.2846ZM1604.79 94.0355C1604.92 93.7911 1604.83 93.4888 1604.58 93.3603C1602.8 92.4221 1601.02 91.4663 1599.24 90.4944C1599 90.362 1598.7 90.451 1598.56 90.6933C1598.43 90.9356 1598.52 91.2394 1598.76 91.3719C1600.54 92.3462 1602.33 93.3045 1604.12 94.2453C1604.36 94.3738 1604.67 94.2799 1604.79 94.0355ZM868.076 91.978C868.129 91.707 867.952 91.4445 867.681 91.3917C865.716 91.0094 863.753 90.6281 861.792 90.2479C861.521 90.1954 861.258 90.3725 861.206 90.6436C861.153 90.9147 861.33 91.1771 861.602 91.2296C863.563 91.6098 865.525 91.9911 867.49 92.3733C867.761 92.4261 868.023 92.2491 868.076 91.978ZM273.961 90.4674C274.237 90.4577 274.453 90.2261 274.444 89.9502C274.372 87.9186 274.379 85.9218 274.469 83.9619C274.481 83.686 274.268 83.4522 273.992 83.4396C273.716 83.427 273.482 83.6404 273.47 83.9163C273.379 85.9046 273.372 87.9285 273.444 89.9853C273.454 90.2613 273.685 90.4771 273.961 90.4674ZM856.303 89.6951C856.356 89.424 856.178 89.1617 855.907 89.1094C853.917 88.7252 851.93 88.3421 849.943 87.9601C849.672 87.908 849.41 88.0855 849.358 88.3567C849.306 88.6279 849.483 88.89 849.754 88.9421C850.473 89.0804 851.193 89.2188 851.912 89.3574C853.18 89.6016 854.448 89.8462 855.718 90.0912C855.989 90.1436 856.251 89.9662 856.303 89.6951ZM1594.16 88.2432C1594.3 88.0029 1594.21 87.6978 1593.97 87.5617C1592.22 86.5695 1590.47 85.5631 1588.73 84.5443C1588.49 84.4049 1588.19 84.4851 1588.05 84.7234C1587.91 84.9618 1587.99 85.2681 1588.23 85.4075C1589.97 86.4286 1591.72 87.4373 1593.48 88.4319C1593.72 88.5679 1594.03 88.4835 1594.16 88.2432ZM844.387 87.4027C844.439 87.1315 844.261 86.8695 843.99 86.8176C842.007 86.4379 840.026 86.0593 838.047 85.6819C837.776 85.6301 837.514 85.8081 837.462 86.0793C837.411 86.3506 837.589 86.6124 837.86 86.6642C839.839 87.0415 841.819 87.42 843.802 87.7997C844.073 87.8517 844.335 87.6739 844.387 87.4027ZM1517.09 86.6716C1517.3 86.4922 1517.33 86.1766 1517.15 85.9666C1515.83 84.4231 1514.53 82.8769 1513.24 81.3283C1513.06 81.116 1512.75 81.087 1512.53 81.2636C1512.32 81.4402 1512.29 81.7554 1512.47 81.9677C1513.76 83.5198 1515.07 85.0693 1516.39 86.6161C1516.57 86.8261 1516.88 86.8509 1517.09 86.6716ZM832.514 85.1375C832.565 84.8662 832.387 84.6046 832.116 84.553C830.141 84.1779 828.167 83.804 826.196 83.4313C825.925 83.38 825.663 83.5583 825.612 83.8297C825.561 84.101 825.739 84.3626 826.01 84.4139C826.768 84.5571 827.525 84.7004 828.283 84.844C829.498 85.074 830.713 85.3045 831.929 85.5355C832.201 85.587 832.462 85.4088 832.514 85.1375ZM820.687 82.9006C820.738 82.6292 820.56 82.3678 820.288 82.3167C818.321 81.9464 816.356 81.5772 814.393 81.2094C814.122 81.1585 813.86 81.3373 813.81 81.6087C813.759 81.8801 813.938 82.1414 814.209 82.1923C815.37 82.4099 816.533 82.628 817.695 82.8465C818.498 82.9973 819.3 83.1483 820.103 83.2994C820.375 83.3505 820.636 83.1719 820.687 82.9006ZM1583.7 82.1424C1583.84 81.9059 1583.77 81.5986 1583.53 81.4561C1581.8 80.4163 1580.08 79.3657 1578.37 78.3057C1578.14 78.1603 1577.83 78.2329 1577.68 78.4677C1577.54 78.7025 1577.61 79.0107 1577.84 79.156C1579.56 80.218 1581.28 81.2708 1583.01 82.3127C1583.25 82.4552 1583.56 82.3789 1583.7 82.1424ZM808.911 80.6926C808.961 80.4212 808.782 80.1601 808.511 80.1094C807.295 79.8826 806.08 79.6563 804.866 79.4305C804.11 79.2897 803.353 79.1492 802.598 79.0088C802.326 78.9584 802.065 79.1376 802.015 79.4091C801.964 79.6806 802.144 79.9416 802.415 79.992C804.383 80.3575 806.354 80.7244 808.327 81.0924C808.599 81.1431 808.86 80.9641 808.911 80.6926ZM797.017 78.4832C797.067 78.2117 796.887 77.9509 796.616 77.9007C794.624 77.5327 792.635 77.166 790.649 76.8007C790.377 76.7507 790.116 76.9304 790.066 77.202C790.016 77.4736 790.196 77.7342 790.468 77.7842C792.454 78.1494 794.443 78.5161 796.434 78.8841C796.706 78.9342 796.966 78.7548 797.017 78.4832ZM274.461 78.3434C274.734 78.3821 274.987 78.1919 275.026 77.9185C275.309 75.9173 275.69 73.961 276.173 72.0522C276.24 71.7845 276.078 71.5125 275.811 71.4449C275.543 71.3771 275.271 71.5393 275.203 71.807C274.711 73.7521 274.324 75.7436 274.036 77.7783C273.997 78.0517 274.187 78.3047 274.461 78.3434ZM1509.35 77.3786C1509.56 77.205 1509.59 76.8901 1509.42 76.6754C1508.15 75.1031 1506.9 73.5285 1505.66 71.9518C1505.49 71.7346 1505.17 71.6967 1504.96 71.8671C1504.74 72.0376 1504.7 72.3519 1504.87 72.5691C1506.11 74.1497 1507.37 75.7281 1508.64 77.3041C1508.82 77.5189 1509.13 77.5522 1509.35 77.3786ZM785.098 76.2906C785.148 76.019 784.968 75.7585 784.696 75.7088C782.715 75.3462 780.736 74.985 778.76 74.6252C778.488 74.5758 778.228 74.7559 778.178 75.0276C778.129 75.2993 778.309 75.5596 778.581 75.609C780.557 75.9688 782.535 76.3299 784.516 76.6924C784.788 76.7422 785.049 76.5623 785.098 76.2906ZM1573.41 75.789C1573.56 75.5558 1573.49 75.2469 1573.26 75.0989C1571.55 74.0143 1569.84 72.9219 1568.15 71.8232C1567.92 71.6729 1567.61 71.7387 1567.46 71.9703C1567.31 72.2019 1567.38 72.5115 1567.61 72.6619C1569.3 73.7624 1571.01 74.8568 1572.72 75.9433C1572.95 76.0912 1573.26 76.0222 1573.41 75.789ZM773.242 74.1312C773.291 73.8595 773.11 73.5993 772.839 73.5501C770.868 73.1931 768.9 72.8376 766.934 72.4835C766.662 72.4345 766.402 72.6151 766.353 72.8869C766.305 73.1587 766.485 73.4187 766.757 73.4677C768.722 73.8217 770.69 74.1772 772.661 74.5341C772.932 74.5833 773.192 74.4029 773.242 74.1312ZM761.45 72.0059C761.499 71.7341 761.318 71.4743 761.046 71.4255C759.086 71.0744 757.13 70.7246 755.175 70.3764C754.904 70.3279 754.644 70.5091 754.596 70.7809C754.547 71.0528 754.728 71.3124 755 71.3609C756.954 71.7091 758.91 72.0587 760.87 72.4099C761.142 72.4586 761.402 72.2777 761.45 72.0059ZM749.595 69.8924C749.644 69.6205 749.462 69.361 749.19 69.3128C747.189 68.9581 745.19 68.605 743.195 68.2536C742.923 68.2057 742.664 68.3873 742.616 68.6593C742.568 68.9312 742.75 69.1905 743.022 69.2384C744.322 69.4675 745.624 69.6973 746.928 69.9278C747.623 70.0508 748.319 70.174 749.016 70.2975C749.288 70.3456 749.547 70.1643 749.595 69.8924ZM1563.25 69.2032C1563.4 68.9731 1563.34 68.6628 1563.11 68.5102C1561.42 67.3916 1559.74 66.2682 1558.08 65.1419C1557.85 64.9872 1557.54 65.0471 1557.38 65.2759C1557.23 65.5046 1557.29 65.8154 1557.52 65.9702C1559.19 67.0981 1560.86 68.2231 1562.55 69.3435C1562.78 69.4962 1563.09 69.4333 1563.25 69.2032ZM737.626 67.7828C737.674 67.5108 737.492 67.2517 737.22 67.204C735.231 66.8558 733.246 66.5092 731.264 66.1643C730.992 66.1169 730.733 66.2991 730.686 66.5711C730.638 66.8432 730.821 67.1021 731.093 67.1495C733.074 67.4944 735.059 67.8409 737.047 68.1891C737.319 68.2367 737.578 68.0548 737.626 67.7828ZM1501.85 67.8446C1502.07 67.6776 1502.11 67.3639 1501.95 67.144C1500.73 65.5395 1499.53 63.933 1498.35 62.3249C1498.18 62.1023 1497.87 62.0543 1497.65 62.2177C1497.43 62.381 1497.38 62.6939 1497.54 62.9166C1498.72 64.5292 1499.93 66.1401 1501.15 67.7489C1501.32 67.9688 1501.63 68.0117 1501.85 67.8446ZM277.349 66.5897C277.607 66.6891 277.896 66.5609 277.995 66.3032C278.714 64.4407 279.546 62.6313 280.495 60.8779C280.627 60.6351 280.537 60.3316 280.294 60.2001C280.051 60.0686 279.748 60.1588 279.616 60.4016C278.646 62.1935 277.796 64.0418 277.062 65.9433C276.963 66.2009 277.091 66.4903 277.349 66.5897ZM725.736 65.7124C725.783 65.4402 725.601 65.1815 725.329 65.1345C724.341 64.9637 723.354 64.7933 722.369 64.6233C721.383 64.4533 720.398 64.2838 719.414 64.1147C719.142 64.0679 718.883 64.2506 718.837 64.5228C718.79 64.7949 718.973 65.0535 719.245 65.1003C721.212 65.4384 723.184 65.7783 725.158 66.1198C725.43 66.1669 725.689 65.9845 725.736 65.7124ZM713.929 63.6821C713.976 63.4099 713.793 63.1516 713.521 63.1051C711.56 62.7703 709.602 62.4372 707.649 62.1058C707.377 62.0596 707.118 62.2429 707.072 62.5152C707.026 62.7874 707.209 63.0456 707.482 63.0917C708.665 63.2925 709.85 63.4939 711.037 63.696C711.808 63.8273 712.58 63.9589 713.352 64.0908C713.625 64.1373 713.883 63.9543 713.929 63.6821ZM1553.2 62.4203C1553.36 62.1929 1553.3 61.8816 1553.07 61.7249C1551.42 60.584 1549.77 59.4416 1548.14 58.2995C1547.92 58.1411 1547.6 58.196 1547.45 58.4222C1547.29 58.6484 1547.34 58.9601 1547.57 59.1186C1549.2 60.2621 1550.85 61.4059 1552.51 62.5484C1552.73 62.7051 1553.04 62.6477 1553.2 62.4203ZM702.106 61.6757C702.152 61.4034 701.968 61.1454 701.696 61.0995C699.684 60.7607 697.676 60.4237 695.672 60.0886C695.4 60.043 695.142 60.2269 695.097 60.4993C695.051 60.7716 695.235 61.0293 695.507 61.0749C697.511 61.4099 699.518 61.7469 701.53 62.0857C701.802 62.1315 702.06 61.948 702.106 61.6757ZM690.085 59.6642C690.13 59.3918 689.946 59.1342 689.673 59.0891C687.678 58.7578 685.687 58.4285 683.7 58.1011C683.427 58.0562 683.17 58.2407 683.125 58.5132C683.08 58.7856 683.265 59.0429 683.537 59.0878C685.524 59.4151 687.515 59.7444 689.51 60.0755C689.782 60.1208 690.039 59.9366 690.085 59.6642ZM1494.7 58.1265C1494.93 57.967 1494.98 57.655 1494.82 57.4296C1493.64 55.7663 1492.49 54.1015 1491.36 52.4354C1491.2 52.207 1490.89 52.1476 1490.66 52.3027C1490.43 52.4579 1490.37 52.7689 1490.53 52.9973C1491.67 54.6687 1492.82 56.3387 1494 58.007C1494.16 58.2324 1494.47 58.2859 1494.7 58.1265ZM678.164 57.699C678.209 57.4265 678.024 57.1694 677.751 57.1249C675.773 56.8015 673.799 56.48 671.829 56.1606C671.557 56.1164 671.3 56.3015 671.256 56.5741C671.212 56.8467 671.397 57.1035 671.669 57.1477C673.639 57.4671 675.612 57.7884 677.59 58.1118C677.863 58.1563 678.12 57.9715 678.164 57.699ZM666.348 55.7814C666.392 55.5087 666.207 55.2522 665.934 55.2083C663.974 54.8929 662.017 54.5795 660.066 54.2682C659.793 54.2247 659.537 54.4105 659.493 54.6832C659.45 54.9559 659.636 55.2122 659.908 55.2557C661.859 55.567 663.815 55.8803 665.775 56.1956C666.048 56.2395 666.305 56.054 666.348 55.7814ZM283.002 55.9037C283.225 56.0661 283.538 56.0165 283.701 55.7932C284.853 54.2072 286.121 52.676 287.509 51.2024C287.699 51.0014 287.689 50.685 287.488 50.4956C287.287 50.3062 286.971 50.3156 286.782 50.5166C285.364 52.0208 284.069 53.5847 282.892 55.2053C282.729 55.4287 282.779 55.7414 283.002 55.9037ZM1543.28 55.4783C1543.44 55.2532 1543.38 54.9411 1543.16 54.781C1541.51 53.6089 1539.88 52.4389 1538.26 51.2729C1538.04 51.1113 1537.72 51.162 1537.56 51.3859C1537.4 51.6099 1537.45 51.9224 1537.68 52.0839C1539.29 53.2512 1540.93 54.4224 1542.58 55.5959C1542.8 55.756 1543.12 55.7033 1543.28 55.4783ZM654.523 53.8936C654.566 53.6208 654.38 53.3648 654.107 53.3217C652.085 53.002 650.069 52.6846 648.058 52.3694C647.785 52.3267 647.529 52.5132 647.486 52.786C647.444 53.0588 647.63 53.3146 647.903 53.3574C649.914 53.6724 651.93 53.9898 653.951 54.3094C654.223 54.3525 654.479 54.1664 654.523 53.8936ZM642.457 52.0016C642.5 51.7288 642.313 51.4732 642.04 51.4309C640.039 51.1203 638.044 50.8121 636.054 50.5062C635.781 50.4642 635.526 50.6514 635.484 50.9244C635.442 51.1973 635.629 51.4526 635.902 51.4945C637.891 51.8004 639.886 52.1086 641.887 52.419C642.159 52.4614 642.415 52.2745 642.457 52.0016ZM630.519 50.165C630.56 49.892 630.373 49.637 630.1 49.5954C628.12 49.2942 626.147 48.9954 624.178 48.6989C623.905 48.6577 623.651 48.8458 623.609 49.1188C623.568 49.3919 623.756 49.6466 624.029 49.6877C625.997 49.9841 627.97 50.2829 629.949 50.584C630.222 50.6256 630.477 50.438 630.519 50.165ZM618.711 48.3849C618.752 48.1118 618.564 47.8574 618.29 47.8167C616.333 47.525 614.382 47.2357 612.436 46.9489C612.163 46.9086 611.909 47.0974 611.869 47.3706C611.829 47.6438 612.017 47.8979 612.291 47.9382C614.236 48.2249 616.187 48.5141 618.143 48.8057C618.416 48.8464 618.671 48.658 618.711 48.3849ZM1533.46 48.4102C1533.63 48.1873 1533.58 47.8745 1533.35 47.7116C1531.71 46.5081 1530.08 45.3111 1528.47 44.1225C1528.25 43.9584 1527.93 44.0055 1527.77 44.2276C1527.6 44.4497 1527.65 44.7628 1527.87 44.9268C1529.48 46.1164 1531.12 47.3146 1532.76 48.5191C1532.99 48.682 1533.3 48.6332 1533.46 48.4102ZM1487.89 48.1255C1488.12 47.975 1488.18 47.6653 1488.03 47.4338C1487.49 46.5995 1486.95 45.765 1486.42 44.9304C1485.82 43.9902 1485.24 43.0668 1484.67 42.1601C1484.52 41.9266 1484.21 41.8569 1483.98 42.0044C1483.74 42.1518 1483.67 42.4606 1483.82 42.6941C1484.39 43.6017 1484.98 44.5259 1485.58 45.4669C1486.11 46.3045 1486.65 47.1419 1487.19 47.979C1487.34 48.2105 1487.65 48.2761 1487.89 48.1255ZM291.192 47.0144C291.369 47.2263 291.684 47.2545 291.896 47.0775C293.389 45.83 294.988 44.633 296.696 43.489C296.925 43.3354 296.987 43.0248 296.833 42.7954C296.679 42.5659 296.369 42.5045 296.139 42.6582C294.403 43.8211 292.776 45.0391 291.255 46.3101C291.043 46.4871 291.015 46.8025 291.192 47.0144ZM606.817 46.6302C606.856 46.3569 606.667 46.1031 606.394 46.0633C604.366 45.7678 602.344 45.4751 600.329 45.1851C600.056 45.1458 599.803 45.3354 599.763 45.6088C599.724 45.8821 599.914 46.1356 600.187 46.1749C602.201 46.4648 604.222 46.7575 606.25 47.0529C606.523 47.0927 606.777 46.9034 606.817 46.6302ZM594.729 44.8887C594.768 44.6154 594.577 44.3622 594.304 44.3234C592.302 44.0389 590.307 43.7572 588.319 43.4783C588.045 43.44 587.792 43.6306 587.754 43.9041C587.716 44.1775 587.906 44.4303 588.18 44.4687C590.168 44.7474 592.162 45.0291 594.163 45.3134C594.437 45.3523 594.69 45.1621 594.729 44.8887ZM582.8 43.214C582.838 42.9404 582.647 42.688 582.374 42.6502C580.399 42.3769 578.431 42.1066 576.47 41.8391C576.196 41.8017 575.944 41.9933 575.907 42.2669C575.87 42.5405 576.061 42.7925 576.335 42.8299C578.295 43.0973 580.262 43.3676 582.237 43.6407C582.51 43.6786 582.763 43.4875 582.8 43.214ZM571.037 41.6073C571.074 41.3336 570.882 41.0819 570.608 41.0452C568.612 40.7768 566.623 40.5116 564.642 40.2494C564.369 40.2131 564.117 40.4057 564.081 40.6794C564.045 40.9532 564.237 41.2045 564.511 41.2407C566.492 41.5028 568.479 41.768 570.475 42.0363C570.748 42.073 571 41.881 571.037 41.6073ZM1523.75 41.2439C1523.91 41.0226 1523.87 40.7093 1523.65 40.5442C1521.99 39.3096 1520.36 38.0868 1518.75 36.8782C1518.53 36.7123 1518.22 36.7566 1518.05 36.9773C1517.89 37.198 1517.93 37.5115 1518.15 37.6775C1519.76 38.8867 1521.39 40.1103 1523.05 41.3458C1523.27 41.5109 1523.58 41.4652 1523.75 41.2439ZM301.14 40.1979C301.272 40.4406 301.575 40.5303 301.818 40.3985C303.568 39.4473 305.412 38.5421 307.353 37.6847C307.605 37.5731 307.72 37.2779 307.608 37.0253C307.497 36.7727 307.201 36.6584 306.949 36.77C304.984 37.6379 303.115 38.5551 301.34 39.5198C301.098 39.6517 301.008 39.9553 301.14 40.1979ZM558.966 40.0081C559.002 39.7342 558.808 39.4833 558.535 39.4477C556.507 39.1838 554.487 38.9232 552.476 38.666C552.202 38.6309 551.952 38.8246 551.917 39.0985C551.881 39.3724 552.075 39.6229 552.349 39.6579C554.36 39.915 556.378 40.1755 558.406 40.4393C558.679 40.475 558.93 40.2819 558.966 40.0081ZM546.901 38.4628C546.935 38.1888 546.741 37.9388 546.467 37.9044C544.472 37.6539 542.486 37.4069 540.509 37.1632C540.234 37.1295 539.985 37.3242 539.951 37.5983C539.917 37.8724 540.112 38.1219 540.386 38.1557C542.363 38.3993 544.349 38.6462 546.342 38.8966C546.616 38.931 546.866 38.7368 546.901 38.4628ZM1481.22 37.6061C1481.45 37.4602 1481.52 37.1519 1481.38 36.9174C1480.33 35.2353 1479.33 33.6181 1478.38 32.0644C1478.24 31.8287 1477.93 31.7544 1477.7 31.8984C1477.46 32.0424 1477.39 32.3502 1477.53 32.5858C1478.48 34.142 1479.48 35.7615 1480.53 37.4457C1480.68 37.6802 1480.98 37.752 1481.22 37.6061ZM535.038 36.999C535.071 36.7248 534.876 36.4757 534.602 36.4426C532.641 36.2059 530.689 35.9726 528.747 35.7429C528.472 35.7104 528.224 35.9065 528.191 36.1807C528.159 36.4549 528.355 36.7035 528.629 36.736C530.571 36.9656 532.522 37.1988 534.482 37.4354C534.756 37.4685 535.005 37.2731 535.038 36.999ZM523.192 35.5961C523.224 35.3218 523.027 35.0737 522.753 35.042C520.697 34.8044 518.651 34.5708 516.616 34.3413C516.342 34.3104 516.094 34.5077 516.063 34.7821C516.032 35.0565 516.23 35.304 516.504 35.335C518.538 35.5644 520.583 35.7979 522.638 36.0354C522.912 36.0671 523.16 35.8705 523.192 35.5961ZM312.127 35.2112C312.222 35.4707 312.509 35.6044 312.768 35.5098C314.651 34.8235 316.613 34.1764 318.655 33.5697C318.92 33.4911 319.071 33.2128 318.992 32.9481C318.914 32.6833 318.635 32.5325 318.371 32.6111C316.31 33.2233 314.329 33.8767 312.426 34.5703C312.166 34.6648 312.033 34.9518 312.127 35.2112ZM510.984 34.2167C511.014 33.9422 510.816 33.6953 510.541 33.6651C508.527 33.4438 506.523 33.2267 504.53 33.0138C504.255 32.9844 504.009 33.1832 503.979 33.4578C503.95 33.7324 504.149 33.9788 504.423 34.0081C506.416 34.2209 508.419 34.438 510.432 34.6591C510.707 34.6893 510.954 34.4912 510.984 34.2167ZM1514.11 33.998C1514.27 33.7778 1514.23 33.4642 1514.01 33.2975C1512.34 32.0345 1510.7 30.7905 1509.09 29.5688C1508.87 29.4016 1508.56 29.4443 1508.39 29.6641C1508.23 29.8839 1508.27 30.1976 1508.49 30.3648C1510.1 31.5869 1511.74 32.8313 1513.4 34.0949C1513.63 34.2616 1513.94 34.2182 1514.11 33.998ZM499.028 32.9364C499.056 32.6617 498.857 32.416 498.582 32.3875C496.61 32.183 494.65 31.9826 492.7 31.7866C492.425 31.759 492.18 31.9593 492.152 32.2341C492.125 32.5089 492.325 32.754 492.6 32.7816C494.548 32.9775 496.508 33.1777 498.479 33.3822C498.754 33.4106 498.999 33.2111 499.028 32.9364ZM487.332 31.7574C487.359 31.4826 487.158 31.2381 486.883 31.2114C484.803 31.0091 482.736 30.8119 480.682 30.6198C480.407 30.594 480.163 30.7961 480.137 31.071C480.112 31.3459 480.314 31.5897 480.589 31.6154C482.641 31.8074 484.707 32.0045 486.786 32.2067C487.061 32.2334 487.306 32.0323 487.332 31.7574ZM323.84 31.6444C323.905 31.9127 324.175 32.0775 324.444 32.0123C326.309 31.5595 328.233 31.1369 330.219 30.7453C330.49 30.6918 330.666 30.4289 330.612 30.158C330.559 29.887 330.296 29.7107 330.025 29.7642C328.026 30.1585 326.087 30.5842 324.208 31.0405C323.939 31.1057 323.775 31.376 323.84 31.6444ZM475.004 30.6005C475.028 30.3255 474.825 30.0825 474.55 30.0578C472.52 29.8756 470.503 29.6986 468.499 29.5269C468.224 29.5033 467.982 29.7072 467.958 29.9823C467.935 30.2574 468.139 30.4996 468.414 30.5232C470.416 30.6949 472.432 30.8718 474.461 31.0538C474.736 31.0785 474.979 30.8755 475.004 30.6005ZM462.988 29.5662C463.01 29.291 462.805 29.0497 462.53 29.0272C460.554 28.8659 458.592 28.7098 456.644 28.5591C456.368 28.5378 456.128 28.7437 456.107 29.0191C456.085 29.2944 456.291 29.5349 456.567 29.5562C458.513 29.7067 460.474 29.8627 462.449 30.0239C462.724 30.0463 462.965 29.8414 462.988 29.5662ZM335.787 29.2469C335.83 29.5197 336.086 29.7064 336.358 29.6638C337.413 29.4993 338.482 29.3427 339.568 29.1941C340.475 29.0699 341.394 28.9502 342.326 28.8349C342.6 28.801 342.795 28.5514 342.761 28.2773C342.727 28.0033 342.478 27.8086 342.204 27.8425C341.267 27.9583 340.344 28.0786 339.432 28.2033C338.341 28.3527 337.265 28.5103 336.204 28.6758C335.931 28.7184 335.745 28.9741 335.787 29.2469ZM451.304 28.6581C451.324 28.3827 451.117 28.1432 450.841 28.1231C448.745 27.9702 446.665 27.8238 444.603 27.6839C444.328 27.6652 444.089 27.8734 444.07 28.1489C444.052 28.4244 444.26 28.6629 444.535 28.6816C446.596 28.8214 448.674 28.9677 450.768 29.1204C451.044 29.1405 451.283 28.9335 451.304 28.6581ZM438.914 27.8126C438.932 27.537 438.722 27.2996 438.447 27.2823C436.412 27.1551 434.395 27.0344 432.395 26.9205C432.12 26.9048 431.884 27.1155 431.868 27.3912C431.852 27.6669 432.063 27.9031 432.339 27.9189C434.336 28.0327 436.351 28.1532 438.384 28.2804C438.66 28.2976 438.897 28.0882 438.914 27.8126ZM347.521 27.7479C347.548 28.0227 347.793 28.2233 348.068 28.1959C350.031 28.0004 352.043 27.8224 354.104 27.6616C354.379 27.6401 354.585 27.3995 354.563 27.1242C354.542 26.8488 354.301 26.6431 354.026 26.6646C351.959 26.826 349.939 27.0046 347.969 27.2008C347.694 27.2282 347.493 27.4731 347.521 27.7479ZM426.925 27.1237C426.939 26.8479 426.727 26.6129 426.451 26.5988C424.488 26.4983 422.543 26.4046 420.616 26.3177C420.34 26.3053 420.106 26.5188 420.094 26.7947C420.081 27.0705 420.295 27.3042 420.571 27.3167C422.495 27.4035 424.439 27.4971 426.4 27.5975C426.676 27.6116 426.911 27.3994 426.925 27.1237ZM1474.92 27.3013C1475.16 27.1601 1475.24 26.8533 1475.1 26.6159C1474.05 24.8582 1473.08 23.1977 1472.18 21.6314C1472.05 21.3919 1471.74 21.3091 1471.5 21.4464C1471.26 21.5838 1471.18 21.8894 1471.32 22.1289C1472.22 23.7003 1473.19 25.3654 1474.24 27.127C1474.38 27.3644 1474.69 27.4424 1474.92 27.3013ZM359.9 26.7606C359.917 27.0363 360.153 27.2466 360.429 27.2304C362.336 27.1184 364.28 27.0197 366.261 26.9341C366.537 26.9221 366.751 26.6888 366.739 26.4129C366.727 26.1371 366.493 25.9231 366.218 25.935C364.232 26.0208 362.283 26.1198 360.37 26.2322C360.095 26.2484 359.884 26.485 359.9 26.7606ZM415.069 26.5848C415.079 26.3089 414.864 26.0766 414.588 26.066C412.484 25.9854 410.403 25.9133 408.346 25.85C408.07 25.8415 407.839 26.0583 407.83 26.3344C407.822 26.6104 408.039 26.841 408.315 26.8495C410.37 26.9128 412.448 26.9848 414.55 27.0653C414.826 27.0759 415.058 26.8608 415.069 26.5848ZM1504.46 26.6714C1504.63 26.4518 1504.59 26.138 1504.37 25.9707L1503.29 25.1504C1501.99 24.1568 1500.71 23.1821 1499.46 22.2283C1499.24 22.061 1498.92 22.1036 1498.75 22.3233C1498.59 22.5431 1498.63 22.8568 1498.85 23.024C1500.13 24.0014 1501.45 25.0007 1502.78 26.02L1503.76 26.7661C1503.98 26.9334 1504.3 26.8911 1504.46 26.6714ZM371.591 26.2373C371.6 26.5133 371.83 26.7305 372.106 26.7224C374.088 26.664 376.104 26.6177 378.152 26.5833C378.428 26.5787 378.648 26.3511 378.644 26.075C378.639 25.799 378.411 25.5789 378.135 25.5835C376.083 25.6179 374.063 25.6643 372.076 25.7228C371.8 25.731 371.583 25.9613 371.591 26.2373ZM402.732 26.1974C402.738 25.9213 402.52 25.6924 402.244 25.6861C400.233 25.6403 398.247 25.6033 396.285 25.5751C396.009 25.5712 395.782 25.7918 395.778 26.0679C395.774 26.344 395.994 26.5711 396.271 26.575C398.23 26.6031 400.213 26.6401 402.221 26.6859C402.497 26.6922 402.726 26.4735 402.732 26.1974ZM390.471 25.5176C388.416 25.5067 386.389 25.5061 384.391 25.5161C384.115 25.5175 383.892 25.7425 383.894 26.0186C383.895 26.2947 384.12 26.5175 384.396 26.5161C386.391 26.5061 388.414 26.5067 390.466 26.5176C390.742 26.5191 390.967 26.2964 390.968 26.0203C390.97 25.7441 390.747 25.5191 390.471 25.5176ZM1494.84 19.3484C1495 19.1282 1494.96 18.8146 1494.74 18.6479C1493.04 17.3564 1491.39 16.1129 1489.8 14.9232C1489.57 14.7577 1489.26 14.8028 1489.1 15.0239C1488.93 15.245 1488.98 15.5583 1489.2 15.7238C1490.78 16.9121 1492.43 18.1544 1494.14 19.4452C1494.36 19.6119 1494.67 19.5685 1494.84 19.3484ZM1468.92 16.8234C1469.17 16.6925 1469.26 16.3893 1469.13 16.1461C1468.08 14.2054 1467.18 12.4576 1466.43 10.893C1466.31 10.6441 1466.02 10.5392 1465.77 10.6587C1465.52 10.7782 1465.41 11.0769 1465.53 11.3258C1466.29 12.9073 1467.19 14.6692 1468.24 16.6203C1468.38 16.8634 1468.68 16.9544 1468.92 16.8234ZM1485.05 12.0278C1485.22 11.805 1485.17 11.4921 1484.95 11.3289C1483.25 10.0858 1481.64 8.92294 1480.12 7.8494C1479.89 7.69028 1479.58 7.7442 1479.42 7.96988C1479.26 8.19559 1479.31 8.50754 1479.54 8.66666C1481.06 9.73593 1482.66 10.8951 1484.36 12.1356C1484.58 12.2988 1484.89 12.2505 1485.05 12.0278ZM1463.81 6.04761C1464.07 5.9595 1464.21 5.67593 1464.13 5.41422C1463.59 3.8382 1463.38 2.67896 1463.41 1.87814C1463.44 1.09357 1463.7 0.760681 1464.04 0.614471C1464.29 0.504089 1464.4 0.209412 1464.29 -0.0437012C1464.18 -0.296814 1463.89 -0.412537 1463.64 -0.302185C1462.82 0.053772 1462.45 0.835876 1462.41 1.83762C1462.37 2.82318 1462.64 4.12161 1463.18 5.73325C1463.27 5.99496 1463.55 6.13571 1463.81 6.04761ZM1475.16 5.0675C1475.31 4.83609 1475.25 4.52634 1475.02 4.3757C1473.06 3.1012 1471.31 2.04974 1469.8 1.25507C1469.55 1.12683 1469.25 1.22113 1469.12 1.4657C1468.99 1.71024 1469.09 2.01245 1469.33 2.14072C1470.81 2.91547 1472.53 3.94867 1474.47 5.21378C1474.7 5.36441 1475.01 5.29895 1475.16 5.0675Z" fill="#8DB7F9" fill-opacity="0.28"/>
</svg>
