<svg width="392" height="66" viewBox="0 0 392 66" fill="none" xmlns="http://www.w3.org/2000/svg">
<path fill-rule="evenodd" clip-rule="evenodd" d="M5 5C5 4.44772 5.44772 4 6 4H11.0132C11.5655 4 12.0132 4.44772 12.0132 5C12.0132 5.55228 11.5655 6 11.0132 6H7V9.75C7 10.3023 6.55228 10.75 6 10.75C5.44772 10.75 5 10.3023 5 9.75V5ZM20.0395 5C20.0395 4.44772 20.4872 4 21.0395 4H31.0658C31.6181 4 32.0658 4.44772 32.0658 5C32.0658 5.55228 31.6181 6 31.0658 6H21.0395C20.4872 6 20.0395 5.55228 20.0395 5ZM40.0921 5C40.0921 4.44772 40.5398 4 41.0921 4H51.1184C51.6707 4 52.1184 4.44772 52.1184 5C52.1184 5.55228 51.6707 6 51.1184 6H41.0921C40.5398 6 40.0921 5.55228 40.0921 5ZM60.1448 5C60.1448 4.44772 60.5925 4 61.1448 4H71.1711C71.7233 4 72.1711 4.44772 72.1711 5C72.1711 5.55228 71.7233 6 71.1711 6H61.1448C60.5925 6 60.1448 5.55228 60.1448 5ZM80.1974 5C80.1974 4.44772 80.6451 4 81.1974 4H91.2237C91.7759 4 92.2237 4.44772 92.2237 5C92.2237 5.55228 91.7759 6 91.2237 6H81.1974C80.6451 6 80.1974 5.55228 80.1974 5ZM100.25 5C100.25 4.44772 100.698 4 101.25 4H111.276C111.829 4 112.276 4.44772 112.276 5C112.276 5.55228 111.829 6 111.276 6H101.25C100.698 6 100.25 5.55228 100.25 5ZM120.303 5C120.303 4.44772 120.75 4 121.303 4H131.329C131.881 4 132.329 4.44772 132.329 5C132.329 5.55228 131.881 6 131.329 6H121.303C120.75 6 120.303 5.55228 120.303 5ZM140.355 5C140.355 4.44772 140.803 4 141.355 4H151.382C151.934 4 152.382 4.44772 152.382 5C152.382 5.55228 151.934 6 151.382 6H141.355C140.803 6 140.355 5.55228 140.355 5ZM160.408 5C160.408 4.44772 160.856 4 161.408 4H171.434C171.986 4 172.434 4.44772 172.434 5C172.434 5.55228 171.986 6 171.434 6H161.408C160.856 6 160.408 5.55228 160.408 5ZM180.461 5C180.461 4.44772 180.908 4 181.461 4H191.487C192.039 4 192.487 4.44772 192.487 5C192.487 5.55228 192.039 6 191.487 6H181.461C180.908 6 180.461 5.55228 180.461 5ZM200.513 5C200.513 4.44772 200.961 4 201.513 4H211.539C212.092 4 212.539 4.44772 212.539 5C212.539 5.55228 212.092 6 211.539 6H201.513C200.961 6 200.513 5.55228 200.513 5ZM220.566 5C220.566 4.44772 221.014 4 221.566 4H231.592C232.144 4 232.592 4.44772 232.592 5C232.592 5.55228 232.144 6 231.592 6H221.566C221.014 6 220.566 5.55228 220.566 5ZM240.618 5C240.618 4.44772 241.066 4 241.618 4H251.645C252.197 4 252.645 4.44772 252.645 5C252.645 5.55228 252.197 6 251.645 6H241.618C241.066 6 240.618 5.55228 240.618 5ZM260.671 5C260.671 4.44772 261.119 4 261.671 4H271.697C272.25 4 272.697 4.44772 272.697 5C272.697 5.55228 272.25 6 271.697 6H261.671C261.119 6 260.671 5.55228 260.671 5ZM280.724 5C280.724 4.44772 281.171 4 281.724 4H291.75C292.302 4 292.75 4.44772 292.75 5C292.75 5.55228 292.302 6 291.75 6H281.724C281.171 6 280.724 5.55228 280.724 5ZM300.776 5C300.776 4.44772 301.224 4 301.776 4H311.803C312.355 4 312.803 4.44772 312.803 5C312.803 5.55228 312.355 6 311.803 6H301.776C301.224 6 300.776 5.55228 300.776 5ZM320.829 5C320.829 4.44772 321.277 4 321.829 4H331.855C332.408 4 332.855 4.44772 332.855 5C332.855 5.55228 332.408 6 331.855 6H321.829C321.277 6 320.829 5.55228 320.829 5ZM340.882 5C340.882 4.44772 341.329 4 341.882 4H351.908C352.46 4 352.908 4.44772 352.908 5C352.908 5.55228 352.46 6 351.908 6H341.882C341.329 6 340.882 5.55228 340.882 5ZM360.934 5C360.934 4.44772 361.382 4 361.934 4H371.961C372.513 4 372.961 4.44772 372.961 5C372.961 5.55228 372.513 6 371.961 6H361.934C361.382 6 360.934 5.55228 360.934 5ZM380.987 5C380.987 4.44772 381.435 4 381.987 4H387C387.552 4 388 4.44772 388 5V9.75C388 10.3023 387.552 10.75 387 10.75C386.448 10.75 386 10.3023 386 9.75V6H381.987C381.435 6 380.987 5.55228 380.987 5ZM6 18.25C6.55228 18.25 7 18.6977 7 19.25V28.75C7 29.3023 6.55228 29.75 6 29.75C5.44772 29.75 5 29.3023 5 28.75V19.25C5 18.6977 5.44772 18.25 6 18.25ZM387 18.25C387.552 18.25 388 18.6977 388 19.25V28.75C388 29.3023 387.552 29.75 387 29.75C386.448 29.75 386 29.3023 386 28.75V19.25C386 18.6977 386.448 18.25 387 18.25ZM6 37.25C6.55228 37.25 7 37.6977 7 38.25V47.75C7 48.3023 6.55228 48.75 6 48.75C5.44772 48.75 5 48.3023 5 47.75V38.25C5 37.6977 5.44772 37.25 6 37.25ZM387 37.25C387.552 37.25 388 37.6977 388 38.25V47.75C388 48.3023 387.552 48.75 387 48.75C386.448 48.75 386 48.3023 386 47.75V38.25C386 37.6977 386.448 37.25 387 37.25ZM6 56.25C6.55228 56.25 7 56.6977 7 57.25V61H11.0132C11.5654 61 12.0132 61.4477 12.0132 62C12.0132 62.5523 11.5654 63 11.0132 63H6C5.44772 63 5 62.5523 5 62V57.25C5 56.6977 5.44772 56.25 6 56.25ZM387 56.25C387.552 56.25 388 56.6977 388 57.25V62C388 62.5523 387.552 63 387 63H381.987C381.435 63 380.987 62.5523 380.987 62C380.987 61.4477 381.435 61 381.987 61H386V57.25C386 56.6977 386.448 56.25 387 56.25ZM20.0395 62C20.0395 61.4477 20.4872 61 21.0395 61H31.0658C31.6181 61 32.0658 61.4477 32.0658 62C32.0658 62.5523 31.6181 63 31.0658 63H21.0395C20.4872 63 20.0395 62.5523 20.0395 62ZM40.0921 62C40.0921 61.4477 40.5398 61 41.0921 61H51.1184C51.6707 61 52.1184 61.4477 52.1184 62C52.1184 62.5523 51.6707 63 51.1184 63H41.0921C40.5398 63 40.0921 62.5523 40.0921 62ZM60.1447 62C60.1447 61.4477 60.5924 61 61.1447 61H71.171C71.7233 61 72.171 61.4477 72.171 62C72.171 62.5523 71.7233 63 71.171 63H61.1447C60.5924 63 60.1447 62.5523 60.1447 62ZM80.1974 62C80.1974 61.4477 80.6451 61 81.1974 61H91.2237C91.776 61 92.2237 61.4477 92.2237 62C92.2237 62.5523 91.776 63 91.2237 63H81.1974C80.6451 63 80.1974 62.5523 80.1974 62ZM100.25 62C100.25 61.4477 100.698 61 101.25 61H111.276C111.829 61 112.276 61.4477 112.276 62C112.276 62.5523 111.829 63 111.276 63H101.25C100.698 63 100.25 62.5523 100.25 62ZM120.303 62C120.303 61.4477 120.75 61 121.303 61H131.329C131.881 61 132.329 61.4477 132.329 62C132.329 62.5523 131.881 63 131.329 63H121.303C120.75 63 120.303 62.5523 120.303 62ZM140.355 62C140.355 61.4477 140.803 61 141.355 61H151.382C151.934 61 152.382 61.4477 152.382 62C152.382 62.5523 151.934 63 151.382 63H141.355C140.803 63 140.355 62.5523 140.355 62ZM160.408 62C160.408 61.4477 160.856 61 161.408 61H171.434C171.986 61 172.434 61.4477 172.434 62C172.434 62.5523 171.986 63 171.434 63H161.408C160.856 63 160.408 62.5523 160.408 62ZM180.461 62C180.461 61.4477 180.908 61 181.461 61H191.487C192.039 61 192.487 61.4477 192.487 62C192.487 62.5523 192.039 63 191.487 63H181.461C180.908 63 180.461 62.5523 180.461 62ZM200.513 62C200.513 61.4477 200.961 61 201.513 61H211.539C212.092 61 212.539 61.4477 212.539 62C212.539 62.5523 212.092 63 211.539 63H201.513C200.961 63 200.513 62.5523 200.513 62ZM220.566 62C220.566 61.4477 221.014 61 221.566 61H231.592C232.144 61 232.592 61.4477 232.592 62C232.592 62.5523 232.144 63 231.592 63H221.566C221.014 63 220.566 62.5523 220.566 62ZM240.618 62C240.618 61.4477 241.066 61 241.618 61H251.645C252.197 61 252.645 61.4477 252.645 62C252.645 62.5523 252.197 63 251.645 63H241.618C241.066 63 240.618 62.5523 240.618 62ZM260.671 62C260.671 61.4477 261.119 61 261.671 61H271.697C272.25 61 272.697 61.4477 272.697 62C272.697 62.5523 272.25 63 271.697 63H261.671C261.119 63 260.671 62.5523 260.671 62ZM280.724 62C280.724 61.4477 281.171 61 281.724 61H291.75C292.302 61 292.75 61.4477 292.75 62C292.75 62.5523 292.302 63 291.75 63H281.724C281.171 63 280.724 62.5523 280.724 62ZM300.776 62C300.776 61.4477 301.224 61 301.776 61H311.803C312.355 61 312.803 61.4477 312.803 62C312.803 62.5523 312.355 63 311.803 63H301.776C301.224 63 300.776 62.5523 300.776 62ZM320.829 62C320.829 61.4477 321.277 61 321.829 61H331.855C332.408 61 332.855 61.4477 332.855 62C332.855 62.5523 332.408 63 331.855 63H321.829C321.277 63 320.829 62.5523 320.829 62ZM340.882 62C340.882 61.4477 341.329 61 341.882 61H351.908C352.46 61 352.908 61.4477 352.908 62C352.908 62.5523 352.46 63 351.908 63H341.882C341.329 63 340.882 62.5523 340.882 62ZM360.934 62C360.934 61.4477 361.382 61 361.934 61H371.96C372.513 61 372.96 61.4477 372.96 62C372.96 62.5523 372.513 63 371.96 63H361.934C361.382 63 360.934 62.5523 360.934 62Z" fill="#3A83F6"/>
<path d="M380 2C380 0.895431 380.895 0 382 0H390C391.105 0 392 0.895431 392 2V10C392 11.1046 391.105 12 390 12H382C380.895 12 380 11.1046 380 10V2Z" fill="#F3F6FD"/>
<path fill-rule="evenodd" clip-rule="evenodd" d="M390 2H382L382 10H390V2ZM382 0C380.895 0 380 0.895431 380 2V10C380 11.1046 380.895 12 382 12H390C391.105 12 392 11.1046 392 10V2C392 0.895431 391.105 0 390 0H382Z" fill="#3A83F6"/>
<path d="M380 56C380 54.8954 380.895 54 382 54H390C391.105 54 392 54.8954 392 56V64C392 65.1046 391.105 66 390 66H382C380.895 66 380 65.1046 380 64V56Z" fill="#F3F6FD"/>
<path fill-rule="evenodd" clip-rule="evenodd" d="M390 56H382L382 64H390V56ZM382 54C380.895 54 380 54.8954 380 56V64C380 65.1046 380.895 66 382 66H390C391.105 66 392 65.1046 392 64V56C392 54.8954 391.105 54 390 54H382Z" fill="#3A83F6"/>
<path d="M0 2C0 0.895431 0.895431 0 2 0H10C11.1046 0 12 0.895431 12 2V10C12 11.1046 11.1046 12 10 12H2C0.895431 12 0 11.1046 0 10V2Z" fill="#F3F6FD"/>
<path fill-rule="evenodd" clip-rule="evenodd" d="M10 2H2L2 10H10V2ZM2 0C0.895431 0 0 0.895431 0 2V10C0 11.1046 0.895431 12 2 12H10C11.1046 12 12 11.1046 12 10V2C12 0.895431 11.1046 0 10 0H2Z" fill="#3A83F6"/>
<path d="M0 56C0 54.8954 0.895431 54 2 54H10C11.1046 54 12 54.8954 12 56V64C12 65.1046 11.1046 66 10 66H2C0.895431 66 0 65.1046 0 64V56Z" fill="#F3F6FD"/>
<path fill-rule="evenodd" clip-rule="evenodd" d="M10 56H2L2 64H10V56ZM2 54C0.895431 54 0 54.8954 0 56V64C0 65.1046 0.895431 66 2 66H10C11.1046 66 12 65.1046 12 64V56C12 54.8954 11.1046 54 10 54H2Z" fill="#3A83F6"/>
</svg>
