<svg width="477" height="499" viewBox="0 0 477 499" fill="none" xmlns="http://www.w3.org/2000/svg">
<path d="M242.309 92.6721L245.553 348.609C245.601 352.356 244.909 356.076 243.518 359.556C242.127 363.036 240.064 366.209 237.446 368.892C234.828 371.575 231.707 373.717 228.26 375.194C224.814 376.672 221.111 377.457 217.361 377.504L84.1205 379.192C82.5718 379.212 81.0242 379.106 79.4928 378.874C72.7978 377.861 66.6807 374.504 62.2329 369.402C57.785 364.3 55.2957 357.784 55.2092 351.018L51.9713 95.0814C51.9238 91.3341 52.6154 87.6141 54.0065 84.1339C55.3976 80.6537 57.4611 77.4814 60.079 74.7982C62.697 72.1149 65.8181 69.9733 69.2643 68.4955C72.7104 67.0178 76.4142 66.2328 80.1639 66.1856L213.404 64.4978C220.975 64.4045 228.274 67.3201 233.694 72.6036C239.115 77.8871 242.214 85.1057 242.309 92.6721Z" fill="#F2F2F7"/>
<path d="M21.5392 66.9262C23.2027 66.834 35.3238 66.3795 44.4393 76.1216C53.5898 85.9178 52.2476 98.0533 52.0377 99.6903L84.4795 66.1348L21.5392 66.9262Z" fill="#F2F2F7"/>
<path d="M52.2894 125.37L0.554317 126.381L0.000900269 82.9213C-0.107239 74.2408 11.3873 67.0542 25.6744 66.8762C32.818 66.784 39.3095 68.4654 44.0263 71.2466C50.8137 75.2547 51.6597 79.8286 51.7456 82.2665C52.0477 91.8433 52.5534 106.7 52.2894 125.37Z" fill="#D0DAEE"/>
<path d="M110.04 378.843L263.767 376.885C273.382 376.763 282.555 372.828 289.268 365.947C295.98 359.065 299.683 349.801 299.56 340.192L299.383 326.261L109.4 328.681L110.04 378.843Z" fill="#D0DAEE"/>
<path d="M119.594 378.741L84.1209 379.192C82.5722 379.212 81.0246 379.105 79.4932 378.874C82.7972 378.959 86.083 378.358 89.143 377.11C102.851 371.408 110.453 352.086 109.441 328.711L119.594 378.741Z" fill="#D0DAEE"/>
<path d="M358.218 125.348C358.218 130.719 358.256 138.31 363.368 141.672C365.537 143.1 367.932 143.313 369.611 143.262C369.696 144.255 369.56 145.254 369.213 146.189C369.075 146.56 368.902 146.918 368.698 147.257C368.38 151.272 370.925 154.533 373.873 154.971C375.81 155.257 377.966 154.336 379.28 152.651C380.249 151.358 380.693 149.747 380.523 148.141C380.475 147.375 380.492 146.606 380.574 145.843C380.737 144.3 381.158 142.795 381.821 141.393C383.053 140.34 384.192 139.183 385.224 137.935C388.278 134.192 390.374 129.763 391.331 125.03C388.901 116.098 387.044 109.595 386.948 109.455L386.853 109.331L386.694 109.128C383.644 105.269 377.527 100.33 371.554 101.331C367.467 102.014 364.964 105.228 363.132 107.573C358.19 113.962 358.209 121.228 358.218 125.348Z" fill="white"/>
<path d="M374.602 155.817C375.627 155.794 376.635 155.542 377.55 155.078C378.465 154.614 379.264 153.951 379.888 153.137C380.988 151.683 381.496 149.866 381.31 148.052C381.181 145.933 381.578 143.815 382.464 141.885C383.679 140.834 384.804 139.683 385.829 138.446C388.976 134.61 391.13 130.06 392.101 125.195L392.143 125.007L392.092 124.823C390.819 120.192 387.868 109.376 387.575 108.994L387.311 108.657C384.525 105.129 378.043 99.4396 371.408 100.568C367.016 101.302 364.411 104.656 362.503 107.106C357.379 113.676 357.414 121.26 357.414 125.335C357.414 130.986 357.452 138.726 362.923 142.324C364.686 143.448 366.734 144.045 368.826 144.044C368.794 145.028 368.513 145.988 368.008 146.834L367.91 146.996V147.184C367.592 151.376 370.216 155.216 373.759 155.74C374.038 155.786 374.319 155.812 374.602 155.817ZM390.524 125.068C389.587 129.61 387.561 133.857 384.621 137.445C383.617 138.658 382.51 139.782 381.313 140.805L381.182 140.916L381.112 141.072C380.058 143.291 379.586 145.743 379.742 148.195C379.892 149.608 379.501 151.025 378.647 152.161C377.518 153.614 375.645 154.428 373.988 154.183C371.641 153.833 369.281 151.189 369.481 147.508C369.666 147.177 369.827 146.833 369.961 146.478C370.348 145.435 370.5 144.319 370.407 143.211L370.346 142.458L369.589 142.48C367.328 142.553 365.381 142.063 363.807 141.027C359.036 137.896 359.036 130.653 359.014 125.36C359.014 121.203 358.985 114.236 363.785 108.111C365.534 105.867 367.919 102.796 371.711 102.164C377.601 101.175 383.523 106.416 386.093 109.668L386.271 109.897C386.545 110.736 388.297 116.899 390.524 125.068Z" fill="#3E4957"/>
<path d="M364.939 112.567C361.857 114.947 358.349 117.109 356.67 115.974C354.125 114.267 355.493 104.929 361.002 100.062C368.368 93.5591 380.136 97.7039 381.466 98.1934C383.977 99.1229 386.32 100.458 388.399 102.144C388.313 100.825 388.339 98.0694 390.142 95.9398C393.151 92.3799 399.318 92.7009 402.833 94.6684C411.038 99.2518 411.983 116.807 404.595 121.651C403.437 122.407 400.87 123.647 396.185 122.703C395.743 127.279 393.849 131.595 390.778 135.02C388.603 137.398 385.911 139.246 382.91 140.423C383.638 138.967 384.276 137.467 384.818 135.932C385.632 133.596 385.429 133.465 385.982 131.962C387.617 127.512 390.117 126.701 389.827 124.044C389.783 123.634 389.566 122.201 388.425 121.476C388.017 121.219 387.551 121.067 387.07 121.034C386.588 121.001 386.106 121.089 385.667 121.288C383.358 122.49 383.988 127.722 383.581 127.731C383.263 127.731 383.721 124.26 381.822 121.692C380.276 119.588 377.687 118.905 375.868 118.409C372.503 117.49 371.415 118.326 369.249 117.322C367.166 116.336 365.836 114.474 364.939 112.567Z" fill="#3E4957"/>
<path d="M389.287 107.919C388.327 105.928 387.806 103.755 387.757 101.546C387.728 99.3817 388.301 97.1949 389.589 95.542C390.877 93.8892 392.846 92.8721 394.91 92.478C395.958 92.2847 397.026 92.2207 398.09 92.2873C399.151 92.3633 400.2 92.5638 401.214 92.8848C402.22 93.2045 403.182 93.651 404.076 94.2134C404.96 94.7831 405.753 95.4816 406.43 96.2858C406.766 96.6865 407.064 97.1186 407.317 97.5763L407.689 98.266L407.982 98.9971C408.079 99.2424 408.158 99.4941 408.221 99.7504L408.329 100.132C408.364 100.259 408.376 100.392 408.405 100.52C408.45 100.78 408.51 101.041 408.542 101.305L408.609 102.099C408.697 104.263 408.226 106.413 407.241 108.342L407.066 108.711L406.859 109.063C406.716 109.295 406.586 109.537 406.436 109.766C406.128 110.219 405.797 110.656 405.444 111.075C405.263 111.282 405.091 111.501 404.9 111.711L404.308 112.29C404.207 112.388 404.114 112.49 404.01 112.579L403.691 112.846L403.055 113.377C404.509 112.511 405.794 111.39 406.85 110.068C407.022 109.842 407.168 109.604 407.343 109.372L407.591 109.022L407.804 108.653C407.944 108.405 408.09 108.161 408.221 107.906L408.577 107.128C408.698 106.866 408.804 106.597 408.895 106.324C408.981 106.053 409.098 105.786 409.159 105.507L409.366 104.668C409.426 104.385 409.455 104.099 409.502 103.812C409.521 103.669 409.547 103.53 409.563 103.383L409.585 102.951C409.585 102.662 409.633 102.373 409.614 102.083C409.61 100.913 409.418 99.7511 409.048 98.6411L408.729 97.8147L408.335 97.0232C408.064 96.5009 407.744 96.005 407.381 95.542C406.637 94.6252 405.755 93.8295 404.766 93.1836C403.782 92.5498 402.719 92.0465 401.605 91.6865C399.369 90.9812 396.99 90.8532 394.69 91.3146C393.537 91.5608 392.431 91.9901 391.414 92.586C390.905 92.8876 390.425 93.2378 389.983 93.6318C389.546 94.0342 389.153 94.4828 388.813 94.9699C388.137 95.9266 387.655 97.0065 387.394 98.1484C387.144 99.2722 387.064 100.427 387.156 101.575C387.353 103.828 388.083 106.003 389.287 107.919Z" fill="#3E4957"/>
<path d="M394.729 121.441C395.41 122.251 396.209 122.955 397.098 123.529C398.004 124.13 399.012 124.56 400.072 124.801C401.173 125.057 402.32 125.037 403.412 124.74C404.504 124.434 405.51 123.876 406.347 123.11C407.977 121.598 409.055 119.584 409.407 117.389C409.779 115.275 409.524 113.098 408.675 111.127C409.019 113.135 408.938 115.192 408.437 117.166C407.954 119.071 406.935 120.797 405.501 122.14C404.8 122.783 403.971 123.271 403.068 123.571C402.157 123.86 401.193 123.94 400.247 123.806C399.255 123.668 398.29 123.38 397.384 122.951C396.452 122.535 395.562 122.03 394.729 121.441Z" fill="#3E4957"/>
<path d="M372.559 128.861C371.993 128.852 371.55 127.929 371.568 126.801C371.587 125.672 372.06 124.765 372.625 124.774C373.191 124.783 373.635 125.705 373.616 126.834C373.598 127.963 373.125 128.87 372.559 128.861Z" fill="#3E4957"/>
<path d="M361.946 127.914C361.38 127.905 360.937 126.982 360.955 125.854C360.973 124.725 361.447 123.817 362.012 123.827C362.578 123.836 363.021 124.758 363.003 125.887C362.985 127.015 362.511 127.923 361.946 127.914Z" fill="#3E4957"/>
<path d="M386.465 123.984C386.408 124.674 387.051 124.906 387.146 125.573C387.34 126.956 384.885 128.237 384.92 128.3C384.955 128.364 388.132 127.153 388.383 124.89C388.479 124.006 388.145 122.865 387.61 122.767C387.171 122.674 386.523 123.323 386.465 123.984Z" fill="#3E4957"/>
<path d="M364.579 129.466C364.01 130.42 363.186 131.491 363.587 132.327C364.134 133.455 366.615 133.427 366.704 133.122C366.777 132.874 365.193 132.651 364.761 131.532C364.357 130.483 365.212 129.352 365.715 128.44C367.852 124.657 366.78 120.074 366.596 120.055C366.411 120.036 367.273 124.994 364.579 129.466Z" fill="#3E4957"/>
<path d="M363.603 135.484C363.314 135.98 364.767 137.998 366.729 138.255C369.083 138.573 371.249 136.218 371.014 135.713C370.864 135.395 369.827 135.941 367.55 135.894C365.012 135.833 363.832 135.109 363.603 135.484Z" fill="#3E4957"/>
<path d="M376.048 123.348C376.104 123.357 376.161 123.355 376.215 123.342C376.27 123.329 376.321 123.305 376.367 123.272C376.41 123.24 376.447 123.201 376.474 123.155C376.502 123.109 376.521 123.058 376.529 123.005C376.537 122.952 376.534 122.898 376.521 122.846C376.508 122.794 376.485 122.746 376.452 122.703C375.741 121.754 374.684 121.122 373.51 120.945H373.479C372.511 120.808 371.526 120.982 370.664 121.441C370.569 121.493 370.499 121.581 370.47 121.685C370.44 121.788 370.452 121.9 370.505 121.994C370.557 122.088 370.645 122.158 370.748 122.188C370.852 122.218 370.964 122.205 371.058 122.153C371.752 121.772 372.55 121.622 373.335 121.724H373.361C374.318 121.875 375.179 122.39 375.765 123.161C375.797 123.21 375.838 123.252 375.887 123.285C375.936 123.317 375.991 123.339 376.048 123.348Z" fill="#3E4957"/>
<path d="M359.262 121.469C359.312 121.475 359.363 121.47 359.412 121.455C359.461 121.441 359.506 121.416 359.545 121.383C360.072 120.945 360.727 120.688 361.412 120.652C362.248 120.63 363.061 120.926 363.686 121.482C363.722 121.515 363.764 121.54 363.81 121.557C363.856 121.574 363.905 121.581 363.954 121.579C364.003 121.577 364.051 121.565 364.095 121.544C364.139 121.523 364.179 121.494 364.212 121.458C364.245 121.422 364.271 121.38 364.287 121.334C364.304 121.288 364.311 121.239 364.309 121.19C364.307 121.141 364.295 121.093 364.274 121.049C364.254 121.005 364.224 120.965 364.188 120.932C363.418 120.24 362.409 119.875 361.373 119.912C360.525 119.955 359.714 120.272 359.061 120.814C359.024 120.846 358.993 120.884 358.97 120.928C358.948 120.971 358.934 121.019 358.93 121.067C358.926 121.116 358.931 121.165 358.946 121.212C358.961 121.258 358.985 121.302 359.017 121.339C359.079 121.412 359.166 121.458 359.262 121.469Z" fill="#3E4957"/>
<path d="M366.342 444.765L337.898 443.703L336.969 469.954L365.295 472.348L366.342 444.765ZM339.421 445.604L364.682 446.557L363.778 470.396L338.62 468.273L339.421 445.604Z" fill="#3E4957"/>
<path d="M431.801 469.259L424.005 440.474L397.886 439.75L404.464 472.03L431.801 469.259ZM422.793 442.102L429.752 467.8L405.723 470.238L399.862 441.466L422.793 442.102Z" fill="#3E4957"/>
<path d="M331.439 245.454L376.921 247.113V248.171L406.5 243.13C420.401 310.546 434.305 377.964 448.21 445.382C428.961 450.762 408.973 453.024 389.007 452.082C385.095 420.791 381.182 389.497 377.267 358.202C377.363 389.493 377.459 420.786 377.557 452.079C366.156 453.389 354.681 453.944 343.207 453.741C334.209 453.582 325.809 452.966 318.08 452.079L331.439 245.454Z" fill="white"/>
<path d="M347.764 454.577C357.748 454.576 367.723 454.006 377.642 452.87L378.348 452.787L378.094 371.291L388.294 452.845L388.965 452.876C409.015 453.824 429.087 451.551 448.416 446.144L449.132 445.947L407.117 242.205L377.709 247.218V246.356L330.688 244.643L317.231 452.784L317.984 452.87C326.324 453.824 334.803 454.386 343.187 454.536C344.714 454.561 346.239 454.575 347.764 454.577ZM376.761 451.37C365.627 452.62 354.424 453.151 343.222 452.959C335.14 452.816 326.969 452.288 318.923 451.389L332.179 246.277L376.125 247.866V249.099L405.87 244.014L447.281 444.813C428.548 449.968 409.124 452.163 389.712 451.319L378.056 358.103L376.465 358.205L376.761 451.37Z" fill="#3E4957"/>
<g filter="url(#filter0_d_3310_502415)">
<path d="M81.4357 106.565H225.506C228.364 106.565 230.681 108.881 230.681 111.737V114.992C230.681 117.848 228.364 120.163 225.506 120.163H81.4357C78.5778 120.163 76.2609 117.848 76.2609 114.992V111.737C76.2609 108.881 78.5778 106.565 81.4357 106.565Z" fill="white"/>
<path d="M225.506 107.065H81.4357C78.8536 107.065 76.7609 109.157 76.7609 111.737V114.992C76.7609 117.571 78.8536 119.663 81.4357 119.663H225.506C228.088 119.663 230.181 117.571 230.181 114.992V111.737C230.181 109.157 228.088 107.065 225.506 107.065Z" stroke="#3E4957"/>
</g>
<g filter="url(#filter1_d_3310_502415)">
<path d="M81.4357 152.959H225.506C228.364 152.959 230.681 155.274 230.681 158.13V161.385C230.681 164.241 228.364 166.557 225.506 166.557H81.4357C78.5778 166.557 76.2609 164.241 76.2609 161.385V158.13C76.2609 155.274 78.5778 152.959 81.4357 152.959Z" fill="white"/>
<path d="M225.506 153.459H81.4357C78.8536 153.459 76.7609 155.551 76.7609 158.13V161.385C76.7609 163.965 78.8536 166.057 81.4357 166.057H225.506C228.088 166.057 230.181 163.965 230.181 161.385V158.13C230.181 155.551 228.088 153.459 225.506 153.459Z" stroke="#3E4957"/>
</g>
<path d="M364.112 145.699C364.277 145.111 364.552 144.56 364.923 144.075C366.265 142.406 370.047 143.563 374.398 143.373C380.037 143.122 383.084 140.76 384.36 142.289C384.9 142.925 384.964 144.107 385.05 145.623C385.099 146.498 385.056 147.376 384.923 148.242C387.925 148.803 390.818 149.842 393.491 151.319C405.558 158.057 408.707 171.693 417.364 223.563C420.58 242.815 421.181 247.068 418.02 251.35C413.436 257.567 405.676 257.421 369.621 257.516C337.061 257.602 328.156 257.761 324.794 251.674C323.245 248.867 324.381 241.878 326.718 228.013C328.01 220.362 329.263 214.028 330.217 209.578C328.945 213.058 325.068 222.168 316.967 224.517C305.997 227.711 294.747 216.351 288.978 210.531C284.632 206.132 280.985 201.094 278.164 195.592L292.158 180.653C297.671 184.995 303.184 189.339 308.697 193.685C312.631 186.778 320.844 173.956 334.034 163.489C337.427 160.794 343.798 155.804 353.435 151.729C356.929 150.254 360.527 149.036 364.198 148.083C363.951 147.312 363.922 146.487 364.112 145.699Z" fill="#3A83F6"/>
<path d="M365.928 490.752H295.319C295.34 489.827 295.447 488.907 295.637 488.002C297.244 480.259 304.451 478.149 317.294 471.509C332.383 463.722 337.65 458.795 342.917 462.476C345.337 464.173 345.143 465.902 347.796 467.189C354.678 470.52 360.48 461.703 364.268 464.049C366.618 465.514 368.374 471.455 365.928 490.752Z" fill="white"/>
<path d="M366.848 490.895C369.627 468.941 366.959 464.551 364.707 463.156C362.621 461.862 360.254 463.156 357.754 464.545C354.892 466.134 351.616 467.93 348.159 466.255C346.912 465.651 346.428 464.984 345.815 464.125C345.172 463.147 344.353 462.295 343.401 461.614C338.925 458.48 334.578 460.899 325.907 465.715C323.318 467.154 320.383 468.785 316.897 470.584C314.712 471.712 312.648 472.73 310.825 473.629C301.684 478.136 296.169 480.857 294.735 487.773C294.537 488.747 294.43 489.736 294.417 490.729L294.394 491.772H366.724L366.848 490.895ZM296.525 488.234C297.753 482.31 302.664 479.888 311.576 475.492C313.401 474.592 315.475 473.569 317.676 472.434C321.175 470.622 324.133 468.985 326.734 467.539C335.036 462.924 338.82 460.817 342.427 463.34C343.204 463.899 343.869 464.598 344.39 465.4C345.067 466.353 345.77 467.307 347.43 468.124C351.664 470.177 355.49 468.067 358.562 466.373C360.712 465.187 362.567 464.148 363.817 464.939C365.343 465.893 367.516 470.371 365.143 489.731H296.29C296.335 489.231 296.409 488.733 296.513 488.241L296.525 488.234Z" fill="#3E4957"/>
<path d="M345.614 478.043L342.548 476.13L337.09 490.614L340.156 492.528L345.614 478.043Z" fill="#D0DAEE"/>
<path d="M353.117 476.305L350.054 474.392L343.496 491.794L346.559 493.707L353.117 476.305Z" fill="#D0DAEE"/>
<path d="M365.025 499H294.852C292.751 499 291.048 497.298 291.048 495.198V493.377C291.048 491.278 292.751 489.576 294.852 489.576H365.025C367.126 489.576 368.829 491.278 368.829 493.377V495.198C368.829 497.298 367.126 499 365.025 499Z" fill="#3E4957"/>
<path d="M328.601 479.468L327.307 479.258L327.943 479.363L327.291 479.261C327.326 478.997 328.029 472.771 321.95 470.635L322.342 469.239C329.514 471.753 328.614 479.391 328.601 479.468Z" fill="#3E4957"/>
<path d="M320.672 482.218L319.374 482.008L320.01 482.113L319.374 482.011C319.406 481.747 320.112 475.521 314.03 473.385L314.425 471.989C321.584 474.503 320.681 482.141 320.672 482.218Z" fill="#3E4957"/>
<path d="M355.757 490.39L354.447 490.329C354.447 490.17 355.169 474.218 366.813 470.89L367.131 472.307C356.428 475.368 355.76 490.24 355.757 490.39Z" fill="#3E4957"/>
<path d="M333.365 265.698H409.546C410.412 265.698 411.268 265.518 412.06 265.169C412.852 264.82 413.563 264.311 414.147 263.673C414.732 263.035 415.177 262.283 415.455 261.464C415.733 260.644 415.837 259.776 415.761 258.915L414.953 249.77C414.816 248.218 414.102 246.772 412.952 245.72C411.802 244.667 410.298 244.084 408.738 244.084H334.444C332.915 244.084 331.439 244.644 330.297 245.659C329.154 246.673 328.424 248.072 328.245 249.589L327.17 258.734C327.067 259.608 327.15 260.494 327.415 261.334C327.679 262.173 328.118 262.947 328.704 263.605C329.289 264.263 330.007 264.79 330.81 265.15C331.614 265.511 332.485 265.698 333.365 265.698Z" fill="#3A83F6"/>
<path d="M402.117 490.752H472.726C472.703 489.827 472.597 488.907 472.408 488.002C470.801 480.259 463.594 478.149 450.751 471.509C435.662 463.722 430.395 458.795 425.128 462.476C422.708 464.173 422.902 465.902 420.249 467.189C413.367 470.52 407.562 461.703 403.777 464.049C401.427 465.514 399.674 471.455 402.117 490.752Z" fill="white"/>
<path d="M473.645 490.729C473.63 489.736 473.523 488.747 473.327 487.773C471.892 480.857 466.374 478.136 457.233 473.629C455.414 472.73 453.35 471.722 451.162 470.584C447.663 468.785 444.74 467.154 442.151 465.715C433.49 460.899 429.146 458.48 424.658 461.614C423.704 462.295 422.885 463.147 422.241 464.125C421.63 464.977 421.143 465.651 419.9 466.255C416.442 467.93 413.179 466.131 410.301 464.545C407.801 463.165 405.438 461.862 403.348 463.156C401.099 464.551 398.428 468.941 401.211 490.895L401.322 491.772H473.664L473.645 490.729ZM404.239 464.939C405.492 464.163 407.346 465.187 409.496 466.373C412.569 468.067 416.395 470.187 420.628 468.124C422.288 467.32 422.988 466.344 423.669 465.4C424.188 464.597 424.854 463.898 425.631 463.34C429.235 460.817 433.023 462.924 441.324 467.539C443.926 468.985 446.871 470.622 450.382 472.434C452.583 473.569 454.654 474.592 456.483 475.492C465.388 479.888 470.305 482.31 471.533 488.234C471.635 488.729 471.71 489.229 471.756 489.731H402.916C400.543 470.371 402.715 465.883 404.239 464.939Z" fill="#3E4957"/>
<path d="M422.434 478.043L425.497 476.13L430.958 490.614L427.892 492.528L422.434 478.043Z" fill="#D0DAEE"/>
<path d="M414.928 476.305L417.994 474.392L424.553 491.794L421.487 493.707L414.928 476.305Z" fill="#D0DAEE"/>
<path d="M403.023 489.572H473.196C475.297 489.572 477 491.274 477 493.374V495.195C477 497.295 475.297 498.997 473.196 498.997H403.023C400.922 498.997 399.219 497.295 399.219 495.195V493.374C399.219 491.274 400.922 489.572 403.023 489.572Z" fill="#3E4957"/>
<path d="M439.444 479.467C439.444 479.391 438.534 471.753 445.694 469.242L446.085 470.634C440.007 472.77 440.71 478.997 440.742 479.261L439.444 479.467Z" fill="#3E4957"/>
<path d="M447.377 482.218C447.377 482.141 446.464 474.503 453.623 471.989L454.018 473.385C447.936 475.521 448.639 481.747 448.674 482.011L447.377 482.218Z" fill="#3E4957"/>
<path d="M412.291 490.39C412.291 490.24 411.604 475.362 400.908 472.307L401.226 470.89C412.87 474.218 413.585 490.17 413.592 490.329L412.291 490.39Z" fill="#3E4957"/>
<path d="M384.923 148.242C388.242 149.062 391.399 150.433 394.264 152.298C398.19 154.868 401.478 158.3 403.876 162.332C399.504 166.359 396.105 171.326 393.936 176.858C389.643 187.897 391.71 197.712 392.664 201.333L416.2 217.543C419.063 233.318 420.396 244.919 420.017 246.785C419.804 247.783 419.478 248.754 419.044 249.678C418.746 250.264 418.404 250.826 418.02 251.359C413.436 257.576 405.676 257.43 369.621 257.525C337.061 257.611 328.156 257.77 324.794 251.683C323.245 248.877 324.381 241.887 326.718 228.022C328.01 220.372 329.263 214.037 330.217 209.587C333.601 205.766 336.669 201.677 339.39 197.359C340.407 195.748 343.82 190.332 345.592 185.758C349.688 175.193 347.106 163.798 344.32 156.198C350.022 151.962 356.689 149.209 363.721 148.188C364.017 148.779 366.584 153.757 372.137 154.767C377.07 155.664 382.276 153.064 384.923 148.242Z" fill="white"/>
<path d="M358.26 258.343C361.122 258.343 364.214 258.343 367.572 258.343H372.365C406.801 258.257 413.967 258.238 418.671 251.859C419.084 251.289 419.451 250.687 419.769 250.06C420.235 249.074 420.584 248.037 420.809 246.97C421.273 244.682 419.597 231.713 416.992 217.429L416.935 217.111L393.37 200.882C392.164 196.168 390.825 187.071 394.687 177.18C396.817 171.763 400.146 166.9 404.425 162.953L404.899 162.517L404.581 161.961C402.118 157.827 398.747 154.308 394.722 151.669C391.784 149.754 388.544 148.347 385.139 147.508L384.544 147.359L384.248 147.896C381.77 152.406 376.974 154.87 372.314 154.021C367.302 153.106 364.897 148.735 364.468 147.867L364.21 147.353L363.641 147.435C356.475 148.473 349.679 151.277 343.867 155.594L343.39 155.947L343.597 156.507C346.371 164.081 348.845 175.26 344.869 185.504C343.712 188.495 341.647 192.351 338.737 196.969C336.034 201.239 332.99 205.284 329.634 209.063L329.494 209.219L329.453 209.426C328.181 215.5 326.988 221.714 325.955 227.893C323.41 242.879 322.456 249.081 324.116 252.068C327.239 257.755 334.329 258.343 358.26 258.343ZM415.478 218.011C418.426 234.247 419.559 245.05 419.237 246.617C419.04 247.548 418.735 248.454 418.331 249.316C418.054 249.86 417.735 250.382 417.377 250.876C413.15 256.598 405.316 256.633 372.349 256.715H367.556C337.595 256.795 328.553 256.82 325.49 251.277C324.043 248.658 325.344 240.931 327.503 228.134C328.531 222.047 329.689 215.926 330.951 209.934C334.308 206.125 337.355 202.054 340.064 197.76C343.028 193.056 345.152 189.105 346.332 186.022C350.388 175.568 348.053 164.281 345.27 156.462C350.613 152.607 356.789 150.062 363.298 149.031C364.214 150.642 366.942 154.6 372.006 155.524C377.149 156.459 382.422 153.907 385.31 149.139C388.333 149.949 391.208 151.231 393.831 152.937C397.472 155.328 400.552 158.478 402.861 162.171C398.631 166.202 395.332 171.107 393.195 176.544C389.105 187.055 390.625 196.696 391.897 201.508L391.97 201.794L415.478 218.011Z" fill="#3E4957"/>
<path d="M377.715 362.352H377.789C377.893 362.343 377.994 362.313 378.086 362.264C378.179 362.215 378.26 362.149 378.327 362.069C378.394 361.988 378.444 361.896 378.475 361.796C378.506 361.696 378.517 361.592 378.507 361.488L372.146 291.395C372.137 291.291 372.107 291.189 372.058 291.097C372.01 291.004 371.943 290.921 371.863 290.854C371.782 290.787 371.689 290.737 371.589 290.705C371.489 290.674 371.384 290.663 371.28 290.672C371.175 290.682 371.074 290.711 370.981 290.76C370.888 290.809 370.805 290.875 370.738 290.955C370.671 291.036 370.62 291.129 370.589 291.229C370.558 291.329 370.547 291.434 370.556 291.538L376.917 361.631C376.936 361.829 377.029 362.013 377.176 362.146C377.324 362.28 377.516 362.353 377.715 362.352Z" fill="#3E4957"/>
<path d="M221.708 178.168C174.353 178.168 135.963 139.803 135.963 92.4784C135.963 45.1535 174.353 6.78906 221.708 6.78906C269.064 6.78906 307.453 45.1535 307.453 92.4784C307.453 139.803 269.064 178.168 221.708 178.168Z" fill="white"/>
<path d="M150.25 44.585H270.113V166.554C270.113 166.554 230.973 180.927 217.898 180.196C204.823 179.465 154.64 159.447 144.894 135.379C135.149 111.311 148.759 47.4265 148.759 47.4265" fill="#F2F2F7"/>
<path d="M287.175 157.886C304.535 140.536 314.287 117.006 314.287 92.4707C314.287 67.9354 304.535 44.405 287.175 27.0554C276.408 16.3079 263.157 8.3791 248.593 3.97098C234.028 -0.437137 218.601 -1.18853 203.677 1.78333C188.753 4.75519 174.793 11.3586 163.032 21.0089C151.271 30.6592 142.072 43.0586 136.251 57.1093C130.429 71.16 128.164 86.4285 129.656 101.563C131.148 116.697 136.351 131.23 144.804 143.876C153.257 156.521 164.7 166.888 178.119 174.059C191.539 181.231 206.52 184.985 221.738 184.989C227.008 184.991 232.27 184.548 237.466 183.664C256.315 180.449 273.692 171.438 287.175 157.886ZM221.7 13.6104C241.952 13.6449 261.409 21.4944 276.009 35.5208C290.61 49.5472 299.226 68.6666 300.059 88.8889C300.892 109.111 293.879 128.874 280.482 144.052C267.085 159.231 248.34 168.653 228.159 170.351C207.978 172.05 187.92 165.894 172.171 153.169C156.423 140.443 146.2 122.131 143.637 102.055C141.074 81.978 146.369 61.6877 158.416 45.4185C170.463 29.1492 188.332 18.158 208.293 14.7387C212.723 13.9891 217.207 13.6116 221.7 13.6104Z" fill="#3E4957"/>
<path d="M409.966 277.559L406.741 280.738C401.369 286.033 391.277 284.444 384.375 277.219L281.643 169.671C274.964 162.678 273.765 152.962 278.971 147.828C284.194 142.682 293.92 144.014 300.831 150.832L406.792 255.205C413.894 262.201 415.326 272.276 409.966 277.559Z" fill="#3E4957"/>
<path d="M283.882 170.468L300.126 154.229C303.942 150.414 303.941 144.23 300.123 140.416L298.387 138.682C294.57 134.868 288.382 134.869 284.566 138.684L268.322 154.923C264.506 158.738 264.507 164.922 268.324 168.735L270.061 170.47C273.878 174.284 280.066 174.283 283.882 170.468Z" fill="white" stroke="#3E4957"/>
<path d="M325.872 214.046C325.731 214.459 325.731 214.906 325.872 215.318C326.54 216.98 329.982 216.834 330.007 217.543C330.026 217.991 328.646 218.023 328.099 219.132C327.95 219.428 327.872 219.754 327.872 220.086C327.872 220.417 327.95 220.743 328.099 221.039C329.053 222.581 332.774 221.751 332.87 222.311C332.943 222.721 330.885 223.032 330.643 224.218C330.526 224.809 330.894 225.445 331.279 225.807C332.752 227.186 335.847 225.877 336.05 226.443C336.203 226.859 334.476 227.476 334.46 228.668C334.495 229.159 334.724 229.616 335.096 229.939C335.926 230.715 337.192 230.606 337.64 230.575C339.654 230.422 345.63 230.231 353.861 229.939C352.377 225.171 350.893 220.403 349.409 215.636C331.003 212.298 326.318 212.785 325.872 214.046Z" fill="white"/>
<path d="M337.087 231.395C337.332 231.395 337.535 231.395 337.678 231.366C339.31 231.246 343.531 231.099 349.376 230.893L354.93 230.696L350.025 214.94L349.551 214.854C341.132 213.328 334.87 212.476 330.935 212.311C327.275 212.165 325.529 212.607 325.125 213.773C324.915 214.366 324.915 215.012 325.125 215.604C325.656 216.926 327.208 217.355 328.388 217.657C327.956 217.931 327.607 218.317 327.376 218.773C327.168 219.188 327.062 219.647 327.068 220.111C327.074 220.575 327.192 221.031 327.411 221.44C328.048 222.501 329.399 222.746 330.624 222.819C330.234 223.129 329.962 223.563 329.854 224.049C329.666 224.987 330.207 225.89 330.726 226.376C331.705 227.291 333.105 227.307 334.224 227.209C333.872 227.607 333.668 228.115 333.649 228.646C333.659 229.001 333.743 229.349 333.896 229.67C334.049 229.991 334.267 230.276 334.536 230.508C335.241 231.119 336.154 231.437 337.087 231.395ZM352.792 229.17L349.319 229.294C343.457 229.501 339.221 229.65 337.583 229.771C337.188 229.802 336.202 229.876 335.64 229.348C335.427 229.18 335.289 228.936 335.255 228.668C335.255 228.324 335.7 227.965 336.056 227.673C336.476 227.33 337.049 226.859 336.8 226.163C336.508 225.356 335.636 225.457 334.717 225.562C333.798 225.667 332.465 225.82 331.823 225.216C331.698 225.112 331.597 224.981 331.528 224.834C331.459 224.687 331.423 224.527 331.422 224.364C331.492 224.03 332.131 223.728 332.558 223.512C333.073 223.261 333.782 222.915 333.655 222.165C333.509 221.313 332.612 221.29 331.575 221.265C330.662 221.243 329.138 221.205 328.779 220.629C328.699 220.448 328.661 220.251 328.667 220.053C328.673 219.855 328.723 219.661 328.814 219.485C329.041 219.126 329.386 218.856 329.79 218.722C330.204 218.525 330.831 218.23 330.802 217.514C330.767 216.634 329.848 216.402 328.894 216.157C328.035 215.938 326.858 215.636 326.61 215.026C326.544 214.8 326.544 214.561 326.61 214.336C326.693 214.256 327.411 213.719 331.479 213.942C335.296 214.148 341.107 214.953 348.788 216.335L352.792 229.17Z" fill="#3E4957"/>
<path d="M404.099 163.544C408.497 166.98 412.315 171.1 415.405 175.746C422.765 186.871 429.944 207.388 421.449 219.292C416.808 225.795 403.558 227.667 377.239 231.052C367.344 232.324 359.198 233.036 353.861 233.436C350.72 226.449 349.198 218.843 349.409 211.187L392.187 198.314L404.099 163.544Z" fill="#3A83F6"/>
<path d="M282.935 190.208C281.022 187.794 278.893 185.56 276.573 183.533C273.797 181.111 272.623 180.641 270.848 178.448C268.587 175.644 266.596 171.573 267.668 170.501C268.072 170.098 269.045 169.986 271.485 171.137C271.498 170.893 271.562 170.654 271.671 170.436C271.781 170.217 271.934 170.023 272.121 169.866C272.757 169.43 273.74 169.669 275.301 170.501C277.571 171.738 279.614 173.35 281.344 175.269C280.991 173.022 281.173 171.137 281.98 170.819C282.884 170.463 284.379 172.135 285.479 173.362C286.767 174.799 287.069 175.587 288.023 176.858C289.175 178.355 290.574 179.645 292.158 180.673L282.935 190.208Z" fill="white"/>
<path d="M282.88 191.409L293.398 180.536L292.6 180.008C291.091 179.028 289.758 177.8 288.659 176.375C288.31 175.914 288.058 175.526 287.788 175.104C287.284 174.295 286.71 173.531 286.074 172.821C284.684 171.27 283.109 169.513 281.694 170.069C280.67 170.469 280.393 171.849 280.384 173.174C278.967 171.849 277.386 170.711 275.679 169.789C274.251 169.029 272.776 168.435 271.672 169.201C271.372 169.412 271.133 169.698 270.979 170.031C269.042 169.233 267.83 169.207 267.111 169.929C265.235 171.801 268.829 177.195 270.234 178.937C271.22 180.151 272.36 181.231 273.625 182.15C274.306 182.684 275.078 183.285 276.052 184.134C278.333 186.13 280.429 188.329 282.314 190.704L282.88 191.409ZM290.943 180.79L282.992 189.01C281.198 186.826 279.228 184.793 277.101 182.932C276.093 182.058 275.304 181.442 274.611 180.895C273.439 180.055 272.384 179.064 271.472 177.948C268.905 174.77 267.804 171.49 268.234 171.064C268.234 171.064 268.739 170.717 271.15 171.855L272.136 172.322L272.276 171.239C272.286 170.966 272.4 170.708 272.594 170.517C272.766 170.396 273.3 170.326 274.948 171.2C277.135 172.403 279.106 173.96 280.781 175.809L282.556 177.716L282.149 175.142C281.789 172.869 282.114 171.76 282.292 171.563C282.849 171.595 284.34 173.254 284.906 173.886C285.488 174.535 286.012 175.234 286.471 175.975C286.745 176.394 287.025 176.826 287.409 177.335C288.414 178.65 289.603 179.814 290.94 180.79H290.943Z" fill="#3E4957"/>
<path d="M374.465 160.562C379.436 160.562 384.446 158.382 388.31 154.364C388.382 154.289 388.439 154.2 388.477 154.102C388.516 154.005 388.534 153.901 388.532 153.797C388.53 153.692 388.507 153.589 388.465 153.493C388.424 153.398 388.363 153.311 388.288 153.239C388.212 153.166 388.123 153.109 388.026 153.071C387.929 153.033 387.825 153.015 387.72 153.017C387.616 153.019 387.513 153.042 387.417 153.083C387.321 153.125 387.234 153.186 387.162 153.261C382.426 158.188 375.849 160.117 369.987 158.299C365.311 156.846 362.573 153.404 361.358 151.481C361.245 151.303 361.066 151.176 360.861 151.13C360.655 151.083 360.439 151.121 360.261 151.233C360.082 151.346 359.956 151.524 359.909 151.73C359.863 151.936 359.9 152.151 360.013 152.33C361.345 154.437 364.354 158.213 369.513 159.815C371.116 160.313 372.786 160.565 374.465 160.562Z" fill="#3E4957"/>
<path d="M386.78 180.195H377.556V187.36C377.556 188.579 378.041 189.748 378.903 190.61C379.766 191.472 380.936 191.956 382.155 191.956H382.184C383.404 191.956 384.574 191.472 385.436 190.61C386.299 189.748 386.783 188.579 386.783 187.36V180.195H386.78Z" fill="#3E4957"/>
<path d="M371.599 250.451C385.989 250.448 400.314 248.511 414.187 244.691C414.39 244.635 414.563 244.501 414.667 244.317C414.771 244.134 414.798 243.917 414.742 243.714C414.686 243.511 414.551 243.338 414.368 243.234C414.184 243.13 413.967 243.103 413.764 243.159C387.397 250.43 359.595 250.759 333.063 244.113C332.961 244.085 332.854 244.077 332.749 244.091C332.644 244.105 332.543 244.14 332.452 244.193C332.36 244.246 332.28 244.318 332.217 244.402C332.153 244.487 332.107 244.584 332.082 244.687C332.056 244.789 332.051 244.896 332.067 245.001C332.084 245.105 332.121 245.206 332.176 245.296C332.232 245.386 332.305 245.464 332.391 245.526C332.477 245.587 332.575 245.631 332.678 245.654C344.808 248.689 357.251 250.298 369.754 250.447L371.599 250.451Z" fill="#3E4957"/>
<path d="M405.386 201.174C405.569 201.174 405.746 201.111 405.887 200.996C406.029 200.881 406.127 200.72 406.164 200.542C406.201 200.363 406.176 200.177 406.092 200.015C406.009 199.853 405.872 199.725 405.705 199.652C401.886 197.966 397.698 197.288 393.542 197.681C393.438 197.691 393.336 197.721 393.243 197.77C393.151 197.819 393.069 197.886 393.002 197.966C392.935 198.047 392.884 198.14 392.854 198.24C392.823 198.341 392.812 198.446 392.822 198.55C392.831 198.655 392.862 198.756 392.911 198.849C392.96 198.941 393.027 199.023 393.107 199.09C393.188 199.157 393.281 199.207 393.382 199.238C393.482 199.269 393.587 199.28 393.692 199.27C395.123 199.133 396.564 199.133 397.995 199.27C400.435 199.502 402.822 200.125 405.065 201.114C405.167 201.155 405.276 201.176 405.386 201.174Z" fill="#3E4957"/>
<path d="M357.041 230.416C357.144 230.415 357.245 230.396 357.34 230.359C357.437 230.32 357.526 230.262 357.6 230.188C357.675 230.115 357.734 230.028 357.775 229.932C357.816 229.835 357.837 229.732 357.838 229.627C357.839 229.523 357.819 229.419 357.779 229.322C355.705 224.163 354.644 218.653 354.656 213.093C354.656 212.989 354.636 212.886 354.597 212.789C354.557 212.693 354.499 212.605 354.425 212.531C354.352 212.457 354.264 212.399 354.168 212.359C354.072 212.319 353.968 212.298 353.864 212.298C353.654 212.298 353.452 212.382 353.303 212.53C353.154 212.678 353.07 212.88 353.069 213.09C353.058 218.854 354.157 224.567 356.307 229.917C356.366 230.063 356.468 230.189 356.599 230.277C356.729 230.366 356.883 230.414 357.041 230.416Z" fill="#3E4957"/>
<path d="M283.485 199.314C283.608 199.314 283.73 199.285 283.84 199.23C283.951 199.175 284.047 199.095 284.121 198.996C287.367 194.481 291.455 190.633 296.159 187.665C296.338 187.552 296.464 187.374 296.511 187.168C296.557 186.962 296.52 186.747 296.407 186.568C296.295 186.39 296.116 186.264 295.91 186.217C295.704 186.171 295.489 186.208 295.31 186.32C290.432 189.402 286.194 193.395 282.83 198.081C282.769 198.166 282.725 198.262 282.701 198.363C282.677 198.465 282.673 198.57 282.69 198.673C282.707 198.776 282.744 198.875 282.799 198.964C282.854 199.052 282.926 199.129 283.011 199.19C283.152 199.281 283.318 199.324 283.485 199.314Z" fill="#3E4957"/>
<path d="M402.871 440.713C406.748 440.713 410.631 440.544 414.473 440.21C422.085 439.547 429.626 438.236 437.014 436.291L437.739 436.101L408.036 288.631C407.994 288.424 407.871 288.242 407.695 288.125C407.519 288.009 407.303 287.967 407.096 288.009C406.889 288.051 406.707 288.174 406.591 288.35C406.474 288.526 406.432 288.741 406.474 288.948L435.866 434.944C422.941 438.277 409.587 439.636 396.255 438.974C396.044 438.963 395.838 439.037 395.681 439.179C395.525 439.32 395.431 439.518 395.42 439.729C395.41 439.94 395.483 440.146 395.625 440.302C395.767 440.459 395.965 440.553 396.176 440.563C398.399 440.655 400.635 440.713 402.871 440.713Z" fill="#3E4957"/>
<path d="M354.552 443.255C360.439 443.255 366.322 442.922 372.172 442.257C372.276 442.245 372.376 442.213 372.468 442.162C372.559 442.111 372.639 442.043 372.704 441.961C372.769 441.88 372.818 441.786 372.846 441.685C372.875 441.585 372.884 441.48 372.872 441.376C372.861 441.272 372.829 441.171 372.779 441.08C372.728 440.988 372.66 440.907 372.578 440.842C372.496 440.777 372.402 440.729 372.301 440.7C372.2 440.672 372.095 440.664 371.991 440.677C356.87 442.395 341.577 441.86 326.614 439.088L337.746 288.843C337.753 288.739 337.74 288.634 337.708 288.534C337.675 288.435 337.623 288.343 337.554 288.264C337.416 288.104 337.22 288.005 337.009 287.989C336.798 287.974 336.59 288.043 336.43 288.181C336.27 288.319 336.171 288.515 336.155 288.725L324.902 440.385L325.599 440.518C333.13 441.945 340.757 442.816 348.416 443.121C350.46 443.21 352.506 443.255 354.552 443.255Z" fill="#3E4957"/>
<path d="M375.006 148.331C375.551 148.331 376.091 148.305 376.628 148.254C379.236 148.041 381.742 147.147 383.896 145.661C383.931 145.637 383.962 145.606 383.985 145.571C384.009 145.535 384.025 145.495 384.033 145.453C384.041 145.41 384.04 145.367 384.03 145.325C384.021 145.284 384.003 145.244 383.978 145.209C383.953 145.175 383.921 145.145 383.884 145.123C383.847 145.101 383.807 145.087 383.764 145.081C383.722 145.075 383.679 145.077 383.637 145.089C383.596 145.1 383.557 145.119 383.523 145.146C381.463 146.567 379.063 147.421 376.568 147.622C374.671 147.796 372.759 147.649 370.912 147.186C370.831 147.166 370.745 147.179 370.673 147.222C370.601 147.264 370.549 147.334 370.528 147.415C370.517 147.456 370.515 147.498 370.521 147.539C370.526 147.581 370.54 147.62 370.562 147.657C370.583 147.693 370.611 147.724 370.644 147.749C370.678 147.774 370.716 147.793 370.757 147.803C372.146 148.151 373.573 148.328 375.006 148.331Z" fill="#3E4957"/>
<path d="M374.223 151.291C375.992 151.306 377.748 150.992 379.401 150.366C379.442 150.352 379.479 150.33 379.511 150.301C379.543 150.273 379.569 150.238 379.587 150.199C379.605 150.16 379.615 150.118 379.616 150.075C379.617 150.032 379.61 149.989 379.594 149.949C379.579 149.909 379.555 149.873 379.525 149.842C379.495 149.812 379.459 149.788 379.419 149.771C379.379 149.755 379.337 149.747 379.294 149.748C379.251 149.748 379.208 149.757 379.169 149.775C376.821 150.646 374.286 150.886 371.816 150.471C369.935 150.177 368.118 149.568 366.441 148.669C366.367 148.629 366.28 148.62 366.2 148.644C366.119 148.668 366.052 148.722 366.011 148.796C365.991 148.833 365.978 148.873 365.974 148.914C365.969 148.956 365.973 148.998 365.985 149.038C365.997 149.079 366.016 149.116 366.043 149.149C366.069 149.181 366.102 149.208 366.138 149.228C367.88 150.162 369.767 150.794 371.72 151.097C372.549 151.225 373.385 151.29 374.223 151.291Z" fill="#3E4957"/>
<g filter="url(#filter2_d_3310_502415)">
<path d="M161.513 79H255.015C259.164 79 262.527 82.3613 262.527 86.5076V91.8729C262.527 96.0193 259.164 99.3806 255.015 99.3806H161.513C157.364 99.3806 154 96.0193 154 91.8729V86.5076C154 82.3613 157.364 79 161.513 79Z" fill="white"/>
<path d="M255.015 79.5H161.513C157.639 79.5 154.5 82.6377 154.5 86.5076V91.8729C154.5 95.7428 157.639 98.8806 161.513 98.8806H255.015C258.888 98.8806 262.027 95.7428 262.027 91.8729V86.5076C262.027 82.6377 258.888 79.5 255.015 79.5Z" stroke="#3E4957"/>
</g>
<g filter="url(#filter3_d_3310_502415)">
<path d="M178.246 121.223H254.512C258.289 121.223 261.351 124.282 261.351 128.056V134.769C261.351 138.544 258.289 141.603 254.512 141.603H178.246C174.469 141.603 171.407 138.544 171.407 134.769V128.056C171.407 124.282 174.469 121.223 178.246 121.223Z" fill="white"/>
<path d="M254.512 121.723H178.246C174.745 121.723 171.907 124.559 171.907 128.056V134.769C171.907 138.267 174.745 141.103 178.246 141.103H254.512C258.013 141.103 260.851 138.267 260.851 134.769V128.056C260.851 124.559 258.013 121.723 254.512 121.723Z" stroke="#3E4957"/>
</g>
<g filter="url(#filter4_d_3310_502415)">
<path d="M81.4357 199.349H225.506C228.364 199.349 230.681 201.664 230.681 204.52V207.775C230.681 210.631 228.364 212.946 225.506 212.946H81.4357C78.5778 212.946 76.2609 210.631 76.2609 207.775V204.52C76.2609 201.664 78.5778 199.349 81.4357 199.349Z" fill="white"/>
<path d="M225.506 199.849H81.4357C78.8536 199.849 76.7609 201.94 76.7609 204.52V207.775C76.7609 210.355 78.8536 212.446 81.4357 212.446H225.506C228.088 212.446 230.181 210.355 230.181 207.775V204.52C230.181 201.94 228.088 199.849 225.506 199.849Z" stroke="#3E4957"/>
</g>
<g filter="url(#filter5_d_3310_502415)">
<path d="M81.4357 245.742H225.506C228.364 245.742 230.681 248.058 230.681 250.914V254.168C230.681 257.025 228.364 259.34 225.506 259.34H81.4357C78.5778 259.34 76.2609 257.025 76.2609 254.168V250.914C76.2609 248.058 78.5778 245.742 81.4357 245.742Z" fill="white"/>
<path d="M225.506 246.242H81.4357C78.8536 246.242 76.7609 248.334 76.7609 250.914V254.168C76.7609 256.748 78.8536 258.84 81.4357 258.84H225.506C228.088 258.84 230.181 256.748 230.181 254.168V250.914C230.181 248.334 228.088 246.242 225.506 246.242Z" stroke="#3E4957"/>
</g>
<g filter="url(#filter6_d_3310_502415)">
<path d="M81.4357 292.136H225.506C228.364 292.136 230.681 294.452 230.681 297.308V300.562C230.681 303.419 228.364 305.734 225.506 305.734H81.4357C78.5778 305.734 76.2609 303.419 76.2609 300.562V297.308C76.2609 294.452 78.5778 292.136 81.4357 292.136Z" fill="white"/>
<path d="M225.506 292.636H81.4357C78.8536 292.636 76.7609 294.728 76.7609 297.308V300.562C76.7609 303.142 78.8536 305.234 81.4357 305.234H225.506C228.088 305.234 230.181 303.142 230.181 300.562V297.308C230.181 294.728 228.088 292.636 225.506 292.636Z" stroke="#3E4957"/>
</g>
<defs>
<filter id="filter0_d_3310_502415" x="74.2607" y="106.565" width="156.42" height="15.5977" filterUnits="userSpaceOnUse" color-interpolation-filters="sRGB">
<feFlood flood-opacity="0" result="BackgroundImageFix"/>
<feColorMatrix in="SourceAlpha" type="matrix" values="0 0 0 0 0 0 0 0 0 0 0 0 0 0 0 0 0 0 127 0" result="hardAlpha"/>
<feOffset dx="-2" dy="2"/>
<feComposite in2="hardAlpha" operator="out"/>
<feColorMatrix type="matrix" values="0 0 0 0 0.752941 0 0 0 0 0.85098 0 0 0 0 1 0 0 0 1 0"/>
<feBlend mode="normal" in2="BackgroundImageFix" result="effect1_dropShadow_3310_502415"/>
<feBlend mode="normal" in="SourceGraphic" in2="effect1_dropShadow_3310_502415" result="shape"/>
</filter>
<filter id="filter1_d_3310_502415" x="74.2607" y="152.959" width="156.42" height="15.5977" filterUnits="userSpaceOnUse" color-interpolation-filters="sRGB">
<feFlood flood-opacity="0" result="BackgroundImageFix"/>
<feColorMatrix in="SourceAlpha" type="matrix" values="0 0 0 0 0 0 0 0 0 0 0 0 0 0 0 0 0 0 127 0" result="hardAlpha"/>
<feOffset dx="-2" dy="2"/>
<feComposite in2="hardAlpha" operator="out"/>
<feColorMatrix type="matrix" values="0 0 0 0 0.752941 0 0 0 0 0.85098 0 0 0 0 1 0 0 0 1 0"/>
<feBlend mode="normal" in2="BackgroundImageFix" result="effect1_dropShadow_3310_502415"/>
<feBlend mode="normal" in="SourceGraphic" in2="effect1_dropShadow_3310_502415" result="shape"/>
</filter>
<filter id="filter2_d_3310_502415" x="152" y="79" width="110.527" height="22.3804" filterUnits="userSpaceOnUse" color-interpolation-filters="sRGB">
<feFlood flood-opacity="0" result="BackgroundImageFix"/>
<feColorMatrix in="SourceAlpha" type="matrix" values="0 0 0 0 0 0 0 0 0 0 0 0 0 0 0 0 0 0 127 0" result="hardAlpha"/>
<feOffset dx="-2" dy="2"/>
<feComposite in2="hardAlpha" operator="out"/>
<feColorMatrix type="matrix" values="0 0 0 0 0.752941 0 0 0 0 0.85098 0 0 0 0 1 0 0 0 1 0"/>
<feBlend mode="normal" in2="BackgroundImageFix" result="effect1_dropShadow_3310_502415"/>
<feBlend mode="normal" in="SourceGraphic" in2="effect1_dropShadow_3310_502415" result="shape"/>
</filter>
<filter id="filter3_d_3310_502415" x="169.407" y="121.223" width="91.9434" height="22.3804" filterUnits="userSpaceOnUse" color-interpolation-filters="sRGB">
<feFlood flood-opacity="0" result="BackgroundImageFix"/>
<feColorMatrix in="SourceAlpha" type="matrix" values="0 0 0 0 0 0 0 0 0 0 0 0 0 0 0 0 0 0 127 0" result="hardAlpha"/>
<feOffset dx="-2" dy="2"/>
<feComposite in2="hardAlpha" operator="out"/>
<feColorMatrix type="matrix" values="0 0 0 0 0.752941 0 0 0 0 0.85098 0 0 0 0 1 0 0 0 1 0"/>
<feBlend mode="normal" in2="BackgroundImageFix" result="effect1_dropShadow_3310_502415"/>
<feBlend mode="normal" in="SourceGraphic" in2="effect1_dropShadow_3310_502415" result="shape"/>
</filter>
<filter id="filter4_d_3310_502415" x="74.2607" y="199.349" width="156.42" height="15.5977" filterUnits="userSpaceOnUse" color-interpolation-filters="sRGB">
<feFlood flood-opacity="0" result="BackgroundImageFix"/>
<feColorMatrix in="SourceAlpha" type="matrix" values="0 0 0 0 0 0 0 0 0 0 0 0 0 0 0 0 0 0 127 0" result="hardAlpha"/>
<feOffset dx="-2" dy="2"/>
<feComposite in2="hardAlpha" operator="out"/>
<feColorMatrix type="matrix" values="0 0 0 0 0.752941 0 0 0 0 0.85098 0 0 0 0 1 0 0 0 1 0"/>
<feBlend mode="normal" in2="BackgroundImageFix" result="effect1_dropShadow_3310_502415"/>
<feBlend mode="normal" in="SourceGraphic" in2="effect1_dropShadow_3310_502415" result="shape"/>
</filter>
<filter id="filter5_d_3310_502415" x="74.2607" y="245.742" width="156.42" height="15.5977" filterUnits="userSpaceOnUse" color-interpolation-filters="sRGB">
<feFlood flood-opacity="0" result="BackgroundImageFix"/>
<feColorMatrix in="SourceAlpha" type="matrix" values="0 0 0 0 0 0 0 0 0 0 0 0 0 0 0 0 0 0 127 0" result="hardAlpha"/>
<feOffset dx="-2" dy="2"/>
<feComposite in2="hardAlpha" operator="out"/>
<feColorMatrix type="matrix" values="0 0 0 0 0.752941 0 0 0 0 0.85098 0 0 0 0 1 0 0 0 1 0"/>
<feBlend mode="normal" in2="BackgroundImageFix" result="effect1_dropShadow_3310_502415"/>
<feBlend mode="normal" in="SourceGraphic" in2="effect1_dropShadow_3310_502415" result="shape"/>
</filter>
<filter id="filter6_d_3310_502415" x="74.2607" y="292.136" width="156.42" height="15.5977" filterUnits="userSpaceOnUse" color-interpolation-filters="sRGB">
<feFlood flood-opacity="0" result="BackgroundImageFix"/>
<feColorMatrix in="SourceAlpha" type="matrix" values="0 0 0 0 0 0 0 0 0 0 0 0 0 0 0 0 0 0 127 0" result="hardAlpha"/>
<feOffset dx="-2" dy="2"/>
<feComposite in2="hardAlpha" operator="out"/>
<feColorMatrix type="matrix" values="0 0 0 0 0.752941 0 0 0 0 0.85098 0 0 0 0 1 0 0 0 1 0"/>
<feBlend mode="normal" in2="BackgroundImageFix" result="effect1_dropShadow_3310_502415"/>
<feBlend mode="normal" in="SourceGraphic" in2="effect1_dropShadow_3310_502415" result="shape"/>
</filter>
</defs>
</svg>
