<svg width="375" height="631" viewBox="0 0 375 631" fill="none" xmlns="http://www.w3.org/2000/svg">
<path opacity="0.6" fill-rule="evenodd" clip-rule="evenodd" d="M-59.3073 1.89438C-60.1035 1.35097 -60.9108 0.867229 -61.7295 0.444171L-61.2704 -0.444214C-60.4137 -0.00150582 -59.5716 0.503333 -58.7436 1.0684C-58.5155 1.22407 -58.4568 1.53516 -58.6125 1.76324C-58.7681 1.99133 -59.0792 2.05004 -59.3073 1.89438ZM-54.726 5.07902C-54.5281 4.88643 -54.2116 4.89073 -54.019 5.08862C-52.7013 6.44256 -51.4219 7.96156 -50.1787 9.63719C-50.0142 9.85897 -50.0606 10.1721 -50.2824 10.3367C-50.5042 10.5012 -50.8173 10.4548 -50.9819 10.233C-52.2019 8.58851 -53.4528 7.10422 -54.7356 5.78606C-54.9282 5.58816 -54.9239 5.27161 -54.726 5.07902ZM-47.4986 14.5256C-47.2619 14.3834 -46.9548 14.46 -46.8125 14.6967C-45.8141 16.3581 -44.8399 18.1278 -43.8889 20.0011C-43.7639 20.2473 -43.8622 20.5483 -44.1085 20.6733C-44.3547 20.7983 -44.6556 20.7 -44.7806 20.4537C-45.7219 18.5994 -46.6847 16.8508 -47.6697 15.2117C-47.8119 14.9751 -47.7353 14.6679 -47.4986 14.5256ZM-41.9708 25.2001C-41.7181 25.0887 -41.423 25.2032 -41.3115 25.4559C-40.5277 27.2333 -39.7603 29.0851 -39.0087 31.0083C-38.9081 31.2655 -39.0352 31.5554 -39.2924 31.656C-39.5496 31.7565 -39.8395 31.6295 -39.9401 31.3723C-40.6869 29.4612 -41.4489 27.6227 -42.2265 25.8594C-42.3379 25.6067 -42.2235 25.3116 -41.9708 25.2001ZM-37.52 36.4489C-37.2594 36.3575 -36.9741 36.4947 -36.8827 36.7553C-36.2469 38.5684 -35.6228 40.4351 -35.0102 42.3533C-34.9262 42.6163 -35.0713 42.8977 -35.3343 42.9817C-35.5974 43.0657 -35.8788 42.9206 -35.9628 42.6575C-36.5727 40.7477 -37.1938 38.8899 -37.8263 37.0862C-37.9177 36.8256 -37.7805 36.5403 -37.52 36.4489ZM-33.8262 47.9212C-33.5611 47.8437 -33.2834 47.9958 -33.206 48.2608C-32.6625 50.1201 -32.1283 52.0215 -31.6032 53.9636C-31.5311 54.2302 -31.6888 54.5047 -31.9553 54.5768C-32.2219 54.6489 -32.4964 54.4912 -32.5685 54.2246C-33.092 52.2887 -33.6243 50.3938 -34.1658 48.5414C-34.2433 48.2763 -34.0912 47.9987 -33.8262 47.9212ZM-30.6977 59.4022C-30.4299 59.3349 -30.1582 59.4974 -30.0908 59.7652C-29.5951 61.7369 -29.1077 63.746 -28.6282 65.791C-28.5652 66.0599 -28.732 66.3289 -29.0009 66.3919C-29.2697 66.455 -29.5388 66.2881 -29.6018 66.0193C-30.0801 63.9791 -30.5663 61.9753 -31.0607 60.009C-31.128 59.7412 -30.9655 59.4695 -30.6977 59.4022ZM-27.9242 71.1302C-27.6545 71.0708 -27.3877 71.2412 -27.3283 71.5109C-26.9032 73.44 -26.4845 75.3981 -26.0721 77.3842C-26.016 77.6546 -26.1896 77.9193 -26.46 77.9754C-26.7304 78.0316 -26.9951 77.8579 -27.0512 77.5875C-27.4628 75.6052 -27.8806 73.651 -28.3049 71.7261C-28.3643 71.4564 -28.1939 71.1896 -27.9242 71.1302ZM-25.4403 83.031C-25.1693 82.9779 -24.9066 83.1545 -24.8535 83.4255C-24.4786 85.3379 -24.109 87.274 -23.7446 89.2328C-23.6941 89.5043 -23.8732 89.7653 -24.1447 89.8158C-24.4162 89.8663 -24.6772 89.6872 -24.7277 89.4157C-25.0916 87.4599 -25.4606 85.527 -25.8348 83.6178C-25.8879 83.3468 -25.7113 83.0841 -25.4403 83.031ZM-23.2563 94.7133C-22.9844 94.6652 -22.725 94.8466 -22.6769 95.1185C-22.3259 97.1022 -21.9798 99.1074 -21.6384 101.133C-21.5925 101.406 -21.776 101.663 -22.0483 101.709C-22.3206 101.755 -22.5786 101.572 -22.6245 101.299C-22.9654 99.2762 -23.3111 97.2737 -23.6616 95.2928C-23.7097 95.0209 -23.5283 94.7614 -23.2563 94.7133ZM-21.2341 106.653C-20.9615 106.61 -20.7049 106.795 -20.661 107.068C-20.3485 109.008 -20.0401 110.967 -19.7355 112.942C-19.6934 113.215 -19.8806 113.47 -20.1535 113.512C-20.4264 113.554 -20.6817 113.367 -20.7238 113.094C-21.0281 111.121 -21.3362 109.165 -21.6483 107.227C-21.6922 106.954 -21.5067 106.697 -21.2341 106.653ZM-19.4011 118.495C-19.1279 118.455 -18.8737 118.643 -18.8333 118.916C-18.5365 120.924 -18.2434 122.947 -17.9538 124.986C-17.915 125.259 -18.1052 125.512 -18.3786 125.551C-18.652 125.59 -18.9051 125.4 -18.9439 125.126C-19.2332 123.089 -19.526 121.068 -19.8225 119.063C-19.8629 118.79 -19.6742 118.535 -19.4011 118.495ZM-17.7009 130.414C-17.4273 130.376 -17.1752 130.568 -17.1377 130.841C-16.8689 132.807 -16.6031 134.786 -16.3404 136.777C-16.3043 137.051 -16.4969 137.302 -16.7707 137.338C-17.0445 137.374 -17.2957 137.182 -17.3318 136.908C-17.5943 134.918 -17.8599 132.941 -18.1285 130.977C-18.1659 130.703 -17.9745 130.451 -17.7009 130.414ZM-16.1203 142.356C-15.8464 142.322 -15.596 142.515 -15.5611 142.789C-15.3073 144.783 -15.0562 146.788 -14.8078 148.804C-14.7741 149.078 -14.9689 149.328 -15.243 149.361C-15.517 149.395 -15.7666 149.2 -15.8003 148.926C-16.0485 146.911 -16.2994 144.907 -16.5531 142.916C-16.588 142.642 -16.3942 142.391 -16.1203 142.356ZM-14.6478 154.271C-14.3736 154.238 -14.1248 154.434 -14.0921 154.708C-13.856 156.687 -13.6223 158.675 -13.391 160.673C-13.3592 160.948 -13.5559 161.196 -13.8302 161.227C-14.1045 161.259 -14.3526 161.063 -14.3844 160.788C-14.6155 158.791 -14.8491 156.804 -15.085 154.827C-15.1177 154.553 -14.922 154.304 -14.6478 154.271ZM-13.2568 166.254C-12.9823 166.224 -12.7349 166.421 -12.704 166.695C-12.4802 168.686 -12.2586 170.686 -12.039 172.694C-12.009 172.968 -12.2072 173.215 -12.4817 173.245C-12.7562 173.275 -13.0031 173.077 -13.0331 172.803C-13.2525 170.796 -13.4741 168.797 -13.6978 166.807C-13.7286 166.533 -13.5312 166.285 -13.2568 166.254ZM-11.949 178.182C-11.6744 178.153 -11.4281 178.351 -11.3989 178.626C-11.1874 180.611 -10.9779 182.604 -10.7702 184.603C-10.7416 184.878 -10.9412 185.124 -11.2158 185.152C-11.4905 185.181 -11.7363 184.981 -11.7648 184.706C-11.9725 182.708 -12.1819 180.716 -12.3932 178.732C-12.4225 178.457 -12.2236 178.211 -11.949 178.182ZM-10.7003 190.175C-10.4256 190.147 -10.1803 190.347 -10.1524 190.622C-9.95013 192.616 -9.74955 194.617 -9.55058 196.624C-9.52333 196.898 -9.724 197.143 -9.99879 197.17C-10.2736 197.198 -10.5184 196.997 -10.5457 196.722C-10.7446 194.716 -10.9451 192.717 -11.1473 190.723C-11.1752 190.448 -10.975 190.203 -10.7003 190.175ZM-9.51276 202.124C-9.23791 202.097 -8.99347 202.299 -8.96678 202.573C-8.77367 204.562 -8.58203 206.556 -8.39177 208.555C-8.3656 208.83 -8.56724 209.074 -8.84214 209.1C-9.11703 209.127 -9.3611 208.925 -9.38726 208.65C-9.57747 206.652 -9.76905 204.658 -9.9621 202.67C-9.98878 202.395 -9.78761 202.151 -9.51276 202.124ZM-8.36935 214.115C-8.0944 214.089 -7.85069 214.291 -7.82501 214.566C-7.63828 216.565 -7.45284 218.568 -7.26857 220.575C-7.24333 220.85 -7.44578 221.093 -7.72077 221.119C-7.99575 221.144 -8.23914 220.941 -8.26439 220.666C-8.4486 218.66 -8.634 216.657 -8.82067 214.659C-8.84636 214.384 -8.64429 214.14 -8.36935 214.115ZM-7.26842 226.086C-6.9934 226.061 -6.75031 226.264 -6.72546 226.539C-6.54552 228.53 -6.36667 230.525 -6.18881 232.523C-6.16432 232.798 -6.36744 233.041 -6.6425 233.065C-6.91755 233.09 -7.16038 232.887 -7.18487 232.612C-7.36269 230.614 -7.54151 228.62 -7.7214 226.629C-7.74625 226.354 -7.54344 226.111 -7.26842 226.086ZM-6.19995 238.071C-5.92487 238.047 -5.68228 238.25 -5.65812 238.525C-5.48235 240.526 -5.30748 242.53 -5.13344 244.536C-5.10957 244.811 -5.31324 245.053 -5.58835 245.077C-5.86346 245.101 -6.10583 244.897 -6.1297 244.622C-6.30371 242.617 -6.47855 240.613 -6.65429 238.613C-6.67845 238.337 -6.47503 238.095 -6.19995 238.071ZM-5.15854 250.058C-4.88341 250.035 -4.64123 250.239 -4.61761 250.514C-4.44643 252.508 -4.27597 254.504 -4.10616 256.502C-4.08277 256.777 -4.28686 257.019 -4.56201 257.042C-4.83716 257.066 -5.07917 256.861 -5.10257 256.586C-5.27235 254.589 -5.44279 252.593 -5.61395 250.599C-5.63757 250.324 -5.43367 250.082 -5.15854 250.058ZM-4.13885 262.041C-3.86368 262.017 -3.6218 262.222 -3.5986 262.497C-3.43 264.496 -3.26198 266.496 -3.09443 268.497C-3.07138 268.772 -3.27578 269.014 -3.55096 269.037C-3.82614 269.06 -4.0679 268.855 -4.09094 268.58C-4.25847 266.58 -4.42649 264.58 -4.59507 262.581C-4.61827 262.306 -4.41401 262.064 -4.13885 262.041ZM-3.13356 274.035C-2.85838 274.012 -2.61671 274.216 -2.59379 274.492C-2.42735 276.49 -2.26132 278.488 -2.09561 280.486C-2.07278 280.761 -2.27736 281.002 -2.55256 281.025C-2.82776 281.048 -3.06936 280.844 -3.09218 280.568C-3.25789 278.571 -3.42391 276.573 -3.59034 274.575C-3.61326 274.299 -3.40875 274.058 -3.13356 274.035ZM-2.13886 286.02C-1.86366 285.997 -1.62211 286.202 -1.59934 286.477C-1.43419 288.473 -1.26927 290.469 -1.1045 292.463C-1.08177 292.738 -1.28643 292.98 -1.56164 293.003C-1.83684 293.025 -2.07837 292.821 -2.10111 292.546C-2.26587 290.551 -2.43079 288.556 -2.59594 286.559C-2.61871 286.284 -2.41407 286.043 -2.13886 286.02ZM-1.14802 298.009C-0.872814 297.987 -0.631283 298.191 -0.608543 298.467C-0.443039 300.47 -0.277611 302.471 -0.112171 304.47C-0.0893974 304.745 -0.294033 304.987 -0.569233 305.01C-0.844437 305.032 -1.08599 304.828 -1.10876 304.553C-1.27421 302.553 -1.43964 300.552 -1.60515 298.549C-1.62789 298.274 -1.42322 298.032 -1.14802 298.009ZM-0.155399 310.004C0.119797 309.981 0.361404 310.186 0.384243 310.461C0.549782 312.455 0.715405 314.447 0.881207 316.436C0.904144 316.711 0.699657 316.953 0.424469 316.976C0.149284 316.999 -0.0923996 316.794 -0.115337 316.519C-0.281151 314.53 -0.446785 312.538 -0.612328 310.544C-0.63517 310.268 -0.430595 310.027 -0.155399 310.004ZM0.842636 321.978C1.11781 321.955 1.35959 322.159 1.38267 322.435C1.55113 324.444 1.71985 326.449 1.88893 328.451C1.91217 328.726 1.70795 328.968 1.43279 328.991C1.15762 329.014 0.915718 328.81 0.892475 328.535C0.723381 326.533 0.554638 324.527 0.386166 322.518C0.363091 322.243 0.567459 322.001 0.842636 321.978ZM1.85663 333.987C2.13178 333.964 2.37384 334.168 2.39729 334.443C2.56714 336.436 2.73744 338.425 2.90826 340.409C2.93195 340.684 2.72812 340.926 2.453 340.95C2.17788 340.973 1.93564 340.77 1.91195 340.494C1.7411 338.51 1.57078 336.521 1.40089 334.528C1.37745 334.253 1.58149 334.011 1.85663 333.987ZM2.88509 345.939C3.16019 345.915 3.40263 346.119 3.4266 346.394C3.60221 348.409 3.77846 350.419 3.95544 352.423C3.97972 352.698 3.77643 352.941 3.50136 352.965C3.22628 352.99 2.9836 352.786 2.95931 352.511C2.7823 350.507 2.60602 348.497 2.43037 346.481C2.4064 346.206 2.60999 345.963 2.88509 345.939ZM3.94598 357.964C4.22102 357.939 4.46397 358.142 4.48863 358.417C4.66715 360.409 4.8465 362.394 5.02675 364.372C5.05181 364.647 4.84919 364.89 4.57419 364.915C4.29919 364.94 4.05594 364.738 4.03088 364.463C3.85058 362.484 3.67119 360.498 3.49262 358.506C3.46797 358.231 3.67094 357.988 3.94598 357.964ZM5.03178 369.893C5.30675 369.867 5.55032 370.07 5.57584 370.344C5.76341 372.366 5.95205 374.38 6.14186 376.386C6.16788 376.661 5.9661 376.905 5.69119 376.931C5.41628 376.957 5.17233 376.755 5.14631 376.48C4.95644 374.474 4.76774 372.459 4.58011 370.437C4.5546 370.162 4.75682 369.918 5.03178 369.893ZM6.16908 381.927C6.44394 381.9 6.6883 382.102 6.71487 382.377C6.90711 384.365 7.10061 386.344 7.29548 388.314C7.32266 388.589 7.12193 388.834 6.84713 388.861C6.57233 388.888 6.32752 388.688 6.30034 388.413C6.10539 386.442 5.91182 384.462 5.71951 382.473C5.69294 382.198 5.89421 381.954 6.16908 381.927ZM7.34581 393.841C7.62054 393.814 7.86584 394.014 7.89369 394.288C8.09909 396.314 8.30606 398.329 8.51473 400.333C8.54333 400.608 8.34387 400.854 8.06921 400.882C7.79456 400.911 7.54871 400.711 7.52011 400.437C7.31135 398.432 7.10428 396.416 6.8988 394.389C6.87094 394.115 7.07108 393.869 7.34581 393.841ZM8.59554 405.866C8.87011 405.837 9.11654 406.036 9.14595 406.31C9.35812 408.291 9.57211 410.26 9.78801 412.216C9.8183 412.491 9.62035 412.738 9.34587 412.768C9.0714 412.798 8.82433 412.6 8.79404 412.326C8.57802 410.368 8.36392 408.398 8.15164 406.417C8.12222 406.142 8.32097 405.896 8.59554 405.866ZM9.90839 417.785C10.1828 417.753 10.4305 417.95 10.4618 418.225C10.6925 420.249 10.9255 422.259 11.1608 424.254C11.1931 424.529 10.997 424.777 10.7228 424.81C10.4486 424.842 10.2 424.646 10.1677 424.372C9.93219 422.375 9.69908 420.364 9.46822 418.338C9.43695 418.064 9.63402 417.816 9.90839 417.785ZM11.317 429.758C11.5911 429.725 11.8405 429.92 11.874 430.194C12.1145 432.161 12.3575 434.112 12.6031 436.047C12.6379 436.32 12.444 436.571 12.17 436.605C11.8961 436.64 11.6458 436.446 11.611 436.172C11.3652 434.236 11.1221 432.284 10.8814 430.315C10.8479 430.041 11.0429 429.792 11.317 429.758ZM12.8313 441.708C13.105 441.672 13.3563 441.864 13.3925 442.138C13.6587 444.15 13.9281 446.142 14.2006 448.115C14.2384 448.388 14.0473 448.641 13.7738 448.678C13.5002 448.716 13.2478 448.525 13.2101 448.252C12.9372 446.277 12.6676 444.283 12.4012 442.269C12.365 441.995 12.5575 441.744 12.8313 441.708ZM14.4619 453.548C14.7352 453.509 14.9888 453.698 15.0283 453.971C15.3203 455.992 15.616 457.989 15.9157 459.963C15.9571 460.236 15.7694 460.491 15.4964 460.532C15.2234 460.573 14.9685 460.386 14.927 460.113C14.627 458.137 14.3309 456.137 14.0386 454.115C13.9991 453.841 14.1886 453.588 14.4619 453.548ZM16.2788 465.553C16.5514 465.51 16.8079 465.695 16.8515 465.968C17.1677 467.944 17.4882 469.895 17.8132 471.818C17.8592 472.091 17.6757 472.349 17.4034 472.395C17.1312 472.441 16.8731 472.257 16.8271 471.985C16.5016 470.058 16.1807 468.105 15.864 466.126C15.8204 465.853 16.0061 465.597 16.2788 465.553ZM18.2621 477.331C18.5339 477.282 18.7938 477.463 18.8425 477.735C19.2072 479.769 19.5775 481.771 19.9536 483.738C20.0054 484.009 19.8276 484.271 19.5564 484.323C19.2851 484.375 19.0232 484.197 18.9714 483.926C18.5945 481.955 18.2235 479.949 17.8582 477.911C17.8095 477.639 17.9903 477.379 18.2621 477.331ZM20.5095 489.145C20.7801 489.09 21.0442 489.264 21.0996 489.535C21.5107 491.545 21.9287 493.515 22.3538 495.444C22.4132 495.713 22.2428 495.98 21.9731 496.039C21.7035 496.099 21.4367 495.928 21.3772 495.659C20.951 493.725 20.532 491.75 20.1199 489.735C20.0645 489.465 20.239 489.2 20.5095 489.145ZM23.1102 500.993C23.3788 500.929 23.6486 501.095 23.7129 501.363C24.1739 503.29 24.643 505.169 25.1206 506.999C25.1903 507.266 25.0302 507.539 24.763 507.609C24.4958 507.678 24.2227 507.518 24.153 507.251C23.6736 505.414 23.2028 503.529 22.7403 501.596C22.676 501.328 22.8417 501.058 23.1102 500.993ZM320.596 503.268C318.599 503.231 316.582 503.221 314.547 503.236C314.271 503.238 314.045 503.016 314.043 502.739C314.041 502.463 314.263 502.238 314.539 502.236C316.583 502.221 318.608 502.231 320.615 502.268C320.891 502.273 321.11 502.501 321.105 502.777C321.1 503.053 320.872 503.273 320.596 503.268ZM308.978 502.837C308.987 503.113 308.77 503.344 308.494 503.353C306.489 503.415 304.467 503.499 302.428 503.606C302.153 503.62 301.917 503.408 301.903 503.133C301.889 502.857 302.1 502.622 302.376 502.607C304.422 502.5 306.451 502.415 308.463 502.353C308.739 502.345 308.97 502.561 308.978 502.837ZM326.193 502.942C326.206 502.666 326.44 502.453 326.716 502.466C328.764 502.562 330.791 502.689 332.798 502.846C333.073 502.868 333.279 503.109 333.257 503.384C333.236 503.659 332.995 503.865 332.72 503.843C330.724 503.686 328.707 503.561 326.669 503.465C326.393 503.452 326.18 503.218 326.193 502.942ZM296.824 503.448C296.844 503.724 296.637 503.963 296.361 503.983C294.367 504.126 292.358 504.288 290.334 504.469C290.059 504.493 289.816 504.29 289.791 504.015C289.767 503.74 289.97 503.497 290.245 503.473C292.275 503.292 294.29 503.129 296.29 502.985C296.565 502.966 296.804 503.173 296.824 503.448ZM338.303 503.866C338.334 503.592 338.582 503.394 338.856 503.425C340.889 503.656 342.899 503.921 344.886 504.222C345.159 504.263 345.347 504.518 345.305 504.791C345.264 505.064 345.009 505.252 344.736 505.211C342.762 504.911 340.765 504.648 338.744 504.419C338.469 504.388 338.272 504.14 338.303 503.866ZM284.739 504.508C284.768 504.783 284.569 505.029 284.294 505.058C282.291 505.269 280.274 505.497 278.243 505.74C277.968 505.773 277.72 505.578 277.687 505.304C277.654 505.029 277.849 504.781 278.123 504.748C280.159 504.503 282.181 504.275 284.19 504.063C284.464 504.034 284.71 504.233 284.739 504.508ZM350.308 505.654C350.36 505.383 350.623 505.206 350.894 505.259C352.908 505.65 354.896 506.082 356.858 506.556C357.127 506.621 357.292 506.891 357.227 507.159C357.162 507.428 356.892 507.593 356.624 507.528C354.677 507.058 352.703 506.629 350.703 506.241C350.432 506.188 350.255 505.925 350.308 505.654ZM272.675 505.939C272.712 506.213 272.519 506.464 272.246 506.501C270.254 506.766 268.25 507.046 266.234 507.339C265.96 507.379 265.707 507.189 265.667 506.916C265.627 506.643 265.816 506.389 266.09 506.349C268.11 506.056 270.118 505.776 272.113 505.51C272.387 505.473 272.639 505.665 272.675 505.939ZM260.632 507.676C260.674 507.949 260.488 508.205 260.215 508.248C258.236 508.557 256.245 508.879 254.242 509.211C253.97 509.257 253.712 509.073 253.667 508.8C253.622 508.528 253.806 508.27 254.078 508.225C256.084 507.892 258.078 507.57 260.06 507.26C260.333 507.217 260.589 507.404 260.632 507.676ZM362.131 508.469C362.209 508.204 362.487 508.053 362.752 508.131C363.726 508.417 364.693 508.715 365.653 509.024C366.66 509.348 367.653 509.676 368.632 510.005C368.894 510.094 369.034 510.377 368.946 510.639C368.858 510.901 368.574 511.041 368.313 510.953C367.338 510.625 366.35 510.299 365.347 509.976C364.395 509.669 363.436 509.374 362.47 509.09C362.205 509.012 362.053 508.734 362.131 508.469ZM248.657 509.656C248.705 509.928 248.523 510.187 248.251 510.235C246.269 510.582 244.276 510.939 242.272 511.307C242.001 511.356 241.74 511.177 241.69 510.905C241.641 510.633 241.821 510.373 242.092 510.323C244.098 509.955 246.094 509.597 248.079 509.25C248.351 509.202 248.61 509.384 248.657 509.656ZM236.712 511.836C236.764 512.107 236.586 512.369 236.315 512.421C234.332 512.798 232.339 513.185 230.336 513.579C230.065 513.633 229.802 513.456 229.749 513.185C229.695 512.914 229.872 512.652 230.143 512.598C232.147 512.203 234.142 511.816 236.127 511.438C236.399 511.387 236.66 511.565 236.712 511.836ZM373.815 512.356C373.91 512.097 374.198 511.964 374.457 512.06C376.441 512.793 378.362 513.538 380.219 514.293C380.474 514.397 380.597 514.689 380.493 514.944C380.389 515.2 380.098 515.323 379.842 515.219C377.995 514.468 376.085 513.727 374.11 512.998C373.851 512.902 373.719 512.615 373.815 512.356ZM26.1443 512.64C26.4096 512.563 26.6868 512.716 26.7636 512.981C27.3272 514.929 27.902 516.81 28.4886 518.623C28.5736 518.886 28.4295 519.168 28.1668 519.253C27.9041 519.338 27.6222 519.194 27.5372 518.931C26.9471 517.107 26.3692 515.216 25.803 513.259C25.7262 512.994 25.879 512.717 26.1443 512.64ZM224.788 514.177C224.843 514.448 224.668 514.712 224.397 514.767C222.422 515.167 220.438 515.575 218.445 515.989C218.175 516.045 217.91 515.871 217.854 515.601C217.798 515.331 217.971 515.066 218.242 515.01C220.236 514.595 222.222 514.187 224.199 513.787C224.469 513.732 224.733 513.907 224.788 514.177ZM212.884 516.645C212.941 516.915 212.769 517.181 212.498 517.238C210.53 517.656 208.553 518.08 206.568 518.509C206.298 518.567 206.032 518.396 205.974 518.126C205.916 517.856 206.087 517.59 206.357 517.531C208.343 517.102 210.321 516.678 212.291 516.26C212.561 516.203 212.826 516.375 212.884 516.645ZM385.243 516.977C385.357 516.725 385.653 516.613 385.904 516.727C387.846 517.602 389.709 518.489 391.493 519.388C391.74 519.512 391.839 519.813 391.715 520.059C391.59 520.306 391.29 520.405 391.043 520.281C389.272 519.389 387.423 518.508 385.494 517.638C385.242 517.525 385.13 517.229 385.243 516.977ZM200.997 519.21C201.056 519.479 200.885 519.746 200.616 519.805C198.653 520.236 196.682 520.671 194.703 521.111C194.434 521.171 194.167 521.001 194.107 520.731C194.047 520.461 194.217 520.194 194.486 520.135C196.466 519.695 198.438 519.259 200.401 518.828C200.671 518.769 200.938 518.94 200.997 519.21ZM189.143 521.839C189.204 522.109 189.034 522.376 188.765 522.437C186.8 522.878 184.827 523.322 182.847 523.77C182.578 523.831 182.31 523.662 182.249 523.392C182.188 523.123 182.357 522.855 182.627 522.794C184.607 522.347 186.58 521.902 188.546 521.461C188.815 521.401 189.083 521.57 189.143 521.839ZM396.269 522.494C396.406 522.254 396.711 522.17 396.951 522.307C398.812 523.365 400.571 524.436 402.231 525.517C402.462 525.668 402.527 525.978 402.377 526.209C402.226 526.44 401.916 526.506 401.685 526.355C400.043 525.285 398.301 524.225 396.457 523.176C396.217 523.039 396.133 522.734 396.269 522.494ZM29.8282 524.067C30.0872 523.971 30.3748 524.104 30.4705 524.363C31.1844 526.295 31.9147 528.131 32.6622 529.866C32.7714 530.119 32.6544 530.414 32.4008 530.523C32.1472 530.632 31.8531 530.515 31.7438 530.261C30.9886 528.509 30.2518 526.657 29.5324 524.709C29.4367 524.45 29.5691 524.163 29.8282 524.067ZM177.297 524.516C177.359 524.785 177.19 525.053 176.921 525.114C174.953 525.561 172.978 526.011 170.997 526.464C170.728 526.525 170.46 526.357 170.398 526.088C170.337 525.818 170.505 525.55 170.774 525.489C172.756 525.036 174.731 524.586 176.699 524.139C176.968 524.078 177.236 524.246 177.297 524.516ZM165.455 527.217C165.516 527.486 165.348 527.755 165.079 527.816L159.149 529.172C158.879 529.234 158.611 529.066 158.55 528.796C158.488 528.527 158.656 528.259 158.926 528.198L164.856 526.841C165.125 526.78 165.393 526.948 165.455 527.217ZM406.601 529.182C406.769 528.962 407.083 528.92 407.302 529.088C409.031 530.407 410.619 531.739 412.071 533.08C412.274 533.267 412.287 533.583 412.099 533.786C411.912 533.989 411.596 534.002 411.393 533.814C409.966 532.496 408.401 531.184 406.695 529.883C406.476 529.715 406.434 529.401 406.601 529.182ZM153.611 529.925C153.673 530.194 153.504 530.462 153.235 530.524C152.077 530.788 150.916 531.053 149.753 531.318C148.936 531.504 148.118 531.691 147.299 531.877C147.03 531.938 146.762 531.77 146.7 531.501C146.639 531.231 146.808 530.963 147.077 530.902C149.062 530.45 151.04 529.999 153.013 529.549C153.282 529.487 153.55 529.656 153.611 529.925ZM141.764 532.621C141.825 532.891 141.657 533.158 141.387 533.219C139.413 533.666 137.434 534.113 135.449 534.56C135.179 534.621 134.912 534.451 134.851 534.182C134.79 533.913 134.96 533.645 135.229 533.584C137.214 533.138 139.193 532.691 141.166 532.244C141.436 532.183 141.703 532.352 141.764 532.621ZM129.911 535.289C129.971 535.559 129.801 535.826 129.531 535.886C127.557 536.327 125.577 536.767 123.592 537.206C123.322 537.265 123.055 537.095 122.995 536.826C122.936 536.556 123.106 536.289 123.376 536.229C125.36 535.791 127.34 535.351 129.314 534.91C129.583 534.85 129.85 535.02 129.911 535.289ZM34.5814 535.132C34.826 535.004 35.1282 535.098 35.2563 535.343C36.2009 537.146 37.1704 538.797 38.1659 540.288C38.3192 540.517 38.2573 540.828 38.0276 540.981C37.7979 541.135 37.4875 541.073 37.3342 540.843C36.3163 539.318 35.329 537.637 34.3704 535.807C34.2423 535.562 34.3368 535.26 34.5814 535.132ZM415.685 537.5C415.895 537.321 416.211 537.346 416.39 537.557C417.811 539.23 419.03 540.912 420.05 542.597C420.193 542.833 420.117 543.141 419.881 543.284C419.645 543.427 419.337 543.351 419.194 543.115C418.204 541.48 417.017 539.841 415.627 538.204C415.449 537.994 415.474 537.678 415.685 537.5ZM118.047 537.914C118.106 538.183 117.935 538.45 117.665 538.509C115.689 538.941 113.708 539.372 111.721 539.8C111.452 539.859 111.186 539.687 111.127 539.417C111.069 539.147 111.241 538.881 111.51 538.823C113.496 538.394 115.476 537.964 117.451 537.532C117.721 537.473 117.988 537.644 118.047 537.914ZM106.17 540.48C106.228 540.75 106.055 541.015 105.785 541.073C103.807 541.494 101.824 541.912 99.8359 542.329C99.5656 542.385 99.3006 542.212 99.244 541.942C99.1874 541.672 99.3606 541.407 99.6309 541.35C101.618 540.934 103.6 540.515 105.577 540.095C105.847 540.037 106.113 540.209 106.17 540.48ZM94.2782 542.973C94.3339 543.243 94.1597 543.508 93.8893 543.563C91.9082 543.971 89.9226 544.376 87.9326 544.778C87.6619 544.832 87.3982 544.657 87.3435 544.386C87.2889 544.116 87.4641 543.852 87.7347 543.797C89.7234 543.396 91.7078 542.991 93.6877 542.584C93.9582 542.528 94.2225 542.702 94.2782 542.973ZM41.2441 545.039C41.4422 544.847 41.7587 544.851 41.9512 545.049C43.435 546.576 44.9662 547.771 46.5471 548.625C46.7901 548.756 46.8807 549.059 46.7495 549.302C46.6183 549.545 46.315 549.636 46.072 549.505C44.3856 548.594 42.7748 547.332 41.234 545.746C41.0416 545.548 41.0461 545.232 41.2441 545.039ZM82.3687 545.38C82.4222 545.651 82.246 545.914 81.9751 545.968C79.9908 546.36 78.0023 546.748 76.0096 547.133C75.7384 547.185 75.4762 547.008 75.4238 546.737C75.3715 546.466 75.5488 546.204 75.82 546.151C77.8112 545.767 79.7983 545.378 81.7812 544.987C82.0522 544.933 82.3152 545.109 82.3687 545.38ZM70.4397 547.688C70.4908 547.959 70.3123 548.221 70.0409 548.272C68.053 548.646 66.0611 549.016 64.0653 549.382C63.7937 549.432 63.5331 549.252 63.4833 548.981C63.4335 548.709 63.6134 548.448 63.885 548.399C65.8791 548.033 67.8694 547.663 69.8558 547.289C70.1272 547.238 70.3886 547.416 70.4397 547.688ZM422.1 547.944C422.361 547.853 422.646 547.992 422.736 548.253C423.45 550.315 423.872 552.37 424.012 554.402C424.031 554.677 423.823 554.916 423.547 554.935C423.272 554.954 423.033 554.746 423.014 554.47C422.881 552.531 422.477 550.563 421.791 548.58C421.701 548.319 421.839 548.034 422.1 547.944ZM58.4897 549.883C58.5381 550.155 58.3569 550.414 58.085 550.463C57.0864 550.641 56.0869 550.817 55.0864 550.992C54.006 551.182 52.9453 551.247 51.9043 551.191C51.6285 551.176 51.4171 550.94 51.4321 550.664C51.4471 550.389 51.6827 550.177 51.9584 550.192C52.9204 550.244 53.905 550.184 54.9137 550.008C55.9133 549.832 56.912 549.656 57.9098 549.478C58.1816 549.43 58.4413 549.611 58.4897 549.883ZM423.159 560.072C423.428 560.132 423.598 560.399 423.538 560.669C423.089 562.679 422.357 564.646 421.355 566.557C421.227 566.801 420.925 566.896 420.68 566.767C420.436 566.639 420.341 566.337 420.47 566.092C421.433 564.255 422.133 562.37 422.562 560.451C422.622 560.181 422.889 560.011 423.159 560.072ZM417.795 571.039C418.007 571.216 418.036 571.531 417.859 571.743C416.582 573.277 415.118 574.759 413.473 576.183C413.265 576.364 412.949 576.341 412.768 576.133C412.587 575.924 412.61 575.608 412.819 575.427C414.426 574.036 415.852 572.592 417.091 571.103C417.268 570.891 417.583 570.862 417.795 571.039ZM408.64 579.255C408.793 579.485 408.731 579.795 408.501 579.948C406.845 581.051 405.066 582.108 403.17 583.114C402.926 583.244 402.623 583.151 402.494 582.907C402.364 582.663 402.457 582.36 402.701 582.231C404.57 581.239 406.32 580.199 407.947 579.116C408.177 578.963 408.487 579.025 408.64 579.255ZM397.83 585.131C397.939 585.385 397.822 585.679 397.568 585.788C396.628 586.192 395.665 586.585 394.68 586.966C393.756 587.324 392.827 587.675 391.891 588.019C391.632 588.114 391.345 587.981 391.249 587.722C391.154 587.463 391.287 587.176 391.546 587.08C392.476 586.738 393.401 586.39 394.319 586.034C395.293 585.656 396.245 585.268 397.174 584.869C397.427 584.76 397.721 584.878 397.83 585.131ZM386.529 589.369C386.616 589.631 386.474 589.914 386.212 590C384.314 590.628 382.395 591.23 380.457 591.806C380.192 591.885 379.914 591.734 379.835 591.469C379.756 591.205 379.907 590.926 380.172 590.847C382.101 590.274 384.01 589.675 385.898 589.051C386.16 588.964 386.443 589.106 386.529 589.369ZM375.034 592.822C375.105 593.089 374.946 593.363 374.68 593.434C372.743 593.951 370.79 594.445 368.82 594.915C368.552 594.98 368.282 594.814 368.218 594.545C368.153 594.277 368.319 594.007 368.588 593.943C370.549 593.474 372.494 592.983 374.422 592.468C374.689 592.397 374.963 592.556 375.034 592.822ZM141.304 595.198C143.187 595.179 145.207 595.198 147.353 595.252C147.629 595.258 147.847 595.488 147.84 595.764C147.833 596.04 147.604 596.258 147.328 596.251C145.191 596.198 143.184 596.179 141.314 596.198C141.038 596.201 140.812 595.98 140.809 595.703C140.806 595.427 141.028 595.201 141.304 595.198ZM363.362 595.643C363.42 595.913 363.248 596.179 362.978 596.236C361.016 596.655 359.04 597.053 357.051 597.431C356.78 597.482 356.518 597.304 356.467 597.033C356.415 596.762 356.594 596.5 356.865 596.449C358.846 596.072 360.815 595.676 362.769 595.258C363.039 595.201 363.305 595.373 363.362 595.643ZM135.801 595.898C135.823 596.173 135.617 596.413 135.341 596.434C133.056 596.61 131.112 596.884 129.529 597.27C129.261 597.336 128.99 597.171 128.925 596.903C128.859 596.635 129.024 596.364 129.292 596.299C130.946 595.895 132.949 595.615 135.265 595.437C135.54 595.416 135.78 595.622 135.801 595.898ZM152.923 595.95C152.936 595.674 153.17 595.461 153.446 595.473C155.349 595.562 157.33 595.669 159.384 595.791C159.66 595.808 159.87 596.045 159.853 596.32C159.837 596.596 159.6 596.806 159.324 596.79C157.274 596.667 155.298 596.56 153.399 596.472C153.124 596.46 152.91 596.226 152.923 595.95ZM164.833 596.642C164.852 596.367 165.09 596.159 165.366 596.177C167.342 596.313 169.375 596.46 171.46 596.615C171.736 596.636 171.942 596.876 171.922 597.151C171.901 597.427 171.661 597.633 171.386 597.613C169.302 597.457 167.271 597.311 165.297 597.175C165.022 597.156 164.814 596.918 164.833 596.642ZM176.813 597.525C176.835 597.25 177.075 597.044 177.35 597.065C179.326 597.219 181.342 597.379 183.396 597.543C183.672 597.564 183.877 597.805 183.855 598.081C183.833 598.356 183.592 598.561 183.317 598.539C181.263 598.376 179.247 598.216 177.273 598.062C176.997 598.041 176.792 597.8 176.813 597.525ZM351.566 597.91C351.612 598.182 351.428 598.44 351.156 598.486C349.183 598.818 347.198 599.132 345.204 599.427C344.93 599.468 344.676 599.279 344.636 599.006C344.595 598.733 344.784 598.479 345.057 598.438C347.045 598.143 349.023 597.831 350.99 597.5C351.262 597.454 351.52 597.638 351.566 597.91ZM188.799 598.476C188.821 598.201 189.062 597.996 189.337 598.018L191.401 598.183C192.707 598.287 194.027 598.393 195.358 598.498C195.634 598.52 195.839 598.761 195.817 599.036C195.795 599.312 195.554 599.517 195.279 599.495C193.242 599.334 191.234 599.173 189.257 599.015C188.982 598.992 188.777 598.751 188.799 598.476ZM200.779 599.427C200.8 599.151 201.041 598.946 201.316 598.967C203.298 599.121 205.305 599.275 207.334 599.428C207.609 599.449 207.816 599.689 207.795 599.965C207.774 600.24 207.534 600.446 207.259 600.426C205.229 600.273 203.221 600.118 201.238 599.964C200.963 599.943 200.757 599.702 200.779 599.427ZM339.683 599.693C339.719 599.967 339.525 600.217 339.251 600.253C337.27 600.51 335.28 600.749 333.283 600.973C333.009 601.004 332.761 600.807 332.731 600.532C332.7 600.258 332.897 600.01 333.172 599.98C335.163 599.756 337.147 599.517 339.123 599.261C339.397 599.226 339.648 599.419 339.683 599.693ZM124.652 599.302C124.903 599.416 125.015 599.712 124.901 599.964C124.394 601.083 124.733 602.672 126.474 604.942C126.642 605.161 126.601 605.475 126.382 605.643C126.163 605.811 125.849 605.77 125.681 605.551C123.897 603.226 123.238 601.211 123.99 599.551C124.104 599.3 124.4 599.188 124.652 599.302ZM212.758 600.331C212.778 600.056 213.017 599.849 213.292 599.869C215.283 600.013 217.292 600.154 219.32 600.293C219.595 600.312 219.803 600.551 219.784 600.826C219.766 601.102 219.527 601.31 219.251 601.291C217.223 601.152 215.212 601.01 213.22 600.866C212.945 600.846 212.738 600.607 212.758 600.331ZM327.743 601.051C327.769 601.326 327.568 601.57 327.293 601.596C325.305 601.787 323.312 601.962 321.313 602.124C321.038 602.146 320.797 601.941 320.775 601.666C320.752 601.391 320.957 601.149 321.233 601.127C323.226 600.966 325.215 600.791 327.197 600.601C327.472 600.574 327.716 600.776 327.743 601.051ZM224.742 601.156C224.76 600.88 224.998 600.671 225.273 600.689C227.272 600.817 229.286 600.942 231.314 601.062C231.589 601.079 231.8 601.316 231.783 601.591C231.767 601.867 231.53 602.077 231.255 602.061C229.225 601.94 227.209 601.815 225.209 601.687C224.934 601.669 224.725 601.431 224.742 601.156ZM236.737 601.872C236.752 601.596 236.987 601.385 237.263 601.4C239.259 601.507 241.266 601.61 243.284 601.707C243.56 601.72 243.773 601.955 243.759 602.231C243.746 602.506 243.512 602.719 243.236 602.706C241.216 602.609 239.207 602.506 237.209 602.398C236.934 602.383 236.722 602.148 236.737 601.872ZM315.771 602.034C315.789 602.31 315.581 602.548 315.305 602.566C313.311 602.699 311.313 602.819 309.312 602.926C309.037 602.94 308.801 602.729 308.786 602.453C308.772 602.177 308.983 601.942 309.259 601.927C311.255 601.82 313.249 601.701 315.239 601.569C315.514 601.55 315.752 601.759 315.771 602.034ZM248.742 602.454C248.754 602.178 248.987 601.964 249.262 601.975C251.255 602.058 253.256 602.135 255.265 602.205C255.541 602.214 255.757 602.446 255.747 602.722C255.738 602.998 255.506 603.214 255.23 603.204C253.219 603.134 251.215 603.058 249.221 602.975C248.945 602.963 248.731 602.73 248.742 602.454ZM303.785 602.688C303.797 602.964 303.582 603.197 303.306 603.208C301.304 603.29 299.3 603.36 297.296 603.419C297.02 603.427 296.79 603.21 296.782 602.934C296.774 602.658 296.991 602.427 297.267 602.419C299.267 602.361 301.267 602.291 303.265 602.209C303.541 602.198 303.774 602.412 303.785 602.688ZM260.755 602.877C260.763 602.601 260.992 602.383 261.269 602.391C263.26 602.445 265.258 602.492 267.261 602.531C267.537 602.536 267.756 602.764 267.751 603.04C267.746 603.316 267.518 603.536 267.241 603.53C265.236 603.492 263.235 603.445 261.241 603.391C260.965 603.383 260.748 603.153 260.755 602.877ZM291.779 603.052C291.784 603.328 291.564 603.556 291.288 603.561C289.284 603.598 287.281 603.624 285.28 603.64C285.003 603.642 284.778 603.42 284.776 603.144C284.773 602.868 284.995 602.642 285.272 602.64C287.27 602.624 289.27 602.598 291.27 602.562C291.546 602.557 291.774 602.776 291.779 603.052ZM272.771 603.116C272.773 602.84 273 602.618 273.276 602.621C275.269 602.643 277.265 602.655 279.265 602.659C279.541 602.659 279.765 602.883 279.764 603.16C279.764 603.436 279.54 603.659 279.263 603.659C277.261 603.655 275.261 603.643 273.265 603.621C272.989 603.618 272.768 603.392 272.771 603.116ZM129.819 609.199C130.004 608.993 130.32 608.976 130.525 609.16C131.846 610.344 133.4 611.623 135.197 613.004C135.416 613.173 135.458 613.487 135.289 613.706C135.121 613.924 134.807 613.966 134.588 613.797C132.775 612.404 131.202 611.109 129.858 609.905C129.652 609.72 129.635 609.404 129.819 609.199ZM139.148 616.539C139.308 616.313 139.62 616.26 139.845 616.419C141.371 617.497 143.019 618.627 144.792 619.81C145.022 619.963 145.084 620.274 144.93 620.503C144.777 620.733 144.467 620.795 144.237 620.642C142.457 619.454 140.802 618.32 139.268 617.236C139.043 617.076 138.989 616.764 139.148 616.539ZM149.176 623.273C149.325 623.041 149.634 622.973 149.866 623.122C151.451 624.135 153.115 625.183 154.862 626.266C155.097 626.412 155.169 626.72 155.023 626.955C154.878 627.19 154.57 627.262 154.335 627.116C152.585 626.031 150.916 624.98 149.328 623.964C149.095 623.815 149.027 623.506 149.176 623.273ZM159.328 629.59C159.471 629.354 159.778 629.278 160.014 629.421C160.475 629.7 160.94 629.98 161.409 630.263C161.854 630.53 162.303 630.8 162.757 631.071L162.243 631.929C161.309 631.37 160.394 630.82 159.497 630.277C159.26 630.134 159.185 629.826 159.328 629.59Z" fill="#3E4957"/>
</svg>
