<svg width="153" height="35" viewBox="0 0 153 35" fill="none" xmlns="http://www.w3.org/2000/svg">
<g id="logo default">
<g id="Vector">
<path d="M43.8357 18.0628L49.1681 23.3966L47.2484 25.3167L41.9161 19.9829L43.8357 18.0628Z" fill="#F5BF00"/>
<path fill-rule="evenodd" clip-rule="evenodd" d="M41.2028 22.0261C43.6184 22.0261 45.5767 20.0673 45.5767 17.6511C45.5767 15.2348 43.6184 13.2761 41.2028 13.2761C38.7873 13.2761 36.829 15.2348 36.829 17.6511C36.829 20.0673 38.7873 22.0261 41.2028 22.0261ZM41.2028 24.7416C45.1178 24.7416 48.2914 21.567 48.2914 17.6511C48.2914 13.7351 45.1178 10.5605 41.2028 10.5605C37.2879 10.5605 34.1143 13.7351 34.1143 17.6511C34.1143 21.567 37.2879 24.7416 41.2028 24.7416Z" fill="#F5BF00"/>
</g>
<path id="R" d="M59.8877 24.7412L57.1593 20.7992H56.9977H54.148V24.7412H50.874V10.5903H56.9977C58.2507 10.5903 59.3353 10.7992 60.2515 11.217C61.1811 11.6348 61.8952 12.2278 62.3937 12.996C62.8922 13.7642 63.1415 14.6739 63.1415 15.7251C63.1415 16.7763 62.8855 17.686 62.3735 18.4542C61.875 19.2089 61.1609 19.7884 60.2313 20.1927L63.4042 24.7412H59.8877ZM59.8271 15.7251C59.8271 14.9299 59.5711 14.3235 59.0591 13.9057C58.5471 13.4744 57.7993 13.2588 56.8158 13.2588H54.148V18.1914H56.8158C57.7993 18.1914 58.5471 17.9757 59.0591 17.5445C59.5711 17.1132 59.8271 16.5067 59.8271 15.7251Z" fill="#F5BF00"/>
<g id="REVIEW">
<path d="M77.3848 24.7417L74.6564 20.7997H74.4947H71.6451V24.7417H68.3711V10.5908H74.4947C75.7477 10.5908 76.8324 10.7997 77.7485 11.2175C78.6782 11.6353 79.3923 12.2283 79.8908 12.9965C80.3893 13.7647 80.6386 14.6744 80.6386 15.7256C80.6386 16.7768 80.3826 17.6865 79.8706 18.4547C79.3721 19.2094 78.658 19.7889 77.7283 20.1932L80.9013 24.7417H77.3848ZM77.3241 15.7256C77.3241 14.9304 77.0681 14.324 76.5561 13.9062C76.0442 13.4749 75.2964 13.2593 74.3128 13.2593H71.6451V18.1919H74.3128C75.2964 18.1919 76.0442 17.9762 76.5561 17.545C77.0681 17.1137 77.3241 16.5072 77.3241 15.7256Z" fill="white"/>
<path d="M94.1864 22.1137V24.7417H83.2326V10.5908H93.9237V13.2188H86.4864V16.2916H93.0546V18.8388H86.4864V22.1137H94.1864Z" fill="white"/>
<path d="M110.195 10.5908L104.072 24.7417H100.838L94.7347 10.5908H98.2715L102.576 20.6986L106.942 10.5908H110.195Z" fill="white"/>
<path d="M111.377 10.5908H114.651V24.7417H111.377V10.5908Z" fill="white"/>
<path d="M128.962 22.1137V24.7417H118.008V10.5908H128.699V13.2188H121.262V16.2916H127.83V18.8388H121.262V22.1137H128.962Z" fill="white"/>
<path d="M152.752 10.5908L148.124 24.7417H144.607L141.495 15.1595L138.281 24.7417H134.785L130.137 10.5908H133.532L136.725 20.5369L140.06 10.5908H143.091L146.325 20.6177L149.619 10.5908H152.752Z" fill="white"/>
</g>
<g id="ME">
<path d="M13.3738 24.7412L13.3536 16.2507L9.1903 23.2452H7.71497L3.57192 16.4326V24.7412H0.5V10.5903H3.20814L8.50316 19.3841L13.7173 10.5903H16.4053L16.4457 24.7412H13.3738Z" fill="white"/>
<path d="M30.756 22.1132V24.7412H19.8021V10.5903H30.4932V13.2183H23.0559V16.2911H29.6242V18.8383H23.0559V22.1132H30.756Z" fill="white"/>
</g>
<path id="Subtract" fill-rule="evenodd" clip-rule="evenodd" d="M60.6608 2.71552H63.9788V6.03448H66.6936V2.71552C66.6936 1.21578 65.4781 0 63.9788 0H60.6608V2.71552ZM66.6936 28.9655H63.9788V32.2845H60.6607V35H63.9788C65.4781 35 66.6936 33.7842 66.6936 32.2845V28.9655ZM37.736 35V32.2845H34.4179V28.9655H31.7031V32.2845C31.7031 33.7842 32.9186 35 34.4179 35H37.736ZM31.7031 6.03448H34.4179V2.71552H37.736L37.736 0H34.4179C32.9186 0 31.7031 1.21578 31.7031 2.71552V6.03448Z" fill="#F5BF00"/>
</g>
</svg>
