<svg width="111" height="35" viewBox="0 0 111 35" fill="none" xmlns="http://www.w3.org/2000/svg">
<g id="Group 53">
<g id="ME">
<path d="M13.719 24.7417L13.6988 16.2512L9.5452 23.2457H8.07328L3.93982 16.4331V24.7417H0.875V10.5908H3.57688L8.85965 19.3846L14.0618 10.5908H16.7435L16.7838 24.7417H13.719Z" fill="white"/>
<path d="M31.061 22.1137V24.7417H20.1325V10.5908H30.7989V13.2188H23.3788V16.2916H29.9318V18.8388H23.3788V22.1137H31.061Z" fill="white"/>
</g>
<g id="Vector">
<path d="M104.231 2.71552H107.541V6.03448H110.249V2.71552C110.249 1.21578 109.037 0 107.541 0H104.231V2.71552Z" fill="#16B054"/>
<path d="M38.0228 2.71552V0H34.7124C33.2165 0 32.0039 1.21578 32.0039 2.71552V6.03448H34.7124V2.71552H38.0228Z" fill="#16B054"/>
<path d="M34.7124 28.9655H32.0039V32.2845C32.0039 33.7842 33.2165 35 34.7124 35H38.0228V32.2845H34.7124V28.9655Z" fill="#16B054"/>
<path d="M104.231 32.2845V35H107.541C109.037 35 110.249 33.7842 110.249 32.2845V28.9655H107.541V32.2845H104.231Z" fill="#16B054"/>
<path d="M37.203 24.7414H40.4695V13.259H44.986V10.5905H32.6864V13.259H37.203V24.7414Z" fill="#16B054"/>
<path d="M46.7436 24.7414H50.01V10.5905H46.7436V24.7414Z" fill="#16B054"/>
<path d="M60.1143 24.984C62.5742 24.984 64.6107 24.0945 65.9415 22.457L63.8445 20.5163C62.8968 21.6282 61.7072 22.1942 60.2958 22.1942C57.6544 22.1942 55.7792 20.3344 55.7792 17.6659C55.7792 14.9975 57.6544 13.1377 60.2958 13.1377C61.7072 13.1377 62.8968 13.7037 63.8445 14.7953L65.9415 12.8547C64.6107 11.2374 62.5742 10.3479 60.1345 10.3479C55.7389 10.3479 52.4724 13.4005 52.4724 17.6659C52.4724 21.9314 55.7389 24.984 60.1143 24.984Z" fill="#16B054"/>
<path d="M77.8055 24.7414H81.6164L75.4263 16.8978L81.2736 10.5905H77.6442L71.3936 17.201V10.5905H68.1473V24.7414H71.3936V21.1632L73.289 19.1821L77.8055 24.7414Z" fill="#16B054"/>
<path d="M86.3192 22.1134V18.8384H92.8722V16.2913H86.3192V13.2185H93.7392V10.5905H83.0729V24.7414H94.0014V22.1134H86.3192Z" fill="#16B054"/>
<path d="M99.524 24.7414H102.79V13.259H107.307V10.5905H95.0075V13.259H99.524V24.7414Z" fill="#16B054"/>
</g>
</g>
</svg>
