<svg width="76" height="35" viewBox="0 0 76 35" fill="none" xmlns="http://www.w3.org/2000/svg">
<g id="old color">
<path id="Vector" d="M14.9029 25.9986L14.8687 16.3098L10.1441 24.2807H8.46659L3.74205 16.5159V25.9986H0.25V9.85059H3.33122L9.35672 19.8829L15.2795 9.85059H18.3265L18.3607 25.9986H14.9029Z" fill="white"/>
<path id="Vector_2" d="M34.623 23.0095V25.9986H22.1611V9.85059H34.3148V12.874H25.8586V16.3785H33.322V19.2989H25.8586V23.0438H34.623V23.0095Z" fill="white"/>
<g id="Group">
<path id="Vector_3" d="M67.8628 25.6544L64.8843 21.3253H64.7131H61.5976V25.6544H58.0371V10.1592H64.7131C66.0825 10.1592 67.2808 10.3997 68.2736 10.8463C69.2664 11.293 70.0539 11.9458 70.6016 12.8047C71.1494 13.6293 71.4233 14.6256 71.4233 15.7938C71.4233 16.9619 71.1494 17.924 70.6016 18.7829C70.0539 19.6075 69.2665 20.2603 68.2394 20.7069L71.6972 25.6887H67.8628V25.6544ZM66.9384 13.8011C66.3906 13.3201 65.569 13.1139 64.4734 13.1139H61.5634V18.508H64.4734C65.5347 18.508 66.3564 18.2675 66.9384 17.7865C67.4862 17.3055 67.7601 16.6527 67.7601 15.7938C67.7943 14.9349 67.5204 14.2477 66.9384 13.8011Z" fill="#9B27AF"/>
<path id="Vector_4" d="M55.9848 24.3149L53.9306 22.4939C54.0333 22.3565 54.136 22.1847 54.2387 22.0129C54.9577 20.8104 55.3343 19.4361 55.3343 17.89C55.3343 16.3783 54.9577 15.004 54.2387 13.7672C53.5198 12.5646 52.4927 11.6026 51.226 10.9155C49.9593 10.2283 48.5214 9.88477 46.9123 9.88477C45.3032 9.88477 43.8653 10.2283 42.5643 10.9155C41.2634 11.6026 40.2705 12.5646 39.5516 13.7672C38.8326 14.9697 38.4561 16.344 38.4561 17.89C38.4561 19.4018 38.8326 20.7761 39.5516 22.0129C40.2705 23.2154 41.2976 24.1774 42.5643 24.8646C43.8653 25.5517 45.3032 25.8953 46.9123 25.8953C48.5214 25.8953 49.9593 25.5517 51.226 24.8646C51.4314 24.7615 51.6368 24.6241 51.8422 24.4867L54.0676 26.445L55.9848 24.3149ZM46.8781 22.8719C45.9537 22.8719 45.132 22.6657 44.4131 22.2534C43.6941 21.8411 43.1121 21.2571 42.6671 20.5012C42.2562 19.7453 42.0508 18.8864 42.0508 17.9244C42.0508 16.9624 42.2562 16.1035 42.6671 15.3476C43.0779 14.5917 43.6599 14.0077 44.4131 13.5954C45.132 13.1831 45.9879 12.9769 46.8781 12.9769C47.8024 12.9769 48.6241 13.1831 49.343 13.5954C50.062 14.0077 50.644 14.5917 51.0891 15.3476C51.4999 16.1035 51.7053 16.9624 51.7053 17.9244C51.7053 18.749 51.5341 19.4705 51.2602 20.1233L49.48 18.5428L47.5628 20.7417L49.3088 22.2534C48.5556 22.6657 47.7682 22.8719 46.8781 22.8719Z" fill="#9B27AF"/>
</g>
<path id="Vector (Stroke)" fill-rule="evenodd" clip-rule="evenodd" d="M38.7335 2.78619H42.5312V0.0375977H38.7311C37.2215 0.0375977 35.9922 1.27132 35.9922 2.78619V6.63422H38.7311V2.78866C38.7314 2.78826 38.7318 2.78782 38.7322 2.78737C38.7327 2.78691 38.7331 2.78652 38.7335 2.78619Z" fill="#9B27AF"/>
<path id="Vector (Stroke)_2" fill-rule="evenodd" clip-rule="evenodd" d="M68.9609 0H72.7611C74.2706 0 75.5 1.23373 75.5 2.74859V6.59662H72.7611V2.75106C72.7608 2.75066 72.7604 2.75022 72.7599 2.74977C72.7595 2.74931 72.759 2.74892 72.7586 2.74859H68.9609V0Z" fill="#9B27AF"/>
<path id="Vector (Stroke)_3" fill-rule="evenodd" clip-rule="evenodd" d="M35.9922 32.2512V28.4375H38.7311V32.2487C38.7314 32.2491 38.7318 32.2495 38.7322 32.25C38.7327 32.2505 38.7331 32.2508 38.7335 32.2512H42.5312V34.9998H38.7311C37.2215 34.9998 35.9922 33.766 35.9922 32.2512Z" fill="#9B27AF"/>
<path id="Vector (Stroke)_4" fill-rule="evenodd" clip-rule="evenodd" d="M72.7611 32.2487V28.4375H75.5V32.2512C75.5 33.766 74.2706 34.9998 72.7611 34.9998H68.9609V32.2512H72.7586C72.759 32.2508 72.7595 32.2505 72.7599 32.25C72.7604 32.2495 72.7608 32.2491 72.7611 32.2487ZM72.7611 32.2512C72.7611 32.2513 72.7611 32.2513 72.7611 32.2514C72.7611 32.2514 72.7611 32.2514 72.7611 32.2514C72.7611 32.2514 72.7611 32.2513 72.7611 32.2512C72.7613 32.2512 72.7613 32.2512 72.7613 32.2512C72.7613 32.2512 72.7612 32.2512 72.7611 32.2512Z" fill="#9B27AF"/>
</g>
</svg>
