<svg width="77" height="35" viewBox="0 0 77 35" fill="none" xmlns="http://www.w3.org/2000/svg">
<g id="Group 1553">
<g id="ME">
<path d="M13.2649 25L13.2448 16.6L9.11679 23.52H7.65394L3.54593 16.78V25H0.5V11H3.18523L8.43546 19.7L13.6055 11H16.2707L16.3108 25H13.2649Z" fill="white"/>
<path d="M30.5 22.4V25H19.6388V11H30.2395V13.6H22.8651V16.64H29.3778V19.16H22.8651V22.4H30.5Z" fill="white"/>
</g>
<path id="Subtract" fill-rule="evenodd" clip-rule="evenodd" d="M70.5397 2.71552H73.8179V6.03448H76.5V2.71552C76.5 1.21578 75.2992 0 73.8179 0H70.5397V2.71552ZM37.4603 2.71552V0H34.1821C32.7008 0 31.5 1.21578 31.5 2.71552V6.03448H34.1821V2.71552H37.4603ZM34.1821 28.9655H31.5V32.2845C31.5 33.7842 32.7008 35 34.1821 35H37.4603V32.2845H34.1821V28.9655ZM70.5397 32.2845V35H73.8179C75.2992 35 76.5 33.7842 76.5 32.2845V28.9655H73.8179V32.2845H70.5397Z" fill="#2FC1A0"/>
<g id="ADS">
<path d="M42.506 21.6436H36.0377L34.8038 24.7514H31.5L37.7095 10.2486H40.8939L47.1233 24.7514H43.7399L42.506 21.6436ZM41.491 19.0953L39.2818 13.5428L37.0727 19.0953H41.491Z" fill="#2FC1A0"/>
<path d="M48.5687 10.2486H54.8977C56.4103 10.2486 57.7437 10.5525 58.898 11.1602C60.0656 11.7541 60.9679 12.5967 61.6048 13.6878C62.2549 14.779 62.58 16.0497 62.58 17.5C62.58 18.9503 62.2549 20.221 61.6048 21.3122C60.9679 22.4033 60.0656 23.2528 58.898 23.8605C57.7437 24.4544 56.4103 24.7514 54.8977 24.7514H48.5687V10.2486ZM54.7385 21.9959C56.1316 21.9959 57.2395 21.5953 58.0621 20.7942C58.898 19.9793 59.316 18.8812 59.316 17.5C59.316 16.1188 58.898 15.0276 58.0621 14.2265C57.2395 13.4116 56.1316 13.0041 54.7385 13.0041H51.7929V21.9959H54.7385Z" fill="#2FC1A0"/>
<path d="M69.589 25C68.4878 25 67.4197 24.8481 66.3847 24.5442C65.3631 24.2265 64.5405 23.8191 63.9168 23.3218L65.0115 20.7942C65.6085 21.25 66.3184 21.616 67.141 21.8923C67.9637 22.1685 68.7863 22.3066 69.6089 22.3066C70.5244 22.3066 71.2011 22.1685 71.639 21.8923C72.0768 21.6022 72.2957 21.2224 72.2957 20.7528C72.2957 20.4075 72.163 20.1243 71.8977 19.9033C71.6456 19.6685 71.3139 19.482 70.9026 19.3439C70.5045 19.2058 69.9605 19.0539 69.2706 18.8881C68.2091 18.6257 67.34 18.3633 66.6634 18.1008C65.9867 17.8384 65.4029 17.4171 64.912 16.837C64.4343 16.2569 64.1955 15.4834 64.1955 14.5166C64.1955 13.674 64.4144 12.9144 64.8523 12.2376C65.2901 11.547 65.9469 11.0014 66.8226 10.6008C67.7116 10.2003 68.7929 10 70.0667 10C70.9556 10 71.8247 10.1105 72.6739 10.3315C73.523 10.5525 74.2661 10.8702 74.9029 11.2845L73.9078 13.8329C72.6208 13.0732 71.3338 12.6934 70.0468 12.6934C69.1445 12.6934 68.4745 12.8453 68.0366 13.1492C67.612 13.453 67.3998 13.8536 67.3998 14.3508C67.3998 14.8481 67.6452 15.221 68.1361 15.4696C68.6403 15.7044 69.4033 15.9392 70.4249 16.174C71.4864 16.4365 72.3554 16.6989 73.0321 16.9613C73.7088 17.2238 74.286 17.6381 74.7636 18.2044C75.2545 18.7707 75.5 19.5373 75.5 20.5041C75.5 21.3329 75.2744 22.0925 74.8233 22.7831C74.3855 23.4599 73.7221 23.9986 72.8331 24.3992C71.9441 24.7997 70.8628 25 69.589 25Z" fill="#2FC1A0"/>
</g>
</g>
</svg>
