<svg width="116" height="35" viewBox="0 0 116 35" fill="none" xmlns="http://www.w3.org/2000/svg">
<g id="logo default">
<g id="Vector">
<path d="M44.1326 18.0628L49.5014 23.3966L47.5687 25.3167L42.1999 19.9829L44.1326 18.0628Z" fill="#4F52FF"/>
<path fill-rule="evenodd" clip-rule="evenodd" d="M41.4818 22.0261C43.9139 22.0261 45.8855 20.0673 45.8855 17.6511C45.8855 15.2348 43.9139 13.2761 41.4818 13.2761C39.0497 13.2761 37.0781 15.2348 37.0781 17.6511C37.0781 20.0673 39.0497 22.0261 41.4818 22.0261ZM41.4818 24.7416C45.4234 24.7416 48.6188 21.567 48.6188 17.6511C48.6188 13.7351 45.4234 10.5605 41.4818 10.5605C37.5401 10.5605 34.3447 13.7351 34.3447 17.6511C34.3447 21.567 37.5401 24.7416 41.4818 24.7416Z" fill="#4F52FF"/>
</g>
<path id="R" d="M60.294 24.7412L57.547 20.7992H57.3842H54.5151V24.7412H51.2188V10.5903H57.3842C58.6458 10.5903 59.7378 10.7992 60.6603 11.217C61.5963 11.6348 62.3153 12.2278 62.8172 12.996C63.3191 13.7642 63.5701 14.6739 63.5701 15.7251C63.5701 16.7763 63.3123 17.686 62.7968 18.4542C62.2949 19.2089 61.5759 19.7884 60.6399 20.1927L63.8346 24.7412H60.294ZM60.233 15.7251C60.233 14.9299 59.9752 14.3235 59.4597 13.9057C58.9443 13.4744 58.1914 13.2588 57.2011 13.2588H54.5151V18.1914H57.2011C58.1914 18.1914 58.9443 17.9757 59.4597 17.5445C59.9752 17.1132 60.233 16.5067 60.233 15.7251Z" fill="#4F52FF"/>
<g id="CITY">
<path d="M75.6504 24.9837C74.1989 24.9837 72.8831 24.6737 71.7029 24.0538C70.5363 23.4204 69.6138 22.5511 68.9355 21.446C68.2708 20.3274 67.9385 19.0673 67.9385 17.6657C67.9385 16.2641 68.2708 15.0107 68.9355 13.9056C69.6138 12.787 70.5363 11.9177 71.7029 11.2978C72.8831 10.6644 74.2057 10.3477 75.6708 10.3477C76.9052 10.3477 78.0176 10.5633 79.0079 10.9946C80.0117 11.4258 80.8528 12.0458 81.531 12.8544L79.4148 14.7951C78.4517 13.69 77.2579 13.1374 75.8335 13.1374C74.9518 13.1374 74.165 13.3328 73.4732 13.7236C72.7813 14.101 72.2387 14.6333 71.8453 15.3207C71.4655 16.008 71.2756 16.7897 71.2756 17.6657C71.2756 18.5417 71.4655 19.3233 71.8453 20.0107C72.2387 20.698 72.7813 21.2371 73.4732 21.6279C74.165 22.0053 74.9518 22.1939 75.8335 22.1939C77.2579 22.1939 78.4517 21.6347 79.4148 20.5161L81.531 22.4568C80.8528 23.2788 80.0117 23.9055 79.0079 24.3368C78.004 24.7681 76.8849 24.9837 75.6504 24.9837Z" fill="white"/>
<path d="M83.7571 10.5902H87.0535V24.7411H83.7571V10.5902Z" fill="white"/>
<path d="M93.3843 13.2587H88.8263V10.5902H101.239V13.2587H96.6807V24.7411H93.3843V13.2587Z" fill="white"/>
<path d="M109.591 19.7277V24.7411H106.295V19.6872L100.78 10.5902H104.28L108.085 16.8773L111.89 10.5902H115.126L109.591 19.7277Z" fill="white"/>
</g>
<g id="ME">
<path d="M13.4618 24.7412L13.4414 16.2507L9.24969 23.2452H7.76428L3.59291 16.4326V24.7412H0.5V10.5903H3.22665L8.55786 19.3841L13.8077 10.5903H16.514L16.5547 24.7412H13.4618Z" fill="white"/>
<path d="M30.9627 22.1132V24.7412H19.934V10.5903H30.6982V13.2183H23.2101V16.2911H29.8232V18.8383H23.2101V22.1132H30.9627Z" fill="white"/>
</g>
<g id="Subtract">
<path d="M61.0696 2.71552H64.4103V6.03448H67.1437V2.71552C67.1437 1.21578 65.9199 0 64.4103 0H61.0696V2.71552Z" fill="#4F52FF"/>
<path d="M67.1437 28.9655H64.4103V32.2845H61.0696V35H64.4103C65.9199 35 67.1437 33.7842 67.1437 32.2845V28.9655Z" fill="#4F52FF"/>
<path d="M37.9881 35V32.2845H34.6474V28.9655H31.9141V32.2845C31.9141 33.7842 33.1378 35 34.6474 35H37.9881Z" fill="#4F52FF"/>
<path d="M31.9141 6.03448H34.6474V2.71552H37.9881V0H34.6474C33.1378 0 31.9141 1.21578 31.9141 2.71552V6.03448Z" fill="#4F52FF"/>
</g>
</g>
</svg>
