<svg width="117" height="35" viewBox="0 0 117 35" fill="none" xmlns="http://www.w3.org/2000/svg">
<g id="Group 1552">
<g id="ME">
<path d="M12.8899 25L12.8698 16.6L8.74179 23.52H7.27894L3.17093 16.78V25H0.125V11H2.81023L8.06046 19.7L13.2305 11H15.8957L15.9358 25H12.8899Z" fill="white"/>
<path d="M30.125 22.4V25H19.2638V11H29.8645V13.6H22.4901V16.64H29.0028V19.16H22.4901V22.4H30.125Z" fill="white"/>
</g>
<g id="PROMO">
<path d="M39.2172 10.2486C40.4638 10.2486 41.5429 10.4627 42.4544 10.8909C43.3793 11.3191 44.0897 11.9268 44.5856 12.7141C45.0816 13.5014 45.3296 14.4337 45.3296 15.511C45.3296 16.5746 45.0816 17.5069 44.5856 18.308C44.0897 19.0953 43.3793 19.703 42.4544 20.1312C41.5429 20.5456 40.4638 20.7528 39.2172 20.7528H36.3822V24.7514H33.125V10.2486H39.2172ZM39.0363 18.018C40.0148 18.018 40.7587 17.8039 41.2681 17.3757C41.7774 16.9337 42.0321 16.3122 42.0321 15.511C42.0321 14.6961 41.7774 14.0746 41.2681 13.6464C40.7587 13.2044 40.0148 12.9834 39.0363 12.9834H36.3822V18.018H39.0363Z" fill="#EB5647"/>
<path d="M56.6225 24.7514L53.9081 20.7113H53.7472H50.9122V24.7514H47.655V10.2486H53.7472C54.9938 10.2486 56.0729 10.4627 56.9844 10.8909C57.9093 11.3191 58.6197 11.9268 59.1156 12.7141C59.6116 13.5014 59.8596 14.4337 59.8596 15.511C59.8596 16.5884 59.6049 17.5207 59.0955 18.308C58.5996 19.0815 57.8892 19.6754 56.9643 20.0898L60.121 24.7514H56.6225ZM56.5621 15.511C56.5621 14.6961 56.3075 14.0746 55.7981 13.6464C55.2887 13.2044 54.5448 12.9834 53.5663 12.9834H50.9122V18.0387H53.5663C54.5448 18.0387 55.2887 17.8177 55.7981 17.3757C56.3075 16.9337 56.5621 16.3122 56.5621 15.511Z" fill="#EB5647"/>
<path d="M69.2563 25C67.7953 25 66.4749 24.6754 65.2954 24.0262C64.1292 23.3771 63.211 22.4862 62.5408 21.3536C61.884 20.2072 61.5556 18.9227 61.5556 17.5C61.5556 16.0773 61.884 14.7997 62.5408 13.6671C63.211 12.5207 64.1292 11.6229 65.2954 10.9738C66.4749 10.3246 67.7953 10 69.2563 10C70.7174 10 72.031 10.3246 73.1972 10.9738C74.3634 11.6229 75.2815 12.5207 75.9518 13.6671C76.622 14.7997 76.9571 16.0773 76.9571 17.5C76.9571 18.9227 76.622 20.2072 75.9518 21.3536C75.2815 22.4862 74.3634 23.3771 73.1972 24.0262C72.031 24.6754 70.7174 25 69.2563 25ZM69.2563 22.1409C70.0874 22.1409 70.838 21.9475 71.5082 21.5608C72.1785 21.1602 72.7012 20.6077 73.0765 19.9033C73.4653 19.1989 73.6596 18.3978 73.6596 17.5C73.6596 16.6022 73.4653 15.8011 73.0765 15.0967C72.7012 14.3923 72.1785 13.8467 71.5082 13.4599C70.838 13.0594 70.0874 12.8591 69.2563 12.8591C68.4253 12.8591 67.6746 13.0594 67.0044 13.4599C66.3342 13.8467 65.8047 14.3923 65.416 15.0967C65.0407 15.8011 64.853 16.6022 64.853 17.5C64.853 18.3978 65.0407 19.1989 65.416 19.9033C65.8047 20.6077 66.3342 21.1602 67.0044 21.5608C67.6746 21.9475 68.4253 22.1409 69.2563 22.1409Z" fill="#EB5647"/>
<path d="M92.2128 24.7514L92.1927 16.0497L88.0508 23.2182H86.583L82.4612 16.2362V24.7514H79.405V10.2486H82.0993L87.3672 19.261L92.5546 10.2486H95.2288L95.269 24.7514H92.2128Z" fill="#EB5647"/>
<path d="M105.424 25C103.963 25 102.643 24.6754 101.463 24.0262C100.297 23.3771 99.3789 22.4862 98.7087 21.3536C98.0519 20.2072 97.7235 18.9227 97.7235 17.5C97.7235 16.0773 98.0519 14.7997 98.7087 13.6671C99.3789 12.5207 100.297 11.6229 101.463 10.9738C102.643 10.3246 103.963 10 105.424 10C106.885 10 108.199 10.3246 109.365 10.9738C110.531 11.6229 111.449 12.5207 112.12 13.6671C112.79 14.7997 113.125 16.0773 113.125 17.5C113.125 18.9227 112.79 20.2072 112.12 21.3536C111.449 22.4862 110.531 23.3771 109.365 24.0262C108.199 24.6754 106.885 25 105.424 25ZM105.424 22.1409C106.255 22.1409 107.006 21.9475 107.676 21.5608C108.346 21.1602 108.869 20.6077 109.244 19.9033C109.633 19.1989 109.828 18.3978 109.828 17.5C109.828 16.6022 109.633 15.8011 109.244 15.0967C108.869 14.3923 108.346 13.8467 107.676 13.4599C107.006 13.0594 106.255 12.8591 105.424 12.8591C104.593 12.8591 103.843 13.0594 103.172 13.4599C102.502 13.8467 101.973 14.3923 101.584 15.0967C101.209 15.8011 101.021 16.6022 101.021 17.5C101.021 18.3978 101.209 19.1989 101.584 19.9033C101.973 20.6077 102.502 21.1602 103.172 21.5608C103.843 21.9475 104.593 22.1409 105.424 22.1409Z" fill="#EB5647"/>
</g>
<path id="Subtract" fill-rule="evenodd" clip-rule="evenodd" d="M111.254 2.71552H113.933V6.03448H116.125V2.71552C116.125 1.21578 115.144 0 113.933 0H111.254V2.71552ZM35.9961 2.71552V0H33.317C32.1064 0 31.125 1.21578 31.125 2.71552V6.03448H33.317V2.71552H35.9961ZM33.317 28.9655H31.125V32.2845C31.125 33.7842 32.1064 35 33.317 35H35.9961V32.2845H33.317L33.317 28.9655ZM111.254 32.2845V35H113.933C115.144 35 116.125 33.7842 116.125 32.2845V28.9655H113.933V32.2845H111.254Z" fill="#EB5647"/>
</g>
</svg>
