<svg width="136" height="35" viewBox="0 0 136 35" fill="none" xmlns="http://www.w3.org/2000/svg">
<g id="logo default">
<g id="ME">
<path d="M13.4609 24.7358L13.441 16.2453L9.33038 23.2399H7.87371L3.78307 16.4272V24.7358H0.75V10.585H3.42389L8.65193 19.3787L13.8002 10.585H16.4541L16.494 24.7358H13.4609Z" fill="white"/>
<path d="M30.6233 22.1078V24.7358H19.808V10.585H30.3639V13.213H23.0206V16.2857H29.5058V18.8329H23.0206V22.1078H30.6233Z" fill="white"/>
</g>
<g id="Vector">
<path d="M44.068 17.3829C44.8662 17.639 45.4914 18.0703 45.9437 18.6767C46.396 19.2697 46.6221 20.0042 46.6221 20.8802C46.6221 22.1201 46.1432 23.077 45.1854 23.7508C44.2409 24.4112 42.8574 24.7414 41.0349 24.7414H33.8114V10.5905H40.6358C42.3386 10.5905 43.6423 10.9207 44.5469 11.5811C45.4648 12.2415 45.9237 13.1377 45.9237 14.2697C45.9237 14.9571 45.7575 15.5703 45.4249 16.1094C45.1056 16.6484 44.6533 17.073 44.068 17.3829ZM37.0241 13.0568V16.3924H40.2367C41.0349 16.3924 41.6402 16.2509 42.0526 15.9678C42.465 15.6848 42.6712 15.267 42.6712 14.7145C42.6712 14.1619 42.465 13.7509 42.0526 13.4813C41.6402 13.1983 41.0349 13.0568 40.2367 13.0568H37.0241ZM40.7955 22.2751C41.6469 22.2751 42.2854 22.1336 42.7111 21.8506C43.1501 21.5675 43.3696 21.1295 43.3696 20.5366C43.3696 19.3641 42.5115 18.7778 40.7955 18.7778H37.0241V22.2751H40.7955Z" fill="#EB5647"/>
<path d="M55.8341 24.984C54.384 24.984 53.0737 24.6673 51.903 24.0338C50.7457 23.4004 49.8344 22.5312 49.1693 21.426C48.5175 20.3074 48.1915 19.0541 48.1915 17.6659C48.1915 16.2778 48.5175 15.0312 49.1693 13.9261C49.8344 12.8075 50.7457 11.9315 51.903 11.2981C53.0737 10.6646 54.384 10.3479 55.8341 10.3479C57.2841 10.3479 58.5878 10.6646 59.7451 11.2981C60.9025 11.9315 61.8137 12.8075 62.4789 13.9261C63.144 15.0312 63.4766 16.2778 63.4766 17.6659C63.4766 19.0541 63.144 20.3074 62.4789 21.426C61.8137 22.5312 60.9025 23.4004 59.7451 24.0338C58.5878 24.6673 57.2841 24.984 55.8341 24.984ZM55.8341 22.1942C56.6588 22.1942 57.4038 22.0055 58.0689 21.6282C58.7341 21.2374 59.2529 20.6983 59.6254 20.011C60.0112 19.3236 60.2041 18.542 60.2041 17.6659C60.2041 16.7899 60.0112 16.0083 59.6254 15.321C59.2529 14.6336 58.7341 14.1013 58.0689 13.7239C57.4038 13.3331 56.6588 13.1377 55.8341 13.1377C55.0093 13.1377 54.2643 13.3331 53.5992 13.7239C52.934 14.1013 52.4086 14.6336 52.0228 15.321C51.6503 16.0083 51.464 16.7899 51.464 17.6659C51.464 18.542 51.6503 19.3236 52.0228 20.011C52.4086 20.6983 52.934 21.2374 53.5992 21.6282C54.2643 22.0055 55.0093 22.1942 55.8341 22.1942Z" fill="#EB5647"/>
<path d="M72.6706 24.984C71.2205 24.984 69.9102 24.6673 68.7396 24.0338C67.5822 23.4004 66.671 22.5312 66.0058 21.426C65.354 20.3074 65.028 19.0541 65.028 17.6659C65.028 16.2778 65.354 15.0312 66.0058 13.9261C66.671 12.8075 67.5822 11.9315 68.7396 11.2981C69.9102 10.6646 71.2205 10.3479 72.6706 10.3479C74.1206 10.3479 75.4243 10.6646 76.5816 11.2981C77.739 11.9315 78.6502 12.8075 79.3154 13.9261C79.9805 15.0312 80.3131 16.2778 80.3131 17.6659C80.3131 19.0541 79.9805 20.3074 79.3154 21.426C78.6502 22.5312 77.739 23.4004 76.5816 24.0338C75.4243 24.6673 74.1206 24.984 72.6706 24.984ZM72.6706 22.1942C73.4953 22.1942 74.2403 22.0055 74.9055 21.6282C75.5706 21.2374 76.0894 20.6983 76.4619 20.011C76.8477 19.3236 77.0406 18.542 77.0406 17.6659C77.0406 16.7899 76.8477 16.0083 76.4619 15.321C76.0894 14.6336 75.5706 14.1013 74.9055 13.7239C74.2403 13.3331 73.4953 13.1377 72.6706 13.1377C71.8458 13.1377 71.1008 13.3331 70.4357 13.7239C69.7705 14.1013 69.2451 14.6336 68.8593 15.321C68.4868 16.0083 68.3006 16.7899 68.3006 17.6659C68.3006 18.542 68.4868 19.3236 68.8593 20.011C69.2451 20.6983 69.7705 21.2374 70.4357 21.6282C71.1008 22.0055 71.8458 22.1942 72.6706 22.1942Z" fill="#EB5647"/>
<path d="M87.8309 19.1821L85.9552 21.1632V24.7414H82.7425V10.5905H85.9552V17.201L92.141 10.5905H95.7328L89.9461 16.8978L96.0721 24.7414H92.3007L87.8309 19.1821Z" fill="#EB5647"/>
<path d="M97.5135 10.5905H100.746V24.7414H97.5135V10.5905Z" fill="#EB5647"/>
<path d="M116.872 10.5905V24.7414H114.218L107.254 16.1498V24.7414H104.061V10.5905H106.735L113.679 19.1821V10.5905H116.872Z" fill="#EB5647"/>
<path d="M129.615 17.4436H132.568V23.1848C131.81 23.7643 130.932 24.209 129.934 24.519C128.936 24.829 127.932 24.984 126.921 24.984C125.471 24.984 124.167 24.674 123.01 24.0541C121.853 23.4206 120.941 22.5514 120.276 21.4463C119.624 20.3277 119.298 19.0676 119.298 17.6659C119.298 16.2643 119.624 15.011 120.276 13.9059C120.941 12.7873 121.859 11.918 123.03 11.2981C124.201 10.6646 125.518 10.3479 126.981 10.3479C128.205 10.3479 129.316 10.5568 130.313 10.9746C131.311 11.3924 132.149 11.9989 132.828 12.794L130.752 14.7347C129.755 13.67 128.551 13.1377 127.141 13.1377C126.249 13.1377 125.458 13.3264 124.766 13.7037C124.074 14.0811 123.535 14.6134 123.15 15.3007C122.764 15.9881 122.571 16.7765 122.571 17.6659C122.571 18.542 122.764 19.3236 123.15 20.011C123.535 20.6983 124.068 21.2374 124.746 21.6282C125.438 22.0055 126.223 22.1942 127.101 22.1942C128.032 22.1942 128.87 21.9921 129.615 21.5878V17.4436Z" fill="#EB5647"/>
<path fill-rule="evenodd" clip-rule="evenodd" d="M129.545 2.71552H132.821V6.03448H135.501V2.71552C135.501 1.21578 134.301 0 132.821 0H129.545V2.71552ZM37.5161 2.71552V0H34.24C32.7596 0 31.5596 1.21578 31.5596 2.71552V6.03448H34.24V2.71552H37.5161ZM34.24 28.9655H31.5596V32.2845C31.5596 33.7842 32.7596 35 34.24 35H37.5161V32.2845H34.24L34.24 28.9655ZM129.545 32.2845V35H132.821C134.301 35 135.501 33.7842 135.501 32.2845V28.9655H132.821V32.2845H129.545Z" fill="#EB5647"/>
</g>
</g>
</svg>
