<svg xmlns="http://www.w3.org/2000/svg">

<symbol id="main-logo" viewBox="0 0 121 40">
  <!-- width="121" height="40" -->
<path fill-rule="evenodd" clip-rule="evenodd" d="M43.0771 3.1936H47.5103V0H43.0742C41.3121 0 39.877 1.43347 39.877 3.1936V7.66464H43.0742V3.19647C43.0746 3.19601 43.075 3.19549 43.0756 3.19497C43.0761 3.19444 43.0766 3.19398 43.0771 3.1936Z" fill="#3A83F6"/>
<path fill-rule="evenodd" clip-rule="evenodd" d="M113.366 0H117.802C119.565 0 121 1.43347 121 3.1936V7.66464H117.802V3.19647C117.802 3.19601 117.802 3.19549 117.801 3.19497C117.8 3.19444 117.8 3.19398 117.799 3.1936H113.366V0Z" fill="#3A83F6"/>
<path fill-rule="evenodd" clip-rule="evenodd" d="M39.877 36.8064V32.3752H43.0742V36.8035C43.0746 36.804 43.075 36.8045 43.0756 36.805C43.0761 36.8055 43.0766 36.806 43.0771 36.8064H47.5103V40H43.0742C41.3121 40 39.877 38.5665 39.877 36.8064Z" fill="#3A83F6"/>
<path fill-rule="evenodd" clip-rule="evenodd" d="M117.802 36.8035V32.3752H121V36.8064C121 38.5665 119.565 40 117.802 40H113.366V36.8064H117.799C117.8 36.806 117.8 36.8055 117.801 36.805C117.802 36.8045 117.802 36.804 117.802 36.8035ZM117.802 36.8064C117.802 36.8065 117.802 36.8066 117.802 36.8066C117.802 36.8066 117.802 36.8066 117.802 36.8066C117.802 36.8066 117.802 36.8065 117.802 36.8064C117.803 36.8064 117.803 36.8064 117.803 36.8064C117.803 36.8064 117.803 36.8064 117.802 36.8064Z" fill="#3A83F6"/>
<path d="M15.9237 28.6108L15.8987 18.1236L10.7491 26.763H8.92426L3.79969 18.3483V28.6108H0V11.1321H3.34972L9.89918 21.9938L16.3486 11.1321H19.6734L19.7234 28.6108H15.9237Z" fill="#3E4857"/>
<path d="M37.4239 25.3647V28.6108H23.875V11.1321H37.0989V14.3781H27.8996V18.1735H36.024V21.3197H27.8996V25.3647H37.4239Z" fill="#3E4857"/>
<path d="M53.5773 11.1322C55.1272 11.1322 56.4687 11.3902 57.602 11.9062C58.7519 12.4222 59.6351 13.1547 60.2518 14.1035C60.8684 15.0524 61.1767 16.176 61.1767 17.4744C61.1767 18.7562 60.8684 19.8798 60.2518 20.8453C59.6351 21.7941 58.7519 22.5266 57.602 23.0426C56.4687 23.542 55.1272 23.7917 53.5773 23.7917H50.0526V28.6108H46.0029V11.1322H53.5773ZM53.3523 20.4957C54.5689 20.4957 55.4938 20.2377 56.1271 19.7217C56.7604 19.189 57.077 18.4399 57.077 17.4744C57.077 16.4923 56.7604 15.7432 56.1271 15.2272C55.4938 14.6945 54.5689 14.4281 53.3523 14.4281H50.0526V20.4957H53.3523Z" fill="#3A83F6"/>
<path d="M74.7131 24.8654H66.5887L65.0389 28.6108H60.8892L68.6886 11.1322H72.6882L80.5126 28.6108H76.2629L74.7131 24.8654ZM73.4382 21.7941L70.6634 15.1023L67.8886 21.7941H73.4382Z" fill="#3A83F6"/>
<path d="M93.908 19.5968H97.6077V26.6882C96.6577 27.404 95.5578 27.9533 94.3079 28.3362C93.058 28.719 91.7998 28.9105 90.5332 28.9105C88.7167 28.9105 87.0835 28.5276 85.6336 27.7619C84.1838 26.9795 83.0422 25.9058 82.2089 24.5408C81.3923 23.1591 80.984 21.6027 80.984 19.8715C80.984 18.1403 81.3923 16.5922 82.2089 15.2272C83.0422 13.8455 84.1921 12.7718 85.6586 12.0061C87.1252 11.2237 88.775 10.8325 90.6082 10.8325C92.1414 10.8325 93.533 11.0905 94.7829 11.6066C96.0328 12.1226 97.0827 12.8717 97.9326 13.8538L95.3328 16.2509C94.0829 14.9358 92.5747 14.2783 90.8082 14.2783C89.6916 14.2783 88.7001 14.5114 87.8335 14.9775C86.9669 15.4436 86.2919 16.1011 85.8086 16.9501C85.3253 17.799 85.0837 18.7728 85.0837 19.8715C85.0837 20.9535 85.3253 21.919 85.8086 22.768C86.2919 23.6169 86.9585 24.2828 87.8085 24.7655C88.6751 25.2316 89.6583 25.4647 90.7582 25.4647C91.9248 25.4647 92.9747 25.215 93.908 24.7156V19.5968Z" fill="#3A83F6"/>
<path d="M114.918 25.3648V28.6108H101.369V11.1322H114.593V14.3782H105.394V18.1736H113.518V21.3197H105.394V25.3648H114.918Z" fill="#3A83F6"/>
</symbol>

<symbol id="dashed" viewBox="0 0 392 66">
  <!-- width="392" height="66" -->
<path fill-rule="evenodd" clip-rule="evenodd" d="M5 5C5 4.44772 5.44772 4 6 4H11.0132C11.5655 4 12.0132 4.44772 12.0132 5C12.0132 5.55228 11.5655 6 11.0132 6H7V9.75C7 10.3023 6.55228 10.75 6 10.75C5.44772 10.75 5 10.3023 5 9.75V5ZM20.0395 5C20.0395 4.44772 20.4872 4 21.0395 4H31.0658C31.6181 4 32.0658 4.44772 32.0658 5C32.0658 5.55228 31.6181 6 31.0658 6H21.0395C20.4872 6 20.0395 5.55228 20.0395 5ZM40.0921 5C40.0921 4.44772 40.5398 4 41.0921 4H51.1184C51.6707 4 52.1184 4.44772 52.1184 5C52.1184 5.55228 51.6707 6 51.1184 6H41.0921C40.5398 6 40.0921 5.55228 40.0921 5ZM60.1448 5C60.1448 4.44772 60.5925 4 61.1448 4H71.1711C71.7233 4 72.1711 4.44772 72.1711 5C72.1711 5.55228 71.7233 6 71.1711 6H61.1448C60.5925 6 60.1448 5.55228 60.1448 5ZM80.1974 5C80.1974 4.44772 80.6451 4 81.1974 4H91.2237C91.7759 4 92.2237 4.44772 92.2237 5C92.2237 5.55228 91.7759 6 91.2237 6H81.1974C80.6451 6 80.1974 5.55228 80.1974 5ZM100.25 5C100.25 4.44772 100.698 4 101.25 4H111.276C111.829 4 112.276 4.44772 112.276 5C112.276 5.55228 111.829 6 111.276 6H101.25C100.698 6 100.25 5.55228 100.25 5ZM120.303 5C120.303 4.44772 120.75 4 121.303 4H131.329C131.881 4 132.329 4.44772 132.329 5C132.329 5.55228 131.881 6 131.329 6H121.303C120.75 6 120.303 5.55228 120.303 5ZM140.355 5C140.355 4.44772 140.803 4 141.355 4H151.382C151.934 4 152.382 4.44772 152.382 5C152.382 5.55228 151.934 6 151.382 6H141.355C140.803 6 140.355 5.55228 140.355 5ZM160.408 5C160.408 4.44772 160.856 4 161.408 4H171.434C171.986 4 172.434 4.44772 172.434 5C172.434 5.55228 171.986 6 171.434 6H161.408C160.856 6 160.408 5.55228 160.408 5ZM180.461 5C180.461 4.44772 180.908 4 181.461 4H191.487C192.039 4 192.487 4.44772 192.487 5C192.487 5.55228 192.039 6 191.487 6H181.461C180.908 6 180.461 5.55228 180.461 5ZM200.513 5C200.513 4.44772 200.961 4 201.513 4H211.539C212.092 4 212.539 4.44772 212.539 5C212.539 5.55228 212.092 6 211.539 6H201.513C200.961 6 200.513 5.55228 200.513 5ZM220.566 5C220.566 4.44772 221.014 4 221.566 4H231.592C232.144 4 232.592 4.44772 232.592 5C232.592 5.55228 232.144 6 231.592 6H221.566C221.014 6 220.566 5.55228 220.566 5ZM240.618 5C240.618 4.44772 241.066 4 241.618 4H251.645C252.197 4 252.645 4.44772 252.645 5C252.645 5.55228 252.197 6 251.645 6H241.618C241.066 6 240.618 5.55228 240.618 5ZM260.671 5C260.671 4.44772 261.119 4 261.671 4H271.697C272.25 4 272.697 4.44772 272.697 5C272.697 5.55228 272.25 6 271.697 6H261.671C261.119 6 260.671 5.55228 260.671 5ZM280.724 5C280.724 4.44772 281.171 4 281.724 4H291.75C292.302 4 292.75 4.44772 292.75 5C292.75 5.55228 292.302 6 291.75 6H281.724C281.171 6 280.724 5.55228 280.724 5ZM300.776 5C300.776 4.44772 301.224 4 301.776 4H311.803C312.355 4 312.803 4.44772 312.803 5C312.803 5.55228 312.355 6 311.803 6H301.776C301.224 6 300.776 5.55228 300.776 5ZM320.829 5C320.829 4.44772 321.277 4 321.829 4H331.855C332.408 4 332.855 4.44772 332.855 5C332.855 5.55228 332.408 6 331.855 6H321.829C321.277 6 320.829 5.55228 320.829 5ZM340.882 5C340.882 4.44772 341.329 4 341.882 4H351.908C352.46 4 352.908 4.44772 352.908 5C352.908 5.55228 352.46 6 351.908 6H341.882C341.329 6 340.882 5.55228 340.882 5ZM360.934 5C360.934 4.44772 361.382 4 361.934 4H371.961C372.513 4 372.961 4.44772 372.961 5C372.961 5.55228 372.513 6 371.961 6H361.934C361.382 6 360.934 5.55228 360.934 5ZM380.987 5C380.987 4.44772 381.435 4 381.987 4H387C387.552 4 388 4.44772 388 5V9.75C388 10.3023 387.552 10.75 387 10.75C386.448 10.75 386 10.3023 386 9.75V6H381.987C381.435 6 380.987 5.55228 380.987 5ZM6 18.25C6.55228 18.25 7 18.6977 7 19.25V28.75C7 29.3023 6.55228 29.75 6 29.75C5.44772 29.75 5 29.3023 5 28.75V19.25C5 18.6977 5.44772 18.25 6 18.25ZM387 18.25C387.552 18.25 388 18.6977 388 19.25V28.75C388 29.3023 387.552 29.75 387 29.75C386.448 29.75 386 29.3023 386 28.75V19.25C386 18.6977 386.448 18.25 387 18.25ZM6 37.25C6.55228 37.25 7 37.6977 7 38.25V47.75C7 48.3023 6.55228 48.75 6 48.75C5.44772 48.75 5 48.3023 5 47.75V38.25C5 37.6977 5.44772 37.25 6 37.25ZM387 37.25C387.552 37.25 388 37.6977 388 38.25V47.75C388 48.3023 387.552 48.75 387 48.75C386.448 48.75 386 48.3023 386 47.75V38.25C386 37.6977 386.448 37.25 387 37.25ZM6 56.25C6.55228 56.25 7 56.6977 7 57.25V61H11.0132C11.5654 61 12.0132 61.4477 12.0132 62C12.0132 62.5523 11.5654 63 11.0132 63H6C5.44772 63 5 62.5523 5 62V57.25C5 56.6977 5.44772 56.25 6 56.25ZM387 56.25C387.552 56.25 388 56.6977 388 57.25V62C388 62.5523 387.552 63 387 63H381.987C381.435 63 380.987 62.5523 380.987 62C380.987 61.4477 381.435 61 381.987 61H386V57.25C386 56.6977 386.448 56.25 387 56.25ZM20.0395 62C20.0395 61.4477 20.4872 61 21.0395 61H31.0658C31.6181 61 32.0658 61.4477 32.0658 62C32.0658 62.5523 31.6181 63 31.0658 63H21.0395C20.4872 63 20.0395 62.5523 20.0395 62ZM40.0921 62C40.0921 61.4477 40.5398 61 41.0921 61H51.1184C51.6707 61 52.1184 61.4477 52.1184 62C52.1184 62.5523 51.6707 63 51.1184 63H41.0921C40.5398 63 40.0921 62.5523 40.0921 62ZM60.1447 62C60.1447 61.4477 60.5924 61 61.1447 61H71.171C71.7233 61 72.171 61.4477 72.171 62C72.171 62.5523 71.7233 63 71.171 63H61.1447C60.5924 63 60.1447 62.5523 60.1447 62ZM80.1974 62C80.1974 61.4477 80.6451 61 81.1974 61H91.2237C91.776 61 92.2237 61.4477 92.2237 62C92.2237 62.5523 91.776 63 91.2237 63H81.1974C80.6451 63 80.1974 62.5523 80.1974 62ZM100.25 62C100.25 61.4477 100.698 61 101.25 61H111.276C111.829 61 112.276 61.4477 112.276 62C112.276 62.5523 111.829 63 111.276 63H101.25C100.698 63 100.25 62.5523 100.25 62ZM120.303 62C120.303 61.4477 120.75 61 121.303 61H131.329C131.881 61 132.329 61.4477 132.329 62C132.329 62.5523 131.881 63 131.329 63H121.303C120.75 63 120.303 62.5523 120.303 62ZM140.355 62C140.355 61.4477 140.803 61 141.355 61H151.382C151.934 61 152.382 61.4477 152.382 62C152.382 62.5523 151.934 63 151.382 63H141.355C140.803 63 140.355 62.5523 140.355 62ZM160.408 62C160.408 61.4477 160.856 61 161.408 61H171.434C171.986 61 172.434 61.4477 172.434 62C172.434 62.5523 171.986 63 171.434 63H161.408C160.856 63 160.408 62.5523 160.408 62ZM180.461 62C180.461 61.4477 180.908 61 181.461 61H191.487C192.039 61 192.487 61.4477 192.487 62C192.487 62.5523 192.039 63 191.487 63H181.461C180.908 63 180.461 62.5523 180.461 62ZM200.513 62C200.513 61.4477 200.961 61 201.513 61H211.539C212.092 61 212.539 61.4477 212.539 62C212.539 62.5523 212.092 63 211.539 63H201.513C200.961 63 200.513 62.5523 200.513 62ZM220.566 62C220.566 61.4477 221.014 61 221.566 61H231.592C232.144 61 232.592 61.4477 232.592 62C232.592 62.5523 232.144 63 231.592 63H221.566C221.014 63 220.566 62.5523 220.566 62ZM240.618 62C240.618 61.4477 241.066 61 241.618 61H251.645C252.197 61 252.645 61.4477 252.645 62C252.645 62.5523 252.197 63 251.645 63H241.618C241.066 63 240.618 62.5523 240.618 62ZM260.671 62C260.671 61.4477 261.119 61 261.671 61H271.697C272.25 61 272.697 61.4477 272.697 62C272.697 62.5523 272.25 63 271.697 63H261.671C261.119 63 260.671 62.5523 260.671 62ZM280.724 62C280.724 61.4477 281.171 61 281.724 61H291.75C292.302 61 292.75 61.4477 292.75 62C292.75 62.5523 292.302 63 291.75 63H281.724C281.171 63 280.724 62.5523 280.724 62ZM300.776 62C300.776 61.4477 301.224 61 301.776 61H311.803C312.355 61 312.803 61.4477 312.803 62C312.803 62.5523 312.355 63 311.803 63H301.776C301.224 63 300.776 62.5523 300.776 62ZM320.829 62C320.829 61.4477 321.277 61 321.829 61H331.855C332.408 61 332.855 61.4477 332.855 62C332.855 62.5523 332.408 63 331.855 63H321.829C321.277 63 320.829 62.5523 320.829 62ZM340.882 62C340.882 61.4477 341.329 61 341.882 61H351.908C352.46 61 352.908 61.4477 352.908 62C352.908 62.5523 352.46 63 351.908 63H341.882C341.329 63 340.882 62.5523 340.882 62ZM360.934 62C360.934 61.4477 361.382 61 361.934 61H371.96C372.513 61 372.96 61.4477 372.96 62C372.96 62.5523 372.513 63 371.96 63H361.934C361.382 63 360.934 62.5523 360.934 62Z" fill="#3A83F6"/>
<path d="M380 2C380 0.895431 380.895 0 382 0H390C391.105 0 392 0.895431 392 2V10C392 11.1046 391.105 12 390 12H382C380.895 12 380 11.1046 380 10V2Z" fill="#F3F6FD"/>
<path fill-rule="evenodd" clip-rule="evenodd" d="M390 2H382L382 10H390V2ZM382 0C380.895 0 380 0.895431 380 2V10C380 11.1046 380.895 12 382 12H390C391.105 12 392 11.1046 392 10V2C392 0.895431 391.105 0 390 0H382Z" fill="#3A83F6"/>
<path d="M380 56C380 54.8954 380.895 54 382 54H390C391.105 54 392 54.8954 392 56V64C392 65.1046 391.105 66 390 66H382C380.895 66 380 65.1046 380 64V56Z" fill="#F3F6FD"/>
<path fill-rule="evenodd" clip-rule="evenodd" d="M390 56H382L382 64H390V56ZM382 54C380.895 54 380 54.8954 380 56V64C380 65.1046 380.895 66 382 66H390C391.105 66 392 65.1046 392 64V56C392 54.8954 391.105 54 390 54H382Z" fill="#3A83F6"/>
<path d="M0 2C0 0.895431 0.895431 0 2 0H10C11.1046 0 12 0.895431 12 2V10C12 11.1046 11.1046 12 10 12H2C0.895431 12 0 11.1046 0 10V2Z" fill="#F3F6FD"/>
<path fill-rule="evenodd" clip-rule="evenodd" d="M10 2H2L2 10H10V2ZM2 0C0.895431 0 0 0.895431 0 2V10C0 11.1046 0.895431 12 2 12H10C11.1046 12 12 11.1046 12 10V2C12 0.895431 11.1046 0 10 0H2Z" fill="#3A83F6"/>
<path d="M0 56C0 54.8954 0.895431 54 2 54H10C11.1046 54 12 54.8954 12 56V64C12 65.1046 11.1046 66 10 66H2C0.895431 66 0 65.1046 0 64V56Z" fill="#F3F6FD"/>
<path fill-rule="evenodd" clip-rule="evenodd" d="M10 56H2L2 64H10V56ZM2 54C0.895431 54 0 54.8954 0 56V64C0 65.1046 0.895431 66 2 66H10C11.1046 66 12 65.1046 12 64V56C12 54.8954 11.1046 54 10 54H2Z" fill="#3A83F6"/>
</symbol>

<symbol id="check-box" viewBox="0 0 18 18">
  <!-- width="18" height="18" -->
<path d="M18 9C18 13.9706 13.9706 18 9 18C4.02944 18 0 13.9706 0 9C0 4.02944 4.02944 0 9 0C13.9706 0 18 4.02944 18 9ZM13.5341 5.59088C13.2046 5.26137 12.6704 5.26137 12.3409 5.59088C12.3329 5.59884 12.3254 5.60726 12.3185 5.61612L8.41207 10.5938L6.05686 8.23863C5.72736 7.90912 5.19312 7.90912 4.86362 8.23863C4.53411 8.56813 4.53411 9.10236 4.86362 9.43187L7.84087 12.4091C8.17038 12.7386 8.70461 12.7386 9.03411 12.4091C9.04145 12.4018 9.04838 12.394 9.05486 12.3859L13.5461 6.77191C13.8636 6.44154 13.8596 5.91634 13.5341 5.59088Z" fill="#3A83F6"/>
</symbol>

<symbol id="x-check-box" viewBox="0 0 18 18">
  <!-- width="18" height="18" -->
<g id="&#240;&#159;&#147;&#141;Icons/x-circle">
<g id="Vector">
<path d="M9 16.875C4.65076 16.875 1.125 13.3492 1.125 9C1.125 4.65076 4.65076 1.125 9 1.125C13.3492 1.125 16.875 4.65076 16.875 9C16.875 13.3492 13.3492 16.875 9 16.875ZM9 18C13.9706 18 18 13.9706 18 9C18 4.02944 13.9706 0 9 0C4.02944 0 0 4.02944 0 9C0 13.9706 4.02944 18 9 18Z" fill="#3E4957"/>
<path d="M5.22725 5.22725C5.44692 5.00758 5.80308 5.00758 6.02275 5.22725L9 8.2045L11.9773 5.22725C12.1969 5.00758 12.5531 5.00758 12.7727 5.22725C12.9924 5.44692 12.9924 5.80308 12.7727 6.02275L9.7955 9L12.7727 11.9773C12.9924 12.1969 12.9924 12.5531 12.7727 12.7727C12.5531 12.9924 12.1969 12.9924 11.9773 12.7727L9 9.7955L6.02275 12.7727C5.80308 12.9924 5.44692 12.9924 5.22725 12.7727C5.00758 12.5531 5.00758 12.1969 5.22725 11.9773L8.2045 9L5.22725 6.02275C5.00758 5.80308 5.00758 5.44692 5.22725 5.22725Z" fill="#3E4957"/>
</g>
</g>
</symbol>

<symbol id="x-white-check" viewBox="0 0 18 18">
  <!-- width="18" height="18" -->
<path d="M9 16.875C4.65076 16.875 1.125 13.3492 1.125 9C1.125 4.65076 4.65076 1.125 9 1.125C13.3492 1.125 16.875 4.65076 16.875 9C16.875 13.3492 13.3492 16.875 9 16.875ZM9 18C13.9706 18 18 13.9706 18 9C18 4.02944 13.9706 0 9 0C4.02944 0 0 4.02944 0 9C0 13.9706 4.02944 18 9 18Z" fill="#DDE0E4"/>
<path d="M5.22725 5.22725C5.44692 5.00758 5.80308 5.00758 6.02275 5.22725L9 8.2045L11.9773 5.22725C12.1969 5.00758 12.5531 5.00758 12.7727 5.22725C12.9924 5.44692 12.9924 5.80308 12.7727 6.02275L9.7955 9L12.7727 11.9773C12.9924 12.1969 12.9924 12.5531 12.7727 12.7727C12.5531 12.9924 12.1969 12.9924 11.9773 12.7727L9 9.7955L6.02275 12.7727C5.80308 12.9924 5.44692 12.9924 5.22725 12.7727C5.00758 12.5531 5.00758 12.1969 5.22725 11.9773L8.2045 9L5.22725 6.02275C5.00758 5.80308 5.00758 5.44692 5.22725 5.22725Z" fill="#DDE0E4"/>
</symbol>

<symbol id="white-check" viewBox="0 0 18 18">
  <!-- width="19" height="18" -->
<path d="M9.5 16.875C5.15076 16.875 1.625 13.3492 1.625 9C1.625 4.65076 5.15076 1.125 9.5 1.125C13.8492 1.125 17.375 4.65076 17.375 9C17.375 13.3492 13.8492 16.875 9.5 16.875ZM9.5 18C14.4706 18 18.5 13.9706 18.5 9C18.5 4.02944 14.4706 0 9.5 0C4.52944 0 0.5 4.02944 0.5 9C0.5 13.9706 4.52944 18 9.5 18Z" fill="white"/>
<path d="M12.8409 5.59088C12.8329 5.59884 12.8254 5.60726 12.8185 5.61612L8.91207 10.5938L6.55686 8.23863C6.22736 7.90912 5.69312 7.90912 5.36362 8.23863C5.03411 8.56813 5.03411 9.10236 5.36362 9.43187L8.34087 12.4091C8.67038 12.7386 9.20461 12.7386 9.53411 12.4091C9.54145 12.4018 9.54838 12.394 9.55486 12.3859L14.0461 6.77191C14.3636 6.44154 14.3596 5.91634 14.0341 5.59088C13.7046 5.26137 13.1704 5.26137 12.8409 5.59088Z" fill="white"/>
</symbol>


<symbol id="achieve-1"  viewBox="0 0 28 28">
  <!-- width="28" height="28" -->
<path d="M22.75 11.375C22.75 10.8918 22.3582 10.5 21.875 10.5H13.125C12.6418 10.5 12.25 10.8918 12.25 11.375C12.25 11.8582 12.6418 12.25 13.125 12.25H21.875C22.3582 12.25 22.75 11.8582 22.75 11.375Z" fill="#3E4957"/>
<path d="M22.75 16.625C22.75 16.1418 22.3582 15.75 21.875 15.75H13.125C12.6418 15.75 12.25 16.1418 12.25 16.625C12.25 17.1082 12.6418 17.5 13.125 17.5H21.875C22.3582 17.5 22.75 17.1082 22.75 16.625Z" fill="#3E4957"/>
<path d="M21.875 21C22.3582 21 22.75 21.3918 22.75 21.875C22.75 22.3582 22.3582 22.75 21.875 22.75H13.125C12.6418 22.75 12.25 22.3582 12.25 21.875C12.25 21.3918 12.6418 21 13.125 21H21.875Z" fill="#3E4957"/>
<path d="M24.5 0C26.433 0 28 1.567 28 3.5V24.5C28 26.433 26.433 28 24.5 28H3.5C1.567 28 0 26.433 0 24.5V3.5C0 1.567 1.567 0 3.5 0H24.5ZM3.5 1.75C2.5335 1.75 1.75 2.5335 1.75 3.5V5.25H26.25V3.5C26.25 2.5335 25.4665 1.75 24.5 1.75H3.5ZM1.75 7V24.5C1.75 25.4665 2.5335 26.25 3.5 26.25H7V7H1.75ZM8.75 7V26.25H24.5C25.4665 26.25 26.25 25.4665 26.25 24.5V7H8.75Z" fill="#3E4957"/>
</symbol>

<symbol id="achieve-2"  viewBox="0 0 28 28">
  <g id="&#240;&#159;&#147;&#141;Icons/collection">
<g id="Union">
<path d="M4.375 6.125C3.89175 6.125 3.5 5.73325 3.5 5.25C3.5 4.76675 3.89175 4.375 4.375 4.375H23.625C24.1082 4.375 24.5 4.76675 24.5 5.25C24.5 5.73325 24.1082 6.125 23.625 6.125H4.375Z" fill="#3E4957"/>
<path d="M7.875 2.625C7.39175 2.625 7 2.23325 7 1.75C7 1.26675 7.39175 0.875 7.875 0.875H20.125C20.6082 0.875 21 1.26675 21 1.75C21 2.23325 20.6082 2.625 20.125 2.625H7.875Z" fill="#3E4957"/>
<path d="M0 22.75C0 24.1997 1.17525 25.375 2.625 25.375H25.375C26.8247 25.375 28 24.1997 28 22.75V10.5C28 9.05025 26.8247 7.875 25.375 7.875H2.625C1.17525 7.875 0 9.05025 0 10.5V22.75ZM2.625 23.625C2.14175 23.625 1.75 23.2332 1.75 22.75V10.5C1.75 10.0168 2.14175 9.625 2.625 9.625H25.375C25.8582 9.625 26.25 10.0168 26.25 10.5V22.75C26.25 23.2332 25.8582 23.625 25.375 23.625H2.625Z" fill="#3E4957"/>
</g>
</g>
</symbol>

<symbol id="achieve-3"  viewBox="0 0 28 28">
  <g id="file-earmark-frame">
<path id="Union" d="M21.5 7.875V24.5C21.5 26.433 19.933 28 18 28H4C2.067 28 0.5 26.433 0.5 24.5V3.5C0.5 1.567 2.067 0 4 0H13.625L21.5 7.875ZM16.25 7.875C14.8003 7.875 13.625 6.69975 13.625 5.25V1.75H4C3.0335 1.75 2.25 2.5335 2.25 3.5V24.5C2.25 25.4665 3.0335 26.25 4 26.25H18C18.9665 26.25 19.75 25.4665 19.75 24.5V7.875H16.25Z" fill="#3E4957"/>
</g>
</symbol>


<symbol id="achieve-4"  viewBox="0 0 28 28">
  <g id="&#240;&#159;&#147;&#141;Icons/people">
<path id="Path 7 (Stroke)" d="M26.25 24.5C26.25 24.5 28 24.5 28 22.75C28 21 26.25 15.75 19.25 15.75C12.25 15.75 10.5 21 10.5 22.75C10.5 24.5 12.25 24.5 12.25 24.5H26.25ZM12.2891 22.75C12.283 22.7493 12.2746 22.7482 12.2643 22.7465C12.2594 22.7457 12.2547 22.7448 12.25 22.7439C12.2526 22.2818 12.542 20.9421 13.5787 19.7326C14.5483 18.6014 16.2447 17.5 19.25 17.5C22.2553 17.5 23.9516 18.6014 24.9213 19.7326C25.958 20.9421 26.2474 22.2818 26.25 22.7439C26.2453 22.7448 26.2406 22.7457 26.2357 22.7465C26.2254 22.7482 26.217 22.7493 26.2109 22.75H12.2891Z" fill="#3E4957"/>
<path id="Oval (Stroke)" d="M19.25 12.25C21.183 12.25 22.75 10.683 22.75 8.75C22.75 6.817 21.183 5.25 19.25 5.25C17.317 5.25 15.75 6.817 15.75 8.75C15.75 10.683 17.317 12.25 19.25 12.25ZM24.5 8.75C24.5 11.6495 22.1495 14 19.25 14C16.3505 14 14 11.6495 14 8.75C14 5.85051 16.3505 3.5 19.25 3.5C22.1495 3.5 24.5 5.85051 24.5 8.75Z" fill="#3E4957"/>
<path id="Path (Stroke)" d="M12.1379 16.2399C11.4942 16.0341 10.7792 15.8844 9.98599 15.8078C9.59341 15.77 9.18169 15.75 8.75 15.75C1.75 15.75 0 21 0 22.75C0 23.9167 0.583333 24.5 1.75 24.5H9.12863C8.88223 24.0029 8.75 23.4135 8.75 22.75C8.75 20.982 9.41018 19.1765 10.6572 17.6683C11.0832 17.1531 11.5778 16.6725 12.1379 16.2399ZM8.61007 17.5008C7.56447 19.0988 7 20.9207 7 22.75H1.75C1.75 22.2937 2.03743 20.9475 3.0787 19.7326C4.0332 18.6191 5.69186 17.5344 8.61007 17.5008Z" fill="#3E4957"/>
<path id="Oval (Stroke)_2" d="M2.625 9.625C2.625 6.72551 4.97551 4.375 7.875 4.375C10.7745 4.375 13.125 6.72551 13.125 9.625C13.125 12.5245 10.7745 14.875 7.875 14.875C4.97551 14.875 2.625 12.5245 2.625 9.625ZM7.875 6.125C5.942 6.125 4.375 7.692 4.375 9.625C4.375 11.558 5.942 13.125 7.875 13.125C9.808 13.125 11.375 11.558 11.375 9.625C11.375 7.692 9.808 6.125 7.875 6.125Z" fill="#3E4957"/>
</g>
</symbol>

<symbol id="instagram" viewBox="0 0 16 16">
<path id="instagram_2" d="M8.00075 0C5.82806 0 5.55539 0.00950025 4.70205 0.048334C3.85037 0.0873344 3.26903 0.222169 2.76036 0.420004C2.23419 0.62434 1.78785 0.897676 1.34318 1.34251C0.898176 1.78719 0.62484 2.23352 0.419838 2.75953C0.221502 3.26837 0.0865008 3.84987 0.0481671 4.70122C0.01 5.55456 0 5.82739 0 8.00008C0 10.1728 0.00966692 10.4446 0.048334 11.298C0.0875011 12.1496 0.222336 12.731 0.420004 13.2396C0.624507 13.7658 0.897843 14.2121 1.34268 14.6568C1.78719 15.1018 2.23352 15.3758 2.75936 15.5802C3.26837 15.778 3.84987 15.9128 4.70138 15.9518C5.55472 15.9907 5.82723 16.0002 7.99975 16.0002C10.1726 16.0002 10.4444 15.9907 11.2978 15.9518C12.1495 15.9128 12.7315 15.778 13.2405 15.5802C13.7665 15.3758 14.2121 15.1018 14.6567 14.6568C15.1017 14.2121 15.375 13.7658 15.58 13.2398C15.7767 12.731 15.9117 12.1495 15.9517 11.2981C15.99 10.4448 16 10.1728 16 8.00008C16 5.82739 15.99 5.55472 15.9517 4.70138C15.9117 3.84971 15.7767 3.26837 15.58 2.7597C15.375 2.23352 15.1017 1.78719 14.6567 1.34251C14.2116 0.897509 13.7666 0.624173 13.24 0.420004C12.73 0.222169 12.1483 0.0873344 11.2966 0.048334C10.4433 0.00950025 10.1716 0 7.99825 0H8.00075ZM7.28308 1.44168C7.49608 1.44135 7.73375 1.44168 8.00075 1.44168C10.1368 1.44168 10.3899 1.44935 11.2335 1.48768C12.0135 1.52335 12.4368 1.65368 12.7188 1.76319C13.0921 1.90819 13.3583 2.08152 13.6381 2.36152C13.9181 2.64153 14.0915 2.9082 14.2368 3.28153C14.3463 3.5632 14.4768 3.98654 14.5123 4.76655C14.5507 5.60989 14.559 5.86323 14.559 7.99825C14.559 10.1333 14.5507 10.3866 14.5123 11.2299C14.4767 12.01 14.3463 12.4333 14.2368 12.715C14.0918 13.0883 13.9181 13.3541 13.6381 13.634C13.3581 13.914 13.0923 14.0873 12.7188 14.2323C12.4371 14.3423 12.0135 14.4723 11.2335 14.508C10.3901 14.5463 10.1368 14.5547 8.00075 14.5547C5.86456 14.5547 5.61139 14.5463 4.76805 14.508C3.98804 14.472 3.5647 14.3416 3.28253 14.2321C2.9092 14.0871 2.64253 13.9138 2.36252 13.6338C2.08252 13.3538 1.90919 13.0878 1.76385 12.7143C1.65435 12.4326 1.52385 12.0093 1.48835 11.2293C1.45002 10.3859 1.44235 10.1326 1.44235 7.99625C1.44235 5.85989 1.45002 5.60789 1.48835 4.76455C1.52402 3.98454 1.65435 3.5612 1.76385 3.2792C1.90885 2.90586 2.08252 2.63919 2.36252 2.35919C2.64253 2.07919 2.9092 1.90585 3.28253 1.76052C3.56454 1.65052 3.98804 1.52052 4.76805 1.48468C5.50606 1.45135 5.79206 1.44135 7.28308 1.43968V1.44168ZM12.2711 2.77003C11.7411 2.77003 11.3111 3.19953 11.3111 3.72971C11.3111 4.25971 11.7411 4.68972 12.2711 4.68972C12.8011 4.68972 13.2311 4.25971 13.2311 3.72971C13.2311 3.1997 12.8011 2.7697 12.2711 2.7697V2.77003ZM8.00075 3.89171C5.73189 3.89171 3.89237 5.73123 3.89237 8.00008C3.89237 10.2689 5.73189 12.1076 8.00075 12.1076C10.2696 12.1076 12.1085 10.2689 12.1085 8.00008C12.1085 5.73123 10.2694 3.89171 8.00058 3.89171H8.00075ZM8.00075 5.33339C9.47343 5.33339 10.6674 6.52723 10.6674 8.00008C10.6674 9.47276 9.47343 10.6668 8.00075 10.6668C6.5279 10.6668 5.33406 9.47276 5.33406 8.00008C5.33406 6.52723 6.5279 5.33339 8.00075 5.33339Z" fill="white"/>
</symbol>

<symbol id="twitter" viewBox="0 0 16 16">
<path id="twitter_2" d="M5.02601 15C11.0636 15 14.3673 9.99705 14.3673 5.66585C14.3673 5.5251 14.3673 5.38435 14.3609 5.2436C15.0012 4.78297 15.5582 4.20079 16 3.54183C15.411 3.80413 14.7771 3.97687 14.1112 4.06004C14.7899 3.65699 15.3085 3.01083 15.5582 2.24311C14.9244 2.62057 14.2201 2.88927 13.471 3.03642C12.8691 2.39665 12.0176 2 11.0764 2C9.26451 2 7.79192 3.47146 7.79192 5.28199C7.79192 5.53789 7.82393 5.7874 7.87515 6.03051C5.14766 5.89616 2.72749 4.58465 1.10764 2.60138C0.825931 3.0876 0.665866 3.65059 0.665866 4.25197C0.665866 5.39075 1.2485 6.39518 2.12565 6.98376C1.58784 6.96457 1.08203 6.81742 0.640256 6.57431C0.640256 6.58711 0.640256 6.5999 0.640256 6.61909C0.640256 8.20571 1.77351 9.53642 3.27171 9.83711C2.9964 9.91388 2.70828 9.95226 2.40736 9.95226C2.19608 9.95226 1.9912 9.93307 1.79272 9.89469C2.20888 11.1998 3.42537 12.1467 4.85954 12.1722C3.73269 13.0551 2.31773 13.5797 0.781113 13.5797C0.518608 13.5797 0.256102 13.5669 0 13.5349C1.44698 14.4562 3.17567 15 5.02601 15Z" fill="white"/>
</symbol>

<symbol id="facebook"  viewBox="0 0 16 16">
<g id="&#240;&#159;&#147;&#141;Icons/facebook">
<path id="facebook" d="M16 8.04872C16 3.60326 12.418 -0.000488281 7.99949 -0.000488281C3.58095 -0.000488281 -0.000976562 3.60326 -0.000976562 8.04872C-0.000976562 12.0663 2.92468 15.3963 6.74942 16.0001V10.3754H4.71805V8.04872H6.74942V6.27538C6.74942 4.25805 7.94383 3.14373 9.77132 3.14373C10.6466 3.14373 11.5622 3.30094 11.5622 3.30094V5.2818H10.5534C9.55951 5.2818 9.24957 5.90227 9.24957 6.53882V8.04872H11.4684L11.1137 10.3754H9.24957V16.0001C13.0743 15.3963 16 12.0663 16 8.04872Z" fill="white"/>
</g>
</symbol>


<symbol id="blue-white-check" viewBox="0 0 18 18">
  <svg width="18" height="18" viewBox="0 0 18 18" fill="none" xmlns="http://www.w3.org/2000/svg">
<g id="&#240;&#159;&#147;&#141;Icons/check-circle">
<g id="Vector">
<path d="M9 16.875C4.65076 16.875 1.125 13.3492 1.125 9C1.125 4.65076 4.65076 1.125 9 1.125C13.3492 1.125 16.875 4.65076 16.875 9C16.875 13.3492 13.3492 16.875 9 16.875ZM9 18C13.9706 18 18 13.9706 18 9C18 4.02944 13.9706 0 9 0C4.02944 0 0 4.02944 0 9C0 13.9706 4.02944 18 9 18Z" fill="#3A83F6"/>
<path d="M12.3409 5.59088C12.3329 5.59884 12.3254 5.60726 12.3185 5.61612L8.41207 10.5938L6.05686 8.23863C5.72736 7.90912 5.19312 7.90912 4.86362 8.23863C4.53411 8.56813 4.53411 9.10236 4.86362 9.43187L7.84087 12.4091C8.17038 12.7386 8.70461 12.7386 9.03411 12.4091C9.04145 12.4018 9.04838 12.394 9.05486 12.3859L13.5461 6.77191C13.8636 6.44154 13.8596 5.91634 13.5341 5.59088C13.2046 5.26137 12.6704 5.26137 12.3409 5.59088Z" fill="#3A83F6"/>
</g>
</g>
</svg>

</symbol>

<symbol id="logo-title" viewBox="0 0 188 62">
<path fill-rule="evenodd" clip-rule="evenodd" d="M66.7001 4.95008H73.5645V0H66.6957C63.9672 0 61.7451 2.22188 61.7451 4.95008V11.8802H66.6957V4.95453C66.6963 4.95381 66.697 4.95302 66.6978 4.9522C66.6986 4.95138 66.6994 4.95067 66.7001 4.95008Z" fill="white"/>
<path fill-rule="evenodd" clip-rule="evenodd" d="M175.535 0H182.404C185.133 0 187.355 2.22188 187.355 4.95008V11.8802H182.404V4.95453C182.403 4.95381 182.403 4.95302 182.402 4.9522C182.401 4.95138 182.4 4.95067 182.4 4.95008H175.535V0Z" fill="white"/>
<path fill-rule="evenodd" clip-rule="evenodd" d="M61.7451 57.0499V50.1816H66.6957V57.0454C66.6963 57.0461 66.697 57.0469 66.6978 57.0478C66.6986 57.0486 66.6994 57.0493 66.7001 57.0499H73.5645V62H66.6957C63.9672 62 61.7451 59.7781 61.7451 57.0499Z" fill="white"/>
<path fill-rule="evenodd" clip-rule="evenodd" d="M182.404 57.0454V50.1816H187.355V57.0499C187.355 59.7781 185.133 62 182.404 62H175.535V57.0499H182.4C182.4 57.0493 182.401 57.0486 182.402 57.0478C182.403 57.0469 182.403 57.0461 182.404 57.0454ZM182.404 57.0499C182.404 57.0501 182.404 57.0502 182.404 57.0502C182.404 57.0502 182.404 57.0503 182.404 57.0503C182.404 57.0503 182.404 57.0501 182.404 57.0499C182.404 57.0499 182.404 57.0499 182.404 57.0499C182.404 57.0499 182.404 57.0499 182.404 57.0499Z" fill="white"/>
<path d="M24.656 44.3468L24.6173 28.0917L16.6438 41.4828H13.8182L5.88338 28.44V44.3468H0V17.2549H5.18667L15.3278 34.0906L25.314 17.2549H30.462L30.5394 44.3468H24.656Z" fill="white"/>
<path d="M57.9466 39.3155V44.3468H36.9677V17.2549H57.4434V22.2862H43.1994V28.1691H55.7791V33.0456H43.1994V39.3155H57.9466Z" fill="white"/>
<path d="M82.9576 17.255C85.3574 17.255 87.4346 17.6549 89.1893 18.4547C90.9698 19.2546 92.3374 20.3899 93.2922 21.8606C94.2469 23.3313 94.7243 25.0729 94.7243 27.0855C94.7243 29.0722 94.2469 30.8138 93.2922 32.3103C92.3374 33.781 90.9698 34.9163 89.1893 35.7162C87.4346 36.4902 85.3574 36.8773 82.9576 36.8773H77.4999V44.3469H71.2295V17.255H82.9576ZM82.6092 31.7685C84.4929 31.7685 85.9251 31.3686 86.9056 30.5687C87.8862 29.7431 88.3765 28.582 88.3765 27.0855C88.3765 25.5632 87.8862 24.4021 86.9056 23.6022C85.9251 22.7766 84.4929 22.3637 82.6092 22.3637H77.4999V31.7685H82.6092Z" fill="white"/>
<path d="M115.684 38.5415H103.104L100.704 44.3469H94.2792L106.356 17.255H112.549L124.664 44.3469H118.084L115.684 38.5415ZM113.71 33.781L109.413 23.4087L105.117 33.781H113.71Z" fill="white"/>
<path d="M145.405 30.3752H151.134V41.3668C149.663 42.4763 147.96 43.3277 146.024 43.9212C144.089 44.5146 142.141 44.8113 140.18 44.8113C137.367 44.8113 134.838 44.2179 132.593 43.031C130.348 41.8183 128.581 40.1541 127.29 38.0383C126.026 35.8968 125.394 33.4843 125.394 30.8009C125.394 28.1175 126.026 25.718 127.29 23.6022C128.581 21.4607 130.361 19.7964 132.632 18.6096C134.903 17.3969 137.457 16.7905 140.296 16.7905C142.67 16.7905 144.824 17.1905 146.76 17.9903C148.695 18.7902 150.321 19.9513 151.637 21.4736L147.611 25.189C145.676 23.1507 143.341 22.1315 140.605 22.1315C138.877 22.1315 137.341 22.4927 135.999 23.2152C134.658 23.9376 133.612 24.9568 132.864 26.2727C132.116 27.5886 131.742 29.098 131.742 30.8009C131.742 32.4781 132.116 33.9746 132.864 35.2905C133.612 36.6063 134.645 37.6384 135.961 38.3867C137.302 39.1091 138.825 39.4704 140.528 39.4704C142.334 39.4704 143.96 39.0833 145.405 38.3093V30.3752Z" fill="white"/>
<path d="M177.937 39.3155V44.3469H156.958V17.255H177.434V22.2863H163.19V28.1691H175.77V33.0457H163.19V39.3155H177.937Z" fill="white"/>
</symbol>

<symbol id="footer-logo" viewBox="0 0 121 40">
  <!-- width="121" height="40" -->
<g id="title">
<path id="Vector (Stroke)" fill-rule="evenodd" clip-rule="evenodd" d="M43.0771 3.1936H47.5103V0H43.0742C41.3121 0 39.877 1.43347 39.877 3.1936V7.66464H43.0742V3.19647C43.0746 3.19601 43.075 3.19549 43.0756 3.19497C43.0761 3.19444 43.0766 3.19398 43.0771 3.1936Z" fill="#3A83F6"/>
<path id="Vector (Stroke)_2" fill-rule="evenodd" clip-rule="evenodd" d="M113.366 0H117.802C119.565 0 121 1.43347 121 3.1936V7.66464H117.802V3.19647C117.802 3.19601 117.802 3.19549 117.801 3.19497C117.8 3.19444 117.8 3.19398 117.799 3.1936H113.366V0Z" fill="#3A83F6"/>
<path id="Vector (Stroke)_3" fill-rule="evenodd" clip-rule="evenodd" d="M39.877 36.8066V32.3755H43.0742V36.8037C43.0746 36.8042 43.075 36.8047 43.0756 36.8052C43.0761 36.8058 43.0766 36.8062 43.0771 36.8066H47.5103V40.0002H43.0742C41.3121 40.0002 39.877 38.5667 39.877 36.8066Z" fill="#3A83F6"/>
<path id="Vector (Stroke)_4" fill-rule="evenodd" clip-rule="evenodd" d="M117.802 36.8037V32.3755H121V36.8066C121 38.5667 119.565 40.0002 117.802 40.0002H113.366V36.8066H117.799C117.8 36.8062 117.8 36.8058 117.801 36.8052C117.802 36.8047 117.802 36.8042 117.802 36.8037ZM117.802 36.8066C117.802 36.8067 117.802 36.8068 117.802 36.8068C117.802 36.8068 117.802 36.8068 117.802 36.8068C117.802 36.8068 117.802 36.8068 117.802 36.8066C117.803 36.8066 117.803 36.8066 117.803 36.8066C117.803 36.8066 117.803 36.8066 117.802 36.8066Z" fill="#3A83F6"/>
<g id="ME">
<path d="M15.9237 28.611L15.8987 18.1238L10.7491 26.7633H8.92426L3.79969 18.3485V28.611H0V11.1323H3.34972L9.89918 21.9941L16.3486 11.1323H19.6734L19.7234 28.611H15.9237Z" fill="white"/>
<path d="M37.4239 25.365V28.611H23.875V11.1323H37.0989V14.3784H27.8996V18.1737H36.024V21.3199H27.8996V25.365H37.4239Z" fill="white"/>
</g>
<g id="PAGE">
<path d="M53.5773 11.1322C55.1272 11.1322 56.4687 11.3902 57.602 11.9062C58.7519 12.4222 59.6351 13.1547 60.2518 14.1035C60.8684 15.0524 61.1767 16.176 61.1767 17.4744C61.1767 18.7562 60.8684 19.8798 60.2518 20.8453C59.6351 21.7941 58.7519 22.5266 57.602 23.0426C56.4687 23.542 55.1272 23.7917 53.5773 23.7917H50.0526V28.6108H46.0029V11.1322H53.5773ZM53.3523 20.4957C54.5689 20.4957 55.4938 20.2377 56.1271 19.7217C56.7604 19.189 57.077 18.4399 57.077 17.4744C57.077 16.4923 56.7604 15.7432 56.1271 15.2272C55.4938 14.6945 54.5689 14.4281 53.3523 14.4281H50.0526V20.4957H53.3523Z" fill="#3A83F6"/>
<path d="M74.7131 24.8654H66.5887L65.0389 28.6108H60.8892L68.6886 11.1322H72.6882L80.5126 28.6108H76.2629L74.7131 24.8654ZM73.4382 21.7941L70.6634 15.1023L67.8886 21.7941H73.4382Z" fill="#3A83F6"/>
<path d="M93.908 19.5968H97.6077V26.6882C96.6577 27.404 95.5578 27.9533 94.3079 28.3362C93.058 28.719 91.7998 28.9105 90.5332 28.9105C88.7167 28.9105 87.0835 28.5276 85.6336 27.7619C84.1838 26.9795 83.0422 25.9058 82.2089 24.5408C81.3923 23.1591 80.984 21.6027 80.984 19.8715C80.984 18.1403 81.3923 16.5922 82.2089 15.2272C83.0422 13.8455 84.1921 12.7718 85.6586 12.0061C87.1252 11.2237 88.775 10.8325 90.6082 10.8325C92.1414 10.8325 93.533 11.0905 94.7829 11.6066C96.0328 12.1226 97.0827 12.8717 97.9326 13.8538L95.3328 16.2509C94.0829 14.9358 92.5747 14.2783 90.8082 14.2783C89.6916 14.2783 88.7001 14.5114 87.8335 14.9775C86.9669 15.4436 86.2919 16.1011 85.8086 16.9501C85.3253 17.799 85.0837 18.7728 85.0837 19.8715C85.0837 20.9535 85.3253 21.919 85.8086 22.768C86.2919 23.6169 86.9585 24.2828 87.8085 24.7655C88.6751 25.2316 89.6583 25.4647 90.7582 25.4647C91.9248 25.4647 92.9747 25.215 93.908 24.7156V19.5968Z" fill="#3A83F6"/>
<path d="M114.918 25.3648V28.6108H101.369V11.1322H114.593V14.3782H105.394V18.1736H113.518V21.3197H105.394V25.3648H114.918Z" fill="#3A83F6"/>
</g>
</g>
</symbol>

<symbol id="mobil-white-title" viewBox="0 0 138 45">
<g id="title">
<path id="Vector (Stroke)" fill-rule="evenodd" clip-rule="evenodd" d="M49.3655 3.5928H54.3945V0H49.3622C47.3633 0 45.7354 1.61265 45.7354 3.5928V8.62272H49.3622V3.59603C49.3627 3.59551 49.3632 3.59493 49.3638 3.59434C49.3644 3.59374 49.365 3.59323 49.3655 3.5928Z" fill="white"/>
<path id="Vector (Stroke)_2" fill-rule="evenodd" clip-rule="evenodd" d="M129.101 0H134.133C136.132 0 137.76 1.61265 137.76 3.5928V8.62272H134.133V3.59603C134.132 3.59551 134.132 3.59493 134.131 3.59434C134.131 3.59374 134.13 3.59323 134.13 3.5928H129.101V0Z" fill="white"/>
<path id="Vector (Stroke)_3" fill-rule="evenodd" clip-rule="evenodd" d="M45.7354 41.4074V36.4224H49.3622V41.4041C49.3627 41.4047 49.3632 41.4052 49.3638 41.4058C49.3644 41.4064 49.365 41.4069 49.3655 41.4074H54.3945V45.0002H49.3622C47.3633 45.0002 45.7354 43.3875 45.7354 41.4074Z" fill="white"/>
<path id="Vector (Stroke)_4" fill-rule="evenodd" clip-rule="evenodd" d="M134.133 41.4041V36.4224H137.76V41.4074C137.76 43.3875 136.132 45.0002 134.133 45.0002H129.101V41.4074H134.13C134.13 41.4069 134.131 41.4064 134.131 41.4058C134.132 41.4052 134.132 41.4047 134.133 41.4041ZM134.133 41.4074C134.133 41.4075 134.133 41.4076 134.133 41.4076C134.133 41.4076 134.133 41.4076 134.133 41.4076C134.133 41.4076 134.133 41.4076 134.133 41.4074C134.133 41.4074 134.133 41.4074 134.133 41.4074C134.133 41.4074 134.133 41.4074 134.133 41.4074Z" fill="white"/>
<g id="ME">
<path d="M18.5635 32.1869L18.5351 20.3888L12.6936 30.1082H10.6235L4.81029 20.6417V32.1869H0.5V12.5234H4.29986L11.7294 24.7429L19.0456 12.5234H22.8171L22.8738 32.1869H18.5635Z" fill="white"/>
<path d="M42.9529 28.5352V32.1869H27.5833V12.5234H42.5842V16.1752H32.1488V20.445H41.3649V23.9845H32.1488V28.5352H42.9529Z" fill="white"/>
</g>
<g id="PAGE">
<path d="M61.2768 12.5236C63.0349 12.5236 64.5568 12.8139 65.8423 13.3944C67.1467 13.975 68.1487 14.799 68.8482 15.8664C69.5476 16.9339 69.8974 18.1979 69.8974 19.6587C69.8974 21.1006 69.5476 22.3647 68.8482 23.4509C68.1487 24.5184 67.1467 25.3423 65.8423 25.9229C64.5568 26.4847 63.0349 26.7656 61.2768 26.7656H57.2784V32.1871H52.6846V12.5236H61.2768ZM61.0216 23.0576C62.4016 23.0576 63.4508 22.7674 64.1692 22.1868C64.8876 21.5876 65.2468 20.7448 65.2468 19.6587C65.2468 18.5538 64.8876 17.711 64.1692 17.1305C63.4508 16.5312 62.4016 16.2316 61.0216 16.2316H57.2784V23.0576H61.0216Z" fill="white"/>
<path d="M85.2528 27.9735H76.0367L74.2785 32.1871H69.5713L78.4187 12.5236H82.9558L91.8316 32.1871H87.0109L85.2528 27.9735ZM83.8065 24.5184L80.6589 16.99L77.5113 24.5184H83.8065Z" fill="white"/>
<path d="M107.027 22.0464H111.224V30.0241C110.146 30.8294 108.899 31.4474 107.481 31.8781C106.063 32.3088 104.636 32.5242 103.199 32.5242C101.138 32.5242 99.2856 32.0935 97.6409 31.232C95.9961 30.3519 94.7012 29.144 93.7559 27.6083C92.8296 26.054 92.3664 24.303 92.3664 22.3554C92.3664 20.4077 92.8296 18.6661 93.7559 17.1305C94.7012 15.5761 96.0056 14.3682 97.6692 13.5068C99.3328 12.6266 101.204 12.1865 103.284 12.1865C105.023 12.1865 106.602 12.4768 108.02 13.0573C109.437 13.6379 110.628 14.4806 111.593 15.5855L108.643 18.2822C107.226 16.8028 105.515 16.063 103.511 16.063C102.244 16.063 101.119 16.3252 100.136 16.8496C99.1532 17.3739 98.3876 18.1137 97.8394 19.0688C97.2911 20.0238 97.017 21.1194 97.017 22.3554C97.017 23.5726 97.2911 24.6588 97.8394 25.6139C98.3876 26.569 99.1438 27.3181 100.108 27.8611C101.091 28.3855 102.206 28.6477 103.454 28.6477C104.777 28.6477 105.968 28.3668 107.027 27.805V22.0464Z" fill="white"/>
<path d="M130.861 28.5353V32.1871H115.491V12.5236H130.492V16.1754H120.057V20.4452H129.273V23.9846H120.057V28.5353H130.861Z" fill="white"/>
</g>
</g>
</symbol>

</svg>